<svg width="24" height="24" viewBox="0 0 24 24" fill="none" xmlns="http://www.w3.org/2000/svg">
<path fill-rule="evenodd" clip-rule="evenodd" d="M16.9871 16.169C17.9315 15.0405 18.5 13.5866 18.5 12C18.5 8.41015 15.5899 5.5 12 5.5C8.41015 5.5 5.5 8.41015 5.5 12C5.5 13.5866 6.06849 15.0405 7.0129 16.169C7.31377 14.8397 8.48429 13.75 10.0311 13.75H13.9689C15.5157 13.75 16.6862 14.8397 16.9871 16.169ZM15.3931 17.5452C15.9144 16.501 15.1577 15.25 13.9689 15.25H10.0311C8.84235 15.25 8.0856 16.501 8.60694 17.5452C9.59461 18.1508 10.7565 18.5 12 18.5C13.2435 18.5 14.4054 18.1508 15.3931 17.5452ZM12 20C16.4183 20 20 16.4183 20 12C20 7.58172 16.4183 4 12 4C7.58172 4 4 7.58172 4 12C4 16.4183 7.58172 20 12 20ZM12 11.5C12.8284 11.5 13.5 10.8284 13.5 10C13.5 9.17157 12.8284 8.5 12 8.5C11.1716 8.5 10.5 9.17157 10.5 10C10.5 10.8284 11.1716 11.5 12 11.5ZM12 13C13.6569 13 15 11.6569 15 10C15 8.34315 13.6569 7 12 7C10.3431 7 9 8.34315 9 10C9 11.6569 10.3431 13 12 13Z" fill="#44403C"/>
</svg>

