<svg viewBox="0 0 24 24" fill="none" xmlns="http://www.w3.org/2000/svg">
<rect width="24" height="24" rx="12" fill="#EFF6FF"/>
<path d="M12 22C17.4706 22 22 17.4608 22 12C22 6.52941 17.4608 2 11.9902 2C6.52941 2 2 6.52941 2 12C2 17.4608 6.53922 22 12 22ZM12 6.85294C12.451 6.85294 12.7647 7.16667 12.7647 7.61765V12.6471L12.6765 14.8039L13.7059 13.5784L14.8922 12.3726C15.0294 12.2157 15.2157 12.1471 15.4314 12.1471C15.8529 12.1471 16.1765 12.4608 16.1765 12.8824C16.1765 13.098 16.098 13.2745 15.9608 13.4118L12.598 16.7647C12.402 16.9608 12.2255 17.0588 12 17.0588C11.7843 17.0588 11.6176 16.9706 11.4118 16.7647L8.03922 13.4118C7.90196 13.2745 7.84314 13.098 7.84314 12.8824C7.84314 12.4608 8.15686 12.1471 8.57843 12.1471C8.78431 12.1471 8.98039 12.2255 9.11765 12.3726L10.3137 13.5784L11.3235 14.7941L11.2353 12.6471V7.61765C11.2353 7.16667 11.5588 6.85294 12 6.85294Z" fill="#3B82F6"/>
</svg>

