<svg viewBox="0 0 24 24" fill="none" xmlns="http://www.w3.org/2000/svg">
<g clip-path="url(#clip0_1229_39984)">
<path fill-rule="evenodd" clip-rule="evenodd" d="M9 4C9.55228 4 10 4.44772 10 5V6H14V5C14 4.44772 14.4477 4 15 4C15.5523 4 16 4.44772 16 5V6C18.2091 6 20 7.79086 20 10V11C20 11.5523 19.5523 12 19 12C18.4477 12 18 11.5523 18 11V10C18 8.89543 17.1046 8 16 8C16 8.55228 15.5523 9 15 9C14.4477 9 14 8.55228 14 8H10C10 8.55228 9.55228 9 9 9C8.44772 9 8 8.55228 8 8C6.89543 8 6 8.89543 6 10V16C6 17.1046 6.89543 18 8 18H12C12.5523 18 13 18.4477 13 19C13 19.5523 12.5523 20 12 20H8C5.79086 20 4 18.2091 4 16V10C4 7.79086 5.79086 6 8 6V5C8 4.44772 8.44772 4 9 4ZM7.5 11C7.5 10.4477 7.94772 10 8.5 10H15.5C16.0523 10 16.5 10.4477 16.5 11C16.5 11.5523 16.0523 12 15.5 12H8.5C7.94772 12 7.5 11.5523 7.5 11ZM17.5 14.5C18.0523 14.5 18.5 14.9477 18.5 15.5V16.5H19.5C20.0523 16.5 20.5 16.9477 20.5 17.5C20.5 18.0523 20.0523 18.5 19.5 18.5H18.5V19.5C18.5 20.0523 18.0523 20.5 17.5 20.5C16.9477 20.5 16.5 20.0523 16.5 19.5V18.5H15.5C14.9477 18.5 14.5 18.0523 14.5 17.5C14.5 16.9477 14.9477 16.5 15.5 16.5H16.5V15.5C16.5 14.9477 16.9477 14.5 17.5 14.5Z" fill="#44403C"/>
</g>
<defs>
<clipPath id="clip0_1229_39984">
<rect width="24" height="24" fill="white"/>
</clipPath>
</defs>
</svg>

