<svg viewBox="0 0 24 24" fill="none" xmlns="http://www.w3.org/2000/svg">
<rect width="24" height="24" rx="12" fill="#FEF2F2"/>
<path fill-rule="evenodd" clip-rule="evenodd" d="M12 22C17.5228 22 22 17.5228 22 12C22 6.47715 17.5228 2 12 2C6.47715 2 2 6.47715 2 12C2 17.5228 6.47715 22 12 22ZM12 9C12 9.55228 11.5523 10 11 10C10.4477 10 9.99998 9.55228 9.99998 9C9.99998 8.44772 10.4477 8 11 8C11.5523 8 12 8.44772 12 9ZM13.5 9C13.5 10.3807 12.3807 11.5 11 11.5C9.61927 11.5 8.49998 10.3807 8.49998 9C8.49998 7.61929 9.61927 6.5 11 6.5C12.3807 6.5 13.5 7.61929 13.5 9ZM8.16143 15.1587C7.98981 14.3006 8.64616 13.5 9.52127 13.5H12.4787C13.3538 13.5 14.0102 14.3006 13.8385 15.1587C13.7988 15.3572 13.6246 15.5 13.4223 15.5H8.5777C8.37535 15.5 8.20112 15.3572 8.16143 15.1587ZM6.69056 15.4529C6.3333 13.6666 7.69959 12 9.52127 12H12.4787C14.3004 12 15.6667 13.6666 15.3094 15.4529C15.1295 16.3525 14.3396 17 13.4223 17H8.5777C7.66032 17 6.87048 16.3525 6.69056 15.4529ZM14.4696 8.46967C14.7625 8.1678 15.2374 8.17678 15.5303 8.46967L16 8.93934L16.4697 8.46967C16.7625 8.17678 17.2374 8.17678 17.5303 8.46967C17.8232 8.76256 17.8232 9.23744 17.5303 9.53033L17.0606 10L17.5303 10.4697C17.8232 10.7626 17.8232 11.2374 17.5303 11.5303C17.2374 11.8232 16.7625 11.8232 16.4697 11.5303L16 11.0607L15.5303 11.5303C15.2374 11.8232 14.7625 11.8232 14.4696 11.5303C14.1768 11.2374 14.1768 10.7626 14.4696 10.4697L14.9393 10L14.4696 9.53033C14.1768 9.23744 14.1768 8.76256 14.4696 8.46967Z" fill="#EF4444"/>
</svg>
