<svg version="1.1" viewBox="0 0 43.1 41.05" xmlns="http://www.w3.org/2000/svg">
 <path d="m0 41.05 9.3-26 16.85 16.65zm23.85-18.25-1.7-1.7 12-12q1.6-1.6 4.05-1.625t4.05 1.575l0.85 0.85-1.7 1.7-0.95-0.95q-0.95-0.95-2.2-0.975t-2.25 0.975zm-7.95-7.75-1.7-1.7 1.5-1.5q1.15-1.15 1.075-2.625t-1.075-2.475l-1.4-1.4 1.7-1.7 1.3 1.3q1.75 1.75 1.725 4.375t-1.775 4.375zm4.05 3.85-1.7-1.7 7.6-7.6q0.95-0.95 0.925-2.425t-0.975-2.425l-3.05-3.05 1.7-1.7 3.15 3.15q1.55 1.6 1.6 4.025t-1.55 4.025zm7.9 7.95-1.7-1.7 2.35-2.35q1.75-1.75 4.2-1.8t4.2 1.7l2.55 2.55-1.7 1.7-2.6-2.6q-1.15-1.15-2.4-1.15t-2.4 1.15z"/>
</svg>
