<svg xmlns="http://www.w3.org/2000/svg" width="24" height="24" viewBox="0 0 24 24" fill="none">
<path fill-rule="evenodd" clip-rule="evenodd" d="M8.26694 5.45489C8.9102 5.40353 9.52087 5.15051 10.012 4.73187C10.5666 4.25946 11.2714 4 12 4C12.7286 4 13.4334 4.25946 13.988 4.73187C14.4791 5.15051 15.0898 5.40353 15.7331 5.45489C16.4595 5.51294 17.1415 5.82785 17.6568 6.34317C18.1721 6.85848 18.4871 7.54049 18.5451 8.26694C18.5961 8.90995 18.8491 9.52096 19.2681 10.012C19.7405 10.5666 20 11.2714 20 12C20 12.7286 19.7405 13.4334 19.2681 13.988C18.8495 14.4791 18.5965 15.0898 18.5451 15.7331C18.4871 16.4595 18.1721 17.1415 17.6568 17.6568C17.1415 18.1721 16.4595 18.4871 15.7331 18.5451C15.0898 18.5965 14.4791 18.8495 13.988 19.2681C13.4334 19.7405 12.7286 20 12 20C11.2714 20 10.5666 19.7405 10.012 19.2681C9.52087 18.8495 8.9102 18.5965 8.26694 18.5451C7.54049 18.4871 6.85848 18.1721 6.34317 17.6568C5.82785 17.1415 5.51294 16.4595 5.45489 15.7331C5.40353 15.0898 5.15051 14.4791 4.73187 13.988C4.25946 13.4334 4 12.7286 4 12C4 11.2714 4.25946 10.5666 4.73187 10.012C5.15051 9.52087 5.40353 8.9102 5.45489 8.26694C5.51294 7.54049 5.82785 6.85848 6.34317 6.34317C6.85848 5.82785 7.54049 5.51294 8.26694 5.45489V5.45489ZM15.7071 10.707C15.8892 10.5184 15.99 10.2658 15.9877 10.0036C15.9855 9.74136 15.8803 9.49055 15.6949 9.30513C15.5095 9.11972 15.2587 9.01455 14.9965 9.01227C14.7343 9.01 14.4816 9.11079 14.293 9.29295L11 12.586L9.70696 11.293C9.51835 11.1108 9.26575 11.01 9.00355 11.0123C8.74134 11.0146 8.49053 11.1198 8.30512 11.3052C8.11971 11.4906 8.01453 11.7414 8.01226 12.0036C8.00998 12.2658 8.11077 12.5184 8.29294 12.707L10.293 14.707C10.4805 14.8945 10.7348 14.9998 11 14.9998C11.2652 14.9998 11.5195 14.8945 11.707 14.707L15.7071 10.707V10.707Z" fill="white"/>
</svg>