<svg viewBox="0 0 25 25" fill="none" xmlns="http://www.w3.org/2000/svg">
<path d="M12.5 0C19.4043 0 25 5.5957 25 12.5C25 19.4043 19.4043 25 12.5 25C5.5957 25 0 19.4043 0 12.5C0 5.5957 5.5957 0 12.5 0Z" fill="#0052FF"/>
<path d="M12.5024 16.8945C10.0757 16.8945 8.10791 14.9292 8.10791 12.5C8.10791 10.0708 10.0757 8.10547 12.5024 8.10547C14.6777 8.10547 16.4844 9.69238 16.8311 11.7676H21.2573C20.8838 7.25586 17.1069 3.71094 12.5 3.71094C7.64648 3.71094 3.71094 7.64648 3.71094 12.5C3.71094 17.3535 7.64648 21.2891 12.5 21.2891C17.1069 21.2891 20.8838 17.7441 21.2573 13.2324H16.8286C16.4795 15.3076 14.6777 16.8945 12.5024 16.8945Z" fill="white"/>
</svg>
