<svg viewBox="0 0 25 24" fill="none" xmlns="http://www.w3.org/2000/svg">
<path fill-rule="evenodd" clip-rule="evenodd" d="M15.2514 6.81591C15.2503 6.81753 15.2492 6.81935 15.2482 6.82139C14.9855 7.34358 14.4509 7.67309 13.8663 7.67309H11.1336C10.5491 7.67309 10.0144 7.34358 9.75174 6.82139C9.75072 6.81935 9.74964 6.81753 9.74855 6.81591C7.90667 7.16506 6.73176 8.49453 6.03235 10.2318C5.32536 11.9878 5.15671 14.0555 5.29358 15.5774C5.31094 15.7704 5.38066 15.9064 5.46709 15.9881C5.97709 16.4703 6.96312 17.1072 8.31903 17.2292C8.34178 17.2313 8.40461 17.2207 8.45917 17.1394L8.61891 16.9012L8.16134 16.6692C7.7919 16.4819 7.64372 16.0303 7.83103 15.6609C8.01834 15.2914 8.46969 15.1438 8.83913 15.3311L10.0051 15.9223C10.9412 16.2378 11.4967 16.3269 12.5 16.3269C13.5032 16.3269 14.0587 16.2378 14.9948 15.9223L16.1603 15.3314C16.5297 15.144 16.9816 15.2914 17.1689 15.6609C17.3562 16.0303 17.2086 16.4816 16.8391 16.669L16.381 16.9012L16.5407 17.1394C16.5953 17.2207 16.6581 17.2313 16.6809 17.2292C18.0368 17.1072 19.0228 16.4703 19.5328 15.9881C19.6193 15.9064 19.689 15.7704 19.7063 15.5774C19.8432 14.0555 19.6746 11.9878 18.9676 10.2318C18.2682 8.49453 17.0933 7.16506 15.2514 6.81591ZM14.9771 17.5009L15.295 17.9749C15.6119 18.4473 16.174 18.7809 16.8153 18.7232C18.5706 18.5653 19.8595 17.7436 20.5634 17.0781C20.9675 16.696 21.1572 16.1911 21.2003 15.7117C21.3536 14.0068 21.1727 11.6926 20.359 9.67156C19.5412 7.64008 18.0324 5.80172 15.4956 5.3356C14.8076 5.20919 14.1866 5.5939 13.9082 6.14728C13.9002 6.1631 13.884 6.17309 13.8663 6.17309H11.1336C11.1159 6.17309 11.0997 6.1631 11.0917 6.14727C10.8133 5.59389 10.1923 5.20919 9.50429 5.3356C6.96755 5.80172 5.45875 7.64008 4.64089 9.67156C3.82723 11.6926 3.64628 14.0068 3.79961 15.7117C3.84273 16.1911 4.03241 16.696 4.43657 17.0781C5.14043 17.7436 6.42933 18.5653 8.18462 18.7232C8.82589 18.7809 9.38805 18.4473 9.70489 17.9749L10.0228 17.5009C10.8573 17.7453 11.5197 17.8269 12.5 17.8269C13.4802 17.8269 14.1426 17.7453 14.9771 17.5009ZM15 12.5C15.2761 12.5 15.5 12.2761 15.5 12C15.5 11.7239 15.2761 11.5 15 11.5C14.7238 11.5 14.5 11.7239 14.5 12C14.5 12.2761 14.7238 12.5 15 12.5ZM15 14C16.1045 14 17 13.1046 17 12C17 10.8954 16.1045 10 15 10C13.8954 10 13 10.8954 13 12C13 13.1046 13.8954 14 15 14ZM10.5 12C10.5 12.2761 10.2761 12.5 9.99997 12.5C9.72383 12.5 9.49997 12.2761 9.49997 12C9.49997 11.7239 9.72383 11.5 9.99997 11.5C10.2761 11.5 10.5 11.7239 10.5 12ZM12 12C12 13.1046 11.1045 14 9.99997 14C8.8954 14 7.99997 13.1046 7.99997 12C7.99997 10.8954 8.8954 10 9.99997 10C11.1045 10 12 10.8954 12 12Z" fill="#44403C"/>
</svg>
