<svg viewBox="0 0 20 20" fill="none" xmlns="http://www.w3.org/2000/svg">
<circle cx="10" cy="10" r="7" fill="#E7E5E4"/>
<path d="M9.63779 15H10.378L10.3819 14.1211C12.0472 14 13 13.0547 13 11.7891C13 10.3477 11.7047 9.78906 10.6811 9.53906L10.3937 9.46484L10.4016 6.95703C11.1378 7.05469 11.6417 7.46094 11.7165 8.10156H12.8898C12.8583 6.91016 11.8661 6.01953 10.4055 5.90234L10.4094 5H9.66929L9.66535 5.91016C8.25197 6.05078 7.21654 6.92578 7.21654 8.1875C7.21654 9.30078 8.01968 9.95313 9.31496 10.3008L9.65354 10.3906L9.64567 13.0508C8.87795 12.957 8.28346 12.543 8.22047 11.7891H7C7.0748 13.1367 8.05512 14.0039 9.64173 14.1211L9.63779 15ZM10.3858 13.0508L10.3937 10.5938C11.1929 10.8125 11.7953 11.1016 11.7953 11.7773C11.7953 12.4609 11.2205 12.9414 10.3858 13.0508ZM9.65748 9.26953C9.07087 9.09766 8.4252 8.78906 8.42913 8.11719C8.42913 7.53125 8.89764 7.07422 9.66142 6.96094L9.65748 9.26953Z" fill="#57534E"/>
</svg>

