<svg viewBox="0 0 24 24" fill="none" xmlns="http://www.w3.org/2000/svg">
<path fill-rule="evenodd" clip-rule="evenodd" d="M5 7H19C20.1046 7 21 7.89543 21 9V15C21 16.1046 20.1046 17 19 17H5C3.89543 17 3 16.1046 3 15V9C3 7.89543 3.89543 7 5 7ZM2 9C2 7.34315 3.34315 6 5 6H19C20.6569 6 22 7.34315 22 9V15C22 16.6569 20.6569 18 19 18H5C3.34315 18 2 16.6569 2 15V9ZM18.9236 10.5444H18.1105C18.0505 10.0287 17.5948 9.72853 16.9536 9.72853C16.266 9.72853 15.8321 10.0805 15.8321 10.5553C15.8294 11.0901 16.4106 11.2947 16.8471 11.4066L17.3929 11.5485C18.1023 11.7231 19 12.1133 19 13.1202C19 14.067 18.2442 14.7573 16.9317 14.7573C15.6793 14.7573 14.8962 14.1325 14.8416 13.1202H15.6875C15.7366 13.7286 16.2769 14.0179 16.9263 14.0179C17.6439 14.0179 18.1651 13.6577 18.1651 13.112C18.1651 12.6154 17.7039 12.4189 17.1064 12.2607L16.446 12.0806C15.5483 11.8377 14.9917 11.3821 14.9917 10.6044C14.9917 9.64122 15.8512 9 16.9727 9C18.1078 9 18.899 9.6494 18.9236 10.5444ZM5 14.6645H8.53625V13.9387H5.84313V12.2279H8.32069V11.5048H5.84313V9.8022H8.50351V9.0764H5V14.6645ZM13.9864 9.0764H13.1515V13.1802H13.0996L10.2564 9.0764H9.47606V14.6645H10.3192V10.5662H10.371L13.2115 14.6645H13.9864V9.0764Z" fill="#44403C"/>
</svg>

