<svg width="24" height="24" viewBox="0 0 24 24" fill="none" xmlns="http://www.w3.org/2000/svg">
<path d="M4 14.4911C4 14.8067 4.25584 15.0625 4.57143 15.0625H7.62668C7.85574 15.0625 8.04143 14.8768 8.04143 14.6478C8.04143 14.4187 7.85574 14.233 7.62668 14.233H4.96358V12.2778H7.38189C7.61009 12.2778 7.79508 12.0928 7.79508 11.8646C7.79508 11.6364 7.61009 11.4514 7.38189 11.4514H4.96358V9.50557H7.58926C7.81832 9.50557 8.00401 9.31988 8.00401 9.09082C8.00401 8.86176 7.81832 8.67608 7.58926 8.67608H4.57143C4.25584 8.67608 4 8.93191 4 9.2475V14.4911Z" fill="black"/>
<path d="M14.2702 9.15319C14.2702 8.88969 14.0566 8.67608 13.7931 8.67608C13.5296 8.67608 13.316 8.88969 13.316 9.15319V13.3661H13.2567L10.1778 8.92208C10.071 8.768 9.89552 8.67608 9.70808 8.67608H9.68692C9.37133 8.67608 9.11549 8.93191 9.11549 9.2475V14.5807C9.11549 14.8468 9.3312 15.0625 9.59728 15.0625C9.86337 15.0625 10.0791 14.8468 10.0791 14.5807V10.3787H10.1383L13.2141 14.8166C13.3209 14.9706 13.4964 15.0625 13.6838 15.0625H13.6988C14.0143 15.0625 14.2702 14.8067 14.2702 14.4911V9.15319Z" fill="black"/>
<path d="M18.8445 9.9491C18.975 10.1575 19.1689 10.3538 19.4147 10.3538C19.6875 10.3538 19.914 10.1235 19.8269 9.86502C19.5702 9.10288 18.7627 8.58876 17.683 8.58876C16.4014 8.58876 15.4191 9.32158 15.4191 10.4224C15.4191 11.3111 16.0552 11.8319 17.0812 12.1094L17.8358 12.3152C18.5188 12.4961 19.0458 12.7206 19.0458 13.2882C19.0458 13.9118 18.4502 14.3235 17.63 14.3235C17.0618 14.3235 16.5667 14.1297 16.3406 13.7268C16.216 13.5047 16.0181 13.2975 15.7634 13.2975C15.4831 13.2975 15.253 13.5368 15.3361 13.8044C15.6015 14.6594 16.4277 15.1686 17.6363 15.1686C19.1362 15.1686 20 14.3796 20 13.2975C20 12.1468 18.9741 11.7009 18.1633 11.5013L17.5396 11.3392C17.0407 11.2113 16.3764 10.9774 16.3796 10.3662C16.3796 9.82364 16.8754 9.42137 17.6612 9.42137C18.2053 9.42137 18.6325 9.61047 18.8445 9.9491Z" fill="black"/>
<path fill-rule="evenodd" clip-rule="evenodd" d="M5 5.5H19C21.4853 5.5 23.5 7.51472 23.5 10V14C23.5 16.4853 21.4853 18.5 19 18.5H5C2.51472 18.5 0.5 16.4853 0.5 14V10C0.5 7.51472 2.51472 5.5 5 5.5ZM5 7C3.34315 7 2 8.34315 2 10V14C2 15.6569 3.34315 17 5 17H19C20.6569 17 22 15.6569 22 14V10C22 8.34315 20.6569 7 19 7H5Z" fill="black"/>
<path d="M17.0286 12.3024C16.4986 12.159 16.0475 11.9474 15.7268 11.6393C15.4001 11.3254 15.2191 10.9209 15.2191 10.4224C15.2191 9.16987 16.3373 8.38876 17.683 8.38876C18.8217 8.38876 19.7247 8.93483 20.0164 9.80119C20.0852 10.0053 20.0277 10.2013 19.9053 10.3391C19.786 10.4734 19.606 10.5538 19.4147 10.5538C19.0582 10.5538 18.8124 10.2747 18.675 10.0552C18.5125 9.79567 18.1649 9.62137 17.6612 9.62137C17.3006 9.62137 17.0259 9.71379 16.8465 9.84972C16.6706 9.983 16.5795 10.1619 16.5795 10.3662V10.3673C16.5784 10.5844 16.6899 10.7403 16.8816 10.8672C17.0799 10.9983 17.3428 11.0823 17.5892 11.1454L18.2123 11.3074C18.6278 11.4098 19.1187 11.5796 19.509 11.8853C19.9076 12.1975 20.2 12.6517 20.2 13.2975C20.2 13.8959 19.9592 14.4211 19.5078 14.7932C19.0597 15.1624 18.4198 15.3686 17.6363 15.3686C16.3735 15.3686 15.4451 14.8305 15.145 13.8637C15.0808 13.6568 15.1398 13.4587 15.2634 13.3184C15.3845 13.1809 15.5673 13.0975 15.7634 13.0975C16.1324 13.0975 16.382 13.3918 16.515 13.6289C16.6903 13.9414 17.096 14.1235 17.63 14.1235C18.009 14.1235 18.3191 14.0281 18.5286 13.8773C18.7339 13.7297 18.8458 13.5285 18.8458 13.2882C18.8458 13.0822 18.7571 12.9411 18.5834 12.8214C18.3974 12.6931 18.1249 12.5987 17.7846 12.5086L17.7832 12.5082L17.0286 12.3024Z" fill="black"/>
<path d="M7.62667 15.2625H4.57142C4.14537 15.2625 3.79999 14.9171 3.79999 14.4911V9.2475C3.79999 8.82145 4.14537 8.47607 4.57142 8.47607H7.58925C7.92876 8.47607 8.204 8.75131 8.204 9.09082C8.204 9.43033 7.92877 9.70557 7.58925 9.70557H5.16357V11.2514H7.38188C7.72053 11.2514 7.99506 11.526 7.99506 11.8646C7.99506 12.2033 7.72053 12.4778 7.38188 12.4778H5.16357V14.033H7.62667C7.96619 14.033 8.24142 14.3083 8.24142 14.6478C8.24142 14.9873 7.96619 15.2625 7.62667 15.2625Z" fill="black"/>
<path d="M13.1159 12.8118V9.15319C13.1159 8.77923 13.4191 8.47607 13.7931 8.47607C14.167 8.47607 14.4702 8.77923 14.4702 9.15319V14.4911C14.4702 14.9171 14.1248 15.2625 13.6987 15.2625H13.6838C13.4308 15.2625 13.1938 15.1385 13.0497 14.9305L10.2791 10.9329V14.5807C10.2791 14.9573 9.97381 15.2625 9.59727 15.2625C9.22073 15.2625 8.91548 14.9573 8.91548 14.5807V9.2475C8.91548 8.82145 9.26086 8.47607 9.68691 8.47607H9.70806C9.96111 8.47607 10.1981 8.60018 10.3422 8.80818L13.1159 12.8118Z" fill="black"/>
</svg>

