<svg width="24" height="24" viewBox="0 0 24 24" fill="none" xmlns="http://www.w3.org/2000/svg">
<path d="M0 12C0 5.37258 5.37258 0 12 0C18.6274 0 24 5.37258 24 12C24 18.6274 18.6274 24 12 24C5.37258 24 0 18.6274 0 12Z" fill="#FAFAF9"/>
<path fill-rule="evenodd" clip-rule="evenodd" d="M6.5 9.5C6.5 7.84315 7.84315 6.5 9.5 6.5H10.5C11.0523 6.5 11.5 6.94772 11.5 7.5C11.5 8.05228 11.0523 8.5 10.5 8.5H9.5C8.94772 8.5 8.5 8.94772 8.5 9.5V14.5C8.5 15.0523 8.94772 15.5 9.5 15.5H14.5C15.0523 15.5 15.5 15.0523 15.5 14.5V13.5C15.5 12.9477 15.9477 12.5 16.5 12.5C17.0523 12.5 17.5 12.9477 17.5 13.5V14.5C17.5 16.1569 16.1569 17.5 14.5 17.5H9.5C7.84315 17.5 6.5 16.1569 6.5 14.5V9.5ZM12.5 7.5C12.5 6.94772 12.9477 6.5 13.5 6.5H16.5C17.0523 6.5 17.5 6.94772 17.5 7.5V10.5C17.5 11.0523 17.0523 11.5 16.5 11.5C15.9477 11.5 15.5 11.0523 15.5 10.5V9.91421L11.9142 13.5C11.5237 13.8905 10.8905 13.8905 10.5 13.5C10.1095 13.1095 10.1095 12.4763 10.5 12.0858L14.0858 8.5H13.5C12.9477 8.5 12.5 8.05228 12.5 7.5Z" fill="#A8A29E"/>
</svg>

