<svg viewBox="0 0 24 24" fill="none" xmlns="http://www.w3.org/2000/svg">
<path fill-rule="evenodd" clip-rule="evenodd" d="M5.24993 10C5.24993 8.48122 6.48114 7.25 7.99993 7.25L10.9999 7.25C11.4141 7.25 11.7499 7.58579 11.7499 8C11.7499 8.41421 11.4141 8.75 10.9999 8.75L7.99993 8.75C7.30957 8.75 6.74993 9.30964 6.74993 10L6.74993 15C6.74993 15.6904 7.30957 16.25 7.99993 16.25L12.9999 16.25C13.6903 16.25 14.2499 15.6904 14.2499 15L14.2499 12C14.2499 11.5858 14.5857 11.25 14.9999 11.25C15.4141 11.25 15.7499 11.5858 15.7499 12L15.7499 15C15.7499 16.5188 14.5187 17.75 12.9999 17.75L7.99993 17.75C6.48114 17.75 5.24993 16.5188 5.24993 15V10ZM12.2499 6.46445C12.2499 6.05024 12.5857 5.71445 12.9999 5.71445L16.5355 5.71445C16.7344 5.71445 16.9251 5.79347 17.0658 5.93412C17.2065 6.07477 17.2855 6.26554 17.2855 6.46445L17.2855 10C17.2855 10.4142 16.9497 10.75 16.5355 10.75C16.1213 10.75 15.7855 10.4142 15.7855 10V8.27511L10.5303 13.5303C10.2374 13.8232 9.76248 13.8232 9.46959 13.5303C9.1767 13.2374 9.1767 12.7626 9.46959 12.4697L14.7248 7.21445L12.9999 7.21445C12.5857 7.21445 12.2499 6.87867 12.2499 6.46445Z" fill="#A8A29E"/>
</svg>
