<svg class="external-inline" viewBox="0 0 24 24" fill="none" xmlns="http://www.w3.org/2000/svg">
<path d="M7.93414 15.0052C7.64125 15.2981 7.64125 15.773 7.93414 16.0658C8.22704 16.3587 8.70191 16.3587 8.9948 16.0658L7.93414 15.0052ZM15.5355 8.46445L16.2855 8.46445C16.2855 8.05024 15.9498 7.71445 15.5355 7.71445L15.5355 8.46445ZM9.87869 7.71445C9.46447 7.71445 9.12869 8.05024 9.12869 8.46445C9.12869 8.87867 9.46447 9.21445 9.87869 9.21445L9.87869 7.71445ZM14.7855 14.1213C14.7855 14.5355 15.1213 14.8713 15.5355 14.8713C15.9498 14.8713 16.2855 14.5355 16.2855 14.1213L14.7855 14.1213ZM8.9948 16.0658L16.0659 8.99478L15.0052 7.93412L7.93414 15.0052L8.9948 16.0658ZM15.5355 7.71445L9.87869 7.71445L9.87869 9.21445L15.5355 9.21445L15.5355 7.71445ZM14.7855 8.46445L14.7855 14.1213L16.2855 14.1213V8.46445L14.7855 8.46445Z" fill="#44403C"/>
</svg>

