<svg viewBox="0 0 25 24" fill="none" xmlns="http://www.w3.org/2000/svg">
<path fill-rule="evenodd" clip-rule="evenodd" d="M16.47 6.03033C15.6583 5.21865 14.3423 5.21865 13.5306 6.03033L9.53063 10.0303C8.71896 10.842 8.71896 12.158 9.53063 12.9697C10.3423 13.7813 11.6583 13.7813 12.47 12.9697L13.47 11.9697C13.7629 11.6768 14.2377 11.6768 14.5306 11.9697C14.8235 12.2626 14.8235 12.7374 14.5306 13.0303L13.5306 14.0303C12.1332 15.4278 9.86744 15.4278 8.46997 14.0303C7.07251 12.6329 7.07251 10.3671 8.46997 8.96967L12.47 4.96967C13.8674 3.5722 16.1332 3.57221 17.5306 4.96967C18.9281 6.36713 18.9281 8.63287 17.5306 10.0303L16.47 8.96967C17.2816 8.15799 17.2816 6.842 16.47 6.03033ZM11.47 9.96967C12.8674 8.57221 15.1332 8.5722 16.5306 9.96967C17.9281 11.3671 17.9281 13.6329 16.5306 15.0303L12.5306 19.0303C11.1332 20.4278 8.86743 20.4278 7.46997 19.0303C6.07251 17.6329 6.07251 15.3671 7.46997 13.9697L8.53063 15.0303C7.71896 15.842 7.71896 17.158 8.53063 17.9697C9.34231 18.7813 10.6583 18.7813 11.47 17.9697L15.47 13.9697C16.2816 13.158 16.2816 11.842 15.47 11.0303C14.6583 10.2187 13.3423 10.2187 12.5306 11.0303L11.5306 12.0303C11.2377 12.3232 10.7629 12.3232 10.47 12.0303C10.1771 11.7374 10.1771 11.2626 10.47 10.9697L11.47 9.96967Z" fill="#44403C"/>
</svg>

