<svg viewBox="0 0 32 32" fill="none" xmlns="http://www.w3.org/2000/svg">
<path d="M0 8C0 3.58172 3.58172 0 8 0H24C28.4183 0 32 3.58172 32 8V24C32 28.4183 28.4183 32 24 32H8C3.58172 32 0 28.4183 0 24V8Z" fill="white"/>
<path d="M10 8.5V8.5C10 8.03534 10 7.80302 10.0384 7.60982C10.1962 6.81644 10.8164 6.19624 11.6098 6.03843C11.803 6 12.0353 6 12.5 6H16V6.8C16 7.92011 16 8.48016 15.782 8.90798C15.5903 9.28431 15.2843 9.59027 14.908 9.78201C14.4802 10 13.9201 10 12.8 10H10H9.2C8.07989 10 7.51984 10 7.09202 10.218C6.71569 10.4097 6.40973 10.7157 6.21799 11.092C6 11.5198 6 12.0799 6 13.2V16H6.8C7.92011 16 8.48016 16 8.90798 15.782C9.28431 15.5903 9.59027 15.2843 9.78201 14.908C10 14.4802 10 13.9201 10 12.8V11.5" stroke="#44403C" stroke-width="2"/>
<path d="M23.5 10V10C23.9647 10 24.197 10 24.3902 10.0384C25.1836 10.1962 25.8038 10.8164 25.9616 11.6098C26 11.803 26 12.0353 26 12.5L26 16L25.2 16C24.0799 16 23.5198 16 23.092 15.782C22.7157 15.5903 22.4097 15.2843 22.218 14.908C22 14.4802 22 13.9201 22 12.8L22 10L22 9.2C22 8.07989 22 7.51984 21.782 7.09202C21.5903 6.71569 21.2843 6.40973 20.908 6.21799C20.4802 6 19.9201 6 18.8 6L16 6L16 6.8C16 7.9201 16 8.48016 16.218 8.90798C16.4097 9.2843 16.7157 9.59027 17.092 9.78201C17.5198 10 18.0799 10 19.2 10L20.5 10" stroke="#44403C" stroke-width="2"/>
<path d="M22 23.5V23.5C22 23.9647 22 24.197 21.9616 24.3902C21.8038 25.1836 21.1836 25.8038 20.3902 25.9616C20.197 26 19.9647 26 19.5 26L16 26L16 25.2C16 24.0799 16 23.5198 16.218 23.092C16.4097 22.7157 16.7157 22.4097 17.092 22.218C17.5198 22 18.0799 22 19.2 22L22 22L22.8 22C23.9201 22 24.4802 22 24.908 21.782C25.2843 21.5903 25.5903 21.2843 25.782 20.908C26 20.4802 26 19.9201 26 18.8L26 16L25.2 16C24.0799 16 23.5198 16 23.092 16.218C22.7157 16.4097 22.4097 16.7157 22.218 17.092C22 17.5198 22 18.0799 22 19.2L22 20.5" stroke="#44403C" stroke-width="2"/>
<path d="M8.5 22V22C8.03534 22 7.80302 22 7.60982 21.9616C6.81644 21.8038 6.19624 21.1836 6.03843 20.3902C6 20.197 6 19.9647 6 19.5L6 16L6.8 16C7.9201 16 8.48016 16 8.90798 16.218C9.2843 16.4097 9.59027 16.7157 9.78201 17.092C10 17.5198 10 18.0799 10 19.2L10 22L10 22.8C10 23.9201 10 24.4802 10.218 24.908C10.4097 25.2843 10.7157 25.5903 11.092 25.782C11.5198 26 12.0799 26 13.2 26L16 26L16 25.2C16 24.0799 16 23.5198 15.782 23.092C15.5903 22.7157 15.2843 22.4097 14.908 22.218C14.4802 22 13.9201 22 12.8 22L11.5 22" stroke="#44403C" stroke-width="2"/>
</svg>

