<svg viewBox="0 0 24 24" fill="none" xmlns="http://www.w3.org/2000/svg">
<path d="M6 4.5V4.5C6 4.03534 6 3.80302 6.03843 3.60982C6.19624 2.81644 6.81644 2.19624 7.60982 2.03843C7.80302 2 8.03534 2 8.5 2H12V2.8C12 3.92011 12 4.48016 11.782 4.90798C11.5903 5.28431 11.2843 5.59027 10.908 5.78201C10.4802 6 9.9201 6 8.8 6H6H5.2C4.07989 6 3.51984 6 3.09202 6.21799C2.71569 6.40973 2.40973 6.71569 2.21799 7.09202C2 7.51984 2 8.07989 2 9.2V12H2.8C3.92011 12 4.48016 12 4.90798 11.782C5.28431 11.5903 5.59027 11.2843 5.78201 10.908C6 10.4802 6 9.9201 6 8.8V7.5" stroke="#3A3842" stroke-width="2"/>
<path d="M19.5 6V6C19.9647 6 20.197 6 20.3902 6.03843C21.1836 6.19624 21.8038 6.81644 21.9616 7.60982C22 7.80302 22 8.03534 22 8.5L22 12L21.2 12C20.0799 12 19.5198 12 19.092 11.782C18.7157 11.5903 18.4097 11.2843 18.218 10.908C18 10.4802 18 9.9201 18 8.8L18 6L18 5.2C18 4.07989 18 3.51984 17.782 3.09202C17.5903 2.71569 17.2843 2.40973 16.908 2.21799C16.4802 2 15.9201 2 14.8 2L12 2L12 2.8C12 3.9201 12 4.48016 12.218 4.90798C12.4097 5.2843 12.7157 5.59027 13.092 5.78201C13.5198 6 14.0799 6 15.2 6L16.5 6" stroke="#3A3842" stroke-width="2"/>
<path d="M18 19.5V19.5C18 19.9647 18 20.197 17.9616 20.3902C17.8038 21.1836 17.1836 21.8038 16.3902 21.9616C16.197 22 15.9647 22 15.5 22L12 22L12 21.2C12 20.0799 12 19.5198 12.218 19.092C12.4097 18.7157 12.7157 18.4097 13.092 18.218C13.5198 18 14.0799 18 15.2 18L18 18L18.8 18C19.9201 18 20.4802 18 20.908 17.782C21.2843 17.5903 21.5903 17.2843 21.782 16.908C22 16.4802 22 15.9201 22 14.8L22 12L21.2 12C20.0799 12 19.5198 12 19.092 12.218C18.7157 12.4097 18.4097 12.7157 18.218 13.092C18 13.5198 18 14.0799 18 15.2L18 16.5" stroke="#3A3842" stroke-width="2"/>
<path d="M4.5 18V18C4.03534 18 3.80302 18 3.60982 17.9616C2.81644 17.8038 2.19624 17.1836 2.03843 16.3902C2 16.197 2 15.9647 2 15.5L2 12L2.8 12C3.9201 12 4.48016 12 4.90798 12.218C5.2843 12.4097 5.59027 12.7157 5.78201 13.092C6 13.5198 6 14.0799 6 15.2L6 18L6 18.8C6 19.9201 6 20.4802 6.21799 20.908C6.40973 21.2843 6.71569 21.5903 7.09202 21.782C7.51984 22 8.07989 22 9.2 22L12 22L12 21.2C12 20.0799 12 19.5198 11.782 19.092C11.5903 18.7157 11.2843 18.4097 10.908 18.218C10.4802 18 9.9201 18 8.8 18L7.5 18" stroke="#3A3842" stroke-width="2"/>
</svg>

