<svg viewBox="0 0 24 24" fill="none" xmlns="http://www.w3.org/2000/svg">
<path fill-rule="evenodd" clip-rule="evenodd" d="M7.66636 7.62362C9.05189 7.7043 10.381 7.06425 11.1818 5.93069C11.5874 5.35644 12.4392 5.35644 12.8449 5.93069C13.6457 7.06425 14.9748 7.7043 16.3603 7.62362C17.0622 7.58275 17.5933 8.24871 17.3973 8.92392C17.0103 10.2568 17.3386 11.6949 18.2655 12.7279C18.7351 13.2512 18.5456 14.0816 17.8954 14.3494C16.6121 14.8778 15.6923 16.0312 15.4627 17.3999C15.3463 18.0933 14.5789 18.4629 13.9642 18.1215C12.7509 17.4477 11.2758 17.4477 10.0624 18.1215C9.44778 18.4629 8.68033 18.0933 8.56399 17.3999C8.33433 16.0312 7.41458 14.8778 6.13125 14.3494C5.48113 14.0816 5.29158 13.2512 5.76117 12.7279C6.68811 11.6949 7.01637 10.2568 6.6294 8.92392C6.43337 8.24871 6.96445 7.58275 7.66636 7.62362ZM9.95664 5.06521C10.96 3.64493 13.0667 3.64493 14.07 5.06521C14.5719 5.7756 15.4048 6.17672 16.2731 6.12616C18.0091 6.02507 19.3226 7.67218 18.8378 9.34215C18.5953 10.1774 18.801 11.0787 19.3819 11.7261C20.5433 13.0203 20.0745 15.0742 18.4666 15.7364C17.6623 16.0675 17.0859 16.7903 16.942 17.6481C16.6543 19.3631 14.7562 20.2772 13.236 19.4329C12.4756 19.0106 11.5511 19.0106 10.7907 19.4329C9.27051 20.2772 7.37241 19.3631 7.08467 17.6481C6.94074 16.7903 6.36434 16.0675 5.56009 15.7364C3.95215 15.0742 3.48336 13.0203 4.64477 11.7261C5.22568 11.0787 5.43139 10.1774 5.18888 9.34215C4.70404 7.67218 6.01756 6.02507 7.75355 6.12616C8.62186 6.17672 9.45478 5.7756 9.95664 5.06521ZM13.5133 12.1538C13.5133 12.9823 12.8418 13.6538 12.0133 13.6538C11.1849 13.6538 10.5133 12.9823 10.5133 12.1538C10.5133 11.3254 11.1849 10.6538 12.0133 10.6538C12.8418 10.6538 13.5133 11.3254 13.5133 12.1538ZM15.0133 12.1538C15.0133 13.8107 13.6702 15.1538 12.0133 15.1538C10.3565 15.1538 9.01334 13.8107 9.01334 12.1538C9.01334 10.497 10.3565 9.15384 12.0133 9.15384C13.6702 9.15384 15.0133 10.497 15.0133 12.1538Z" fill="#44403C"/>
</svg>

