<svg viewBox="0 0 24 24" fill="none" xmlns="http://www.w3.org/2000/svg">
<path fill-rule="evenodd" clip-rule="evenodd" d="M13.49 5.17C13.11 3.61 10.89 3.61 10.51 5.17C10.4533 5.40442 10.342 5.62213 10.1852 5.80541C10.0285 5.9887 9.83063 6.13238 9.60784 6.22477C9.38505 6.31716 9.1436 6.35564 8.90313 6.33709C8.66266 6.31854 8.42997 6.24347 8.22399 6.118C6.85199 5.282 5.28199 6.852 6.11799 8.224C6.65799 9.11 6.17899 10.266 5.17099 10.511C3.60999 10.89 3.60999 13.111 5.17099 13.489C5.40547 13.5458 5.62322 13.6572 5.80651 13.8141C5.98979 13.971 6.13343 14.1689 6.22573 14.3918C6.31803 14.6147 6.35639 14.8563 6.33766 15.0968C6.31894 15.3373 6.24367 15.5701 6.11799 15.776C5.28199 17.148 6.85199 18.718 8.22399 17.882C8.42993 17.7563 8.66265 17.6811 8.90318 17.6623C9.14371 17.6436 9.38527 17.682 9.60817 17.7743C9.83108 17.8666 10.029 18.0102 10.1859 18.1935C10.3428 18.3768 10.4542 18.5945 10.511 18.829C10.89 20.39 13.111 20.39 13.489 18.829C13.546 18.5946 13.6575 18.377 13.8144 18.1939C13.9713 18.0107 14.1692 17.8672 14.3921 17.7749C14.6149 17.6826 14.8564 17.6442 15.0969 17.6628C15.3373 17.6815 15.57 17.7565 15.776 17.882C17.148 18.718 18.718 17.148 17.882 15.776C17.7565 15.57 17.6815 15.3373 17.6628 15.0969C17.6442 14.8564 17.6826 14.6149 17.7749 14.3921C17.8672 14.1692 18.0107 13.9713 18.1939 13.8144C18.377 13.6575 18.5946 13.546 18.829 13.489C20.39 13.11 20.39 10.889 18.829 10.511C18.5945 10.4542 18.3768 10.3428 18.1935 10.1859C18.0102 10.029 17.8666 9.83109 17.7743 9.60818C17.682 9.38527 17.6436 9.14372 17.6623 8.90318C17.681 8.66265 17.7563 8.42994 17.882 8.224C18.718 6.852 17.148 5.282 15.776 6.118C15.5701 6.24368 15.3373 6.31895 15.0968 6.33767C14.8563 6.35639 14.6147 6.31804 14.3918 6.22574C14.1689 6.13344 13.971 5.9898 13.8141 5.80651C13.6572 5.62323 13.5458 5.40548 13.489 5.171L13.49 5.17ZM12 15C12.7956 15 13.5587 14.6839 14.1213 14.1213C14.6839 13.5587 15 12.7956 15 12C15 11.2044 14.6839 10.4413 14.1213 9.87868C13.5587 9.31607 12.7956 9 12 9C11.2043 9 10.4413 9.31607 9.87867 9.87868C9.31606 10.4413 8.99999 11.2044 8.99999 12C8.99999 12.7956 9.31606 13.5587 9.87867 14.1213C10.4413 14.6839 11.2043 15 12 15Z" fill="#44403C"/>
</svg>

