<svg viewBox="0 0 30 30" fill="none" xmlns="http://www.w3.org/2000/svg">
<path d="M25.8095 3.34277L16.4404 10.3013L18.173 6.19588L25.8095 3.34277Z" fill="#E2761B" stroke="#E2761B" stroke-width="0.094162" stroke-linecap="round" stroke-linejoin="round"/>
<path d="M4.18115 3.34277L13.4749 10.3673L11.8271 6.19588L4.18115 3.34277Z" fill="#E4761B" stroke="#E4761B" stroke-width="0.094162" stroke-linecap="round" stroke-linejoin="round"/>
<path d="M22.4391 19.4727L19.9438 23.2957L25.2828 24.7646L26.8177 19.5575L22.4391 19.4727Z" fill="#E4761B" stroke="#E4761B" stroke-width="0.094162" stroke-linecap="round" stroke-linejoin="round"/>
<path d="M3.19238 19.5575L4.71781 24.7646L10.0568 23.2957L7.5615 19.4727L3.19238 19.5575Z" fill="#E4761B" stroke="#E4761B" stroke-width="0.094162" stroke-linecap="round" stroke-linejoin="round"/>
<path d="M9.75534 13.0132L8.26758 15.2637L13.5689 15.4991L13.3806 9.80228L9.75534 13.0132Z" fill="#E4761B" stroke="#E4761B" stroke-width="0.094162" stroke-linecap="round" stroke-linejoin="round"/>
<path d="M20.2356 13.0132L16.5633 9.73636L16.4409 15.4991L21.7328 15.2637L20.2356 13.0132Z" fill="#E4761B" stroke="#E4761B" stroke-width="0.094162" stroke-linecap="round" stroke-linejoin="round"/>
<path d="M10.0566 23.2957L13.2393 21.742L10.4898 19.5951L10.0566 23.2957Z" fill="#E4761B" stroke="#E4761B" stroke-width="0.094162" stroke-linecap="round" stroke-linejoin="round"/>
<path d="M16.752 21.742L19.944 23.2957L19.5015 19.5951L16.752 21.742Z" fill="#E4761B" stroke="#E4761B" stroke-width="0.094162" stroke-linecap="round" stroke-linejoin="round"/>
<path d="M19.9436 23.2957L16.7515 21.742L17.0057 23.823L16.9775 24.6987L19.9436 23.2957Z" fill="#D7C1B3" stroke="#D7C1B3" stroke-width="0.094162" stroke-linecap="round" stroke-linejoin="round"/>
<path d="M10.0566 23.2957L13.0227 24.6987L13.0039 23.823L13.2393 21.742L10.0566 23.2957Z" fill="#D7C1B3" stroke="#D7C1B3" stroke-width="0.094162" stroke-linecap="round" stroke-linejoin="round"/>
<path d="M13.0694 18.2204L10.4141 17.4388L12.2879 16.5819L13.0694 18.2204Z" fill="#233447" stroke="#233447" stroke-width="0.094162" stroke-linecap="round" stroke-linejoin="round"/>
<path d="M16.9209 18.2204L17.7024 16.5819L19.5857 17.4388L16.9209 18.2204Z" fill="#233447" stroke="#233447" stroke-width="0.094162" stroke-linecap="round" stroke-linejoin="round"/>
<path d="M10.0568 23.2957L10.5088 19.4727L7.56152 19.5575L10.0568 23.2957Z" fill="#CD6116" stroke="#CD6116" stroke-width="0.094162" stroke-linecap="round" stroke-linejoin="round"/>
<path d="M19.4922 19.4727L19.9442 23.2957L22.4395 19.5575L19.4922 19.4727Z" fill="#CD6116" stroke="#CD6116" stroke-width="0.094162" stroke-linecap="round" stroke-linejoin="round"/>
<path d="M21.7328 15.2637L16.4409 15.4991L16.9306 18.2204L17.7121 16.5819L19.5953 17.4388L21.7328 15.2637Z" fill="#CD6116" stroke="#CD6116" stroke-width="0.094162" stroke-linecap="round" stroke-linejoin="round"/>
<path d="M10.4145 17.4388L12.2977 16.5819L13.0698 18.2204L13.5689 15.4991L8.26758 15.2637L10.4145 17.4388Z" fill="#CD6116" stroke="#CD6116" stroke-width="0.094162" stroke-linecap="round" stroke-linejoin="round"/>
<path d="M8.26758 15.2637L10.4898 19.5951L10.4145 17.4388L8.26758 15.2637Z" fill="#E4751F" stroke="#E4751F" stroke-width="0.094162" stroke-linecap="round" stroke-linejoin="round"/>
<path d="M19.5951 17.4388L19.501 19.5951L21.7326 15.2637L19.5951 17.4388Z" fill="#E4751F" stroke="#E4751F" stroke-width="0.094162" stroke-linecap="round" stroke-linejoin="round"/>
<path d="M13.5689 15.4991L13.0698 18.2203L13.6913 21.4313L13.8325 17.2034L13.5689 15.4991Z" fill="#E4751F" stroke="#E4751F" stroke-width="0.094162" stroke-linecap="round" stroke-linejoin="round"/>
<path d="M16.4408 15.4991L16.1865 17.194L16.2995 21.4313L16.9304 18.2203L16.4408 15.4991Z" fill="#E4751F" stroke="#E4751F" stroke-width="0.094162" stroke-linecap="round" stroke-linejoin="round"/>
<path d="M16.9302 18.2203L16.2993 21.4312L16.7513 21.742L19.5008 19.5951L19.595 17.4388L16.9302 18.2203Z" fill="#F6851B" stroke="#F6851B" stroke-width="0.094162" stroke-linecap="round" stroke-linejoin="round"/>
<path d="M10.4141 17.4388L10.4894 19.5951L13.2389 21.742L13.6909 21.4312L13.0694 18.2203L10.4141 17.4388Z" fill="#F6851B" stroke="#F6851B" stroke-width="0.094162" stroke-linecap="round" stroke-linejoin="round"/>
<path d="M16.9775 24.6987L17.0058 23.823L16.7704 23.6158H13.2205L13.0039 23.823L13.0227 24.6987L10.0566 23.2957L11.0924 24.1431L13.1922 25.6027H16.7986L18.9079 24.1431L19.9436 23.2957L16.9775 24.6987Z" fill="#C0AD9E" stroke="#C0AD9E" stroke-width="0.094162" stroke-linecap="round" stroke-linejoin="round"/>
<path d="M16.7516 21.742L16.2996 21.4313H13.6913L13.2393 21.742L13.0039 23.823L13.2205 23.6159H16.7704L17.0058 23.823L16.7516 21.742Z" fill="#161616" stroke="#161616" stroke-width="0.094162" stroke-linecap="round" stroke-linejoin="round"/>
<path d="M26.2053 10.7533L27.0057 6.91151L25.8098 3.34277L16.7515 10.0659L20.2355 13.0132L25.1601 14.4539L26.2524 13.1827L25.7816 12.8437L26.5349 12.1563L25.9511 11.7044L26.7044 11.13L26.2053 10.7533Z" fill="#763D16" stroke="#763D16" stroke-width="0.094162" stroke-linecap="round" stroke-linejoin="round"/>
<path d="M2.99463 6.91151L3.79501 10.7533L3.28653 11.13L4.03983 11.7044L3.46544 12.1563L4.21873 12.8437L3.74792 13.1827L4.83079 14.4539L9.75546 13.0132L13.2395 10.0659L4.18107 3.34277L2.99463 6.91151Z" fill="#763D16" stroke="#763D16" stroke-width="0.094162" stroke-linecap="round" stroke-linejoin="round"/>
<path d="M25.1601 14.4539L20.2354 13.0132L21.7326 15.2637L19.501 19.5951L22.4388 19.5575H26.8174L25.1601 14.4539Z" fill="#F6851B" stroke="#F6851B" stroke-width="0.094162" stroke-linecap="round" stroke-linejoin="round"/>
<path d="M9.75547 13.0132L4.8308 14.4539L3.19238 19.5575H7.5615L10.4899 19.5951L8.26771 15.2637L9.75547 13.0132Z" fill="#F6851B" stroke="#F6851B" stroke-width="0.094162" stroke-linecap="round" stroke-linejoin="round"/>
<path d="M16.4406 15.499L16.7513 10.0659L18.1826 6.19583H11.8267L13.2391 10.0659L13.5687 15.499L13.6817 17.2128L13.6911 21.4312H16.2994L16.3182 17.2128L16.4406 15.499Z" fill="#F6851B" stroke="#F6851B" stroke-width="0.094162" stroke-linecap="round" stroke-linejoin="round"/>
</svg>

