<svg viewBox="0 0 24 24" fill="none" xmlns="http://www.w3.org/2000/svg">
<rect width="24" height="24" rx="12" fill="#FAF5FF"/>
<path fill-rule="evenodd" clip-rule="evenodd" d="M12 22C17.5228 22 22 17.5228 22 12C22 6.47715 17.5228 2 12 2C6.47715 2 2 6.47715 2 12C2 17.5228 6.47715 22 12 22ZM6.31934 12.5401C6.69103 12.5723 7.05028 12.647 7.39221 12.7594C7.63996 12.8408 7.87862 12.9421 8.10633 13.0612C8.96276 13.5093 9.66437 14.2109 10.1124 15.0673C10.2316 15.295 10.3328 15.5337 10.4142 15.7814C10.5266 16.1234 10.6013 16.4826 10.6335 16.8543L10.6372 16.9C10.6653 17.2648 11.2001 17.2648 11.2281 16.9L11.2319 16.8543C11.264 16.4826 11.3388 16.1234 11.4512 15.7814C11.5326 15.5337 11.6338 15.295 11.7529 15.0673C12.201 14.2109 12.9026 13.5093 13.7591 13.0612C13.9868 12.9421 14.2254 12.8408 14.4732 12.7594C14.8151 12.647 15.1744 12.5723 15.546 12.5401L15.5918 12.5364C15.9566 12.5083 15.9566 11.9736 15.5918 11.9455L15.546 11.9418C15.1744 11.9096 14.8151 11.8349 14.4732 11.7225C14.2254 11.6411 13.9868 11.5398 13.7591 11.4207C12.9026 10.9726 12.201 10.271 11.7529 9.41459C11.6338 9.18687 11.5326 8.94822 11.4512 8.70047C11.3388 8.35854 11.264 7.99929 11.2319 7.6276L11.2281 7.58186C11.2001 7.21706 10.6653 7.21706 10.6372 7.58186L10.6335 7.6276C10.6013 7.99929 10.5266 8.35854 10.4142 8.70047C10.3328 8.94822 10.2316 9.18688 10.1124 9.41459C9.66437 10.271 8.96277 10.9726 8.10633 11.4207C7.87862 11.5398 7.63996 11.6411 7.39221 11.7225C7.05028 11.8349 6.69103 11.9096 6.31934 11.9418L6.2736 11.9455C5.9088 11.9736 5.9088 12.5083 6.2736 12.5364L6.31934 12.5401ZM10.9327 13.5585C10.5618 13.0562 10.1174 12.6118 9.61516 12.2409C10.1174 11.8701 10.5618 11.4257 10.9327 10.9234C11.3036 11.4257 11.748 11.8701 12.2502 12.2409C11.748 12.6118 11.3036 13.0562 10.9327 13.5585ZM13.8782 15.9054C13.6611 15.7301 13.392 15.6165 13.0971 15.591L13.0832 15.5898C12.9723 15.5813 12.9723 15.4187 13.0832 15.4102L13.0971 15.409C13.392 15.3835 13.6611 15.2699 13.8782 15.0946L13.8885 15.0862C13.9606 15.0268 14.0268 14.9606 14.0862 14.8885L14.0946 14.8782C14.2699 14.6611 14.3835 14.392 14.409 14.0971L14.4102 14.0832C14.4187 13.9723 14.5813 13.9723 14.5898 14.0832L14.591 14.0971C14.6165 14.392 14.7301 14.6611 14.9054 14.8782L14.9138 14.8885C14.9732 14.9606 15.0394 15.0268 15.1115 15.0862L15.1218 15.0946C15.3389 15.2699 15.608 15.3835 15.9029 15.409L15.9168 15.4102C16.0277 15.4187 16.0277 15.5813 15.9168 15.5898L15.9029 15.591C15.608 15.6165 15.3389 15.7301 15.1218 15.9054L15.1115 15.9138C15.0394 15.9732 14.9732 16.0394 14.9138 16.1115L14.9054 16.1218C14.7301 16.3389 14.6165 16.608 14.591 16.9029L14.5898 16.9168C14.5813 17.0277 14.4187 17.0277 14.4102 16.9168L14.409 16.9029C14.3835 16.608 14.2699 16.3389 14.0946 16.1218L14.0862 16.1115C14.0268 16.0394 13.9606 15.9732 13.8885 15.9138L13.8782 15.9054ZM15.3271 9.36919C15.3084 9.15392 15.2494 8.95048 15.1575 8.76646C15.1094 8.67023 15.0524 8.57932 14.9874 8.49481C14.8985 8.37897 14.7946 8.27516 14.6788 8.18617C14.5943 8.12124 14.5034 8.06421 14.4072 8.01615C14.2231 7.92424 14.0197 7.86518 13.8044 7.84655L13.7883 7.84523C13.6595 7.83532 13.6595 7.64658 13.7883 7.63667L13.8044 7.63535C14.0197 7.61672 14.2231 7.55766 14.4072 7.46575C14.5034 7.41769 14.5943 7.36066 14.6788 7.29573C14.7946 7.20674 14.8985 7.10293 14.9874 6.98709C15.0524 6.90258 15.1094 6.81167 15.1575 6.71544C15.2494 6.53142 15.3084 6.32798 15.3271 6.11271L15.3284 6.09656C15.3383 5.96781 15.527 5.96781 15.5369 6.09656L15.5383 6.11271C15.5569 6.32798 15.616 6.53142 15.7079 6.71544C15.7559 6.81167 15.813 6.90258 15.8779 6.98709C15.9669 7.10293 16.0707 7.20674 16.1865 7.29573C16.271 7.36066 16.3619 7.41769 16.4582 7.46575C16.6422 7.55766 16.8456 7.61672 17.0609 7.63535L17.077 7.63667C17.2058 7.64658 17.2058 7.83532 17.077 7.84523L17.0609 7.84655C16.8456 7.86518 16.6422 7.92424 16.4582 8.01615C16.3619 8.06421 16.271 8.12124 16.1865 8.18617C16.0707 8.27516 15.9669 8.37897 15.8779 8.49481C15.813 8.57932 15.7559 8.67023 15.7079 8.76646C15.616 8.95048 15.5569 9.15392 15.5383 9.36919L15.5369 9.38533C15.527 9.51409 15.3383 9.51409 15.3284 9.38533L15.3271 9.36919Z" fill="#A855F7"/>
</svg>

