<svg viewBox="0 0 48 48" fill="none" xmlns="http://www.w3.org/2000/svg">
<path d="M0 24C0 10.7452 10.7452 0 24 0C37.2548 0 48 10.7452 48 24C48 37.2548 37.2548 48 24 48C10.7452 48 0 37.2548 0 24Z" fill="#F3E8FF"/>
<path fill-rule="evenodd" clip-rule="evenodd" d="M24 39C32.2843 39 39 32.2843 39 24C39 15.7157 32.2843 9 24 9C15.7157 9 9 15.7157 9 24C9 32.2843 15.7157 39 24 39ZM15.479 24.8104C16.0365 24.8586 16.5754 24.9707 17.0883 25.1393C17.4599 25.2614 17.8179 25.4132 18.1595 25.5919C19.4441 26.264 20.4966 27.3165 21.1687 28.6011C21.3474 28.9427 21.4992 29.3007 21.6213 29.6723C21.7899 30.1852 21.902 30.7241 21.9502 31.2816L21.9531 31.3156L21.9559 31.3502C21.9979 31.8974 22.8001 31.8974 22.8422 31.3502C22.844 31.3273 22.8458 31.3044 22.8478 31.2816C22.8961 30.7241 23.0081 30.1852 23.1767 29.6723C23.2989 29.3007 23.4507 28.9427 23.6294 28.6011C24.3015 27.3165 25.3539 26.264 26.6386 25.5919C26.9802 25.4132 27.3381 25.2614 27.7098 25.1393C28.2227 24.9707 28.7615 24.8586 29.3191 24.8104C29.3419 24.8084 29.3648 24.8065 29.3877 24.8047C29.9349 24.7627 29.9349 23.9605 29.3877 23.9184C29.3648 23.9166 29.3419 23.9147 29.3191 23.9128C28.7615 23.8645 28.2227 23.7524 27.7098 23.5839C27.3381 23.4617 26.9802 23.3099 26.6386 23.1312C25.3539 22.4591 24.3015 21.4067 23.6294 20.122C23.4507 19.7804 23.2989 19.4225 23.1767 19.0508C23.0081 18.5379 22.8961 17.9991 22.8478 17.4415C22.8458 17.4187 22.844 17.3958 22.8422 17.3729C22.8001 16.8257 21.9979 16.8257 21.9559 17.3729C21.9541 17.3958 21.9522 17.4187 21.9502 17.4415C21.902 17.9991 21.7899 18.5379 21.6213 19.0508C21.4992 19.4225 21.3474 19.7805 21.1687 20.122C20.4966 21.4067 19.4442 22.4591 18.1595 23.1312C17.8179 23.3099 17.4599 23.4617 17.0883 23.5839C16.5754 23.7525 16.0365 23.8645 15.479 23.9128C15.4562 23.9147 15.4333 23.9166 15.4104 23.9184C14.8632 23.9605 14.8632 24.7627 15.4104 24.8047C15.4333 24.8065 15.4562 24.8084 15.479 24.8104ZM22.399 26.3379C21.8427 25.5845 21.1761 24.9179 20.4227 24.3616C21.1761 23.8052 21.8427 23.1386 22.399 22.3853C22.9554 23.1386 23.622 23.8052 24.3753 24.3616C23.622 24.9179 22.9554 25.5845 22.399 26.3379ZM26.8173 29.8582C26.4917 29.5952 26.088 29.4248 25.6457 29.3865L25.6248 29.3848C25.4584 29.372 25.4584 29.128 25.6248 29.1152L25.6457 29.1135C26.088 29.0752 26.4917 28.9049 26.8173 28.6418L26.8328 28.6292C26.9409 28.5402 27.0402 28.4409 27.1292 28.3328L27.1418 28.3173C27.4049 27.9917 27.5752 27.588 27.6135 27.1457L27.6152 27.1248C27.628 26.9584 27.872 26.9584 27.8848 27.1248L27.8865 27.1457C27.9248 27.588 28.0951 27.9917 28.3582 28.3173L28.3708 28.3328C28.4598 28.4409 28.5591 28.5402 28.6672 28.6292L28.6827 28.6418C29.0083 28.9049 29.412 29.0752 29.8543 29.1135L29.8752 29.1152C30.0416 29.128 30.0416 29.372 29.8752 29.3848L29.8543 29.3865C29.412 29.4248 29.0083 29.5951 28.6827 29.8582L28.6672 29.8708C28.5591 29.9598 28.4598 30.0591 28.3708 30.1672L28.3582 30.1827C28.0952 30.5083 27.9248 30.912 27.8865 31.3543L27.8848 31.3752C27.872 31.5416 27.628 31.5416 27.6152 31.3752L27.6135 31.3543C27.5752 30.912 27.4049 30.5083 27.1418 30.1827L27.1292 30.1672C27.0402 30.0591 26.9409 29.9598 26.8328 29.8708L26.8173 29.8582ZM28.9905 20.0538C28.9626 19.7309 28.874 19.4257 28.7361 19.1497C28.664 19.0054 28.5785 18.869 28.4811 18.7422C28.3476 18.5685 28.1919 18.4127 28.0181 18.2793C27.8913 18.1819 27.755 18.0963 27.6106 18.0242C27.3346 17.8864 27.0294 17.7978 26.7065 17.7698L26.6823 17.7678C26.4892 17.753 26.4892 17.4699 26.6823 17.455L26.7065 17.453C27.0294 17.4251 27.3346 17.3365 27.6106 17.1986C27.755 17.1265 27.8913 17.041 28.0181 16.9436C28.1919 16.8101 28.3476 16.6544 28.4811 16.4806C28.5785 16.3539 28.664 16.2175 28.7361 16.0732C28.874 15.7971 28.9626 15.492 28.9905 15.1691L28.9925 15.1448C29.0073 14.9517 29.2905 14.9517 29.3053 15.1448L29.3073 15.1691C29.3352 15.492 29.4238 15.7971 29.5617 16.0732C29.6338 16.2175 29.7193 16.3539 29.8167 16.4806C29.9502 16.6544 30.1059 16.8101 30.2797 16.9436C30.4065 17.041 30.5428 17.1265 30.6872 17.1986C30.9632 17.3365 31.2684 17.4251 31.5913 17.453L31.6155 17.455C31.8086 17.4699 31.8086 17.753 31.6155 17.7678L31.5913 17.7698C31.2684 17.7978 30.9632 17.8864 30.6872 18.0242C30.5428 18.0963 30.4065 18.1819 30.2797 18.2793C30.1059 18.4127 29.9502 18.5685 29.8167 18.7422C29.7193 18.869 29.6338 19.0054 29.5617 19.1497C29.4238 19.4257 29.3352 19.7309 29.3073 20.0538L29.3053 20.078C29.2905 20.2711 29.0073 20.2711 28.9925 20.078L28.9905 20.0538Z" fill="#A855F7"/>
<path d="M24 47C11.2975 47 1 36.7025 1 24H-1C-1 37.8071 10.1929 49 24 49V47ZM47 24C47 36.7025 36.7025 47 24 47V49C37.8071 49 49 37.8071 49 24H47ZM24 1C36.7025 1 47 11.2975 47 24H49C49 10.1929 37.8071 -1 24 -1V1ZM24 -1C10.1929 -1 -1 10.1929 -1 24H1C1 11.2975 11.2975 1 24 1V-1Z" fill="#E9D5FF"/>
</svg>

