<svg viewBox="0 0 24 24" fill="none" xmlns="http://www.w3.org/2000/svg">
<rect width="24" height="24" rx="12" fill="#FFFBEB"/>
<path fill-rule="evenodd" clip-rule="evenodd" d="M12 22C17.5228 22 22 17.5228 22 12C22 6.47715 17.5228 2 12 2C6.47715 2 2 6.47715 2 12C2 17.5228 6.47715 22 12 22ZM12 10C12.5523 10 13 9.55228 13 9C13 8.44772 12.5523 8 12 8C11.4477 8 11 8.44772 11 9C11 9.55228 11.4477 10 12 10ZM12 11.5C13.3807 11.5 14.5 10.3807 14.5 9C14.5 7.61929 13.3807 6.5 12 6.5C10.6193 6.5 9.49998 7.61929 9.49998 9C9.49998 10.3807 10.6193 11.5 12 11.5ZM13.4787 13.5H10.5213C9.64616 13.5 8.98981 14.3006 9.16144 15.1587C9.20112 15.3572 9.37535 15.5 9.57771 15.5H14.4223C14.6246 15.5 14.7988 15.3572 14.8385 15.1587C15.0102 14.3006 14.3538 13.5 13.4787 13.5ZM10.5213 12C8.69959 12 7.3333 13.6666 7.69056 15.4529C7.87048 16.3525 8.66033 17 9.57771 17H14.4223C15.3396 17 16.1295 16.3525 16.3094 15.4529C16.6667 13.6666 15.3004 12 13.4787 12H10.5213Z" fill="#F59E0B"/>
</svg>

