<svg viewBox="0 0 24 24" fill="none" xmlns="http://www.w3.org/2000/svg">
<rect width="24" height="24" rx="12" fill="#FAF5FF"/>
<path fill-rule="evenodd" clip-rule="evenodd" d="M12 22C17.5228 22 22 17.5228 22 12C22 6.47715 17.5228 2 12 2C6.47715 2 2 6.47715 2 12C2 17.5228 6.47715 22 12 22ZM16.5 12.5V9.5613C16.5 9.30686 16.3313 9.08325 16.0867 9.01335C14.6008 8.58882 13.2126 7.8778 12 6.92061C10.7874 7.8778 9.39919 8.58882 7.91331 9.01335C7.66867 9.08325 7.5 9.30686 7.5 9.5613V12.5C7.5 13.2869 7.87049 14.0279 8.5 14.5L11.7 16.9C11.8778 17.0333 12.1222 17.0333 12.3 16.9L15.5 14.5C16.1295 14.0279 16.5 13.2869 16.5 12.5ZM7.50123 7.57107C6.61263 7.82495 6 8.63714 6 9.5613V12.5C6 13.759 6.59278 14.9446 7.6 15.7L10.8 18.1C11.5111 18.6333 12.4889 18.6333 13.2 18.1L16.4 15.7C17.4072 14.9446 18 13.759 18 12.5V9.5613C18 8.63714 17.3874 7.82495 16.4988 7.57107C15.1794 7.19411 13.9482 6.55857 12.8768 5.70141L12.6041 5.48327C12.2509 5.20073 11.7491 5.20073 11.3959 5.48327L11.1232 5.70141C10.0518 6.55857 8.82057 7.19411 7.50123 7.57107ZM15.0303 9.96967C15.3232 10.2626 15.3232 10.7374 15.0303 11.0303L12.0303 14.0303C11.7374 14.3232 11.2626 14.3232 10.9697 14.0303L9.46967 12.5303C9.17678 12.2374 9.17678 11.7626 9.46967 11.4697C9.76256 11.1768 10.2374 11.1768 10.5303 11.4697L11.5 12.4393L13.9697 9.96967C14.2626 9.67678 14.7374 9.67678 15.0303 9.96967Z" fill="#A855F7"/>
</svg>
