<svg viewBox="0 0 24 24" fill="none" xmlns="http://www.w3.org/2000/svg">
<path d="M0 12C0 5.37258 5.37258 0 12 0C18.6274 0 24 5.37258 24 12C24 18.6274 18.6274 24 12 24C5.37258 24 0 18.6274 0 12Z" fill="#DBEAFE"/>
<path fill-rule="evenodd" clip-rule="evenodd" d="M12 22C17.5228 22 22 17.5228 22 12C22 6.47715 17.5228 2 12 2C6.47715 2 2 6.47715 2 12C2 17.5228 6.47715 22 12 22ZM14.7071 6.29289L12.7071 4.29289C12.3166 3.90237 11.6834 3.90237 11.2929 4.29289C10.9024 4.68342 10.9024 5.31658 11.2929 5.70711L11.599 6.01319C8.47225 6.21952 6 8.82105 6 12C6 12.5523 6.44772 13 7 13C7.55228 13 8 12.5523 8 12C8 9.93885 9.55897 8.24181 11.5621 8.0237L11.2929 8.29289C10.9024 8.68342 10.9024 9.31658 11.2929 9.70711C11.6834 10.0976 12.3166 10.0976 12.7071 9.70711L14.7071 7.70711C15.0976 7.31658 15.0976 6.68342 14.7071 6.29289ZM18 12C18 11.4477 17.5523 11 17 11C16.4477 11 16 11.4477 16 12C16 14.0612 14.441 15.7582 12.4379 15.9763L12.7071 15.7071C13.0976 15.3166 13.0976 14.6834 12.7071 14.2929C12.3166 13.9024 11.6834 13.9024 11.2929 14.2929L9.29289 16.2929C8.90237 16.6834 8.90237 17.3166 9.29289 17.7071L11.2929 19.7071C11.6834 20.0976 12.3166 20.0976 12.7071 19.7071C13.0976 19.3166 13.0976 18.6834 12.7071 18.2929L12.401 17.9868C15.5278 17.7805 18 15.179 18 12Z" fill="#3B82F6"/>
</svg>

