<svg viewBox="0 0 20 20" fill="none" xmlns="http://www.w3.org/2000/svg">
<path fill-rule="evenodd" clip-rule="evenodd" d="M12.4752 17.5H14.3746C15.8782 17.5 17.1495 16.3869 17.3483 14.8965L17.6992 12.2643C17.8591 11.0654 16.9263 10 15.7168 10H12.9713C13.5262 10.6205 13.8249 11.4698 13.7121 12.3721L13.3216 15.4961C13.2269 16.2538 12.9242 16.9399 12.4752 17.5ZM10.7352 10H10.2855C9.07591 10 8.14317 11.0654 8.30303 12.2643L8.65399 14.8965C8.82818 16.203 9.8266 17.2195 11.0832 17.4505C11.7514 16.9781 12.2211 16.2373 12.3293 15.3721L12.7198 12.2481C12.869 11.0544 11.9382 10 10.7352 10Z" fill="#E7E5E4"/>
<path d="M3.28101 12.2481C3.1318 11.0544 4.06257 10 5.26556 10H10.7344C11.9374 10 12.8682 11.0544 12.719 12.2481L12.3285 15.3721C12.1408 16.8734 10.8646 18 9.35165 18H6.64835C5.13538 18 3.85917 16.8734 3.67151 15.3721L3.28101 12.2481Z" fill="#57534E"/>
<path fill-rule="evenodd" clip-rule="evenodd" d="M11.3334 8.21171C11.7546 7.5782 12 6.81776 12 6C12 5.18224 11.7546 4.4218 11.3334 3.78829C11.6817 3.60422 12.0787 3.5 12.5 3.5C13.8807 3.5 15 4.61929 15 6C15 7.38071 13.8807 8.5 12.5 8.5C12.0787 8.5 11.6817 8.39578 11.3334 8.21171ZM10.5558 7.57177C10.8375 7.11469 11 6.57632 11 6C11 5.42368 10.8375 4.88531 10.5558 4.42823C10.2082 4.85764 10 5.40451 10 6C10 6.59549 10.2082 7.14236 10.5558 7.57177Z" fill="#E7E5E4"/>
<circle cx="8" cy="6" r="3" fill="#57534E"/>
</svg>

