<svg viewBox="0 0 24 24" fill="none" xmlns="http://www.w3.org/2000/svg">
<rect width="24" height="24" rx="12" fill="#F0FDF4"/>
<path d="M12 22C17.4706 22 22 17.4706 22 12C22 6.53922 17.4608 2 11.9902 2C6.52941 2 2 6.53922 2 12C2 17.4706 6.53922 22 12 22ZM8.37255 8.76471C8.01961 8.39216 8.12745 7.86275 8.61765 7.47059C9.4902 6.7549 10.7549 6.31373 12.0196 6.31373C14.902 6.31373 17.1765 8.2451 17.6765 11.0588H18.6863C19.1667 11.0588 19.2549 11.5098 19 11.8725L17.3824 14.1471C17.0882 14.549 16.6176 14.5196 16.3431 14.1471L14.7059 11.8725C14.451 11.5098 14.549 11.0588 15.0196 11.0588H16.1471C15.6961 9.26471 14.0294 7.91177 12.0196 7.91177C11.0392 7.91177 10.3137 8.22549 9.58824 8.78431C9.18627 9.07843 8.72549 9.14706 8.37255 8.76471ZM5 12.0882L6.61765 9.80392C6.91177 9.41177 7.38235 9.43137 7.65686 9.80392L9.29412 12.0882C9.54902 12.451 9.45098 12.902 8.98039 12.902H7.91177C8.36275 14.6863 10.0294 16.0392 12.0392 16.0392C13.0196 16.0392 13.7451 15.7353 14.4706 15.1765C14.8725 14.8725 15.3333 14.8137 15.6863 15.1961C16.049 15.5686 15.9314 16.098 15.4412 16.4804C14.5686 17.2059 13.3039 17.6471 12.0392 17.6471C9.15686 17.6471 6.88235 15.7157 6.38235 12.902H5.31373C4.83333 12.902 4.7451 12.451 5 12.0882Z" fill="#22C55E"/>
</svg>

