<svg viewBox="0 0 24 24" fill="none" xmlns="http://www.w3.org/2000/svg">
<path fill-rule="evenodd" clip-rule="evenodd" d="M14.0303 6.21967C14.3232 6.51256 14.3232 6.98744 14.0303 7.28033L13.3107 8H16.5C18.8472 8 20.75 9.90279 20.75 12.25C20.75 14.5972 18.8472 16.5 16.5 16.5H15.5C15.0858 16.5 14.75 16.1642 14.75 15.75C14.75 15.3358 15.0858 15 15.5 15H16.5C18.0188 15 19.25 13.7688 19.25 12.25C19.25 10.7312 18.0188 9.5 16.5 9.5H13.3107L14.0303 10.2197C14.3232 10.5126 14.3232 10.9874 14.0303 11.2803C13.7374 11.5732 13.2626 11.5732 12.9697 11.2803L10.9697 9.28033C10.6768 8.98744 10.6768 8.51256 10.9697 8.21967L12.9697 6.21967C13.2626 5.92678 13.7374 5.92678 14.0303 6.21967ZM7.5 9.5C5.98122 9.5 4.75 10.7312 4.75 12.25C4.75 13.7688 5.98122 15 7.5 15H10.6893L9.96967 14.2803C9.67678 13.9874 9.67678 13.5126 9.96967 13.2197C10.2626 12.9268 10.7374 12.9268 11.0303 13.2197L13.0303 15.2197C13.3232 15.5126 13.3232 15.9874 13.0303 16.2803L11.0303 18.2803C10.7374 18.5732 10.2626 18.5732 9.96967 18.2803C9.67678 17.9874 9.67678 17.5126 9.96967 17.2197L10.6893 16.5H7.5C5.15279 16.5 3.25 14.5972 3.25 12.25C3.25 9.90279 5.15279 8 7.5 8H8.5C8.91421 8 9.25 8.33579 9.25 8.75C9.25 9.16421 8.91421 9.5 8.5 9.5H7.5Z" fill="#44403C"/>
</svg>

