<svg viewBox="0 0 24 24" fill="none" xmlns="http://www.w3.org/2000/svg">
<path d="M18.8294 5.4755L18.2991 6.00583L18.8294 5.4755ZM14.2196 9.50908L14.789 9.99717C15.0254 9.72147 15.0302 9.31608 14.8006 9.03479C14.571 8.75349 14.1728 8.67711 13.8554 8.85346L14.2196 9.50908ZM11.6991 14.0537L11.34 14.7121L11.6991 14.0537ZM11.4568 12.7324L10.8873 12.2443L11.4568 12.7324ZM17.5192 15.76L16.8004 15.5462L17.5192 15.76ZM15.9499 16.3723L16.309 15.7139L15.9499 16.3723ZM9.45086 12.1584L9.08663 11.5028L9.45086 12.1584ZM5.47373 10.9684L5.84314 11.6211L5.47373 10.9684ZM5.52606 11.3881L5.32002 12.1092L5.52606 11.3881ZM5.84314 11.6211C7.93522 10.437 10.9692 8.79357 13.6124 7.58943C14.9382 6.98546 16.1378 6.50492 17.0598 6.24421C17.5241 6.11291 17.8812 6.04815 18.131 6.03882C18.42 6.02801 18.39 6.09676 18.2991 6.00583L19.3597 4.94517C18.986 4.57147 18.4577 4.52556 18.0749 4.53986C17.6528 4.55564 17.1645 4.65578 16.6516 4.80082C15.6191 5.09278 14.3376 5.61073 12.9905 6.2244C10.288 7.45556 7.20973 9.12406 5.10432 10.3156L5.84314 11.6211ZM18.2991 6.00583C18.2028 5.90958 18.1854 5.82463 18.1955 5.85724C18.2003 5.87279 18.2115 5.9181 18.2223 6.00437C18.2437 6.1755 18.2541 6.42798 18.2485 6.76002C18.2375 7.41901 18.1653 8.30844 18.0409 9.31344C17.7917 11.3246 17.3424 13.724 16.8004 15.5462L18.2381 15.9739C18.8106 14.0493 19.2736 11.5637 19.5295 9.49784C19.6575 8.46433 19.7361 7.51728 19.7483 6.78512C19.7544 6.42159 19.7446 6.08983 19.7107 5.81846C19.6939 5.68348 19.6686 5.54299 19.6279 5.41196C19.5925 5.298 19.5203 5.10571 19.3597 4.94517L18.2991 6.00583ZM16.309 15.7139L12.0583 13.3953L11.34 14.7121L15.5908 17.0307L16.309 15.7139ZM12.0262 13.2205L14.789 9.99717L13.6502 9.02098L10.8873 12.2443L12.0262 13.2205ZM13.8554 8.85346L9.08663 11.5028L9.8151 12.814L14.5838 10.1647L13.8554 8.85346ZM8.78062 11.5379L5.7321 10.6669L5.32002 12.1092L8.36854 12.9802L8.78062 11.5379ZM12.0583 13.3953C11.9944 13.3604 11.9789 13.2757 12.0262 13.2205L10.8873 12.2443C10.2193 13.0237 10.4388 14.2205 11.34 14.7121L12.0583 13.3953ZM16.8004 15.5462C16.7498 15.716 16.5368 15.8381 16.309 15.7139L15.5908 17.0307C16.5834 17.5722 17.8922 17.1365 18.2381 15.9739L16.8004 15.5462ZM9.08663 11.5028C8.99333 11.5546 8.88325 11.5672 8.78062 11.5379L8.36854 12.9802C8.85369 13.1188 9.37403 13.059 9.8151 12.814L9.08663 11.5028ZM5.10432 10.3156C4.33206 10.7527 4.50153 11.8753 5.32002 12.1092L5.7321 10.6669C6.15827 10.7887 6.26031 11.385 5.84314 11.6211L5.10432 10.3156Z" fill="#44403C"/>
</svg>

