<svg width="24" height="24" viewBox="0 0 24 24" fill="none" xmlns="http://www.w3.org/2000/svg">
<path d="M9.40272 17.8333C14.6858 17.8333 17.5754 13.3444 17.5754 9.45168C17.5754 9.32418 17.5754 9.19726 17.567 9.0709C18.1291 8.6539 18.6144 8.13756 19 7.54608C18.4758 7.78431 17.9197 7.94054 17.3502 8.00956C17.9499 7.64141 18.3986 7.06237 18.613 6.3802C18.0492 6.72334 17.4324 6.96516 16.7891 7.09524C16.356 6.62296 15.7833 6.31023 15.1594 6.20545C14.5356 6.10066 13.8955 6.20965 13.3381 6.51556C12.7808 6.82147 12.3373 7.30724 12.0763 7.8977C11.8152 8.48816 11.7512 9.15039 11.8942 9.78192C10.7522 9.7232 9.63501 9.41885 8.61516 8.88861C7.59531 8.35837 6.69559 7.6141 5.9744 6.70412C5.60709 7.35263 5.49459 8.12032 5.65981 8.8509C5.82502 9.58149 6.25553 10.22 6.86368 10.6365C6.40658 10.6226 5.95944 10.4962 5.56 10.2678C5.56 10.2799 5.56 10.2925 5.56 10.3051C5.56018 10.9852 5.78975 11.6444 6.20976 12.1707C6.62977 12.697 7.21437 13.0581 7.8644 13.1928C7.44153 13.3111 6.99785 13.3284 6.56744 13.2434C6.75099 13.8287 7.10832 14.3405 7.58948 14.7073C8.07064 15.0741 8.65154 15.2775 9.25096 15.2891C8.23385 16.1089 6.97739 16.5539 5.68376 16.5526C5.45523 16.5522 5.22691 16.538 5 16.5101C6.31356 17.3746 7.84195 17.8332 9.40272 17.831" fill="#1DA1F2"/>
</svg>

