<svg viewBox="0 0 24 24" fill="none" xmlns="http://www.w3.org/2000/svg">
<path fill-rule="evenodd" clip-rule="evenodd" d="M17.7175 6.77935C17.4844 5.92408 16.7127 5.46205 15.9919 5.26798C15.2356 5.06436 14.3388 5.0881 13.5226 5.34781C12.7027 5.60868 11.897 6.1312 11.4221 6.988C11.0559 7.64878 10.9235 8.44131 11.0664 9.34254C10.5425 9.31311 10.0016 9.12628 9.44838 8.79438C8.62049 8.29765 7.81368 7.50157 7.10001 6.55C6.95227 6.35302 6.71727 6.2411 6.47123 6.25055C6.22518 6.26 5.99945 6.38961 5.86726 6.59734C5.25876 7.55356 4.99381 9.0161 5.17822 10.4706C5.39115 12.1501 6.22296 13.9485 7.98851 15.0808C7.7762 15.1864 7.54151 15.2915 7.29202 15.388C6.41 15.729 5.44362 15.9239 4.64709 15.7646C4.28718 15.6926 3.92805 15.8917 3.79838 16.235C3.6687 16.5784 3.80658 16.9652 4.12423 17.1491C5.0188 17.667 6.35474 18.1069 7.82625 18.3276C9.30429 18.5493 10.9802 18.5593 12.5569 18.1651C14.1392 17.7695 15.6505 16.958 16.7257 15.5193C17.7346 14.1696 18.3057 12.3401 18.2655 9.95194C18.6485 9.74912 19.0631 9.49754 19.4053 9.15534C19.9226 8.63809 20.25 7.94665 20.25 7.00001C20.25 6.72341 20.0978 6.46926 19.8539 6.33875C19.61 6.20824 19.3141 6.22254 19.084 6.37597C18.4278 6.81341 18.021 6.84678 17.8443 6.8206C17.7705 6.80967 17.7337 6.79087 17.7175 6.77935ZM17.7101 6.77342C17.7076 6.77102 17.7066 6.76955 17.7067 6.76942C17.7069 6.76928 17.7082 6.77048 17.7101 6.77342ZM12.7341 7.71513C12.4984 8.1405 12.3872 8.78982 12.7115 9.76283C12.7776 9.96102 12.758 10.1778 12.6575 10.3609C12.5569 10.544 12.3846 10.6769 12.1819 10.7276C10.9343 11.0395 9.72948 10.7123 8.67664 10.0806C7.97706 9.66087 7.32386 9.09576 6.73285 8.45423C6.61913 8.98441 6.58179 9.6153 6.66631 10.282C6.87149 11.9003 7.76728 13.5492 9.76335 14.2978C10.0021 14.3873 10.179 14.592 10.233 14.8412C10.287 15.0904 10.2106 15.35 10.0303 15.5303C9.83628 15.7244 9.51976 15.9443 9.16604 16.1499C8.79752 16.3642 8.34012 16.5909 7.83299 16.787C7.81925 16.7923 7.80545 16.7976 7.79159 16.8029C7.87644 16.8175 7.96219 16.8312 8.04876 16.8442C9.38322 17.0444 10.8531 17.0449 12.1931 16.7099C13.5274 16.3763 14.7037 15.7191 15.5243 14.6213C16.3434 13.5254 16.8695 11.9081 16.7509 9.53746C16.7361 9.2402 16.8984 8.96229 17.1646 8.82918C17.5314 8.64579 17.8291 8.49312 18.0685 8.32418C17.9156 8.33228 17.7674 8.32559 17.6245 8.30441C16.9595 8.20589 16.4216 7.77863 16.2724 7.1819C16.2424 7.062 16.089 6.84755 15.6019 6.7164C15.1395 6.59189 14.5362 6.59941 13.9774 6.7772C13.4223 6.95383 12.978 7.27506 12.7341 7.71513Z" fill="#44403C"/>
</svg>
