<svg viewBox="0 0 24 24" fill="none" xmlns="http://www.w3.org/2000/svg">
<path d="M0 12C0 5.37258 5.37258 0 12 0C18.6274 0 24 5.37258 24 12C24 18.6274 18.6274 24 12 24C5.37258 24 0 18.6274 0 12Z" fill="#44403C"/>
<path fill-rule="evenodd" clip-rule="evenodd" d="M9.7728 5.00006L9.71942 5.00003C9.47716 4.99983 9.26854 4.99967 9.08218 5.03674C8.32487 5.18738 7.73287 5.77938 7.58223 6.53669C7.54516 6.72305 7.54533 6.93167 7.54552 7.17393V7.17393L7.54555 7.22731H8.81826C8.81826 6.90112 8.82135 6.83096 8.83049 6.78498C8.88071 6.53255 9.07804 6.33521 9.33048 6.285C9.37645 6.27586 9.44661 6.27277 9.7728 6.27277H11.3637C11.3634 6.56875 11.3614 6.77105 11.3485 6.9296C11.3343 7.10247 11.3104 7.16657 11.2943 7.19803C11.2333 7.31777 11.136 7.41512 11.0162 7.47613C10.9848 7.49216 10.9207 7.51614 10.7478 7.53026C10.5675 7.545 10.3306 7.54549 9.96371 7.54549L7.64829 7.54549H7.64829C7.31283 7.54548 7.02344 7.54547 6.78508 7.56494C6.5335 7.5855 6.28327 7.63088 6.04249 7.75357C5.68327 7.9366 5.39122 8.22865 5.20819 8.58786C5.0855 8.82865 5.04012 9.07888 5.01957 9.33046C5.00009 9.56882 5.0001 9.85821 5.00011 10.1937L5.00011 11.3637H5.00006L5.00006 14.2273L5.00003 14.2807C4.99983 14.5229 4.99967 14.7315 5.03674 14.9179C5.18738 15.6752 5.77938 16.2672 6.53669 16.4179C6.72305 16.4549 6.93167 16.4548 7.17393 16.4546L7.22731 16.4545V15.1818C6.90112 15.1818 6.83096 15.1787 6.78498 15.1696C6.53255 15.1194 6.33521 14.922 6.285 14.6696C6.27586 14.6236 6.27277 14.5535 6.27277 14.2273L6.27277 12.6364C6.56875 12.6367 6.77105 12.6387 6.9296 12.6516C7.10247 12.6657 7.16657 12.6897 7.19803 12.7057C7.31777 12.7668 7.41512 12.8641 7.47613 12.9838C7.49216 13.0153 7.51614 13.0794 7.53026 13.2523C7.545 13.4326 7.54549 13.6695 7.54549 14.0364L7.54549 16.3518V16.3518C7.54548 16.6872 7.54547 16.9766 7.56494 17.215C7.5855 17.4666 7.63088 17.7168 7.75357 17.9576C7.9366 18.3168 8.22865 18.6089 8.58786 18.7919C8.82865 18.9146 9.07888 18.96 9.33046 18.9805C9.56881 19 9.8582 19 10.1936 19H10.1937L11.3636 19H14.2273L14.2806 19C14.5229 19.0002 14.7315 19.0004 14.9179 18.9633C15.6752 18.8127 16.2672 18.2207 16.4178 17.4633C16.4549 17.277 16.4547 17.0684 16.4545 16.8261L16.4545 16.7727H15.1818C15.1818 17.0989 15.1787 17.1691 15.1696 17.215C15.1194 17.4675 14.922 17.6648 14.6696 17.715C14.6236 17.7242 14.5534 17.7273 14.2273 17.7273H12.6364C12.6367 17.4313 12.6386 17.229 12.6516 17.0704C12.6657 16.8976 12.6897 16.8335 12.7057 16.802C12.7667 16.6823 12.8641 16.5849 12.9838 16.5239C13.0153 16.5079 13.0794 16.4839 13.2522 16.4698C13.4326 16.455 13.6695 16.4545 14.0363 16.4545L16.3518 16.4545H16.3518C16.6872 16.4546 16.9766 16.4546 17.215 16.4351C17.4666 16.4145 17.7168 16.3691 17.9576 16.2465C18.3168 16.0634 18.6088 15.7714 18.7919 15.4122C18.9146 15.1714 18.9599 14.9212 18.9805 14.6696C19 14.4312 19 14.1418 18.9999 13.8064V11.3637L18.9999 9.77275L19 9.71937C19.0002 9.47711 19.0003 9.26849 18.9633 9.08213C18.8126 8.32482 18.2206 7.73282 17.4633 7.58218C17.2769 7.54511 17.0683 7.54528 16.8261 7.54547L16.7727 7.5455V8.81821C17.0989 8.81821 17.169 8.8213 17.215 8.83044C17.4675 8.88065 17.6648 9.07799 17.715 9.33043C17.7241 9.3764 17.7272 9.44656 17.7272 9.77275V11.3636C17.4313 11.3633 17.2289 11.3614 17.0704 11.3484C16.8975 11.3343 16.8334 11.3103 16.802 11.2943C16.6822 11.2333 16.5849 11.1359 16.5239 11.0162C16.5078 10.9847 16.4839 10.9206 16.4697 10.7478C16.455 10.5675 16.4545 10.3306 16.4545 9.96366V7.64824V7.64821C16.4545 7.31277 16.4545 7.02339 16.4351 6.78503C16.4145 6.53345 16.3691 6.28322 16.2464 6.04244C16.0634 5.68322 15.7714 5.39117 15.4121 5.20814C15.1714 5.08545 14.9211 5.04007 14.6695 5.01952C14.4312 5.00004 14.1418 5.00005 13.8063 5.00006L12.6364 5.00006V5.00006H9.7728ZM12 15.668C12.1221 15.5588 12.2584 15.4651 12.406 15.3899C12.6468 15.2672 12.897 15.2218 13.1486 15.2013C13.387 15.1818 13.6764 15.1818 14.0118 15.1818L16.3272 15.1818C16.6941 15.1818 16.931 15.1813 17.1113 15.1666C17.2842 15.1525 17.3483 15.1285 17.3798 15.1125C17.4995 15.0515 17.5969 14.9541 17.6579 14.8344C17.6739 14.8029 17.6979 14.7388 17.712 14.5659C17.7267 14.3856 17.7272 14.1487 17.7272 13.7818V12.6364C17.4313 12.6367 17.2289 12.6387 17.0704 12.6516C16.8975 12.6657 16.8334 12.6897 16.802 12.7057C16.6822 12.7668 16.5849 12.8641 16.5239 12.9838C16.5078 13.0153 16.4839 13.0794 16.4697 13.2523C16.455 13.4326 16.4545 13.6695 16.4545 14.0364V14.8636L15.1818 14.8636L15.1818 14.0118C15.1818 13.6764 15.1818 13.387 15.2012 13.1486C15.2218 12.8971 15.2672 12.6468 15.3899 12.406C15.4651 12.2584 15.5588 12.1221 15.6679 12C15.5588 11.878 15.4651 11.7417 15.3899 11.594C15.2672 11.3532 15.2218 11.103 15.2012 10.8514C15.1818 10.6131 15.1818 10.3237 15.1818 9.98827V9.9882L15.1818 7.67277C15.1818 7.30587 15.1813 7.06897 15.1666 6.88867C15.1524 6.71579 15.1285 6.6517 15.1124 6.62024C15.0514 6.5005 14.9541 6.40315 14.8343 6.34214C14.8029 6.32611 14.7388 6.30213 14.5659 6.28801C14.3856 6.27327 14.1487 6.27278 13.7818 6.27278L12.6364 6.27278C12.6367 6.56875 12.6386 6.77106 12.6516 6.92961C12.6657 7.10248 12.6897 7.16657 12.7057 7.19804C12.7667 7.31778 12.8641 7.41513 12.9838 7.47614C13.0153 7.49217 13.0794 7.51615 13.2522 7.53027C13.4326 7.545 13.6695 7.5455 14.0363 7.5455H14.8636V8.81821L14.0118 8.81821C13.6764 8.81823 13.387 8.81824 13.1486 8.79876C12.897 8.77821 12.6468 8.73282 12.406 8.61014C12.2584 8.53491 12.1221 8.44126 12 8.3321C11.878 8.44126 11.7417 8.5349 11.594 8.61013C11.3533 8.73282 11.103 8.7782 10.8514 8.79875C10.6131 8.81823 10.3237 8.81822 9.98825 8.81821L7.67282 8.81821C7.30592 8.81821 7.06902 8.8187 6.88872 8.83343C6.71585 8.84756 6.65175 8.87153 6.62029 8.88757C6.50055 8.94858 6.4032 9.04593 6.34219 9.16567C6.32616 9.19713 6.30218 9.26122 6.28806 9.4341C6.27332 9.6144 6.27283 9.8513 6.27283 10.2182V11.3636C6.5688 11.3633 6.77111 11.3614 6.92966 11.3484C7.10253 11.3343 7.16663 11.3103 7.19809 11.2943C7.31783 11.2333 7.41518 11.1359 7.47619 11.0162C7.49222 10.9847 7.5162 10.9206 7.53032 10.7478C7.54505 10.5674 7.54555 10.3305 7.54555 9.96365V9.13639H8.81826L8.81827 9.98819V9.98821V9.98821V9.98822C8.81828 10.3237 8.81829 10.613 8.79881 10.8514C8.77826 11.103 8.73287 11.3532 8.61019 11.594C8.53494 11.7417 8.44128 11.878 8.33209 12C8.44125 12.1221 8.5349 12.2584 8.61013 12.406C8.73282 12.6468 8.7782 12.8971 8.79875 13.1486C8.81823 13.387 8.81822 13.6764 8.81821 14.0118L8.81821 16.3273C8.81821 16.6942 8.8187 16.9311 8.83343 17.1114C8.84756 17.2842 8.87153 17.3483 8.88757 17.3798C8.94858 17.4995 9.04593 17.5969 9.16567 17.6579C9.19713 17.6739 9.26122 17.6979 9.4341 17.712C9.6144 17.7268 9.8513 17.7273 10.2182 17.7273H11.3636C11.3633 17.4313 11.3614 17.229 11.3484 17.0704C11.3343 16.8975 11.3103 16.8335 11.2943 16.802C11.2333 16.6823 11.1359 16.5849 11.0162 16.5239C10.9847 16.5079 10.9206 16.4839 10.7478 16.4698C10.5674 16.455 10.3305 16.4545 9.96365 16.4545H9.13639V15.1818L9.98819 15.1818H9.98826C10.3237 15.1818 10.613 15.1818 10.8514 15.2013C11.103 15.2218 11.3532 15.2672 11.594 15.3899C11.7416 15.4651 11.878 15.5588 12 15.668Z" fill="white"/>
</svg>

