<svg viewBox="0 0 24 24" fill="none" xmlns="http://www.w3.org/2000/svg">
<path d="M0 12C0 5.37258 5.37258 0 12 0C18.6274 0 24 5.37258 24 12C24 18.6274 18.6274 24 12 24C5.37258 24 0 18.6274 0 12Z" fill="#44403C"/>
<path d="M8.4 7.5V7.5C8.4 6.67157 9.07157 6 9.9 6H12V6C12 7.32548 10.9255 8.4 9.6 8.4H8.4V8.4C7.07452 8.4 6 9.47452 6 10.8V12V12C7.32548 12 8.4 10.9255 8.4 9.6V9.3" stroke="white" stroke-width="1.2"/>
<path d="M16.5 8.4V8.4C17.3284 8.4 18 9.07157 18 9.9L18 12V12C16.6745 12 15.6 10.9255 15.6 9.6L15.6 8.4V8.4C15.6 7.07452 14.5255 6 13.2 6L12 6V6C12 7.32548 13.0745 8.4 14.4 8.4L14.7 8.4" stroke="white" stroke-width="1.2"/>
<path d="M15.6 16.5V16.5C15.6 17.3284 14.9284 18 14.1 18L12 18V18C12 16.6745 13.0745 15.6 14.4 15.6L15.6 15.6V15.6C16.9255 15.6 18 14.5255 18 13.2L18 12V12C16.6745 12 15.6 13.0745 15.6 14.4L15.6 14.7" stroke="white" stroke-width="1.2"/>
<path d="M7.5 15.6V15.6C6.67157 15.6 6 14.9284 6 14.1L6 12V12C7.32548 12 8.4 13.0745 8.4 14.4L8.4 15.6V15.6C8.4 16.9255 9.47452 18 10.8 18L12 18V18C12 16.6745 10.9255 15.6 9.6 15.6L9.3 15.6" stroke="white" stroke-width="1.2"/>
</svg>

