<svg viewBox="0 0 24 24" fill="none" xmlns="http://www.w3.org/2000/svg">
<path d="M0 12C0 5.37258 5.37258 0 12 0V0C18.6274 0 24 5.37258 24 12V12C24 18.6274 18.6274 24 12 24V24C5.37258 24 0 18.6274 0 12V12Z" fill="#44403C"/>
<path d="M8.4 7.5V7.5C8.4 6.67157 9.07157 6 9.9 6H12V6C12 6.3716 12 6.5574 11.9754 6.71287C11.8398 7.56865 11.1687 8.23983 10.3129 8.37538C10.1574 8.4 9.9716 8.4 9.6 8.4H8.4V8.4C8.0284 8.4 7.8426 8.4 7.68713 8.42462C6.83135 8.56017 6.16017 9.23135 6.02462 10.0871C6 10.2426 6 10.4284 6 10.8V12V12C6.3716 12 6.5574 12 6.71287 11.9754C7.56865 11.8398 8.23983 11.1687 8.37538 10.3129C8.4 10.1574 8.4 9.9716 8.4 9.6V9.3" stroke="white" stroke-width="1.2"/>
<path d="M16.5 8.4V8.4C17.3284 8.4 18 9.07157 18 9.9L18 12V12C17.6284 12 17.4426 12 17.2871 11.9754C16.4313 11.8398 15.7602 11.1687 15.6246 10.3129C15.6 10.1574 15.6 9.9716 15.6 9.6L15.6 8.4V8.4C15.6 8.0284 15.6 7.8426 15.5754 7.68713C15.4398 6.83135 14.7687 6.16017 13.9129 6.02462C13.7574 6 13.5716 6 13.2 6L12 6VC12 6.3716 12 6.5574 12.0246 6.71287C12.1602 7.56865 12.8313 8.23983 13.6871 8.37538C13.8426 8.4 14.0284 8.4 14.4 8.4L14.7 8.4" stroke="white" stroke-width="1.2"/>
<path d="M15.6 16.5V16.5C15.6 17.3284 14.9284 18 14.1 18L12 18V18C12 17.6284 12 17.4426 12.0246 17.2871C12.1602 16.4313 12.8313 15.7602 13.6871 15.6246C13.8426 15.6 14.0284 15.6 14.4 15.6L15.6 15.6V15.6C15.9716 15.6 16.1574 15.6 16.3129 15.5754C17.1687 15.4398 17.8398 14.7687 17.9754 13.9129C18 13.7574 18 13.5716 18 13.2L18 12V12C17.6284 12 17.4426 12 17.2871 12.0246C16.4313 12.1602 15.7602 12.8313 15.6246 13.6871C15.6 13.8426 15.6 14.0284 15.6 14.4L15.6 14.7" stroke="white" stroke-width="1.2"/>
<path d="M7.5 15.6V15.6C6.67157 15.6 6 14.9284 6 14.1L6 12V12C6.3716 12 6.5574 12 6.71287 12.0246C7.56865 12.1602 8.23983 12.8313 8.37538 13.6871C8.4 13.8426 8.4 14.0284 8.4 14.4L8.4 15.6V15.6C8.4 15.9716 8.4 16.1574 8.42462 16.3129C8.56017 17.1687 9.23135 17.8398 10.0871 17.9754C10.2426 18 10.4284 18 10.8 18L12 18V18C12 17.6284 12 17.4426 11.9754 17.2871C11.8398 16.4313 11.1687 15.7602 10.3129 15.6246C10.1574 15.6 9.9716 15.6 9.6 15.6L9.3 15.6" stroke="white" stroke-width="1.2"/>
</svg>
