<svg viewBox="0 0 24 24" fill="none" xmlns="http://www.w3.org/2000/svg">
<path fill-rule="evenodd" clip-rule="evenodd" d="M12 10.5C13.3807 10.5 14.5 9.38071 14.5 8C14.5 6.61929 13.3807 5.5 12 5.5C10.6193 5.5 9.5 6.61929 9.5 8C9.5 9.38071 10.6193 10.5 12 10.5ZM12 12C14.2091 12 16 10.2091 16 8C16 5.79086 14.2091 4 12 4C9.79086 4 8 5.79086 8 8C8 10.2091 9.79086 12 12 12ZM9.52071 14.5C8.04754 14.5 6.91591 15.8048 7.12425 17.2631C7.22564 17.9728 7.83345 18.5 8.55036 18.5H15.4496C16.1665 18.5 16.7744 17.9728 16.8758 17.2631C17.0841 15.8048 15.9525 14.5 14.4793 14.5H9.52071ZM9.52071 13C7.13471 13 5.30189 15.1133 5.63932 17.4753C5.84628 18.924 7.08698 20 8.55036 20H15.4496C16.913 20 18.1537 18.924 18.3607 17.4753C18.6981 15.1133 16.8653 13 14.4793 13H9.52071ZM20.25 9C20.25 8.58579 19.9142 8.25 19.5 8.25C19.0858 8.25 18.75 8.58579 18.75 9V10.75H17C16.5858 10.75 16.25 11.0858 16.25 11.5C16.25 11.9142 16.5858 12.25 17 12.25H18.75V14C18.75 14.4142 19.0858 14.75 19.5 14.75C19.9142 14.75 20.25 14.4142 20.25 14V12.25H22C22.4142 12.25 22.75 11.9142 22.75 11.5C22.75 11.0858 22.4142 10.75 22 10.75H20.25V9Z" fill="#44403C"/>
</svg>

