<svg viewBox="0 0 25 24" fill="none" xmlns="http://www.w3.org/2000/svg">
<path d="M5.41331 7.37402C9.3272 3.54199 15.6729 3.54199 19.5868 7.37402L20.0578 7.83521C20.2535 8.02681 20.2535 8.33746 20.0578 8.52906L18.4465 10.1067C18.3486 10.2025 18.19 10.2025 18.0921 10.1067L17.4439 9.47205C14.7135 6.79873 10.2866 6.79873 7.55616 9.47205L6.86198 10.1517C6.76413 10.2475 6.60549 10.2475 6.50764 10.1517L4.8963 8.57407C4.7006 8.38247 4.7006 8.07182 4.8963 7.88022L5.41331 7.37402ZM22.9192 10.6367L24.3533 12.0409C24.549 12.2325 24.549 12.5431 24.3533 12.7347L17.8868 19.066C17.6911 19.2576 17.3738 19.2576 17.1781 19.066C17.1781 19.066 17.1781 19.066 17.1781 19.066L12.5886 14.5725C12.5397 14.5246 12.4604 14.5246 12.4115 14.5725C12.4115 14.5725 12.4115 14.5725 12.4115 14.5725L7.82208 19.066C7.62639 19.2576 7.30911 19.2576 7.11341 19.066C7.11341 19.066 7.11341 19.066 7.11341 19.066L0.646771 12.7346C0.451076 12.543 0.451076 12.2324 0.646771 12.0408L2.08087 10.6367C2.27657 10.4451 2.59385 10.4451 2.78955 10.6367L7.37911 15.1302C7.42803 15.1781 7.50735 15.1781 7.55628 15.1302C7.55628 15.1302 7.55628 15.1302 7.55628 15.1302L12.1456 10.6367C12.3413 10.4451 12.6586 10.4451 12.8543 10.6367C12.8543 10.6367 12.8543 10.6367 12.8543 10.6367L17.4439 15.1302C17.4928 15.1781 17.5721 15.1781 17.621 15.1302L22.2105 10.6367C22.4062 10.4451 22.7235 10.4451 22.9192 10.6367Z" fill="#3B99FC"/>
</svg>
