<svg viewBox="0 0 25 24" fill="none" xmlns="http://www.w3.org/2000/svg">
<path fill-rule="evenodd" clip-rule="evenodd" d="M12.5 18.5C16.0899 18.5 19 15.5899 19 12C19 8.41015 16.0899 5.5 12.5 5.5C8.91015 5.5 6 8.41015 6 12C6 15.5899 8.91015 18.5 12.5 18.5ZM12.5 20C16.9183 20 20.5 16.4183 20.5 12C20.5 7.58172 16.9183 4 12.5 4C8.08172 4 4.5 7.58172 4.5 12C4.5 16.4183 8.08172 20 12.5 20ZM13.5 9C13.5 9.55228 13.0523 10 12.5 10C11.9477 10 11.5 9.55228 11.5 9C11.5 8.44772 11.9477 8 12.5 8C13.0523 8 13.5 8.44772 13.5 9ZM12.5 11C11.9477 11 11.5 11.4477 11.5 12V15C11.5 15.5523 11.9477 16 12.5 16C13.0523 16 13.5 15.5523 13.5 15V12C13.5 11.4477 13.0523 11 12.5 11Z" fill="black" />
</svg>


