<svg viewBox="0 0 16 16" fill="none" xmlns="http://www.w3.org/2000/svg">
<path fill-rule="evenodd" clip-rule="evenodd" d="M7.99992 2.66665C6.58543 2.66665 5.22888 3.22855 4.22868 4.22874C3.22849 5.22894 2.66659 6.58549 2.66659 7.99998C2.66659 8.70036 2.80454 9.39389 3.07256 10.041C3.34059 10.688 3.73344 11.276 4.22868 11.7712C4.72393 12.2665 5.31187 12.6593 5.95894 12.9273C6.60601 13.1954 7.29953 13.3333 7.99992 13.3333C8.7003 13.3333 9.39383 13.1954 10.0409 12.9273C10.688 12.6593 11.2759 12.2665 11.7712 11.7712C12.2664 11.276 12.6593 10.688 12.9273 10.041C13.1953 9.39389 13.3333 8.70036 13.3333 7.99998C13.3333 6.58549 12.7713 5.22894 11.7712 4.22874C10.771 3.22855 9.41441 2.66665 7.99992 2.66665ZM3.28587 3.28593C4.53612 2.03569 6.23181 1.33331 7.99992 1.33331C9.76803 1.33331 11.4637 2.03569 12.714 3.28593C13.9642 4.53618 14.6666 6.23187 14.6666 7.99998C14.6666 8.87546 14.4941 9.74236 14.1591 10.5512C13.8241 11.36 13.333 12.095 12.714 12.714C12.0949 13.3331 11.36 13.8241 10.5511 14.1592C9.7423 14.4942 8.8754 14.6666 7.99992 14.6666C7.12444 14.6666 6.25753 14.4942 5.4487 14.1592C4.63986 13.8241 3.90493 13.3331 3.28587 12.714C2.66682 12.095 2.17575 11.36 1.84072 10.5512C1.50569 9.74237 1.33325 8.87546 1.33325 7.99998C1.33325 6.23187 2.03563 4.53618 3.28587 3.28593ZM7.33325 5.33331C7.33325 4.96512 7.63173 4.66665 7.99992 4.66665H8.00659C8.37478 4.66665 8.67325 4.96512 8.67325 5.33331C8.67325 5.7015 8.37478 5.99998 8.00659 5.99998H7.99992C7.63173 5.99998 7.33325 5.7015 7.33325 5.33331ZM6.76615 7.64949C6.88762 7.45295 7.1022 7.33331 7.33325 7.33331H7.99992C8.36811 7.33331 8.66659 7.63179 8.66659 7.99998V9.17593L9.26287 10.3685C9.3662 10.5752 9.35516 10.8206 9.23369 11.0171C9.11221 11.2137 8.89764 11.3333 8.66659 11.3333H7.99992C7.63173 11.3333 7.33325 11.0348 7.33325 10.6666V9.49069L6.73697 8.29812C6.63364 8.09146 6.64468 7.84604 6.76615 7.64949Z" fill="#78716C"/>
</svg>

