<svg class="wireCheck" viewBox="0 0 25 24" fill="none" xmlns="http://www.w3.org/2000/svg">
<path fill-rule="evenodd" clip-rule="evenodd" d="M19 12C19 15.5899 16.0899 18.5 12.5 18.5C8.91015 18.5 6 15.5899 6 12C6 8.41015 8.91015 5.5 12.5 5.5C16.0899 5.5 19 8.41015 19 12ZM20.5 12C20.5 16.4183 16.9183 20 12.5 20C8.08172 20 4.5 16.4183 4.5 12C4.5 7.58172 8.08172 4 12.5 4C16.9183 4 20.5 7.58172 20.5 12ZM16.5303 10.5303C16.8232 10.2374 16.8232 9.76256 16.5303 9.46967C16.2374 9.17678 15.7626 9.17678 15.4697 9.46967L11.5 13.4393L10.0303 11.9697C9.73744 11.6768 9.26256 11.6768 8.96967 11.9697C8.67678 12.2626 8.67678 12.7374 8.96967 13.0303L10.9697 15.0303C11.2626 15.3232 11.7374 15.3232 12.0303 15.0303L16.5303 10.5303Z" fill="black" />
</svg>

