<svg width="12" height="12" viewBox="0 0 12 12" fill="none" xmlns="http://www.w3.org/2000/svg">
<path fill-rule="evenodd" clip-rule="evenodd" d="M0.5 3.5C0.5 1.84315 1.84315 0.5 3.5 0.5H4.5C5.05228 0.5 5.5 0.947715 5.5 1.5C5.5 2.05228 5.05228 2.5 4.5 2.5H3.5C2.94772 2.5 2.5 2.94772 2.5 3.5V8.5C2.5 9.05228 2.94772 9.5 3.5 9.5H8.5C9.05228 9.5 9.5 9.05228 9.5 8.5V7.5C9.5 6.94772 9.94771 6.5 10.5 6.5C11.0523 6.5 11.5 6.94772 11.5 7.5V8.5C11.5 10.1569 10.1569 11.5 8.5 11.5H3.5C1.84315 11.5 0.5 10.1569 0.5 8.5V3.5ZM6.5 1.5C6.5 0.947715 6.94772 0.5 7.5 0.5H10.5C11.0523 0.5 11.5 0.947715 11.5 1.5V4.5C11.5 5.05228 11.0523 5.5 10.5 5.5C9.94771 5.5 9.5 5.05228 9.5 4.5V3.91421L5.91421 7.5C5.52369 7.89052 4.89052 7.89052 4.5 7.5C4.10948 7.10948 4.10948 6.47631 4.5 6.08579L8.08579 2.5H7.5C6.94772 2.5 6.5 2.05228 6.5 1.5Z" fill="#A8A29E"/>
</svg>

