<svg fill="none" version="1.1" viewBox="0 0 20 15.015" xmlns="http://www.w3.org/2000/svg">
 <path d="m20 2.4859c0.0057 0.65751-0.24706 1.291-0.70386 1.7639l-10.031 10.031c-0.47027 0.47012-1.108 0.73423-1.7729 0.73423-0.66494 0-1.3027-0.26411-1.7729-0.73423l-5.0154-5.0154c-0.4568-0.47295-0.70956-1.1064-0.70385-1.7639 0.0057136-0.65749 0.26945-1.2865 0.7344-1.7514 0.46495-0.46493 1.0939-0.72866 1.7514-0.73438 0.65752-0.00572 1.291 0.24703 1.7639 0.70384l3.2425 3.2425 8.2579-8.2579c0.47295-0.4568 1.1064-0.70956 1.7639-0.70385 0.65752 0.00571 1.2865 0.26945 1.7514 0.7344s0.72869 1.0939 0.73441 1.7514z" fill="#44403c" stroke-width="2.5077"/>
</svg>
