<svg fill="none" version="1.1" viewBox="0 0 20 20" xmlns="http://www.w3.org/2000/svg">
 <g transform="scale(1.4286)" clip-rule="evenodd" fill="#78716c" fill-rule="evenodd">
  <path d="m7 12.5c3.0376 0 5.5-2.4624 5.5-5.5 0-3.0376-2.4624-5.5-5.5-5.5-3.0376 0-5.5 2.4624-5.5 5.5 0 3.0376 2.4624 5.5 5.5 5.5zm0 1.5c3.866 0 7-3.134 7-7 0-3.866-3.134-7-7-7-3.866 0-7 3.134-7 7 0 3.866 3.134 7 7 7z"/>
  <path d="m6.242 3.742c0-0.41421 0.33579-0.75 0.75-0.75h8e-3c0.41421 0 0.75 0.33579 0.75 0.75v8e-3c0 0.41422-0.33579 0.75-0.75 0.75h-8e-3c-0.41421 0-0.75-0.33578-0.75-0.75zm-0.28256 1.8152c0.25553-0.12677 0.54193-0.17808 0.82563-0.14784 0.28507 0.03038 0.55546 0.14181 0.77916 0.32111 0.2237 0.17929 0.39133 0.41894 0.48304 0.69055 0.09172 0.27161 0.10368 0.56382 0.03447 0.84203l-0.62641 1.7448 0.03443-0.0172c0.36867-0.18882 0.82061-0.04303 1.0094 0.32563 0.18883 0.36867 0.04304 0.82059-0.32563 1.0095l-0.04742 0.0242c-0.25663 0.1284-0.5447 0.1804-0.83002 0.15-0.28532-0.0305-0.55593-0.1421-0.77972-0.3217-0.22379-0.17955-0.39138-0.41955-0.48289-0.6915-0.09145-0.27178-0.10308-0.56407-0.03352-0.84224l0.62611-1.7436-0.00635 0.00317-0.04101 0.01997c-0.37228 0.18161-0.8213 0.02703-1.0029-0.34525s-0.02703-0.82129 0.34525-1.0029z"/>
 </g>
</svg>
