<svg fill="none" version="1.1" viewBox="0 0 20 20" xmlns="http://www.w3.org/2000/svg">
 <path d="m10 2c-2.1217 0-4.1566 0.84285-5.6569 2.3431-1.5003 1.5003-2.3431 3.5351-2.3431 5.6569 0 1.0506 0.20692 2.0909 0.60895 3.0615 0.40204 0.9705 0.99132 1.8525 1.7342 2.5953 0.74287 0.74295 1.6248 1.3321 2.5954 1.7341 0.9706 0.40215 2.0109 0.609 3.0615 0.609 1.0506 0 2.0909-0.20685 3.0615-0.609 0.97065-0.402 1.8525-0.9912 2.5954-1.7341 0.7428-0.7428 1.3321-1.6248 1.7341-2.5953 0.402-0.97066 0.609-2.011 0.609-3.0615 0-2.1217-0.843-4.1566-2.3431-5.6569-1.5003-1.5003-3.5352-2.3431-5.6569-2.3431zm-7.0711 0.92892c1.8754-1.8754 4.4189-2.9289 7.0711-2.9289 2.6522 0 5.1957 1.0536 7.0711 2.9289 1.8753 1.8754 2.9289 4.4189 2.9289 7.0711 0 1.3132-0.25875 2.6136-0.76125 3.8268-0.5025 1.2132-1.2391 2.3157-2.1676 3.2442-0.92865 0.92865-2.031 1.6651-3.2443 2.1678-1.2132 0.5025-2.5135 0.7611-3.8268 0.7611-1.3132 0-2.6136-0.2586-3.8268-0.7611-1.2133-0.50265-2.3157-1.2391-3.2442-2.1678-0.92857-0.9285-1.6652-2.031-2.1677-3.2442-0.50254-1.2132-0.7612-2.5136-0.7612-3.8268 0-2.6522 1.0536-5.1957 2.9289-7.0711zm6.0711 3.0711c0-0.55228 0.44772-0.99999 1-0.99999h0.01c0.55228 0 0.99999 0.4477 0.99999 0.99999s-0.4477 1-0.99999 1h-0.01c-0.55228 0-1-0.44772-1-1zm-0.85065 3.4743c0.1822-0.29481 0.50407-0.47427 0.85065-0.47427h1c0.55228 0 1 0.44772 1 1v1.7639l0.89442 1.7889c0.155 0.31005 0.13844 0.67815-0.04377 0.9729-0.18222 0.2949-0.50407 0.4743-0.85065 0.4743h-1c-0.55228 0-1-0.44775-1-1v-1.7639l-0.89442-1.7889c-0.15499-0.30999-0.13843-0.67812 0.04377-0.97294z" clip-rule="evenodd" fill="#78716c" fill-rule="evenodd" stroke-width="1.5"/>
</svg>
