<svg fill="none" version="1.1" viewBox="0 0 20 18.547" xmlns="http://www.w3.org/2000/svg">
 <g transform="matrix(.8297 0 0 .8297 -2.4456 -2.7344)" stroke-linecap="round" stroke-linejoin="round" stroke-width=".094162">
  <path d="m25.81 3.3428-9.3691 6.9585 1.7326-4.1054z" fill="#e2761b" stroke="#e2761b"/>
  <g fill="#e4761b" stroke="#e4761b">
   <path d="m4.1812 3.3428 9.2938 7.0245-1.6478-4.1714z"/>
   <path d="m22.439 19.473-2.4953 3.823 5.339 1.4689 1.5349-5.2071z"/>
   <path d="m3.1924 19.558 1.5254 5.2071 5.339-1.4689-2.4953-3.823z"/>
   <path d="m9.7553 13.013-1.4878 2.2505 5.3013 0.2354-0.1883-5.6968z"/>
   <path d="m20.236 13.013-3.6723-3.2768-0.1224 5.7627 5.2919-0.2354z"/>
   <path d="m10.057 23.296 3.1827-1.5537-2.7495-2.1469z"/>
   <path d="m16.752 21.742 3.192 1.5537-0.4425-3.7006z"/>
  </g>
  <path d="m19.944 23.296-3.1921-1.5537 0.2542 2.081-0.0282 0.8757z" fill="#d7c1b3" stroke="#d7c1b3"/>
  <path d="m10.057 23.296 2.9661 1.403-0.0188-0.8757 0.2354-2.081z" fill="#d7c1b3" stroke="#d7c1b3"/>
  <path d="m13.069 18.22-2.6553-0.7816 1.8738-0.8569z" fill="#233447" stroke="#233447"/>
  <path d="m16.921 18.22 0.7815-1.6385 1.8833 0.8569z" fill="#233447" stroke="#233447"/>
  <g fill="#cd6116" stroke="#cd6116">
   <path d="m10.057 23.296 0.452-3.823-2.9473 0.0848z"/>
   <path d="m19.492 19.473 0.452 3.823 2.4953-3.7382z"/>
   <path d="m21.733 15.264-5.2919 0.2354 0.4897 2.7213 0.7815-1.6385 1.8832 0.8569z"/>
   <path d="m10.414 17.439 1.8832-0.8569 0.7721 1.6385 0.4991-2.7213-5.3013-0.2354z"/>
  </g>
  <g fill="#e4751f" stroke="#e4751f">
   <path d="m8.2676 15.264 2.2222 4.3314-0.0753-2.1563z"/>
   <path d="m19.595 17.439-0.0941 2.1563 2.2316-4.3314z"/>
   <path d="m13.569 15.499-0.4991 2.7212 0.6215 3.211 0.1412-4.2279z"/>
   <path d="m16.441 15.499-0.2543 1.6949 0.113 4.2373 0.6309-3.211z"/>
  </g>
  <path d="m16.93 18.22-0.6309 3.2109 0.452 0.3108 2.7495-2.1469 0.0942-2.1563z" fill="#f6851b" stroke="#f6851b"/>
  <path d="m10.414 17.439 0.0753 2.1563 2.7495 2.1469 0.452-0.3108-0.6215-3.2109z" fill="#f6851b" stroke="#f6851b"/>
  <path d="m16.978 24.699 0.0283-0.8757-0.2354-0.2072h-3.5499l-0.2166 0.2072 0.0188 0.8757-2.9661-1.403 1.0358 0.8474 2.0998 1.4596h3.6064l2.1093-1.4596 1.0357-0.8474z" fill="#c0ad9e" stroke="#c0ad9e"/>
  <path d="m16.752 21.742-0.452-0.3107h-2.6083l-0.452 0.3107-0.2354 2.081 0.2166-0.2071h3.5499l0.2354 0.2071z" fill="#161616" stroke="#161616"/>
  <path d="m26.205 10.753 0.8004-3.8418-1.1959-3.5687-9.0583 6.7231 3.484 2.9473 4.9246 1.4407 1.0923-1.2712-0.4708-0.339 0.7533-0.6874-0.5838-0.4519 0.7533-0.5744z" fill="#763d16" stroke="#763d16"/>
  <path d="m2.9946 6.9115 0.80038 3.8418-0.50848 0.3767 0.7533 0.5744-0.57439 0.4519 0.75329 0.6874-0.47081 0.339 1.0829 1.2712 4.9247-1.4407 3.484-2.9473-9.0584-6.7231z" fill="#763d16" stroke="#763d16"/>
  <g fill="#f6851b" stroke="#f6851b">
   <path d="m25.16 14.454-4.9247-1.4407 1.4972 2.2505-2.2316 4.3314 2.9378-0.0376h4.3786z"/>
   <path d="m9.7555 13.013-4.9247 1.4407-1.6384 5.1036h4.3691l2.9284 0.0376-2.2222-4.3314z"/>
   <path d="m16.441 15.499 0.3107-5.4331 1.4313-3.8701h-6.3559l1.4124 3.8701 0.3296 5.4331 0.113 1.7138 0.0094 4.2184h2.6083l0.0188-4.2184z"/>
  </g>
 </g>
</svg>
