<svg fill="none" version="1.1" viewBox="0 0 24 24" xmlns="http://www.w3.org/2000/svg">
 <path d="m18.5 12c0 3.5899-2.9101 6.5-6.5 6.5-3.5898 0-6.5-2.9101-6.5-6.5 0-3.5898 2.9102-6.5 6.5-6.5 3.5899 0 6.5 2.9102 6.5 6.5zm1.5 0c0 4.4183-3.5817 8-8 8-4.4183 0-8-3.5817-8-8 0-4.4183 3.5817-8 8-8 4.4183 0 8 3.5817 8 8zm-3.9697-1.4697c0.2929-0.2929 0.2929-0.76774 0-1.0606s-0.7677-0.29289-1.0606 0l-3.9697 3.9696-1.4697-1.4696c-0.29289-0.2929-0.76777-0.2929-1.0607 0s-0.29289 0.7677 0 1.0606l2 2c0.2929 0.2929 0.7677 0.2929 1.0606 0l4.5-4.5z" clip-rule="evenodd" fill="#3B82F6" fill-rule="evenodd"/>
</svg>
