<svg fill="none" version="1.1" viewBox="0 0 24 24" xmlns="http://www.w3.org/2000/svg">
 <path d="m12 2.25c-5.385 0-9.75 4.365-9.75 9.75s4.365 9.75 9.75 9.75 9.75-4.365 9.75-9.75-4.365-9.75-9.75-9.75zm0.75 6.75c0-0.19891-0.079-0.38968-0.2197-0.53033-0.1406-0.14065-0.3314-0.21967-0.5303-0.21967s-0.3897 0.07902-0.5303 0.21967c-0.1407 0.14065-0.2197 0.33142-0.2197 0.53033v2.25h-2.25c-0.19891 0-0.38968 0.079-0.53033 0.2197-0.14065 0.1406-0.21967 0.3314-0.21967 0.5303s0.07902 0.3897 0.21967 0.5303c0.14065 0.1407 0.33142 0.2197 0.53033 0.2197h2.25v2.25c0 0.1989 0.079 0.3897 0.2197 0.5303 0.1406 0.1407 0.3314 0.2197 0.5303 0.2197s0.3897-0.079 0.5303-0.2197c0.1407-0.1406 0.2197-0.3314 0.2197-0.5303v-2.25h2.25c0.1989 0 0.3897-0.079 0.5303-0.2197 0.1407-0.1406 0.2197-0.3314 0.2197-0.5303s-0.079-0.3897-0.2197-0.5303c-0.1406-0.1407-0.3314-0.2197-0.5303-0.2197h-2.25v-2.25z" clip-rule="evenodd" fill="#44403C" fill-rule="evenodd"/>
</svg>
