<svg fill="none" version="1.1" viewBox="0 0 20 20" xmlns="http://www.w3.org/2000/svg">
 <path d="m18 5.8824v11.118c0 1.6569-1.3431 3-3 3h-10c-1.6568 0-3-1.3431-3-3v-1c1.1046 0 2-0.8954 2-2s-0.89543-2-2-2v-4c1.1046 0 2-0.89543 2-2s-0.89543-2-2-2v-1c0-1.6568 1.3432-3 3-3h10c1.6569 0 3 1.3432 3 3zm-6.3 1.8176c0 0.9389-0.7611 1.7-1.7 1.7s-1.7-0.7611-1.7-1.7c0-0.93888 0.7611-1.7 1.7-1.7s1.7 0.76112 1.7 1.7zm-1.7 2.2667c-1.8778 0-3.4 1.5222-3.4 3.4 0 0 0 1.1333 3.4 1.1333 3.4 0 3.4-1.1333 3.4-1.1333 0-1.8778-1.5223-3.4-3.4-3.4zm9 7.0333v-14c0-1.6568-1.3431-3-3-3h1c1.6569 0 3 1.3432 3 3v14c0 1.6569-1.3431 3-3 3h-1c1.6569 0 3-1.3431 3-3zm-19-3c0-0.5523 0.44772-1 1-1h1c0.55228 0 1 0.4477 1 1s-0.44772 1-1 1h-1c-0.55228 0-1-0.4477-1-1zm1-9c-0.55228 0-1 0.44772-1 1s0.44772 1 1 1h1c0.55228 0 1-0.44772 1-1s-0.44772-1-1-1z" clip-rule="evenodd" fill="#44403c" fill-rule="evenodd"/>
</svg>
