<svg fill="none" version="1.1" viewBox="0 0 24 24" xmlns="http://www.w3.org/2000/svg">
 <path d="m12 2.25c-5.385 0-9.75 4.365-9.75 9.75s4.365 9.75 9.75 9.75 9.75-4.365 9.75-9.75-4.365-9.75-9.75-9.75zm4.28 10.28c0.1405-0.1406 0.2193-0.3312 0.2193-0.53s-0.0788-0.3894-0.2193-0.53l-3-3c-0.0687-0.07369-0.1515-0.13279-0.2435-0.17378s-0.1913-0.06304-0.292-0.06481c-0.1007-0.00178-0.2007 0.01675-0.2941 0.05447s-0.1782 0.09386-0.2494 0.16508c-0.0713 0.07122-0.1274 0.15605-0.1651 0.24944s-0.0563 0.19342-0.0545 0.29412 0.0238 0.20002 0.0648 0.29202 0.1001 0.1748 0.1738 0.24346l1.72 1.72h-5.69c-0.19891 0-0.38968 0.079-0.53033 0.2197-0.14065 0.1406-0.21967 0.3314-0.21967 0.5303s0.07902 0.3897 0.21967 0.5303c0.14065 0.1407 0.33142 0.2197 0.53033 0.2197h5.69l-1.72 1.72c-0.0737 0.0687-0.1328 0.1515-0.1738 0.2435s-0.063 0.1913-0.0648 0.292 0.0168 0.2007 0.0545 0.2941 0.0938 0.1782 0.1651 0.2494c0.0712 0.0713 0.156 0.1274 0.2494 0.1651s0.1934 0.0563 0.2941 0.0545 0.2-0.0238 0.292-0.0648 0.1748-0.1001 0.2435-0.1738l3-3z" clip-rule="evenodd" fill="#44403C" fill-rule="evenodd"/>
</svg>
