<svg fill="none" version="1.1" viewBox="0 0 20 18.183" xmlns="http://www.w3.org/2000/svg">
 <path d="m0 9.0686c0-0.2411 0.095786-0.47238 0.26628-0.64282 0.17049-0.17055 0.40174-0.26631 0.64285-0.26631h15.989l-6.6306-6.6306c-0.16061-0.17235-0.24801-0.40028-0.24389-0.63581 0.0042-0.23553 0.09964-0.46025 0.26619-0.62681 0.16655-0.16658 0.39129-0.26199 0.62682-0.26614 0.23552-0.00415 0.46341 0.083276 0.63578 0.24386l8.1822 8.1822c0.17031 0.17043 0.26583 0.40147 0.26583 0.64245 0 0.24086-0.09552 0.47202-0.26583 0.64245l-8.1822 8.1822c-0.08328 0.08934-0.18364 0.16098-0.29516 0.21068-0.11152 0.0497-0.23189 0.07637-0.35395 0.07855-0.12207 0.0022-0.24328-0.02036-0.3565-0.06606s-0.21601-0.1137-0.30232-0.20013c-0.08643-0.08631-0.15443-0.1891-0.20013-0.30232-0.0457-0.11322-0.06825-0.23443-0.06606-0.3565 0.0022-0.12207 0.02885-0.24244 0.07855-0.35396s0.12134-0.21189 0.21068-0.29516l6.6306-6.6306h-15.989c-0.24111 0-0.47236-0.09576-0.64285-0.26631-0.17049-0.17044-0.26628-0.40172-0.26628-0.64282z" clip-rule="evenodd" fill="#44403c" fill-rule="evenodd" stroke-width="1.2122"/>
</svg>
