<svg fill="none" version="1.1" viewBox="0 0 20 18.228" xmlns="http://www.w3.org/2000/svg">
 <path d="m20 9.1139c0 0.2411-0.09576 0.47238-0.26631 0.64281-0.17043 0.17055-0.40171 0.26631-0.64281 0.26631h-15.989l6.6306 6.6306c0.08934 0.08328 0.16098 0.18364 0.21068 0.29516 0.0497 0.11152 0.07637 0.23189 0.07855 0.35395 0.0022 0.12206-0.02036 0.24328-0.06606 0.3565s-0.1137 0.21601-0.20013 0.30232c-0.08631 0.08643-0.1891 0.15443-0.30232 0.20013-0.11322 0.0457-0.23443 0.06825-0.3565 0.06606-0.12207-0.0022-0.24243-0.02885-0.35395-0.07855s-0.21189-0.12134-0.29516-0.21068l-8.1822-8.1821c-0.17025-0.17043-0.26588-0.40147-0.26588-0.64245 0-0.24086 0.095628-0.47202 0.26588-0.64245l8.1821-8.1821c0.08328-0.089325 0.18364-0.16096 0.29516-0.21065 0.11152-0.049687 0.23189-0.076403 0.35395-0.078561 0.12206-0.00216 0.24328 0.020304 0.3565 0.066027 0.11322 0.045723 0.21601 0.11377 0.30232 0.2001 0.08643 0.086331 0.15443 0.18916 0.20013 0.30236 0.0457 0.1132 0.06825 0.23446 0.06606 0.35652-0.0022 0.12208-0.02885 0.24246-0.07855 0.35398-0.0497 0.11152-0.12134 0.21189-0.21068 0.29511l-6.6306 6.6306h15.989c0.2411 0 0.47238 0.095761 0.64281 0.26631 0.17055 0.17043 0.26631 0.40171 0.26631 0.64281z" clip-rule="evenodd" fill="#44403c" fill-rule="evenodd" stroke-width="1.2122"/>
</svg>
