<svg fill="none" version="1.1" viewBox="0 0 24 24" xmlns="http://www.w3.org/2000/svg">
 <path d="m3.75 12c0-0.1989 0.07902-0.3897 0.21967-0.5303 0.14065-0.1407 0.33142-0.2197 0.53033-0.2197h13.19l-5.47-5.47c-0.1325-0.14218-0.2046-0.33022-0.2012-0.52452 0.0035-0.1943 0.0822-0.37969 0.2196-0.5171 0.1374-0.13742 0.3228-0.21613 0.5171-0.21956 0.1943-0.00342 0.3823 0.0687 0.5245 0.20118l6.75 6.75c0.1405 0.1406 0.2193 0.3312 0.2193 0.53 0 0.1987-0.0788 0.3894-0.2193 0.53l-6.75 6.75c-0.0687 0.0737-0.1515 0.1328-0.2435 0.1738s-0.1913 0.063-0.292 0.0648-0.2007-0.0168-0.2941-0.0545-0.1782-0.0938-0.2494-0.1651c-0.0713-0.0712-0.1274-0.156-0.1651-0.2494s-0.0563-0.1934-0.0545-0.2941 0.0238-0.2 0.0648-0.292 0.1001-0.1748 0.1738-0.2435l5.47-5.47h-13.19c-0.19891 0-0.38968-0.079-0.53033-0.2197-0.14065-0.1406-0.21967-0.3314-0.21967-0.5303z" clip-rule="evenodd" fill="#44403C" fill-rule="evenodd"/>
</svg>
