<svg fill="none" version="1.1" viewBox="0 0 24 24" xmlns="http://www.w3.org/2000/svg">
 <path d="m20.25 12c0 0.1989-0.079 0.3897-0.2197 0.5303-0.1406 0.1407-0.3314 0.2197-0.5303 0.2197h-13.19l5.47 5.47c0.0737 0.0687 0.1328 0.1515 0.1738 0.2435s0.063 0.1913 0.0648 0.292-0.0168 0.2007-0.0545 0.2941-0.0938 0.1782-0.1651 0.2494c-0.0712 0.0713-0.156 0.1274-0.2494 0.1651s-0.1934 0.0563-0.2941 0.0545-0.2-0.0238-0.292-0.0648-0.1748-0.1001-0.2435-0.1738l-6.75-6.75c-0.14045-0.1406-0.21934-0.3312-0.21934-0.53 0-0.1987 0.07889-0.3894 0.21934-0.53l6.75-6.75c0.0687-0.07369 0.1515-0.13279 0.2435-0.17378s0.1913-0.06303 0.292-0.06481 0.2007 0.01675 0.2941 0.05447 0.1782 0.09386 0.2494 0.16508c0.0713 0.07122 0.1274 0.15605 0.1651 0.24944s0.0563 0.19342 0.0545 0.29412c-0.0018 0.10071-0.0238 0.20002-0.0648 0.29202s-0.1001 0.1748-0.1738 0.24346l-5.47 5.47h13.19c0.1989 0 0.3897 0.079 0.5303 0.2197 0.1407 0.1406 0.2197 0.3314 0.2197 0.5303z" clip-rule="evenodd" fill="#44403C" fill-rule="evenodd"/>
</svg>
