<svg fill="none" version="1.1" viewBox="0 0 20 20" xmlns="http://www.w3.org/2000/svg">
 <path d="m10 0c-5.5231 0-10 4.4769-10 10 0 5.5231 4.4769 10 10 10 5.5231 0 10-4.4769 10-10 0-5.5231-4.4769-10-10-10zm4.3897 10.544c0.1441-0.1442 0.22492-0.33969 0.22492-0.54359s-0.08082-0.39938-0.22492-0.54359l-3.0769-3.0769c-0.07046-0.075579-0.15538-0.13619-0.24974-0.17824-0.09436-0.042041-0.1962-0.064656-0.29949-0.066472-0.10328-0.00183-0.20585 0.01718-0.30164 0.055867-0.0958 0.038687-0.18277 0.096267-0.2558 0.16931-0.07313 0.073046-0.13067 0.16005-0.16933 0.25584-0.03867 0.095785-0.05774 0.19838-0.0559 0.30166 0.0018 0.10328 0.02441 0.20515 0.06646 0.29951s0.10267 0.17928 0.17826 0.2497l1.7641 1.7641h-5.8359c-0.20401 0-0.39967 0.08103-0.54393 0.22533-0.14426 0.1442-0.2253 0.3399-0.2253 0.5439s0.081046 0.39969 0.2253 0.5439c0.14426 0.14431 0.33992 0.22533 0.54393 0.22533h5.8359l-1.7641 1.7641c-0.07559 0.07046-0.1362 0.15538-0.17826 0.24974-0.04205 0.09436-0.06462 0.1962-0.06646 0.29949-0.0018 0.10328 0.01723 0.20585 0.0559 0.30164 0.03867 0.0958 0.0962 0.18277 0.16933 0.2558 0.07302 0.07313 0.16 0.13067 0.2558 0.16933 0.09579 0.03867 0.19836 0.05774 0.30164 0.0559 0.10328-0.0018 0.20513-0.02441 0.29949-0.06646 0.09436-0.04205 0.17928-0.10267 0.24974-0.17826z" clip-rule="evenodd" fill="#44403c" fill-rule="evenodd" stroke-width="1.0256"/>
</svg>
