<svg fill="none" version="1.1" viewBox="0 0 20 20" xmlns="http://www.w3.org/2000/svg">
 <path d="m16.856 17.279c0.99385-0.93385 1.7856-2.0616 2.3264-3.3136 0.54062-1.252 0.81877-2.6015 0.81723-3.9653 0-5.5231-4.4769-10-10-10-5.5231 0-10 4.4769-10 10-0.001578 1.3638 0.27658 2.7133 0.81728 3.9653 0.5407 1.252 1.3325 2.3798 2.3263 3.3136 1.8533 1.7507 4.307 2.7244 6.8564 2.721 2.5494 0.0034 5.0032-0.97036 6.8564-2.721zm-12.862-1.3179c0.72007-0.90092 1.6339-1.628 2.6735-2.1273 1.0396-0.49928 2.1784-0.75795 3.3317-0.75682 1.1533-0.0011 2.292 0.25754 3.3317 0.75682 1.0396 0.49928 1.9533 1.2264 2.6734 2.1273-0.78564 0.79354-1.7209 1.4232-2.7518 1.8524-1.0309 0.42923-2.1367 0.64954-3.2533 0.6481-1.1166 0.001436-2.2225-0.21887-3.2533-0.6481-1.0308-0.42923-1.9662-1.0589-2.7518-1.8524zm9.8513-8.0123c0 1.0201-0.40523 1.9983-1.1265 2.7197-0.72133 0.72123-1.6996 1.1265-2.7197 1.1265-1.0201 0-1.9983-0.40523-2.7196-1.1265-0.7213-0.72134-1.1265-1.6996-1.1265-2.7197 0-1.0201 0.40521-1.9983 1.1265-2.7196 0.72129-0.72129 1.6996-1.1265 2.7196-1.1265 1.0201 0 1.9984 0.40522 2.7197 1.1265 0.72123 0.72129 1.1265 1.6996 1.1265 2.7196z" clip-rule="evenodd" fill="#44403c" fill-rule="evenodd" stroke-width="1.0256"/>
</svg>
