<svg fill="none" version="1.1" viewBox="0 0 20 20" xmlns="http://www.w3.org/2000/svg">
 <path d="m16.234 15.211c1.1805-1.4106 1.8911-3.228 1.8911-5.2112 0-4.4873-3.6376-8.125-8.125-8.125-4.4873 0-8.125 3.6377-8.125 8.125 0 1.9832 0.71061 3.8006 1.8911 5.2112 0.37609-1.6616 1.8392-3.0238 3.7728-3.0238h4.9222c1.9335 0 3.3966 1.3621 3.7728 3.0238zm-1.9925 1.7202c0.65162-1.3052-0.29425-2.869-1.7802-2.869h-4.9222c-1.4859 0-2.4319 1.5638-1.7802 2.869 1.2346 0.757 2.687 1.1935 4.2413 1.1935s3.0068-0.4365 4.2414-1.1935zm-4.2414 3.0685c5.5229 0 10-4.4771 10-10 0-5.5228-4.4771-10-10-10-5.5228 0-10 4.4772-10 10 0 5.5229 4.4772 10 10 10zm0-10.625c1.0355 0 1.875-0.8395 1.875-1.875 0-1.0355-0.8395-1.875-1.875-1.875s-1.875 0.83946-1.875 1.875c0 1.0355 0.8395 1.875 1.875 1.875zm0 1.875c2.0711 0 3.75-1.6789 3.75-3.75 0-2.0711-1.6789-3.75-3.75-3.75s-3.75 1.6789-3.75 3.75c0 2.0711 1.6789 3.75 3.75 3.75z" clip-rule="evenodd" fill="#44403c" fill-rule="evenodd" stroke-width="1.25"/>
</svg>
