<svg fill="none" version="1.1" viewBox="0 0 20 18.462" xmlns="http://www.w3.org/2000/svg">
 <g transform="matrix(1.0256 0 0 1.0256 -2.3077 -3.0769)" fill="#57534e">
  <path d="m4.125 3c-1.036 0-1.875 0.84-1.875 1.875v13.125c0 0.7956 0.31607 1.5587 0.87868 2.1213s1.3257 0.8787 2.1213 0.8787h15c-0.7956 0-1.5587-0.3161-2.1213-0.8787s-0.8787-1.3257-0.8787-2.1213v-13.125c0-1.036-0.84-1.875-1.875-1.875zm7.875 6.75c-0.1989 0-0.3897 0.07902-0.5303 0.21967-0.1407 0.14063-0.2197 0.33143-0.2197 0.53033s0.079 0.3897 0.2197 0.5303c0.1406 0.1407 0.3314 0.2197 0.5303 0.2197h1.5c0.1989 0 0.3897-0.079 0.5303-0.2197 0.1407-0.1406 0.2197-0.3314 0.2197-0.5303s-0.079-0.3897-0.2197-0.53033c-0.1406-0.14065-0.3314-0.21967-0.5303-0.21967zm-0.75-2.25c0-0.19891 0.079-0.38968 0.2197-0.53033 0.1406-0.14065 0.3314-0.21967 0.5303-0.21967h1.5c0.1989 0 0.3897 0.07902 0.5303 0.21967 0.1407 0.14065 0.2197 0.33142 0.2197 0.53033s-0.079 0.38968-0.2197 0.53033c-0.1406 0.14065-0.3314 0.21967-0.5303 0.21967h-1.5c-0.1989 0-0.3897-0.07902-0.5303-0.21967-0.1407-0.14065-0.2197-0.33142-0.2197-0.53033zm-5.25 5.25c-0.19891 0-0.38968 0.079-0.53033 0.2197-0.14065 0.1406-0.21967 0.3314-0.21967 0.5303s0.07902 0.3897 0.21967 0.5303c0.14065 0.1407 0.33142 0.2197 0.53033 0.2197h7.5c0.1989 0 0.3897-0.079 0.5303-0.2197 0.1407-0.1406 0.2197-0.3314 0.2197-0.5303s-0.079-0.3897-0.2197-0.5303c-0.1406-0.1407-0.3314-0.2197-0.5303-0.2197zm-0.75 3.75c0-0.1989 0.07902-0.3897 0.21967-0.5303 0.14065-0.1407 0.33142-0.2197 0.53033-0.2197h7.5c0.1989 0 0.3897 0.079 0.5303 0.2197 0.1407 0.1406 0.2197 0.3314 0.2197 0.5303s-0.079 0.3897-0.2197 0.5303c-0.1406 0.1407-0.3314 0.2197-0.5303 0.2197h-7.5c-0.19891 0-0.38968-0.079-0.53033-0.2197-0.14065-0.1406-0.21967-0.3314-0.21967-0.5303zm0.75-9.75c-0.19891 0-0.38968 0.07902-0.53033 0.21967s-0.21967 0.33142-0.21967 0.53033v3c0 0.414 0.336 0.75 0.75 0.75h3c0.19891 0 0.38968-0.079 0.53033-0.2197 0.14065-0.1406 0.21967-0.3314 0.21967-0.5303v-3c0-0.19891-0.07902-0.38968-0.21967-0.53033s-0.33142-0.21967-0.53033-0.21967z" clip-rule="evenodd" fill-rule="evenodd"/>
  <path d="m18.75 6.75h1.875c0.621 0 1.125 0.504 1.125 1.125v10.125c0 0.3978-0.158 0.7794-0.4393 1.0607s-0.6629 0.4393-1.0607 0.4393-0.7794-0.158-1.0607-0.4393-0.4393-0.6629-0.4393-1.0607z"/>
 </g>
</svg>
