<svg fill="none" version="1.1" viewBox="0 0 20 18.088" xmlns="http://www.w3.org/2000/svg">
 <path d="m9.2308 1.5723c-1.6071-1.0294-3.4761-1.5751-5.3846-1.5723-1.1354-0.001159-2.2627 0.19134-3.3333 0.56923-0.14996 0.053015-0.27979 0.15122-0.37163 0.28108-0.091836 0.12987-0.14117 0.28499-0.14119 0.44405v14.615c2.05e-5 0.12308 0.029559 0.24431 0.086133 0.35354 0.056585 0.10933 0.13855 0.20338 0.23903 0.27446 0.10048 0.07108 0.21653 0.11692 0.33842 0.13385 0.12189 0.01692 0.24605 0.0043 0.36206-0.03672 0.90598-0.31949 1.8598-0.48226 2.8205-0.48103 2.0462 0 3.921 0.72513 5.3846 1.9344zm1.5385 16.516c1.5143-1.2532 3.4191-1.9374 5.3846-1.9344 0.99077 0 1.9385 0.17026 2.8205 0.48205 0.1161 0.04103 0.24031 0.05364 0.36236 0.03672 0.12195-0.01703 0.23805-0.06297 0.33856-0.13415 0.10051-0.07118 0.18246-0.16533 0.23897-0.27477 0.05651-0.10944 0.08585-0.23077 0.08574-0.35395v-14.615c4e-6 -0.15906-0.04933-0.31418-0.14123-0.44405-0.091795-0.12986-0.22164-0.22806-0.37159-0.28108-1.0707-0.37789-2.1979-0.57039-3.3333-0.56923-1.9085-0.0028308-3.7775 0.54294-5.3846 1.5723z" fill="#57534e" stroke-width="1.0256"/>
</svg>
