<svg fill="none" version="1.1" viewBox="0 0 20 20" xmlns="http://www.w3.org/2000/svg">
 <path d="m10 20c5.5228 0 10-4.4772 10-10 0-5.5228-4.4772-10-10-10-5.5228 0-10 4.4772-10 10 0 5.5228 4.4772 10 10 10zm0.75-15c0-0.41421-0.3358-0.75-0.75-0.75s-0.75 0.33579-0.75 0.75v8.1893l-2.2197-2.2196c-0.29289-0.2929-0.76777-0.2929-1.0607 0s-0.29289 0.7677 0 1.0606l3.5 3.5c0.2929 0.2929 0.7677 0.2929 1.0606 0l3.5-3.5c0.2929-0.2929 0.2929-0.7677 0-1.0606s-0.7677-0.2929-1.0606 0l-2.2197 2.2196z" clip-rule="evenodd" fill="#44403c" fill-rule="evenodd"/>
</svg>
