<svg fill="none" version="1.1" viewBox="0 0 24 24" xmlns="http://www.w3.org/2000/svg">
 <path d="m4.9757 4.781 2.2e-4 1e-3 -0.00206-0.00897c-0.11431-0.49286-0.57911-0.82239-1.083-0.76708-0.50701 0.05566-0.89088 0.48398-0.89088 0.99403v13.004c-0.56065 0.0505-1 0.5217-1 1.0955v0.8c0 0.6075 0.49249 1.1 1.1 1.1h1.8c0.60751 0 1.1-0.4925 1.1-1.1v-0.8c0-0.5738-0.43935-1.045-1-1.0955v-13.144c-0.00445-0.01368-0.00828-0.0259-0.01153-0.03657-0.0073-0.02399-0.01194-0.04091-0.01383-0.04815l6.8e-4 0.00295 4.1e-4 0.00182zm1.0243 1.6779v2.5534c0.13479 0.08429 0.27535 0.16659 0.42191 0.24646 0.34511 0.18808 0.57809 0.53987 0.57809 0.93294v4.3082h2v-3.1518c0-0.591 0.509-1.0368 1.0953-0.9628 0.4853 0.0613 0.9047 0.4656 0.9047 0.9547v3.1599h2v-3.1599c0-0.4891 0.4194-0.8934 0.9047-0.9547 0.5863-0.074 1.0953 0.3718 1.0953 0.9628v3.1518h2v-4.3082c0-0.39307 0.233-0.74486 0.5781-0.93294 0.1465-0.07987 0.2871-0.16217 0.4219-0.24645v-2.5535c-0.5032 0.52689-1.2465 1.0779-2.3406 1.4742-0.9239 0.3347-2.1187 0.56682-3.6594 0.56682s-2.7355-0.23212-3.6594-0.56682c-1.0941-0.39637-1.8374-0.94734-2.3406-1.4742zm13-1.598v13.139c-0.5532 0.0054-1 0.4555-1 1.01v0.98c0 0.5578 0.4522 1.01 1.01 1.01h1.98c0.5578 0 1.01-0.4522 1.01-1.01v-0.98c0-0.5545-0.4468-1.0046-1-1.01v-13c0-0.51005-0.3839-0.93837-0.8909-0.99403-0.5039-0.05531-0.9689 0.2751-1.0832 0.76796l-8e-4 0.00317c-0.0019 0.00723-0.0063 0.02331-0.0136 0.0473-0.0032 0.01067-0.0071 0.02289-0.0115 0.03656zm-1 11.639v-1h-12v1h12z" clip-rule="evenodd" fill="#44403C" fill-rule="evenodd"/>
</svg>
