<svg fill="none" version="1.1" viewBox="0 0 20 20" xmlns="http://www.w3.org/2000/svg">
 <g transform="matrix(1.25,0,0,1.25,-5,-5)" fill="#44403c">
  <path d="m20 9v8c0 1.6569-1.3431 3-3 3h-10c-1.6568 0-3-1.3431-3-3v-8c0-1.6568 1.3432-3 3-3 0 1.1046 0.89543 2 2 2 1.1046 0 2-0.89543 2-2h2c0 1.1046 0.8954 2 2 2s2-0.89543 2-2c1.6569 0 3 1.3432 3 3zm-12 4c0.55229 0 1-0.4477 1-1s-0.44771-1-1-1c-0.55228 0-1 0.4477-1 1s0.44772 1 1 1zm0 4c0.55229 0 1-0.4477 1-1s-0.44771-1-1-1c-0.55228 0-1 0.4477-1 1s0.44772 1 1 1zm5-1c0 0.5523-0.4477 1-1 1s-1-0.4477-1-1 0.4477-1 1-1 1 0.4477 1 1zm-1-3c0.5523 0 1-0.4477 1-1s-0.4477-1-1-1-1 0.4477-1 1 0.4477 1 1 1zm5-1c0 0.5523-0.4477 1-1 1s-1-0.4477-1-1 0.4477-1 1-1 1 0.4477 1 1z" clip-rule="evenodd" fill-rule="evenodd"/>
  <path d="m9 7c-0.55228 0-1-0.44771-1-1v-1c0-0.55228 0.44772-1 1-1s1 0.44772 1 1v1c0 0.03452-0.00175 0.06863-0.00516 0.10224-0.05121 0.50426-0.47707 0.89776-0.99484 0.89776z"/>
  <path d="m14 6c0 0.55229 0.4477 1 1 1 0.5178 0 0.9436-0.3935 0.9948-0.89776 0.0035-0.03361 0.0052-0.06772 0.0052-0.10224v-1c0-0.55228-0.4477-1-1-1s-1 0.44772-1 1z"/>
 </g>
</svg>
