<svg fill="none" version="1.1" viewBox="0 0 24 24" xmlns="http://www.w3.org/2000/svg">
 <g fill="#44403C">
  <path d="m20 9v8c0 1.6569-1.3431 3-3 3h-10c-1.6568 0-3-1.3431-3-3v-8c0-1.6568 1.3432-3 3-3 0 1.1046 0.89543 2 2 2 1.1046 0 2-0.89543 2-2h2c0 1.1046 0.8954 2 2 2s2-0.89543 2-2c1.6569 0 3 1.3432 3 3zm-12 4c0.55229 0 1-0.4477 1-1s-0.44771-1-1-1c-0.55228 0-1 0.4477-1 1s0.44772 1 1 1zm0 4c0.55229 0 1-0.4477 1-1s-0.44771-1-1-1c-0.55228 0-1 0.4477-1 1s0.44772 1 1 1zm5-1c0 0.5523-0.4477 1-1 1s-1-0.4477-1-1 0.4477-1 1-1 1 0.4477 1 1zm-1-3c0.5523 0 1-0.4477 1-1s-0.4477-1-1-1-1 0.4477-1 1 0.4477 1 1 1zm5-1c0 0.5523-0.4477 1-1 1s-1-0.4477-1-1 0.4477-1 1-1 1 0.4477 1 1z" clip-rule="evenodd" fill-rule="evenodd"/>
  <path d="M9 7C8.44772 7 8 6.55229 8 6V5C8 4.44772 8.44772 4 9 4C9.55228 4 10 4.44772 10 5V6C10 6.03452 9.99825 6.06863 9.99484 6.10224C9.94363 6.6065 9.51777 7 9 7Z"/>
  <path d="m14 6c0 0.55229 0.4477 1 1 1 0.5178 0 0.9436-0.3935 0.9948-0.89776 0.0035-0.03361 0.0052-0.06772 0.0052-0.10224v-1c0-0.55228-0.4477-1-1-1s-1 0.44772-1 1v1z"/>
 </g>
</svg>
