<svg fill="none" version="1.1" viewBox="0 0 24 24" xmlns="http://www.w3.org/2000/svg">
 <path d="m6.72 5.66 11.62 11.62c1.3195-1.5814 1.9998-3.5992 1.9071-5.6567-0.0927-2.0576-0.9516-4.006-2.408-5.4624-1.4564-1.4564-3.4048-2.3153-5.4623-2.408-2.0576-0.0927-4.0754 0.58757-5.6568 1.9071zm10.56 12.68-11.62-11.62c-1.3195 1.5814-1.9998 3.5992-1.9071 5.6567 0.09269 2.0576 0.95164 4.006 2.408 5.4624s3.4048 2.3153 5.4624 2.408c2.0575 0.0927 4.0753-0.5876 5.6567-1.9071zm-12.175-13.234c3.807-3.808 9.98-3.808 13.788 0 3.808 3.807 3.808 9.98 0 13.788-3.807 3.808-9.98 3.808-13.788 0-3.808-3.807-3.808-9.98 0-13.788z" clip-rule="evenodd" fill="#DC2626" fill-rule="evenodd"/>
</svg>
