<svg fill="none" version="1.1" viewBox="0 0 20 20" xmlns="http://www.w3.org/2000/svg">
 <g transform="scale(.83333)">
  <rect width="24" height="24" rx="12" fill="#fef2f2"/>
  <path d="m12 22c5.5228 0 10-4.4772 10-10 0-5.5228-4.4772-10-10-10-5.5228 0-10 4.4772-10 10 0 5.5228 4.4772 10 10 10zm0-13c0 0.55228-0.4477 1-1 1s-1-0.44772-1-1 0.44772-1 1-1 1 0.44772 1 1zm1.5 0c0 1.3807-1.1193 2.5-2.5 2.5-1.3807 0-2.5-1.1193-2.5-2.5 0-1.3807 1.1193-2.5 2.5-2.5 1.3807 0 2.5 1.1193 2.5 2.5zm-5.3386 6.1587c-0.17162-0.8581 0.48473-1.6587 1.3598-1.6587h2.9574c0.8751 0 1.5315 0.8006 1.3598 1.6587-0.0397 0.1985-0.2139 0.3413-0.4162 0.3413h-4.8446c-0.20235 0-0.37658-0.1428-0.41627-0.3413zm-1.4709 0.2942c-0.35726-1.7863 1.009-3.4529 2.8307-3.4529h2.9574c1.8217 0 3.188 1.6666 2.8307 3.4529-0.1799 0.8996-0.9698 1.5471-1.8871 1.5471h-4.8446c-0.91738 0-1.7072-0.6475-1.8871-1.5471zm7.779-6.9832c0.2929-0.30187 0.7678-0.29289 1.0607 0l0.4697 0.46967 0.4697-0.46967c0.2928-0.29289 0.7677-0.29289 1.0606 0s0.2929 0.76777 0 1.0607l-0.4697 0.46967 0.4697 0.4697c0.2929 0.2929 0.2929 0.7677 0 1.0606s-0.7678 0.2929-1.0606 0l-0.4697-0.4696-0.4697 0.4696c-0.2929 0.2929-0.7678 0.2929-1.0607 0-0.2928-0.2929-0.2928-0.7677 0-1.0606l0.4697-0.4697-0.4697-0.46967c-0.2928-0.29289-0.2928-0.76777 0-1.0607z" clip-rule="evenodd" fill="#ef4444" fill-rule="evenodd"/>
 </g>
</svg>
