<svg version="1.1" viewBox="0 0 20 19.049" xmlns="http://www.w3.org/2000/svg">
 <path d="m0 19.049 4.3155-12.065 7.819 7.7262zm11.067-8.4687-0.78886-0.78886 5.5684-5.5684q0.74246-0.74246 1.8794-0.75406 1.1369-0.0116 1.8794 0.73086l0.39443 0.39443-0.78886 0.78886-0.44084-0.44084q-0.44084-0.44084-1.0209-0.45244-0.58005-0.0116-1.0441 0.45244zm-3.6891-3.5963-0.78886-0.78886 0.69606-0.69606q0.53364-0.53364 0.49884-1.2181-0.034803-0.68446-0.49884-1.1485l-0.64965-0.64965 0.78886-0.78886 0.60325 0.60325q0.81206 0.81206 0.80046 2.0302-0.011601 1.2181-0.82367 2.0302zm1.8794 1.7865-0.78886-0.78886 3.5267-3.5267q0.44084-0.44084 0.42923-1.1253-0.0116-0.68445-0.45244-1.1253l-1.4153-1.4153 0.78886-0.78886 1.4617 1.4617q0.71926 0.74246 0.74246 1.8677 0.0232 1.1253-0.71926 1.8678zm3.6659 3.6891-0.78886-0.78886 1.0905-1.0905q0.81206-0.81206 1.949-0.83527 1.1369-0.0232 1.949 0.78886l1.1833 1.1833-0.78886 0.78886-1.2065-1.2065q-0.53364-0.53364-1.1137-0.53364-0.58005 0-1.1137 0.53364z" stroke-width=".46404"/>
</svg>
