<svg fill="none" version="1.1" viewBox="0 0 20 17.5" xmlns="http://www.w3.org/2000/svg">
 <path d="m0 10c0-0.3315 0.1317-0.6495 0.36611-0.88388 0.23442-0.23438 0.55236-0.36612 0.88389-0.36612h2.5c0.33152 0 0.64946 0.13175 0.88389 0.36612 0.23441 0.23438 0.36611 0.55238 0.36611 0.88388v6.25c0 0.3315-0.1317 0.6495-0.36611 0.88388-0.23442 0.23438-0.55236 0.36612-0.88389 0.36612h-2.5c-0.33152 0-0.64946-0.13175-0.88389-0.36612-0.23441-0.23438-0.36611-0.55238-0.36611-0.88388zm7.5-5c0-0.33152 0.13175-0.64946 0.36612-0.88389 0.23438-0.23441 0.55238-0.36611 0.88388-0.36611h2.5c0.3315 0 0.6495 0.1317 0.88388 0.36611 0.23438 0.23442 0.36612 0.55236 0.36612 0.88389v11.25c0 0.3315-0.13175 0.6495-0.36612 0.88388s-0.55238 0.36612-0.88388 0.36612h-2.5c-0.3315 0-0.6495-0.13175-0.88388-0.36612s-0.36612-0.55238-0.36612-0.88388zm7.5-3.75c0-0.33152 0.13175-0.64946 0.36612-0.88389 0.23438-0.23441 0.55238-0.36611 0.88388-0.36611h2.5c0.3315 0 0.6495 0.1317 0.88388 0.36611 0.23438 0.23442 0.36612 0.55236 0.36612 0.88389v15c0 0.3315-0.13175 0.6495-0.36612 0.88388s-0.55238 0.36612-0.88388 0.36612h-2.5c-0.3315 0-0.6495-0.13175-0.88388-0.36612s-0.36612-0.55238-0.36612-0.88388z" fill="#44403c" stroke-width="1.25"/>
</svg>
