<svg fill="none" version="1.1" viewBox="0 0 24 24" xmlns="http://www.w3.org/2000/svg">
 <path d="M4 13C4 12.7348 4.10536 12.4804 4.29289 12.2929C4.48043 12.1054 4.73478 12 5 12H7C7.26522 12 7.51957 12.1054 7.70711 12.2929C7.89464 12.4804 8 12.7348 8 13V18C8 18.2652 7.89464 18.5196 7.70711 18.7071C7.51957 18.8946 7.26522 19 7 19H5C4.73478 19 4.48043 18.8946 4.29289 18.7071C4.10536 18.5196 4 18.2652 4 18V13ZM10 9C10 8.73478 10.1054 8.48043 10.2929 8.29289C10.4804 8.10536 10.7348 8 11 8H13C13.2652 8 13.5196 8.10536 13.7071 8.29289C13.8946 8.48043 14 8.73478 14 9V18C14 18.2652 13.8946 18.5196 13.7071 18.7071C13.5196 18.8946 13.2652 19 13 19H11C10.7348 19 10.4804 18.8946 10.2929 18.7071C10.1054 18.5196 10 18.2652 10 18V9ZM16 6C16 5.73478 16.1054 5.48043 16.2929 5.29289C16.4804 5.10536 16.7348 5 17 5H19C19.2652 5 19.5196 5.10536 19.7071 5.29289C19.8946 5.48043 20 5.73478 20 6V18C20 18.2652 19.8946 18.5196 19.7071 18.7071C19.5196 18.8946 19.2652 19 19 19H17C16.7348 19 16.4804 18.8946 16.2929 18.7071C16.1054 18.5196 16 18.2652 16 18V6Z" fill="#44403C"/>
</svg>
