<svg fill="none" version="1.1" viewBox="0 0 24 24" xmlns="http://www.w3.org/2000/svg">
 <path d="m2.25 12c0-5.385 4.365-9.75 9.75-9.75s9.75 4.365 9.75 9.75-4.365 9.75-9.75 9.75-9.75-4.365-9.75-9.75zm13.36-1.814c0.06-0.0799 0.1034-0.1711 0.1277-0.26805 0.0243-0.09697 0.0289-0.19781 0.0137-0.2966-0.0153-0.09878-0.0502-0.19353-0.1025-0.27865-0.0524-0.08513-0.1213-0.15892-0.2026-0.21705-0.0814-0.05812-0.1735-0.09941-0.271-0.12142-0.0975-0.02202-0.1984-0.02432-0.2968-0.00677s-0.1923 0.05459-0.2762 0.10895-0.1561 0.12494-0.2123 0.20759l-3.236 4.53-1.624-1.624c-0.14217-0.1325-0.33022-0.2046-0.52452-0.2012-0.1943 0.0035-0.37969 0.0822-0.5171 0.2196s-0.21613 0.3228-0.21956 0.5171c-0.00342 0.1943 0.0687 0.3823 0.20118 0.5245l2.25 2.25c0.077 0.0769 0.1698 0.1362 0.272 0.1736 0.1022 0.0375 0.2113 0.0523 0.3198 0.0433 0.1084-0.0089 0.2137-0.0414 0.3083-0.095 0.0947-0.0537 0.1766-0.1274 0.2399-0.2159l3.75-5.25z" clip-rule="evenodd" fill="#44403C" fill-rule="evenodd"/>
</svg>
