<svg fill="none" version="1.1" viewBox="0 0 20 20" xmlns="http://www.w3.org/2000/svg">
 <path d="m0 10c0-5.5231 4.4769-10 10-10 5.5231 0 10 4.4769 10 10 0 5.5231-4.4769 10-10 10-5.5231 0-10-4.4769-10-10zm13.703-1.8605c0.06154-0.082 0.10605-0.17547 0.13097-0.27492 0.02492-0.099456 0.02964-0.20288 0.01405-0.30421-0.01569-0.10131-0.05149-0.19849-0.10513-0.28579-0.05374-0.087313-0.12441-0.16299-0.2078-0.22262-0.08349-0.05961-0.17795-0.10196-0.27795-0.12453-0.1-0.022585-0.20349-0.024944-0.30441-0.00694-0.10092 0.018-0.19723 0.05599-0.28328 0.11174-0.08605 0.055754-0.1601 0.12814-0.21774 0.21291l-3.319 4.6462-1.6656-1.6656c-0.14582-0.1359-0.33869-0.20985-0.53797-0.20636-0.19928 0.0036-0.38943 0.08431-0.53036 0.22523-0.14093 0.14092-0.22167 0.33108-0.22519 0.53036-0.00351 0.19928 0.070462 0.3921 0.20634 0.53795l2.3077 2.3077c0.078964 0.07887 0.17415 0.13969 0.27896 0.17805 0.10481 0.03846 0.21672 0.05364 0.32797 0.04441 0.11125-0.0091 0.21918-0.04246 0.31628-0.09744 0.097097-0.05508 0.18105-0.13067 0.24602-0.22144z" clip-rule="evenodd" fill="#44403c" fill-rule="evenodd" stroke-width="1.0256"/>
</svg>
