<svg fill="none" version="1.1" viewBox="0 0 24 24" xmlns="http://www.w3.org/2000/svg">
 <path d="m12 22c5.5228 0 10-4.4772 10-10 0-5.5228-4.4772-10-10-10-5.5228 0-10 4.4772-10 10 0 5.5228 4.4772 10 10 10zm-3.0119-13.569c-0.31449-0.26957-0.78797-0.23315-1.0575 0.08135-0.26957 0.31449-0.23315 0.78797 0.08135 1.0575l3.5 3c0.2809 0.2408 0.6953 0.2408 0.9762 0l3.5-3c0.3145-0.26956 0.3509-0.74304 0.0813-1.0575-0.2695-0.3145-0.743-0.35092-1.0575-0.08135l-3.0119 2.5816-3.0119-2.5816zm0 4c-0.31449-0.2696-0.78797-0.2332-1.0575 0.0813-0.26957 0.3145-0.23315 0.788 0.08135 1.0575l3.5 3c0.2809 0.2408 0.6953 0.2408 0.9762 0l3.5-3c0.3145-0.2695 0.3509-0.743 0.0813-1.0575-0.2695-0.3145-0.743-0.3509-1.0575-0.0813l-3.0119 2.5816-3.0119-2.5816z" clip-rule="evenodd" fill="#44403C" fill-rule="evenodd"/>
</svg>
