<svg version="1.1" viewBox="0 0 20 20" xmlns="http://www.w3.org/2000/svg">
 <path d="m-7 15c0-6.6274 5.3726-12 12-12 6.6274 0 12 5.3726 12 12 0 6.6274-5.3726 12-12 12-6.6274 0-12-5.3726-12-12z" fill="#fafaf9"/>
 <path d="m0.58578 0.58578c0.78106-0.78104 2.0474-0.78104 2.8284 0l6.5858 6.5858 6.5858-6.5858c0.781-0.78104 2.0474-0.78104 2.8284 0 0.781 0.78106 0.781 2.0474 0 2.8284l-6.5858 6.5858 6.5858 6.5858c0.781 0.781 0.781 2.0474 0 2.8284-0.781 0.781-2.0474 0.781-2.8284 0l-6.5858-6.5858-6.5858 6.5858c-0.78106 0.781-2.0474 0.781-2.8284 0-0.78104-0.781-0.78104-2.0474 0-2.8284l6.5858-6.5858-6.5858-6.5858c-0.78104-0.78106-0.78104-2.0474 0-2.8284z" clip-rule="evenodd" fill="#a8a29e" fill-rule="evenodd" stroke-width="2"/>
</svg>
