<svg fill="none" version="1.1" viewBox="0 0 24 24" xmlns="http://www.w3.org/2000/svg">
 <path d="m5.47 5.47c0.14063-0.14045 0.33125-0.21934 0.53-0.21934s0.38937 0.07889 0.53 0.21934l5.47 5.47 5.47-5.47c0.0687-0.07369 0.1515-0.13279 0.2435-0.17378s0.1913-0.06303 0.292-0.06481 0.2007 0.01675 0.2941 0.05447 0.1782 0.09386 0.2494 0.16508c0.0713 0.07122 0.1274 0.15605 0.1651 0.24944s0.0563 0.19342 0.0545 0.29412c-0.0018 0.10071-0.0238 0.20002-0.0648 0.29202s-0.1001 0.1748-0.1738 0.24346l-5.47 5.47 5.47 5.47c0.0737 0.0687 0.1328 0.1515 0.1738 0.2435s0.063 0.1913 0.0648 0.292-0.0168 0.2007-0.0545 0.2941-0.0938 0.1782-0.1651 0.2494c-0.0712 0.0713-0.156 0.1274-0.2494 0.1651s-0.1934 0.0563-0.2941 0.0545-0.2-0.0238-0.292-0.0648-0.1748-0.1001-0.2435-0.1738l-5.47-5.47-5.47 5.47c-0.14217 0.1325-0.33022 0.2046-0.52452 0.2012-0.1943-0.0035-0.37969-0.0822-0.5171-0.2196s-0.21613-0.3228-0.21955-0.5171c-0.00343-0.1943 0.06869-0.3823 0.20117-0.5245l5.47-5.47-5.47-5.47c-0.14045-0.14062-0.21934-0.33125-0.21934-0.53s0.07889-0.38937 0.21934-0.53z" clip-rule="evenodd" fill="#44403C" fill-rule="evenodd"/>
</svg>
