<svg fill="none" version="1.1" viewBox="0 0 20 20" xmlns="http://www.w3.org/2000/svg">
 <path d="m5.3337 1.8186c0.80408-0.0642 1.5674-0.38048 2.1813-0.90378 0.69325-0.59051 1.5742-0.91484 2.485-0.91484s1.7918 0.32432 2.485 0.91484c0.61388 0.5233 1.3772 0.83958 2.1814 0.90378 0.908 0.072563 1.7605 0.4662 2.4046 1.1104 0.64412 0.64414 1.0379 1.4966 1.1104 2.4047 0.06375 0.80376 0.38 1.5675 0.90375 2.1813 0.5905 0.69325 0.91488 1.5742 0.91488 2.485s-0.32438 1.7918-0.91488 2.485c-0.52325 0.61388-0.8395 1.3772-0.90375 2.1814-0.0725 0.908-0.46625 1.7605-1.1104 2.4046s-1.4966 1.0379-2.4046 1.1104c-0.80412 0.06425-1.5675 0.3805-2.1814 0.90375-0.69325 0.5905-1.5742 0.91488-2.485 0.91488s-1.7918-0.32438-2.485-0.91488c-0.61391-0.52325-1.3772-0.8395-2.1813-0.90375-0.90806-0.0725-1.7606-0.46625-2.4047-1.1104-0.64415-0.64412-1.0378-1.4966-1.1104-2.4046-0.0642-0.80412-0.38048-1.5675-0.90378-2.1814-0.59051-0.69325-0.91484-1.5742-0.91484-2.485s0.32432-1.7918 0.91484-2.485c0.5233-0.61391 0.83958-1.3772 0.90378-2.1813 0.072562-0.90806 0.4662-1.7606 1.1104-2.4047 0.64414-0.64415 1.4966-1.0378 2.4047-1.1104zm9.3002 6.5651c0.22762-0.23575 0.35362-0.5515 0.35075-0.87925-0.0028-0.3278-0.13425-0.64131-0.366-0.87309-0.23175-0.23176-0.54525-0.36322-0.873-0.36608-0.32775-0.00284-0.64362 0.12315-0.87938 0.35085l-4.1162 4.1163-1.6163-1.6162c-0.23576-0.22775-0.55151-0.35375-0.87926-0.35088-0.32776 0.002875-0.64128 0.13438-0.87304 0.36612s-0.36324 0.54525-0.36608 0.873c-0.00285 0.32775 0.12314 0.6435 0.35085 0.87925l2.5001 2.5c0.23438 0.23438 0.55225 0.366 0.88375 0.366s0.64938-0.13162 0.88375-0.366z" clip-rule="evenodd" fill="#fff" fill-rule="evenodd" stroke-width="1.25"/>
</svg>
