<svg fill="none" version="1.1" viewBox="0 0 20 20" xmlns="http://www.w3.org/2000/svg">
 <path d="m11.863 1.4625c-0.47501-1.9501-3.2501-1.9501-3.7251 0-0.07088 0.29303-0.21001 0.56518-0.40601 0.79429-0.19588 0.22912-0.44323 0.40872-0.72172 0.52422-0.2785 0.11549-0.58032 0.16359-0.88092 0.1404-0.3006-0.023188-0.59147-0.11703-0.84895-0.27387-1.7151-1.045-3.6776 0.91753-2.6326 2.6326 0.67502 1.1075 0.076252 2.5526-1.1838 2.8588-1.9513 0.47376-1.9513 3.2501 0 3.7226 0.29311 0.071 0.5653 0.21026 0.79442 0.40639 0.22911 0.19613 0.40866 0.44351 0.52404 0.72215 0.11538 0.27863 0.16333 0.58064 0.13992 0.88128-0.023401 0.30063-0.11749 0.59164-0.2746 0.84903-1.045 1.7151 0.91753 3.6776 2.6326 2.6326 0.25743-0.15713 0.54834-0.25113 0.84901-0.27463 0.30067-0.02338 0.60263 0.02463 0.88126 0.14 0.27865 0.11538 0.52605 0.29488 0.72218 0.52402s0.33538 0.50127 0.40639 0.7944c0.47376 1.9513 3.2501 1.9513 3.7226 0 0.07125-0.29301 0.21063-0.56502 0.40676-0.7939 0.19613-0.22901 0.44351-0.40839 0.72215-0.52377 0.27851-0.11538 0.58039-0.16338 0.88103-0.14013 0.30051 0.02338 0.59139 0.11713 0.8489 0.27401 1.7151 1.045 3.6776-0.91753 2.6326-2.6326-0.15688-0.25751-0.25063-0.54839-0.27401-0.8489-0.02325-0.30063 0.02475-0.60252 0.14013-0.88103 0.11538-0.27863 0.29476-0.52602 0.52377-0.72215 0.22888-0.19613 0.50089-0.33551 0.7939-0.40676 1.9513-0.47376 1.9513-3.2501 0-3.7226-0.29313-0.071002-0.56527-0.21026-0.7944-0.40639s-0.40864-0.44353-0.52402-0.72217c-0.11538-0.27865-0.16338-0.58059-0.14-0.88128 0.023376-0.30067 0.1175-0.59157 0.27463-0.849 1.045-1.7151-0.91753-3.6776-2.6326-2.6326-0.25738 0.1571-0.54839 0.2512-0.84903 0.2746s-0.60264-0.024538-0.88128-0.13992c-0.27863-0.11538-0.52602-0.29493-0.72215-0.52405-0.19613-0.22911-0.33539-0.5013-0.40639-0.79441zm-1.8626 12.288c0.99453 0 1.9484-0.39514 2.6517-1.0984 0.70327-0.70327 1.0984-1.6572 1.0984-2.6517 0-0.99453-0.39514-1.9484-1.0984-2.6517-0.70327-0.70328-1.6572-1.0984-2.6517-1.0984-0.99466 0-1.9484 0.3951-2.6517 1.0984-0.70328 0.7033-1.0984 1.6572-1.0984 2.6517 0 0.99453 0.3951 1.9484 1.0984 2.6517 0.70331 0.70327 1.6571 1.0984 2.6517 1.0984z" clip-rule="evenodd" fill="#44403c" fill-rule="evenodd" stroke-width="1.25"/>
</svg>
