<svg fill="none" version="1.1" viewBox="0 0 20 20" xmlns="http://www.w3.org/2000/svg">
 <g transform="scale(.8)">
  <path d="m12.5 0c6.9043 0 12.5 5.5957 12.5 12.5s-5.5957 12.5-12.5 12.5-12.5-5.5957-12.5-12.5 5.5957-12.5 12.5-12.5z" fill="#0052ff"/>
  <path d="m12.502 16.894c-2.4267 0-4.3945-1.9653-4.3945-4.3945s1.9678-4.3945 4.3945-4.3945c2.1753 0 3.982 1.5869 4.3287 3.6621h4.4262c-0.3735-4.5117-4.1504-8.0567-8.7573-8.0567-4.8535 0-8.7891 3.9355-8.7891 8.7891 0 4.8535 3.9355 8.7891 8.7891 8.7891 4.6069 0 8.3838-3.545 8.7573-8.0567h-4.4287c-0.3491 2.0752-2.1509 3.6621-4.3262 3.6621z" fill="#fff"/>
 </g>
</svg>
