<svg fill="none" version="1.1" viewBox="0 0 24 24" xmlns="http://www.w3.org/2000/svg">
 <path d="m19 3c0 0.55228-0.4477 1-1 1s-1-0.44772-1-1 0.4477-1 1-1 1 0.44772 1 1zm-8 4c0.5523 0 1-0.44772 1-1s-0.4477-1-1-1-1 0.44772-1 1 0.4477 1 1 1zm-4.2767 0.8302-0.81477 2.4443c3.8567 0.9181 6.8989 3.9603 7.817 7.817l2.4443-0.8148c0.4685-0.1561 0.7377-0.6466 0.6179-1.1257-1.1003-4.4016-4.5371-7.8384-8.9387-8.9388-0.47906-0.11976-0.96957 0.1495-1.1257 0.61796zm-3.4584 10.375 2.0079-6.0236c3.2639 0.706 5.8395 3.2816 6.5455 6.5455l-6.0236 2.0079c-1.5635 0.5212-3.051-0.9663-2.5298-2.5298zm14.735-5.2053c0.5523 0 1-0.4477 1-1s-0.4477-1-1-1-1 0.4477-1 1 0.4477 1 1 1zm1-6c0 0.55228-0.4477 1-1 1s-1-0.44772-1-1 0.4477-1 1-1 1 0.44772 1 1zm-6-3c0.5523 0 1-0.44772 1-1s-0.4477-1-1-1-1 0.44772-1 1 0.4477 1 1 1zm3.2432 5.4744-2.0491 0.54906-0.3882-1.4489 2.049-0.54904 0.3883 1.4489zm3.2265-4.9441 1.5 1.5 1.0606-1.0607-1.5-1.5-1.0606 1.0607zm2.131 3.3301 0.33 2.0955-1.4818 0.2333-0.3299-2.0955 1.4817-0.23333zm-6.9484-0.5913 1.6697-1.3086-0.9253-1.1806-1.6697 1.3086 0.9253 1.1806z" clip-rule="evenodd" fill="#44403C" fill-rule="evenodd"/>
</svg>
