<svg fill="none" version="1.1" viewBox="0 0 20 19.968" xmlns="http://www.w3.org/2000/svg">
 <path d="m16.788 1.0598c0 0.58531-0.47447 1.0598-1.0598 1.0598-0.58533 0-1.0598-0.47449-1.0598-1.0598 0-0.58531 0.47447-1.0598 1.0598-1.0598 0.58533 0 1.0598 0.47449 1.0598 1.0598zm-8.4784 4.2392c0.58533 0 1.0598-0.47449 1.0598-1.0598 0-0.58531-0.47447-1.0598-1.0598-1.0598-0.58533 0-1.0598 0.47449-1.0598 1.0598 0 0.58531 0.47447 1.0598 1.0598 1.0598zm-4.5325 0.87985-0.86349 2.5905c4.0873 0.973 7.3115 4.1971 8.2845 8.2845l2.5905-0.86352c0.49652-0.16544 0.78182-0.68527 0.65485-1.193-1.1661-4.6648-4.8084-8.3071-9.4733-9.4733-0.50771-0.12692-1.0276 0.15844-1.193 0.65491zm-3.6652 10.996 2.1279-6.3838c3.4591 0.74822 6.1887 3.4778 6.9369 6.9369l-6.3838 2.128c-1.657 0.55237-3.2334-1.0241-2.6811-2.6811zm15.616-5.5166c0.58533 0 1.0598-0.47447 1.0598-1.0598 0-0.58533-0.47447-1.0598-1.0598-1.0598-0.58533 0-1.0598 0.47447-1.0598 1.0598 0 0.58533 0.47447 1.0598 1.0598 1.0598zm1.0598-6.3588c0 0.58531-0.47447 1.0598-1.0598 1.0598-0.58533 0-1.0598-0.47449-1.0598-1.0598s0.47447-1.0598 1.0598-1.0598c0.58533 0 1.0598 0.47449 1.0598 1.0598zm-6.3588-3.1794c0.58533 0 1.0598-0.47449 1.0598-1.0598 0-0.58531-0.47447-1.0598-1.0598-1.0598-0.58533 0-1.0598 0.47449-1.0598 1.0598 0 0.58531 0.47447 1.0598 1.0598 1.0598zm3.4371 5.8018-2.1716 0.58189-0.41141-1.5356 2.1715-0.58187zm3.4194-5.2398 1.5897 1.5897 1.124-1.1241-1.5897-1.5897zm2.2584 3.5292 0.34974 2.2208-1.5704 0.24725-0.34963-2.2208zm-7.3639-0.62666 1.7695-1.3868-0.98063-1.2512-1.7695 1.3868z" clip-rule="evenodd" fill="#44403c" fill-rule="evenodd" stroke-width="1.0598"/>
</svg>
