<svg version="1.1" viewBox="0 0 24 24" xmlns="http://www.w3.org/2000/svg">
 <path d="M7.5 3.875C7.5 2.839 8.34 2 9.375 2H9.75C10.7446 2 11.6984 2.39509 12.4017 3.09835C13.1049 3.80161 13.5 4.75544 13.5 5.75V7.625C13.5 8.661 14.34 9.5 15.375 9.5H17.25C18.2446 9.5 19.1984 9.89509 19.9017 10.5983C20.6049 11.3016 21 12.2554 21 13.25V16.625C21 17.66 20.16 18.5 19.125 18.5H9.375C8.87772 18.5 8.4008 18.3025 8.04917 17.9508C7.69754 17.5992 7.5 17.1223 7.5 16.625V3.875Z" fill="#44403C"/>
 <path d="M15 5.75C15.0018 4.48855 14.5475 3.26897 13.721 2.316C15.3943 2.75597 16.9207 3.63248 18.1441 4.85589C19.3675 6.0793 20.244 7.60571 20.684 9.279C19.731 8.45249 18.5115 7.99825 17.25 8H15.375C15.2755 8 15.1802 7.96049 15.1098 7.89017C15.0395 7.81984 15 7.72446 15 7.625V5.75ZM5.875 5.5L6 6.5V16.625C6 17.5201 6.35558 18.3786 6.98851 19.0115C7.62145 19.6444 8.47989 20 9.375 20H16.5L17.5 20.125C17.5 21.16 16.66 22 15.625 22H5.875C5.37772 22 4.90081 21.8025 4.54917 21.4508C4.19754 21.0992 4 20.6223 4 20.125V7.375C4 6.339 4.84 5.5 5.875 5.5Z" fill="#44403C"/>
</svg>
