<svg fill="none" version="1.1" viewBox="0 0 17 20" xmlns="http://www.w3.org/2000/svg">
 <g transform="translate(-4,-2)" fill="#44403c">
  <path d="m7.5 3.875c0-1.036 0.84-1.875 1.875-1.875h0.375c0.9946 0 1.9484 0.39509 2.6517 1.0984 0.7032 0.70326 1.0983 1.6571 1.0983 2.6516v1.875c0 1.036 0.84 1.875 1.875 1.875h1.875c0.9946 0 1.9484 0.39509 2.6517 1.0983 0.7032 0.7033 1.0983 1.6571 1.0983 2.6517v3.375c0 1.035-0.84 1.875-1.875 1.875h-9.75c-0.49728 0-0.9742-0.1975-1.3258-0.5492-0.35163-0.3516-0.54917-0.8285-0.54917-1.3258z"/>
  <path d="m15 5.75c0.0018-1.2614-0.4525-2.481-1.279-3.434 1.6733 0.43997 3.1997 1.3165 4.4231 2.5399s2.0999 2.7498 2.5399 4.4231c-0.953-0.82651-2.1725-1.2808-3.434-1.279h-1.875c-0.0995 0-0.1948-0.03951-0.2652-0.10983-0.0703-0.07033-0.1098-0.16571-0.1098-0.26517zm-9.125-0.25 0.125 1v10.125c0 0.8951 0.35558 1.7536 0.98851 2.3865 0.63294 0.6329 1.4914 0.9885 2.3865 0.9885h7.125l1 0.125c0 1.035-0.84 1.875-1.875 1.875h-9.75c-0.49728 0-0.97419-0.1975-1.3258-0.5492-0.35163-0.3516-0.54917-0.8285-0.54917-1.3258v-12.75c0-1.036 0.84-1.875 1.875-1.875z"/>
 </g>
</svg>
