<svg fill="none" version="1.1" viewBox="0 0 20 17.857" xmlns="http://www.w3.org/2000/svg">
 <g transform="matrix(.95237 0 0 .95237 -1.4285 -2.8571)" fill="#44403c">
  <path d="m9.3483 4.0984c-0.70326 0.70326-1.0984 1.6571-1.0984 2.6516s0.39509 1.9484 1.0984 2.6516c0.70326 0.70325 1.6571 1.0984 2.6517 1.0984s1.9484-0.3951 2.6516-1.0984c0.7033-0.70326 1.0984-1.6571 1.0984-2.6516s-0.3951-1.9484-1.0984-2.6516c-0.7032-0.70326-1.657-1.0984-2.6516-1.0984s-1.9484 0.39509-2.6517 1.0984z"/>
  <path d="m16.629 7.6287c-0.5626 0.56261-0.8787 1.3257-0.8787 2.1213 0 0.7956 0.3161 1.5587 0.8787 2.1213s1.3256 0.8787 2.1213 0.8787c0.7956 0 1.5587-0.3161 2.1213-0.8787s0.8787-1.3257 0.8787-2.1213c0-0.79565-0.3161-1.5587-0.8787-2.1213s-1.3257-0.87868-2.1213-0.87868c-0.7957 0-1.5587 0.31607-2.1213 0.87868z"/>
  <path d="m3.1287 7.6287c-0.56261 0.56261-0.87868 1.3257-0.87868 2.1213 0 0.7956 0.31607 1.5587 0.87868 2.1213s1.3257 0.8787 2.1213 0.8787 1.5587-0.3161 2.1213-0.8787 0.87868-1.3257 0.87868-2.1213c0-0.79565-0.31607-1.5587-0.87868-2.1213s-1.3257-0.87868-2.1213-0.87868-1.5587 0.31607-2.1213 0.87868z"/>
  <path d="m8.7556 12.829c-0.99454 0.5449-1.8357 1.3316-2.4456 2.2876v1e-3c-0.82754 1.3018-1.1869 2.8466-1.019 4.38 0.01296 0.1173 0.05341 0.2298 0.11805 0.3285 0.06463 0.0987 0.15164 0.1808 0.25395 0.2395 1.867 1.072 4.032 1.684 6.337 1.684 2.2233 0.0032 4.4086-0.5775 6.337-1.684 0.1023-0.0587 0.1893-0.1408 0.2539-0.2395 0.0647-0.0987 0.1051-0.2112 0.1181-0.3285 0.106-0.9439 0.0115-1.8995-0.2773-2.8044-0.2889-0.9048-0.7656-1.7384-1.399-2.4462-0.6333-0.7079-1.409-1.274-2.2763-1.6612-0.8673-0.3873-1.8066-0.5871-2.7564-0.5862-1.134-6e-4 -2.2498 0.2846-3.2444 0.8294z"/>
  <path d="m3.774 19.389c-0.13775-1.8087 0.32175-3.6126 1.308-5.135-0.50316 0.0226-0.99661 0.1462-1.4509 0.3637-0.45431 0.2174-0.86017 0.5241-1.1934 0.9018-0.33318 0.3777-0.58687 0.8187-0.74592 1.2965-0.15904 0.4779-0.2202 0.983-0.1798 1.485l0.01 0.121c0.00843 0.1085 0.04815 0.2123 0.11435 0.2988 0.0662 0.0864 0.15604 0.1518 0.25865 0.1882l0.115 0.04c0.57291 0.2016 1.1635 0.349 1.764 0.44z"/>
  <path d="m18.918 14.254c0.9862 1.5224 1.4457 3.3263 1.308 5.135 0.608-0.092 1.197-0.241 1.764-0.441l0.115-0.04c0.1024-0.0363 0.1922-0.1016 0.2584-0.1878 0.0662-0.0863 0.106-0.1898 0.1146-0.2982l0.01-0.121c0.0404-0.502-0.0208-1.0071-0.1798-1.485-0.1591-0.4778-0.4127-0.9188-0.7459-1.2965s-0.7391-0.6844-1.1934-0.9018c-0.4543-0.2175-0.9478-0.3411-1.4509-0.3637z"/>
 </g>
</svg>
