<svg fill="none" version="1.1" viewBox="0 0 20 20" xmlns="http://www.w3.org/2000/svg">
 <g transform="matrix(1.232 0 0 1.232 -4.6406 -4.9281)" fill="#44403c">
  <path d="m4 7v5.1185c0.77464-0.2639 1.6663-0.087 2.2841 0.5307l0.96592 0.966 0.96591-0.966c0.86566-0.8656 2.2692-0.8656 3.1348 0 0.8657 0.8657 0.8657 2.2692 0 3.1349l-0.9659 0.9659 0.966 0.9659c0.6177 0.6178 0.7946 1.5095 0.5307 2.2841h7.1185c0.5523 0 1-0.4477 1-1v-9c0-0.55228-0.4477-1-1-1h-12c-1.1046 0-2-0.89543-2-2s0.89543-2 2-2h12.5c0.2761 0 0.5-0.22386 0.5-0.5s-0.2239-0.5-0.5-0.5h-12.5c-1.6569 0-3 1.3432-3 3zm13 7.5c0 0.5523-0.4477 1-1 1s-1-0.4477-1-1 0.4477-1 1-1 1 0.4477 1 1z" clip-rule="evenodd" fill-rule="evenodd"/>
  <path d="m7 8h12c0.5523 0 1-0.44772 1-1s-0.4477-1-1-1h-12c-0.55229 0-1 0.44772-1 1s0.44771 1 1 1z"/>
  <path d="m4.0449 13.545c0.371-0.371 0.97251-0.371 1.3435 0l1.8616 1.8616 1.8616-1.8616c0.371-0.371 0.97252-0.371 1.3435 0s0.371 0.9725 0 1.3435l-1.8616 1.8616 1.8616 1.8616c0.371 0.371 0.371 0.9725 0 1.3435s-0.97252 0.371-1.3435 0l-1.8616-1.8616-1.8616 1.8616c-0.37099 0.371-0.9725 0.371-1.3435 0s-0.371-0.9725 0-1.3435l1.8616-1.8616-1.8616-1.8616c-0.371-0.371-0.371-0.9725 0-1.3435z" clip-rule="evenodd" fill-rule="evenodd"/>
 </g>
</svg>
