<svg fill="none" version="1.1" viewBox="0 0 24 24" xmlns="http://www.w3.org/2000/svg">
 <path d="m5.337 21.718c-0.17859-0.0175-0.35639-0.0422-0.533-0.074-0.12971-0.0232-0.251-0.0802-0.35167-0.1653-0.10066-0.085-0.17715-0.1951-0.22176-0.319-0.04461-0.124-0.05576-0.2576-0.03234-0.3873 0.02342-0.1296 0.0806-0.2509 0.16577-0.3514 0.41026-0.4837 0.69042-1.0639 0.814-1.686 0.023-0.115-0.022-0.317-0.254-0.543-1.65-1.605-2.674-3.782-2.674-6.192 0-5.03 4.428-9 9.75-9s9.75 3.97 9.75 9-4.428 9-9.75 9c-0.833 0-1.643-0.097-2.417-0.279-1.2652 0.7951-2.7592 1.1459-4.246 0.997z" clip-rule="evenodd" fill="#44403C" fill-rule="evenodd"/>
</svg>
