<svg fill="none" version="1.1" viewBox="0 0 20 15.335" xmlns="http://www.w3.org/2000/svg">
 <path d="m13.145 1.7194c-0.0013 0.00185-0.0025 0.00393-0.0037 0.00626-0.30023 0.59679-0.9112 0.97338-1.5793 0.97338h-3.1231c-0.668 0-1.2791-0.37659-1.5793-0.97338-0.0012-0.00233-0.0024-0.00441-0.0036-0.00626-2.105 0.39903-3.4478 1.9184-4.2471 3.9039-0.80799 2.0069-1.0007 4.37-0.84431 6.1093 0.01984 0.22057 0.09952 0.376 0.1983 0.46938 0.58286 0.55109 1.7098 1.279 3.2594 1.4184 0.026 0.0024 0.097806-0.0097 0.16016-0.10263l0.18256-0.27223-0.52294-0.26514c-0.42222-0.21406-0.59157-0.73018-0.3775-1.1523 0.21407-0.42229 0.7299-0.59098 1.1521-0.37692l1.3325 0.67566c1.0698 0.36057 1.7047 0.4624 2.8513 0.4624 1.1465 0 1.7814-0.10183 2.8512-0.4624l1.332-0.67532c0.42217-0.21417 0.93863-0.04571 1.1527 0.37657 0.21406 0.42217 0.04537 0.93795-0.37692 1.1521l-0.52355 0.26537 0.18252 0.27223c0.0624 0.09291 0.13417 0.10503 0.16023 0.10263 1.5496-0.13943 2.6765-0.86732 3.2593-1.4184 0.09886-0.09337 0.17852-0.2488 0.19829-0.46938 0.15646-1.7393-0.03623-4.1024-0.84423-6.1093-0.79932-1.9855-2.1421-3.5049-4.2471-3.9039zm-0.31349 12.211 0.36332 0.54172c0.36217 0.53989 1.0046 0.92115 1.7375 0.8552 2.0061-0.18046 3.4791-1.1195 4.2836-1.8801 0.46183-0.43669 0.67863-1.0137 0.72789-1.5616 0.1752-1.9485-0.03154-4.5933-0.96149-6.9031-0.93463-2.3217-2.659-4.4227-5.5582-4.9554-0.78629-0.14447-1.496 0.2952-1.8142 0.92764-0.0091 0.01808-0.02766 0.029497-0.04789 0.029497h-3.1231c-0.02023 0-0.03874-0.011417-0.04789-0.029509-0.31816-0.63244-1.0279-1.0721-1.8142-0.92763-2.8991 0.53271-4.6235 2.6337-5.5582 4.9554-0.9299 2.3098-1.1367 4.9546-0.96147 6.9031 0.04928 0.54789 0.26606 1.1249 0.72796 1.5616 0.80442 0.76058 2.2775 1.6997 4.2835 1.8801 0.73288 0.06594 1.3754-0.31532 1.7375-0.8552l0.36333-0.54172c0.95372 0.27932 1.7108 0.37257 2.8311 0.37257 1.1202 0 1.8773-0.09326 2.831-0.37257zm0.02617-5.7153c0.31554 0 0.57143-0.25589 0.57143-0.57143 0-0.31554-0.25589-0.57143-0.57143-0.57143-0.31566 0-0.57143 0.25589-0.57143 0.57143 0 0.31554 0.25577 0.57143 0.57143 0.57143zm0 1.7143c1.2623 0 2.2857-1.0233 2.2857-2.2857 0-1.2624-1.0234-2.2857-2.2857-2.2857-1.2624 0-2.2857 1.0233-2.2857 2.2857 0 1.2624 1.0233 2.2857 2.2857 2.2857zm-5.1429-2.2857c0 0.31554-0.25589 0.57143-0.57147 0.57143-0.31559 0-0.57143-0.25589-0.57143-0.57143 0-0.31554 0.25584-0.57143 0.57143-0.57143 0.31558 0 0.57147 0.25589 0.57147 0.57143zm1.7143 0c0 1.2624-1.0234 2.2857-2.2858 2.2857-1.2624 0-2.2857-1.0233-2.2857-2.2857 0-1.2624 1.0234-2.2857 2.2857-2.2857 1.2623 0 2.2858 1.0233 2.2858 2.2857z" clip-rule="evenodd" fill="#44403c" fill-rule="evenodd" stroke-width="1.1429"/>
</svg>
