<svg version="1.1" viewBox="0 0 24 24" xmlns="http://www.w3.org/2000/svg">
 <path d="m5.625 1.5c-1.036 0-1.875 0.84-1.875 1.875v17.25c0 1.035 0.84 1.875 1.875 1.875h12.75c1.035 0 1.875-0.84 1.875-1.875v-7.875c0-0.9946-0.3951-1.9484-1.0983-2.6517-0.7033-0.70321-1.6571-1.0983-2.6517-1.0983h-1.875c-0.4973 0-0.9742-0.19754-1.3258-0.54917-0.3517-0.35163-0.5492-0.82855-0.5492-1.3258v-1.875c0-0.99456-0.3951-1.9484-1.0983-2.6516-0.7033-0.70326-1.6571-1.0984-2.6517-1.0984h-3.375z" fill="#44403C"/>
 <path d="m12.971 1.816c0.8265 0.95297 1.2808 2.1726 1.279 3.434v1.875c0 0.207 0.168 0.375 0.375 0.375h1.875c1.2615-0.00175 2.481 0.45249 3.434 1.279-0.44-1.6733-1.3165-3.1997-2.5399-4.4231s-2.7498-2.0999-4.4231-2.5399z" fill="#44403C"/>
</svg>
