<svg fill="none" version="1.1" viewBox="0 0 20 20" xmlns="http://www.w3.org/2000/svg">
 <g transform="matrix(1.4286 0 0 1.4286 -4.2857 -4.2857)">
  <circle cx="10" cy="10" r="7" fill="#e7e5e4"/>
  <path d="m9.6378 15h0.74021l0.0039-0.8789c1.6653-0.1211 2.6181-1.0664 2.6181-2.332 0-1.4414-1.2953-2-2.3189-2.25l-0.2874-0.07422 0.0079-2.5078c0.7362 0.09766 1.2401 0.50391 1.3149 1.1445h1.1733c-0.0315-1.1914-1.0237-2.082-2.4843-2.1992l0.0039-0.90234h-0.74011l-0.00394 0.91016c-1.4134 0.14062-2.4488 1.0156-2.4488 2.2773 0 1.1133 0.80314 1.7656 2.0984 2.1133l0.33858 0.0898-0.00787 2.6602c-0.76772-0.0938-1.3622-0.5078-1.4252-1.2617h-1.2205c0.0748 1.3476 1.0551 2.2148 2.6417 2.332zm0.74801-1.9492 0.0079-2.457c0.7992 0.2187 1.4016 0.5078 1.4016 1.1835 0 0.6836-0.5748 1.1641-1.4095 1.2735zm-0.72832-3.7813c-0.58661-0.17187-1.2323-0.48047-1.2284-1.1523 0-0.58594 0.46851-1.043 1.2323-1.1562z" fill="#57534e"/>
 </g>
</svg>
