<svg version="1.1" viewBox="0 0 20 13.333" xmlns="http://www.w3.org/2000/svg">
 <mask id="path-1-inside-1_587_112111" fill="white">
  <path d="m7 6c-2.2091 0-4 1.7909-4 4v4c0 2.2091 1.7909 4 4 4h10c2.2091 0 4-1.7909 4-4v-4c0-2.2091-1.7909-4-4-4zm1 7c0.55228 0 1-0.4477 1-1s-0.44772-1-1-1-1 0.4477-1 1 0.44772 1 1 1zm5-1c0 0.5523-0.4477 1-1 1s-1-0.4477-1-1 0.4477-1 1-1 1 0.4477 1 1zm3 1c0.5523 0 1-0.4477 1-1s-0.4477-1-1-1-1 0.4477-1 1 0.4477 1 1 1z" clip-rule="evenodd" fill-rule="evenodd"/>
 </mask>
 <path d="m4.4444 0c-2.4546 0-4.4444 1.9898-4.4444 4.4444v4.4444c0 2.4546 1.9898 4.4444 4.4444 4.4444h11.111c2.4546 0 4.4444-1.9899 4.4444-4.4444v-4.4444c0-2.4546-1.9899-4.4444-4.4444-4.4444zm1.1111 7.7778c0.61364 0 1.1111-0.49744 1.1111-1.1111 0-0.61367-0.49747-1.1111-1.1111-1.1111-0.61364 0-1.1111 0.49744-1.1111 1.1111 0 0.61367 0.49747 1.1111 1.1111 1.1111zm5.5556-1.1111c0 0.61367-0.49744 1.1111-1.1111 1.1111s-1.1111-0.49744-1.1111-1.1111c0-0.61367 0.49744-1.1111 1.1111-1.1111s1.1111 0.49744 1.1111 1.1111zm3.3333 1.1111c0.61367 0 1.1111-0.49744 1.1111-1.1111 0-0.61367-0.49744-1.1111-1.1111-1.1111-0.61367 0-1.1111 0.49744-1.1111 1.1111 0 0.61367 0.49744 1.1111 1.1111 1.1111z" clip-rule="evenodd" fill="#44403c" fill-rule="evenodd" stroke-width="1.1111"/>
 <path transform="translate(-3 -4.6667)" d="m4.5 10c0-1.3807 1.1193-2.5 2.5-2.5v-3c-3.0376 0-5.5 2.4624-5.5 5.5zm0 4v-4h-3v4zm2.5 2.5c-1.3807 0-2.5-1.1193-2.5-2.5h-3c0 3.0376 2.4624 5.5 5.5 5.5zm10 0h-10v3h10zm2.5-2.5c0 1.3807-1.1193 2.5-2.5 2.5v3c3.0376 0 5.5-2.4624 5.5-5.5zm0-4v4h3v-4zm-2.5-2.5c1.3807 0 2.5 1.1193 2.5 2.5h3c0-3.0376-2.4624-5.5-5.5-5.5zm-10 0h10v-3h-10zm0.5 4.5c0-0.2761 0.22386-0.5 0.5-0.5v3c1.3807 0 2.5-1.1193 2.5-2.5zm0.5 0.5c-0.27614 0-0.5-0.2239-0.5-0.5h3c0-1.3807-1.1193-2.5-2.5-2.5zm0.5-0.5c0 0.2761-0.22386 0.5-0.5 0.5v-3c-1.3807 0-2.5 1.1193-2.5 2.5zm-0.5-0.5c0.27614 0 0.5 0.2239 0.5 0.5h-3c0 1.3807 1.1193 2.5 2.5 2.5zm4 3c1.3807 0 2.5-1.1193 2.5-2.5h-3c0-0.2761 0.2239-0.5 0.5-0.5zm-2.5-2.5c0 1.3807 1.1193 2.5 2.5 2.5v-3c0.2761 0 0.5 0.2239 0.5 0.5zm2.5-2.5c-1.3807 0-2.5 1.1193-2.5 2.5h3c0 0.2761-0.2239 0.5-0.5 0.5zm2.5 2.5c0-1.3807-1.1193-2.5-2.5-2.5v3c-0.2761 0-0.5-0.2239-0.5-0.5zm1 0c0-0.2761 0.2239-0.5 0.5-0.5v3c1.3807 0 2.5-1.1193 2.5-2.5zm0.5 0.5c-0.2761 0-0.5-0.2239-0.5-0.5h3c0-1.3807-1.1193-2.5-2.5-2.5zm0.5-0.5c0 0.2761-0.2239 0.5-0.5 0.5v-3c-1.3807 0-2.5 1.1193-2.5 2.5zm-0.5-0.5c0.2761 0 0.5 0.2239 0.5 0.5h-3c0 1.3807 1.1193 2.5 2.5 2.5z" fill="#44403c" mask="url(#path-1-inside-1_587_112111)"/>
</svg>
