<svg fill="none" version="1.1" viewBox="0 0 20 20" xmlns="http://www.w3.org/2000/svg">
 <g transform="matrix(.98766 0 0 .98766 -2.7161 -1.4817)" fill="#44403c">
  <path d="m22.231 2.2689c-0.4923-0.49218-1.1599-0.76869-1.856-0.76869-0.6962 0-1.3638 0.27651-1.856 0.76869l-1.157 1.157 3.712 3.712 1.157-1.157c0.4921-0.49227 0.7686-1.1599 0.7686-1.856 0-0.69611-0.2765-1.3637-0.7686-1.856zm-2.218 5.93-3.712-3.712-8.4 8.4c-0.61714 0.6169-1.0708 1.3778-1.32 2.214l-0.8 2.685c-0.03862 0.1296-0.0415 0.2672-0.00833 0.3983 0.03316 0.131 0.10115 0.2507 0.19675 0.3463s0.21527 0.1636 0.34634 0.1968c0.13108 0.0331 0.26868 0.0303 0.39824-0.0084l2.685-0.8c0.83625-0.2491 1.5972-0.7028 2.214-1.32z"/>
  <path d="m5.75 5.25c-0.79565 0-1.5587 0.31607-2.1213 0.87868s-0.87868 1.3257-0.87868 2.1213v10.5c0 0.7956 0.31607 1.5587 0.87868 2.1213s1.3257 0.8787 2.1213 0.8787h10.5c0.7956 0 1.5587-0.3161 2.1213-0.8787s0.8787-1.3257 0.8787-2.1213v-5.25c0-0.1989-0.079-0.3897-0.2197-0.5303-0.1406-0.1407-0.3314-0.2197-0.5303-0.2197s-0.3897 0.079-0.5303 0.2197c-0.1407 0.1406-0.2197 0.3314-0.2197 0.5303v5.25c0 0.3978-0.158 0.7794-0.4393 1.0607s-0.6629 0.4393-1.0607 0.4393h-10.5c-0.39782 0-0.77936-0.158-1.0607-0.4393s-0.43934-0.6629-0.43934-1.0607v-10.5c0-0.39782 0.15804-0.77936 0.43934-1.0607s0.66284-0.43934 1.0607-0.43934h5.25c0.1989 0 0.3897-0.07902 0.5303-0.21967 0.1407-0.14065 0.2197-0.33142 0.2197-0.53033s-0.079-0.38968-0.2197-0.53033c-0.1406-0.14065-0.3314-0.21967-0.5303-0.21967z"/>
 </g>
</svg>
