<svg version="1.1" viewBox="0 0 24 24" xmlns="http://www.w3.org/2000/svg">
 <path d="m21.731 2.269c-0.4923-0.49219-1.1599-0.76869-1.856-0.76869s-1.3637 0.2765-1.856 0.76869l-1.157 1.157 3.712 3.712 1.157-1.157c0.4922-0.49227 0.7687-1.1599 0.7687-1.856 0-0.69611-0.2765-1.3637-0.7687-1.856zm-2.218 5.93-3.712-3.712-8.4 8.4c-0.61715 0.6168-1.0708 1.3778-1.32 2.214l-0.8 2.685c-0.03862 0.1296-0.0415 0.2672-0.00833 0.3982 0.03316 0.1311 0.10114 0.2508 0.19675 0.3464 0.0956 0.0956 0.21527 0.1636 0.34634 0.1967 0.13107 0.0332 0.26867 0.0303 0.39824-0.0083l2.685-0.8c0.83623-0.2492 1.5972-0.7028 2.214-1.32l8.4-8.4z" fill="#44403C"/>
 <path d="m5.25 5.25c-0.79565 0-1.5587 0.31607-2.1213 0.87868s-0.87868 1.3257-0.87868 2.1213v10.5c0 0.7956 0.31607 1.5587 0.87868 2.1213s1.3257 0.8787 2.1213 0.8787h10.5c0.7956 0 1.5587-0.3161 2.1213-0.8787s0.8787-1.3257 0.8787-2.1213v-5.25c0-0.1989-0.079-0.3897-0.2197-0.5303-0.1406-0.1407-0.3314-0.2197-0.5303-0.2197s-0.3897 0.079-0.5303 0.2197c-0.1407 0.1406-0.2197 0.3314-0.2197 0.5303v5.25c0 0.3978-0.158 0.7794-0.4393 1.0607s-0.6629 0.4393-1.0607 0.4393h-10.5c-0.39782 0-0.77936-0.158-1.0607-0.4393s-0.43934-0.6629-0.43934-1.0607v-10.5c0-0.39782 0.15804-0.77936 0.43934-1.0607s0.66284-0.43934 1.0607-0.43934h5.25c0.1989 0 0.3897-0.07902 0.5303-0.21967 0.1407-0.14065 0.2197-0.33142 0.2197-0.53033s-0.079-0.38968-0.2197-0.53033c-0.1406-0.14065-0.3314-0.21967-0.5303-0.21967h-5.25z" fill="#44403C"/>
</svg>
