<svg fill="none" version="1.1" viewBox="0 0 20 11.304" xmlns="http://www.w3.org/2000/svg">
 <g transform="matrix(.86957 0 0 .86957 -.43478 -4.7826)" fill="#000">
  <path d="m4 14.491c0 0.3156 0.25584 0.5714 0.57143 0.5714h3.0552c0.22906 0 0.41475-0.1857 0.41475-0.4147 0-0.2291-0.18569-0.4148-0.41475-0.4148h-2.6631v-1.9552h2.4183c0.2282 0 0.41319-0.185 0.41319-0.4132s-0.18499-0.4132-0.41319-0.4132h-2.4183v-1.9458h2.6257c0.22906 0 0.41475-0.18569 0.41475-0.41475s-0.18569-0.41474-0.41475-0.41474h-3.0178c-0.31559 0-0.57143 0.25583-0.57143 0.57142z"/>
  <path d="m14.27 9.1532c0-0.2635-0.2136-0.47711-0.4771-0.47711s-0.4771 0.21361-0.4771 0.47711v4.2129h-0.0593l-3.0789-4.444c-0.1068-0.15408-0.28228-0.246-0.46972-0.246h-0.02116c-0.31559 0-0.57143 0.25583-0.57143 0.57142v5.3332c0 0.2661 0.21571 0.4818 0.48179 0.4818 0.26609 0 0.48182-0.2157 0.48182-0.4818v-4.202h0.0592l3.0758 4.4379c0.1068 0.154 0.2823 0.2459 0.4697 0.2459h0.015c0.3155 0 0.5714-0.2558 0.5714-0.5714z"/>
  <path d="m18.844 9.9491c0.1305 0.2084 0.3244 0.4047 0.5702 0.4047 0.2728 0 0.4993-0.2303 0.4122-0.48878-0.2567-0.76214-1.0642-1.2763-2.1439-1.2763-1.2816 0-2.2639 0.73282-2.2639 1.8336 0 0.8887 0.6361 1.4095 1.6621 1.687l0.7546 0.2058c0.683 0.1809 1.21 0.4054 1.21 0.973 0 0.6236-0.5956 1.0353-1.4158 1.0353-0.5682 0-1.0633-0.1938-1.2894-0.5967-0.1246-0.2221-0.3225-0.4293-0.5772-0.4293-0.2803 0-0.5104 0.2393-0.4273 0.5069 0.2654 0.855 1.0916 1.3642 2.3002 1.3642 1.4999 0 2.3637-0.789 2.3637-1.8711 0-1.1507-1.0259-1.5966-1.8367-1.7962l-0.6237-0.1621c-0.4989-0.1279-1.1632-0.3618-1.16-0.973 0-0.54256 0.4958-0.94483 1.2816-0.94483 0.5441 0 0.9713 0.1891 1.1833 0.52773z"/>
  <path d="m5 5.5h14c2.4853 0 4.5 2.0147 4.5 4.5v4c0 2.4853-2.0147 4.5-4.5 4.5h-14c-2.4853 0-4.5-2.0147-4.5-4.5v-4c0-2.4853 2.0147-4.5 4.5-4.5zm0 1.5c-1.6568 0-3 1.3432-3 3v4c0 1.6569 1.3432 3 3 3h14c1.6569 0 3-1.3431 3-3v-4c0-1.6568-1.3431-3-3-3z" clip-rule="evenodd" fill-rule="evenodd"/>
  <path d="m17.029 12.302c-0.53-0.1434-0.9811-0.355-1.3018-0.6631-0.3267-0.3139-0.5077-0.7184-0.5077-1.2169 0-1.2525 1.1182-2.0336 2.4639-2.0336 1.1387 0 2.0417 0.54607 2.3334 1.4124 0.0688 0.20411 0.0113 0.40011-0.1111 0.53791-0.1193 0.1343-0.2993 0.2147-0.4906 0.2147-0.3565 0-0.6023-0.2791-0.7397-0.4986-0.1625-0.25953-0.5101-0.43383-1.0138-0.43383-0.3606 0-0.6353 0.09242-0.8147 0.22835-0.1759 0.13328-0.267 0.31218-0.267 0.51648v0.0011c-0.0011 0.2171 0.1104 0.373 0.3021 0.4999 0.1983 0.1311 0.4612 0.2151 0.7076 0.2782l0.6231 0.162c0.4155 0.1024 0.9064 0.2722 1.2967 0.5779 0.3986 0.3122 0.691 0.7664 0.691 1.4122 0 0.5984-0.2408 1.1236-0.6922 1.4957-0.4481 0.3692-1.088 0.5754-1.8715 0.5754-1.2628 0-2.1912-0.5381-2.4913-1.5049-0.0642-0.2069-0.0052-0.405 0.1184-0.5453 0.1211-0.1375 0.3039-0.2209 0.5-0.2209 0.369 0 0.6186 0.2943 0.7516 0.5314 0.1753 0.3125 0.581 0.4946 1.115 0.4946 0.379 0 0.6891-0.0954 0.8986-0.2462 0.2053-0.1476 0.3172-0.3488 0.3172-0.5891 0-0.206-0.0887-0.3471-0.2624-0.4668-0.186-0.1283-0.4585-0.2227-0.7988-0.3128l-0.0014-4e-4z"/>
  <path d="m7.6267 15.262h-3.0552c-0.42605 0-0.77143-0.3454-0.77143-0.7714v-5.2436c0-0.42605 0.34538-0.77143 0.77143-0.77143h3.0178c0.33951 0 0.61475 0.27524 0.61475 0.61475s-0.27523 0.61475-0.61475 0.61475h-2.4257v1.5458h2.2183c0.33865 0 0.61318 0.2746 0.61318 0.6132 0 0.3387-0.27453 0.6132-0.61318 0.6132h-2.2183v1.5552h2.4631c0.33952 0 0.61475 0.2753 0.61475 0.6148s-0.27523 0.6147-0.61475 0.6147z"/>
  <path d="m13.116 12.812v-3.6586c0-0.37396 0.3032-0.67712 0.6772-0.67712 0.3739 0 0.6771 0.30316 0.6771 0.67712v5.3379c0 0.426-0.3454 0.7714-0.7715 0.7714h-0.0149c-0.253 0-0.49-0.124-0.6341-0.332l-2.7706-3.9976v3.6478c0 0.3766-0.30529 0.6818-0.68183 0.6818s-0.68179-0.3052-0.68179-0.6818v-5.3332c0-0.42605 0.34538-0.77143 0.77143-0.77143h0.02115c0.25305 0 0.49004 0.12411 0.63414 0.33211z"/>
 </g>
</svg>
