<svg fill="none" version="1.1" viewBox="0 0 20 10" xmlns="http://www.w3.org/2000/svg">
 <path d="m0 2c0-1.1046 0.89543-2 2-2h3.5c0.27614 0 0.5 0.22386 0.5 0.5v1c0 0.27614-0.22386 0.5-0.5 0.5h-3.5v2h2.5c0.27614 0 0.5 0.22386 0.5 0.5v1c0 0.27614-0.22386 0.5-0.5 0.5h-2.5v2h3.5c0.27614 0 0.5 0.22386 0.5 0.5v1c0 0.27614-0.22386 0.5-0.5 0.5h-3.5c-1.1046 0-2-0.89543-2-2zm7-1.5c0-0.27614 0.22386-0.5 0.5-0.5h0.67804c0.19607 0 0.37405 0.1146 0.45519 0.2931l2.3668 5.2069v-5c0-0.27614 0.2239-0.5 0.5-0.5h1c0.2761 0 0.5 0.22386 0.5 0.5v9c0 0.27614-0.2239 0.5-0.5 0.5h-0.691c-0.1894 0-0.3625-0.107-0.4472-0.27639l-2.3618-4.7236v4.5c0 0.27614-0.22386 0.5-0.5 0.5h-1c-0.27614 0-0.5-0.22386-0.5-0.5zm9-0.5c-1.1046 0-2 0.89543-2 2v2c0 1.1046 0.8954 2 2 2h2v2h-3.5c-0.2761 0-0.5 0.22386-0.5 0.5v1c0 0.27614 0.2239 0.5 0.5 0.5h3.5c1.1046 0 2-0.89543 2-2v-2c0-1.1046-0.8954-2-2-2h-2v-2h3.5c0.2761 0 0.5-0.22386 0.5-0.5v-1c0-0.27614-0.2239-0.5-0.5-0.5z" clip-rule="evenodd" fill="#3b82f6" fill-rule="evenodd"/>
</svg>
