<svg fill="none" version="1.1" viewBox="0 0 24 24" xmlns="http://www.w3.org/2000/svg">
 <path d="m2 9c0-1.1046 0.89543-2 2-2h3.5c0.27614 0 0.5 0.22386 0.5 0.5v1c0 0.27614-0.22386 0.5-0.5 0.5h-3.5v2h2.5c0.27614 0 0.5 0.2239 0.5 0.5v1c0 0.2761-0.22386 0.5-0.5 0.5h-2.5v2h3.5c0.27614 0 0.5 0.2239 0.5 0.5v1c0 0.2761-0.22386 0.5-0.5 0.5h-3.5c-1.1046 0-2-0.8954-2-2v-6zm7-1.5c0-0.27614 0.22386-0.5 0.5-0.5h0.678c0.1961 0 0.3741 0.1146 0.4552 0.2931l2.3668 5.2069v-5c0-0.27614 0.2239-0.5 0.5-0.5h1c0.2761 0 0.5 0.22386 0.5 0.5v9c0 0.2761-0.2239 0.5-0.5 0.5h-0.691c-0.1894 0-0.3625-0.107-0.4472-0.2764l-2.3618-4.7236v4.5c0 0.2761-0.2239 0.5-0.5 0.5h-1c-0.27614 0-0.5-0.2239-0.5-0.5v-9zm9-0.5c-1.1046 0-2 0.89543-2 2v2c0 1.1046 0.8954 2 2 2h2v2h-3.5c-0.2761 0-0.5 0.2239-0.5 0.5v1c0 0.2761 0.2239 0.5 0.5 0.5h3.5c1.1046 0 2-0.8954 2-2v-2c0-1.1046-0.8954-2-2-2h-2v-2h3.5c0.2761 0 0.5-0.22386 0.5-0.5v-1c0-0.27614-0.2239-0.5-0.5-0.5h-3.5z" clip-rule="evenodd" fill="#44403C" fill-rule="evenodd"/>
</svg>
