<svg fill="none" version="1.1" viewBox="0 0 20 20" xmlns="http://www.w3.org/2000/svg">
 <g transform="scale(1.25)" clip-path="url(#clip0_1737_17320)">
  <path d="m 16,8 c 0,2.1217 -0.8429,4.1566 -2.3431,5.6569 C 12.1566,15.1571 10.1217,16 8,16 5.87827,16 3.84344,15.1571 2.34315,13.6569 0.842855,12.1566 0,10.1217 0,8 0,5.87827 0.842855,3.84344 2.34315,2.34315 3.84344,0.842855 5.87827,0 8,0 10.1217,0 12.1566,0.842855 13.6569,2.34315 15.1571,3.84344 16,5.87827 16,8 Z M 9,12 C 9,12.2652 8.89464,12.5196 8.70711,12.7071 8.51957,12.8946 8.26522,13 8,13 7.73478,13 7.48043,12.8946 7.29289,12.7071 7.10536,12.5196 7,12.2652 7,12 7,11.7348 7.10536,11.4804 7.29289,11.2929 7.48043,11.1054 7.73478,11 8,11 8.26522,11 8.51957,11.1054 8.70711,11.2929 8.89464,11.4804 9,11.7348 9,12 Z M 8,3 C 7.73478,3 7.48043,3.10536 7.29289,3.29289 7.10536,3.48043 7,3.73478 7,4 V 8 C 7,8.26522 7.10536,8.51957 7.29289,8.70711 7.48043,8.89464 7.73478,9 8,9 8.26522,9 8.51957,8.89464 8.70711,8.70711 8.89464,8.51957 9,8.26522 9,8 V 4 C 9,3.73478 8.89464,3.48043 8.70711,3.29289 8.51957,3.10536 8.26522,3 8,3 Z" clip-rule="evenodd" fill="#ea580c" fill-rule="evenodd"/>
 </g>
 <defs>
  <clipPath id="clip0_1737_17320">
   <rect width="16" height="16" fill="#fff"/>
  </clipPath>
 </defs>
</svg>
