<svg fill="none" version="1.1" viewBox="0 0 20 20" xmlns="http://www.w3.org/2000/svg">
 <path d="m0 7.1215c0-2.5238 2.046-4.5698 4.5698-4.5698h4.9852c0.68829 0 1.2463 0.558 1.2463 1.2463 0 0.68831-0.55801 1.2463-1.2463 1.2463h-4.9852c-1.1472 0-2.0772 0.92998-2.0772 2.0772v8.3087c0 1.1473 0.92998 2.0772 2.0772 2.0772h8.3087c1.1473 0 2.0772-0.92991 2.0772-2.0772v-4.9852c0-0.68829 0.55801-1.2463 1.2463-1.2463s1.2463 0.55801 1.2463 1.2463v4.9852c0 2.5239-2.0459 4.5698-4.5698 4.5698h-8.3087c-2.5238 0-4.5698-2.0459-4.5698-4.5698zm11.632-5.8752c0-0.68831 0.55801-1.2463 1.2463-1.2463h5.8753c0.33052 0 0.64742 0.13131 0.88122 0.36503 0.23381 0.23372 0.36508 0.55073 0.36508 0.88127v5.8752c0 0.68829-0.55801 1.2463-1.2463 1.2463s-1.2463-0.55801-1.2463-1.2463v-2.8663l-8.7328 8.7328c-0.48672 0.48672-1.2759 0.48672-1.7626 0-0.48671-0.48672-0.48671-1.2757 0-1.7624l8.7328-8.7329h-2.8663c-0.68829 0-1.2463-0.55798-1.2463-1.2463z" clip-rule="evenodd" fill="#a8a29e" fill-rule="evenodd" stroke-width="1.6617"/>
</svg>
