<svg class="external-inline" fill="none" version="1.1" viewBox="0 0 20 20" xmlns="http://www.w3.org/2000/svg">
 <path d="m0.51258 17.013c-0.68344 0.68346-0.68344 1.7916 0 2.4748 0.68347 0.68346 1.7915 0.68346 2.475 0zm17.737-15.262h1.7501c0-0.96654-0.78334-1.7501-1.7501-1.7501zm-13.2-1.7501c-0.96656 0-1.7501 0.78355-1.7501 1.7501 0 0.96656 0.78352 1.7501 1.7501 1.7501zm11.45 14.95c0 0.96651 0.78357 1.7501 1.7501 1.7501 0.96674 0 1.7501-0.78357 1.7501-1.7501zm-13.512 4.5374 16.5-16.5-2.4751-2.475-16.5 16.5zm15.262-19.487h-13.2v3.5002h13.2zm-1.7501 1.7501v13.2h3.5002v-13.2z" fill="#44403c" stroke-width="2.3334"/>
</svg>
