<svg fill="none" version="1.1" viewBox="0 0 20 20" xmlns="http://www.w3.org/2000/svg">
 <g transform="scale(.83333)">
  <g clip-path="url(#clip0_1283_154477)">
   <rect width="24" height="24" rx="12" fill="#fee2e2"/>
   <path d="m2.25 12c0-5.385 4.365-9.75 9.75-9.75s9.75 4.365 9.75 9.75-4.365 9.75-9.75 9.75-9.75-4.365-9.75-9.75zm9.75-3.75c0.1989 0 0.3897 0.07902 0.5303 0.21967 0.1407 0.14065 0.2197 0.33142 0.2197 0.53033v3.75c0 0.1989-0.079 0.3897-0.2197 0.5303-0.1406 0.1407-0.3314 0.2197-0.5303 0.2197s-0.3897-0.079-0.5303-0.2197c-0.1407-0.1406-0.2197-0.3314-0.2197-0.5303v-3.75c0-0.19891 0.079-0.38968 0.2197-0.53033 0.1406-0.14065 0.3314-0.21967 0.5303-0.21967zm0 8.25c0.1989 0 0.3897-0.079 0.5303-0.2197 0.1407-0.1406 0.2197-0.3314 0.2197-0.5303s-0.079-0.3897-0.2197-0.5303c-0.1406-0.1407-0.3314-0.2197-0.5303-0.2197s-0.3897 0.079-0.5303 0.2197c-0.1407 0.1406-0.2197 0.3314-0.2197 0.5303s0.079 0.3897 0.2197 0.5303c0.1406 0.1407 0.3314 0.2197 0.5303 0.2197z" clip-rule="evenodd" fill="#dc2626" fill-rule="evenodd"/>
  </g>
 </g>
 <defs>
  <clipPath id="clip0_1283_154477">
   <rect width="24" height="24" rx="12" fill="#fff"/>
  </clipPath>
 </defs>
</svg>
