<svg fill="none" version="1.1" viewBox="0 0 24 24" xmlns="http://www.w3.org/2000/svg">
 <path d="m3.792 2.938c2.7119-0.45897 5.4576-0.68912 8.208-0.688 2.797 0 5.54 0.236 8.209 0.688 0.4324 0.07466 0.8243 0.3 1.1064 0.63607s0.436 0.76117 0.4346 1.1999v1.044c-2e-4 0.79558-0.3163 1.5585-0.879 2.121l-6.182 6.182c-0.1393 0.1394-0.2497 0.3048-0.325 0.4868-0.0754 0.1821-0.1141 0.3772-0.114 0.5742v2.927c2e-4 0.5572-0.1549 1.1035-0.4477 1.5775-0.2928 0.4741-0.7119 0.8572-1.2103 1.1065l-1.757 0.878c-0.1143 0.0571-0.2414 0.084-0.369 0.0782-0.1277-0.0058-0.2518-0.0441-0.3605-0.1114-0.10867-0.0672-0.19839-0.1611-0.26061-0.2727s-0.09488-0.2373-0.09488-0.3651v-5.818c-3.5e-4 -0.3977-0.15862-0.779-0.44-1.06l-6.18-6.184c-0.56265-0.56248-0.87883-1.3254-0.879-2.121v-1.043c0-0.897 0.64-1.683 1.542-1.836h-1e-3z" clip-rule="evenodd" fill="#44403C" fill-rule="evenodd"/>
</svg>
