<svg fill="none" version="1.1" viewBox="0 0 19.999 20" xmlns="http://www.w3.org/2000/svg">
 <path d="m1.5805 0.70565c2.7814-0.47074 5.5975-0.70679 8.4185-0.70564 2.8687 0 5.6821 0.24205 8.4195 0.70564 0.44349 0.076574 0.84544 0.30769 1.1348 0.65238 0.28933 0.34469 0.44718 0.78069 0.44574 1.2307v1.0708c-2.05e-4 0.81598-0.32441 1.5985-0.90154 2.1754l-6.3405 6.3405c-0.14287 0.14297-0.2561 0.31262-0.33333 0.49928-0.07734 0.18677-0.11703 0.38687-0.11692 0.58892v3.0021c2.05e-4 0.57149-0.15887 1.1318-0.45918 1.618-0.30031 0.48626-0.73015 0.87918-1.2413 1.1349l-1.8021 0.90051c-0.11723 0.05857-0.24759 0.08616-0.37846 0.08021-0.13097-0.0059-0.25826-0.04523-0.36974-0.11426-0.11146-0.06893-0.20348-0.16523-0.26729-0.27969-0.063816-0.11446-0.097313-0.24338-0.097313-0.37446v-5.9672c-3.595e-4 -0.4079-0.16269-0.79898-0.45128-1.0872l-6.3385-6.3426c-0.57708-0.5769-0.90136-1.3594-0.90154-2.1754v-1.0697c0-0.92 0.65641-1.7262 1.5815-1.8831z" clip-rule="evenodd" fill="#44403c" fill-rule="evenodd" stroke-width="1.0256"/>
</svg>
