<svg fill="none" version="1.1" viewBox="0 0 24 24" xmlns="http://www.w3.org/2000/svg">
 <path d="m21.721 12.752c0.1356-1.722-0.1906-3.4491-0.945-5.003-1.2486 1.1864-2.7246 2.1076-4.339 2.708 0.1298 1.5933 0.0579 3.1967-0.214 4.772 1.9645-0.4948 3.8259-1.3334 5.498-2.477zm-7.087 2.798c0.3194-1.527 0.4311-3.0901 0.332-4.647-0.952 0.227-1.945 0.347-2.966 0.347s-2.014-0.12-2.966-0.347c-0.09675 1.5569 0.0149 3.1197 0.332 4.647 1.7458 0.2676 3.5222 0.2676 5.268 0zm-4.862 1.569c1.4802 0.1751 2.9758 0.1751 4.456 0-0.5087 1.6376-1.2597 3.1898-2.228 4.605-0.9683-1.4152-1.7193-2.9674-2.228-4.605zm-1.995-1.889c-0.27336-1.5758-0.34527-3.18-0.214-4.774-1.6147-0.60028-3.0911-1.5215-4.34-2.708-0.75418 1.5543-1.08 3.2817-0.944 5.004 1.6721 1.1436 3.5335 1.9832 5.498 2.478zm13.579-0.478c-0.5049 1.7109-1.4688 3.2509-2.7871 4.4527s-2.9407 2.0194-4.6909 2.3643c0.8765-1.4737 1.5455-3.0614 1.988-4.718 1.9295-0.4044 3.7826-1.1126 5.49-2.098v-1e-3zm-18.712 0c1.682 0.971 3.53 1.688 5.49 2.099 0.44251 1.6566 1.1115 3.2443 1.988 4.718-1.7501-0.3448-3.3724-1.1623-4.6906-2.3639s-2.2823-2.7413-2.7874-4.4521v-1e-3zm11.234-12.322c2.4777 0.48701 4.6701 1.9158 6.116 3.986-1.0673 1.0784-2.3415 1.9301-3.746 2.504-0.3784-2.2922-1.1822-4.4934-2.37-6.49zm-1.878-0.154c1.4594 2.1321 2.4183 4.5664 2.805 7.121-0.897 0.23-1.837 0.353-2.805 0.353s-1.908-0.122-2.805-0.353c0.38669-2.5546 1.3456-4.9889 2.805-7.121zm-1.878 0.154c-1.1878 1.9966-1.9916 4.1978-2.37 6.49-1.4045-0.5739-2.6787-1.4256-3.746-2.504 1.446-2.0699 3.6384-3.4993 6.116-3.986z" fill="#44403C"/>
</svg>
