<svg fill="none" version="1.1" viewBox="0 0 20 14.037" xmlns="http://www.w3.org/2000/svg">
 <path d="m4.7514 0.041103c-0.12839 0.023713-0.4221 0.069401-0.65264 0.1015-0.48137 0.067007-0.85497 0.21767-1.4072 0.56749-0.21407 0.13563-0.46593 0.28605-0.55964 0.33431-0.65431 0.33696-1.5364 1.5112-1.8417 2.4518-0.31407 0.96749-0.4003 5.3636-0.12341 6.2922 0.69276 2.3237 2.0881 3.7866 3.7822 3.9654 2.4458 0.25811 4.0247-0.21839 5.0045-1.5102 0.1124-0.14821 0.29737-0.39073 0.41109-0.53893 0.7342-0.95696 0.92606-1.7129 0.98779-3.8922 0.0648-2.2858 0.313-2.0659-2.3314-2.0659-2.3307 0-2.1889-0.042457-2.1322 0.63869 0.021386 0.25604 0.0091 0.65156-0.027486 0.88743-0.094071 0.60623-0.039286 0.64186 1.0695 0.69587 0.90294 0.043957 1.028 0.1476 1.0293 0.85264 0.00139 0.74497-0.39504 1.4947-0.70006 1.8274-0.61331 0.6689-1.8319 1.0933-3.1283 0.53774-0.73517-0.31504-1.2575-0.76706-1.497-1.306-0.23951-0.53893-0.271-1.1299-0.2994-1.6168-0.024557-0.42103-0.013943-1.0799-0.013943-1.0799 0.0303-2.9373 0.27904-3.6685 1.4702-4.3214 1.1126-0.60976 2.3012-0.47 3.2268 0.3794 0.5151 0.4727 0.50037 0.46893 1.8436 0.46893 1.4527 0 1.7046-0.15479 1.3088-0.80401-0.0688-0.11281-0.1764-0.30144-0.23921-0.41917-0.49013-0.91869-1.9106-2.0379-2.8089-2.2131-0.1482-0.028861-0.47156-0.094371-0.71856-0.14551-0.52037-0.10779-1.3158-0.14994-1.6528-0.087666zm13.09-0.017186c-0.49114 0.097784-0.68029 0.34647-0.59586 0.78372 0.02843 0.14755 0.05286 0.51641 0.05429 0.81976 0.0039 0.80707-0.0053 0.80174 1.5086 0.88929 0.93143 0.053957 1.0773-0.11587 1.1043-1.2864 0.02157-0.92527-0.08643-1.0381-1.0893-1.1386-0.33257-0.033353-0.64243-0.071617-0.68857-0.08509-0.04614-0.013473-0.17814-0.00569-0.29343 0.017306zm-5.2608 0.11401c-0.8939-0.02563-0.95623 0.085389-0.76456 1.3614 0.14174 0.9439 0.22762 0.99971 1.4346 0.93283 1.097-0.060843 1.0623-0.025571 1.1364-1.1499 0.06786-1.0287 0.05014-1.0843-0.37594-1.1826-0.47913-0.11058-0.93819 0.052416-1.4306 0.038324zm2.4245 4.024c-1.2253 0.19197-2.8218 1.5478-3.0998 2.6325-0.22617 0.88253-0.163 3.6186 0.10161 4.3998 0.86276 2.5468 3.4419 3.558 5.8899 2.3091 0.264-0.13467 1.0291-0.94449 1.3936-1.475 1.2523-1.823 0.76914-5.8219-0.83614-6.9204-0.15586-0.10671-0.32386-0.23383-0.37329-0.28246-0.13986-0.13773-0.93243-0.48611-1.1059-0.48611-0.08543 0-0.25571-0.043114-0.37814-0.0958-0.26828-0.11546-1.1026-0.15821-1.5919-0.081557zm1.3549 2.3588c0.56314 0.2009 1.0776 0.6912 1.2297 1.1719 0.237 0.74893 0.26714 2.3626 0.05071 2.7095-0.04628 0.0742-0.10057 0.20611-0.12071 0.29319-0.03771 0.16287-0.54529 0.70891-0.66114 0.71126-0.03586 7.14e-4 -0.13243 0.05401-0.21471 0.11844-0.44629 0.34904-1.8509-0.04689-2.335-0.65814-0.38144-0.48174-0.4391-0.74133-0.4318-1.9444l0.0066-1.0755 0.21354-0.4215c0.40295-0.79546 1.4245-1.2038 2.2628-0.90467z" clip-rule="evenodd" fill="#334155" fill-rule="evenodd" stroke-width="1.4286"/>
</svg>
