<svg fill="none" version="1.1" viewBox="0 0 20 17.5" xmlns="http://www.w3.org/2000/svg">
 <path d="m6.5567e-7 1.25c3.0176e-8 -0.69036 0.55964-1.25 1.25-1.25l17.5 8e-7c0.69038 0 1.25 0.55964 1.25 1.25 0 0.69035-0.55962 1.25-1.25 1.25h-17.5c-0.69036 0-1.25-0.55965-1.25-1.25zm-3.2784e-7 7.5c3.0176e-8 -0.69035 0.55964-1.25 1.25-1.25h17.5c0.69038 0 1.25 0.55965 1.25 1.25 0 0.69036-0.55962 1.25-1.25 1.25h-17.5c-0.69036 0-1.25-0.55965-1.25-1.25zm1.25 6.25c-0.69036 0-1.25 0.55962-1.25 1.25-3.0176e-8 0.69038 0.55964 1.25 1.25 1.25h17.5c0.69038 0 1.25-0.55962 1.25-1.25s-0.55962-1.25-1.25-1.25z" clip-rule="evenodd" fill="#78716c" fill-rule="evenodd" stroke-width="1.25"/>
</svg>
