<svg fill="none" version="1.1" viewBox="0 0 20 17.5" xmlns="http://www.w3.org/2000/svg">
 <g transform="scale(1.25)">
  <path d="m-4.3711e-8 1c2.4141e-8 -0.55228 0.44772-1 1-1l14 6.1196e-7c0.5523 2.4141e-8 1 0.44772 1 1 0 0.55228-0.4477 1-1 1h-14c-0.55228 0-1-0.44772-1-1zm-2.6227e-7 6c2.4141e-8 -0.55228 0.44772-1 1-1h14c0.5523 0 1 0.44772 1 1 0 0.55229-0.4477 1-1 1h-14c-0.55228 0-1-0.44772-1-1zm1 5c-0.55228 0-1 0.4477-1 1s0.44772 1 1 1h14c0.5523 0 1-0.4477 1-1s-0.4477-1-1-1z" clip-rule="evenodd" fill="#78716c" fill-rule="evenodd"/>
 </g>
</svg>
