<svg fill="none" version="1.1" viewBox="0 0 20 15.714" xmlns="http://www.w3.org/2000/svg">
 <g transform="matrix(.95238 0 0 .95238 -1.4286 -3.5714)">
  <path d="m4.5 3.75c-0.79565 0-1.5587 0.31607-2.1213 0.87868s-0.87868 1.3257-0.87868 2.1213v10.5c0 0.7956 0.31607 1.5587 0.87868 2.1213s1.3257 0.8787 2.1213 0.8787h15c0.7956 0 1.5587-0.3161 2.1213-0.8787s0.8787-1.3257 0.8787-2.1213v-10.5c0-0.79565-0.3161-1.5587-0.8787-2.1213s-1.3257-0.87868-2.1213-0.87868zm4.125 3c-0.59674 0-1.169 0.23705-1.591 0.65901s-0.65901 0.99425-0.65901 1.591 0.23705 1.169 0.65901 1.591c0.42196 0.4219 0.99425 0.659 1.591 0.659s1.169-0.2371 1.591-0.659c0.4219-0.422 0.659-0.99426 0.659-1.591s-0.2371-1.169-0.659-1.591c-0.42197-0.42196-0.99426-0.65901-1.591-0.65901zm-3.873 8.703c0.29123-0.7929 0.81878-1.4773 1.5114-1.9607 0.69262-0.4835 1.5169-0.7427 2.3616-0.7427s1.669 0.2592 2.3616 0.7427c0.6926 0.4834 1.2202 1.1678 1.5114 1.9607 0.0623 0.1699 0.0611 0.3566-0.0034 0.5257-0.0645 0.169-0.1879 0.3091-0.3476 0.3943-1.084 0.5774-2.2938 0.8787-3.522 0.877-1.2282 0.0017-2.438-0.2996-3.522-0.877-0.15965-0.0852-0.28312-0.2253-0.34762-0.3943-0.06451-0.1691-0.06571-0.3558-0.00338-0.5257zm10.248-7.203c-0.1989 0-0.3897 0.07902-0.5303 0.21967-0.1407 0.14065-0.2197 0.33142-0.2197 0.53033s0.079 0.38968 0.2197 0.53033c0.1406 0.14065 0.3314 0.21967 0.5303 0.21967h3.75c0.1989 0 0.3897-0.07902 0.5303-0.21967 0.1407-0.14065 0.2197-0.33142 0.2197-0.53033s-0.079-0.38968-0.2197-0.53033c-0.1406-0.14065-0.3314-0.21967-0.5303-0.21967zm-0.75 3.75c0-0.1989 0.079-0.3897 0.2197-0.5303 0.1406-0.1407 0.3314-0.2197 0.5303-0.2197h3.75c0.1989 0 0.3897 0.079 0.5303 0.2197 0.1407 0.1406 0.2197 0.3314 0.2197 0.5303s-0.079 0.3897-0.2197 0.5303c-0.1406 0.1407-0.3314 0.2197-0.5303 0.2197h-3.75c-0.1989 0-0.3897-0.079-0.5303-0.2197-0.1407-0.1406-0.2197-0.3314-0.2197-0.5303zm0.75 2.25c-0.1989 0-0.3897 0.079-0.5303 0.2197-0.1407 0.1406-0.2197 0.3314-0.2197 0.5303s0.079 0.3897 0.2197 0.5303c0.1406 0.1407 0.3314 0.2197 0.5303 0.2197h3.75c0.1989 0 0.3897-0.079 0.5303-0.2197 0.1407-0.1406 0.2197-0.3314 0.2197-0.5303s-0.079-0.3897-0.2197-0.5303c-0.1406-0.1407-0.3314-0.2197-0.5303-0.2197z" clip-rule="evenodd" fill="#44403c" fill-rule="evenodd"/>
 </g>
</svg>
