<svg fill="none" version="1.1" viewBox="0 0 20 20" xmlns="http://www.w3.org/2000/svg">
 <g transform="scale(.83333)">
  <path d="m0 12c0-6.6274 5.3726-12 12-12 6.6274 0 12 5.3726 12 12 0 6.6274-5.3726 12-12 12-6.6274 0-12-5.3726-12-12z" fill="#dbeafe"/>
  <path d="m12 22c5.5228 0 10-4.4772 10-10 0-5.5228-4.4772-10-10-10-5.5228 0-10 4.4772-10 10 0 5.5228 4.4772 10 10 10zm1-14c0 0.55228-0.4477 1-1 1s-1-0.44772-1-1 0.4477-1 1-1 1 0.44772 1 1zm-1 2c0.5523 0 1 0.4477 1 1v5c0 0.5523-0.4477 1-1 1s-1-0.4477-1-1v-5c0-0.5523 0.4477-1 1-1z" clip-rule="evenodd" fill="#3b82f6" fill-rule="evenodd"/>
 </g>
</svg>
