<svg fill="none" version="1.1" viewBox="0 0 20 18.333" xmlns="http://www.w3.org/2000/svg">
 <path d="m2.9167 0c-0.77354 0-1.5154 0.30729-2.0624 0.85427-0.54699 0.54699-0.85428 1.2889-0.85428 2.0624 0 0.77354 0.30729 1.5154 0.85428 2.0624 0.54698 0.54698 1.2888 0.85427 2.0624 0.85427h14.167c0.77356 0 1.5154-0.30729 2.0624-0.85427 0.547-0.54699 0.85422-1.2889 0.85422-2.0624 0-0.77354-0.30722-1.5154-0.85422-2.0624-0.547-0.54698-1.2889-0.85427-2.0624-0.85427zm-2.0833 8.3333c-0.22101 0-0.43297 0.08778-0.58926 0.24411-0.15628 0.15622-0.24408 0.36822-0.24408 0.58922s0.0878 0.433 0.24408 0.58922c0.15629 0.15633 0.36824 0.24411 0.58926 0.24411h18.333c0.221 0 0.433-0.087781 0.58922-0.24411 0.15633-0.15622 0.24411-0.36822 0.24411-0.58922s-0.08778-0.433-0.24411-0.58922c-0.15622-0.15633-0.36822-0.24411-0.58922-0.24411zm-0.83333 5c0-0.221 0.0878-0.433 0.24408-0.58922 0.15629-0.15633 0.36824-0.24411 0.58926-0.24411h18.333c0.221 0 0.433 0.08778 0.58922 0.24411 0.15633 0.15622 0.24411 0.36822 0.24411 0.58922s-0.08778 0.433-0.24411 0.58922c-0.15622 0.15633-0.36822 0.24411-0.58922 0.24411h-18.333c-0.22101 0-0.43297-0.08778-0.58926-0.24411-0.15628-0.15622-0.24408-0.36822-0.24408-0.58922zm0.83333 3.3333c-0.22101 0-0.43297 0.08778-0.58926 0.24411-0.15628 0.15622-0.24408 0.36822-0.24408 0.58922s0.0878 0.433 0.24408 0.58922c0.15629 0.15633 0.36824 0.24411 0.58926 0.24411h18.333c0.221 0 0.433-0.08778 0.58922-0.24411 0.15633-0.15622 0.24411-0.36822 0.24411-0.58922s-0.08778-0.433-0.24411-0.58922c-0.15622-0.15634-0.36822-0.24411-0.58922-0.24411z" fill="#44403c" stroke-width="1.1111"/>
</svg>
