<svg fill="none" version="1.1" viewBox="0 0 24 24" xmlns="http://www.w3.org/2000/svg">
 <path d="m5.625 3.75c-0.69619 0-1.3639 0.27656-1.8562 0.76884-0.49228 0.49229-0.76884 1.16-0.76884 1.8562s0.27656 1.3639 0.76884 1.8562c0.49229 0.49228 1.16 0.76884 1.8562 0.76884h12.75c0.6962 0 1.3639-0.27656 1.8562-0.76884 0.4922-0.49229 0.7688-1.16 0.7688-1.8562s-0.2766-1.3639-0.7688-1.8562c-0.4923-0.49228-1.16-0.76884-1.8562-0.76884h-12.75zm-1.875 7.5c-0.19891 0-0.38968 0.079-0.53033 0.2197-0.14065 0.1406-0.21967 0.3314-0.21967 0.5303s0.07902 0.3897 0.21967 0.5303c0.14065 0.1407 0.33142 0.2197 0.53033 0.2197h16.5c0.1989 0 0.3897-0.079 0.5303-0.2197 0.1407-0.1406 0.2197-0.3314 0.2197-0.5303s-0.079-0.3897-0.2197-0.5303c-0.1406-0.1407-0.3314-0.2197-0.5303-0.2197h-16.5zm-0.75 4.5c0-0.1989 0.07902-0.3897 0.21967-0.5303 0.14065-0.1407 0.33142-0.2197 0.53033-0.2197h16.5c0.1989 0 0.3897 0.079 0.5303 0.2197 0.1407 0.1406 0.2197 0.3314 0.2197 0.5303s-0.079 0.3897-0.2197 0.5303c-0.1406 0.1407-0.3314 0.2197-0.5303 0.2197h-16.5c-0.19891 0-0.38968-0.079-0.53033-0.2197-0.14065-0.1406-0.21967-0.3314-0.21967-0.5303zm0.75 3c-0.19891 0-0.38968 0.079-0.53033 0.2197-0.14065 0.1406-0.21967 0.3314-0.21967 0.5303s0.07902 0.3897 0.21967 0.5303c0.14065 0.1407 0.33142 0.2197 0.53033 0.2197h16.5c0.1989 0 0.3897-0.079 0.5303-0.2197 0.1407-0.1406 0.2197-0.3314 0.2197-0.5303s-0.079-0.3897-0.2197-0.5303c-0.1406-0.1407-0.3314-0.2197-0.5303-0.2197h-16.5z" fill="#44403C"/>
</svg>
