<svg fill="none" version="1.1" viewBox="0 0 24 24" xmlns="http://www.w3.org/2000/svg">
 <path d="m19.902 4.098c-0.3482-0.34832-0.7617-0.62463-1.2167-0.81315-0.4551-0.18852-0.9428-0.28555-1.4353-0.28555-0.4926 0-0.9803 0.09703-1.4353 0.28555s-0.8685 0.46483-1.2167 0.81315l-4.5 4.5c-0.42455 0.42417-0.74109 0.94403-0.92303 1.5159-0.18195 0.5719-0.22398 1.1791-0.12257 1.7706 0.1014 0.5915 0.34329 1.15 0.70534 1.6286 0.36206 0.4786 0.83366 0.8634 1.3753 1.1219 0.1733 0.0893 0.305 0.2426 0.3672 0.4274s0.0501 0.3865-0.034 0.5624c-0.084 0.176-0.2332 0.3123-0.416 0.3801s-0.3848 0.0617-0.5632-0.0169c-0.7579-0.362-1.4179-0.9006-1.9245-1.5705s-0.84513-1.4516-0.98709-2.2795c-0.14196-0.8278-0.08322-1.6776 0.17128-2.478 0.25449-0.80044 0.69732-1.5281 1.2913-2.122l4.5-4.5c0.4851-0.49786 1.0643-0.89442 1.704-1.1667 0.6396-0.27224 1.3269-0.41474 2.0221-0.41924 0.6951-0.0045 1.3842 0.12911 2.0273 0.39305 0.6431 0.26395 1.2274 0.65298 1.7189 1.1445 0.4916 0.49155 0.8806 1.0758 1.1445 1.7189 0.264 0.6431 0.3976 1.3322 0.3931 2.0274s-0.147 1.3825-0.4192 2.0221c-0.2723 0.63963-0.6688 1.2188-1.1667 1.704l-1.757 1.757c-0.0687 0.0737-0.1515 0.1328-0.2435 0.1738s-0.1913 0.063-0.292 0.0648-0.2007-0.0168-0.2941-0.0545-0.1782-0.0938-0.2495-0.1651c-0.0712-0.0712-0.1273-0.156-0.165-0.2494-0.0378-0.0934-0.0563-0.1934-0.0545-0.2941s0.0238-0.2 0.0648-0.292 0.1001-0.1748 0.1738-0.2435l1.757-1.757c0.3483-0.34823 0.6246-0.76167 0.8131-1.2167 0.1886-0.45503 0.2856-0.94275 0.2856-1.4353s-0.097-0.98025-0.2856-1.4353c-0.1885-0.45504-0.4648-0.86848-0.8131-1.2167zm-7.389 4.267c0.0858-0.17939 0.2394-0.31736 0.4269-0.38355 0.1875-0.0662 0.3937-0.05521 0.5731 0.03055 0.7579 0.36203 1.4178 0.90061 1.9245 1.5705 0.5066 0.66987 0.8451 1.4516 0.9871 2.2795 0.1419 0.8278 0.0832 1.6776-0.1713 2.478-0.2545 0.8005-0.6973 1.5282-1.2913 2.122l-4.5 4.5c-0.48516 0.4979-1.0644 0.8944-1.704 1.1667-0.63963 0.2722-1.327 0.4147-2.0221 0.4192s-1.3842-0.1291-2.0274-0.393c-0.64309-0.264-1.2274-0.653-1.7189-1.1446-0.49154-0.4915-0.88058-1.0758-1.1445-1.7189-0.26395-0.6431-0.39755-1.3322-0.39305-2.0273 0.00449-0.6952 0.147-1.3825 0.41924-2.0221 0.27224-0.6397 0.6688-1.2188 1.1667-1.704l1.757-1.757c0.06866-0.0737 0.15146-0.1328 0.24346-0.1738s0.19131-0.063 0.29201-0.0648c0.10071-0.0018 0.20074 0.0168 0.29412 0.0545 0.09339 0.0377 0.17823 0.0938 0.24944 0.1651 0.07122 0.0712 0.12737 0.156 0.16509 0.2494s0.05624 0.1934 0.05447 0.2941c-0.00178 0.1007-0.02382 0.2-0.06481 0.292s-0.1001 0.1748-0.17378 0.2435l-1.757 1.757c-0.34827 0.3483-0.62453 0.7617-0.81301 1.2167-0.18848 0.4551-0.28549 0.9428-0.28549 1.4353s0.09701 0.9802 0.28549 1.4353c0.18848 0.455 0.46474 0.8684 0.81301 1.2167 0.34826 0.3483 0.76171 0.6245 1.2167 0.813s0.94273 0.2855 1.4353 0.2855c0.49252 0 0.98022-0.097 1.4352-0.2855s0.86848-0.4647 1.2168-0.813l4.5-4.5c0.4245-0.4242 0.7411-0.944 0.923-1.5159 0.182-0.5719 0.224-1.1791 0.1226-1.7706s-0.3433-1.15-0.7054-1.6286c-0.362-0.4786-0.8336-0.86337-1.3752-1.1219-0.0889-0.0424-0.1686-0.10191-0.2345-0.17512s-0.1168-0.15869-0.1497-0.25155c-0.0328-0.09286-0.0471-0.19129-0.0419-0.28966 0.0052-0.09838 0.0297-0.19477 0.0721-0.28367z" clip-rule="evenodd" fill="#44403C" fill-rule="evenodd"/>
</svg>
