<svg fill="none" version="1.1" viewBox="0 0 24 24" xmlns="http://www.w3.org/2000/svg">
 <path d="m13.75 4.25h5.25c0.1989 0 0.3897 0.07902 0.5303 0.21967 0.1407 0.14065 0.2197 0.33142 0.2197 0.53033v5.25c0 0.1989-0.079 0.3897-0.2197 0.5303-0.1406 0.1407-0.3314 0.2197-0.5303 0.2197s-0.3897-0.079-0.5303-0.2197c-0.1407-0.1406-0.2197-0.3314-0.2197-0.5303v-3.44l-8.22 8.22c-0.14217 0.1325-0.33022 0.2046-0.52452 0.2012-0.1943-0.0035-0.37969-0.0822-0.5171-0.2196s-0.21613-0.3228-0.21955-0.5171c-0.00343-0.1943 0.06869-0.3823 0.20117-0.5245l8.22-8.22h-3.44c-0.1989 0-0.3897-0.07902-0.5303-0.21967-0.1407-0.14065-0.2197-0.33142-0.2197-0.53033s0.079-0.38968 0.2197-0.53033c0.1406-0.14065 0.3314-0.21967 0.5303-0.21967zm-6.5 2.5c-0.39782 0-0.77936 0.15804-1.0607 0.43934s-0.43934 0.66284-0.43934 1.0607v8.5c0 0.3978 0.15804 0.7794 0.43934 1.0607s0.66284 0.4393 1.0607 0.4393h8.5c0.3978 0 0.7794-0.158 1.0607-0.4393s0.4393-0.6629 0.4393-1.0607v-3.25c0-0.1989 0.079-0.3897 0.2197-0.5303 0.1406-0.1407 0.3314-0.2197 0.5303-0.2197s0.3897 0.079 0.5303 0.2197c0.1407 0.1406 0.2197 0.3314 0.2197 0.5303v3.25c0 0.7956-0.3161 1.5587-0.8787 2.1213s-1.3257 0.8787-2.1213 0.8787h-8.5c-0.79565 0-1.5587-0.3161-2.1213-0.8787s-0.87868-1.3257-0.87868-2.1213v-8.5c0-0.79565 0.31607-1.5587 0.87868-2.1213s1.3257-0.87868 2.1213-0.87868h3.25c0.1989 0 0.3897 0.07902 0.5303 0.21967 0.1407 0.14065 0.2197 0.33142 0.2197 0.53033s-0.079 0.38968-0.2197 0.53033c-0.1406 0.14065-0.3314 0.21967-0.5303 0.21967h-3.25z" clip-rule="evenodd" fill="#44403C" fill-rule="evenodd"/>
</svg>
