<svg fill="none" version="1.1" viewBox="0 0 15.049 20" xmlns="http://www.w3.org/2000/svg">
 <path d="m12.438 2.6103c-1.0048-1.0048-2.6338-1.0048-3.6386 0l-4.9515 4.9515c-1.0047 1.0048-1.0047 2.6338 0 3.6386 1.0047 1.0047 2.6338 1.0047 3.6386 0l1.2379-1.2379c0.36257-0.36257 0.95031-0.36257 1.3129 0 0.36257 0.36257 0.36257 0.95031 0 1.3129l-1.2379 1.2379c-1.7298 1.7299-4.5346 1.7299-6.2644 0-1.7299-1.7298-1.7299-4.5346 0-6.2644l4.9515-4.9515c1.7298-1.7299 4.5346-1.7299 6.2644 0 1.7299 1.7299 1.7299 4.5346 0 6.2644l-1.3129-1.3129c1.0047-1.0048 1.0047-2.6338 0-3.6385zm-6.1894 4.8764c1.7298-1.7299 4.5346-1.7299 6.2644 0 1.7299 1.7298 1.7299 4.5346 0 6.2644l-4.9515 4.9515c-1.7298 1.7299-4.5346 1.7299-6.2644 0-1.7299-1.7298-1.7299-4.5346 0-6.2644l1.313 1.3129c-1.0047 1.0048-1.0047 2.6338 0 3.6386 1.0048 1.0047 2.6338 1.0047 3.6386 0l4.9515-4.9515c1.0047-1.0048 1.0047-2.6338 0-3.6386-1.0048-1.0047-2.6338-1.0047-3.6386 0l-1.2379 1.2379c-0.36257 0.36257-0.95031 0.36257-1.3129 0-0.36257-0.36257-0.36257-0.95032 0-1.3129z" clip-rule="evenodd" fill="#44403c" fill-rule="evenodd" stroke-width="1.2379"/>
</svg>
