<svg fill="none" version="1.1" viewBox="0 0 24 24" xmlns="http://www.w3.org/2000/svg">
 <path d="m2.625 6.75c0-0.29837 0.11853-0.58452 0.3295-0.7955 0.21098-0.21097 0.49713-0.3295 0.7955-0.3295s0.58452 0.11853 0.7955 0.3295c0.21097 0.21098 0.3295 0.49713 0.3295 0.7955s-0.11853 0.58452-0.3295 0.7955c-0.21098 0.21097-0.49713 0.3295-0.7955 0.3295s-0.58452-0.11853-0.7955-0.3295c-0.21097-0.21098-0.3295-0.49713-0.3295-0.7955zm4.875 0c0-0.19891 0.07902-0.38968 0.21967-0.53033s0.33142-0.21967 0.53033-0.21967h12c0.1989 0 0.3897 0.07902 0.5303 0.21967 0.1407 0.14065 0.2197 0.33142 0.2197 0.53033s-0.079 0.38968-0.2197 0.53033c-0.1406 0.14065-0.3314 0.21967-0.5303 0.21967h-12c-0.19891 0-0.38968-0.07902-0.53033-0.21967s-0.21967-0.33142-0.21967-0.53033zm-4.875 5.25c0-0.2984 0.11853-0.5845 0.3295-0.7955 0.21098-0.211 0.49713-0.3295 0.7955-0.3295s0.58452 0.1185 0.7955 0.3295c0.21097 0.211 0.3295 0.4971 0.3295 0.7955s-0.11853 0.5845-0.3295 0.7955c-0.21098 0.211-0.49713 0.3295-0.7955 0.3295s-0.58452-0.1185-0.7955-0.3295c-0.21097-0.211-0.3295-0.4971-0.3295-0.7955zm4.875 0c0-0.1989 0.07902-0.3897 0.21967-0.5303 0.14065-0.1407 0.33142-0.2197 0.53033-0.2197h12c0.1989 0 0.3897 0.079 0.5303 0.2197 0.1407 0.1406 0.2197 0.3314 0.2197 0.5303s-0.079 0.3897-0.2197 0.5303c-0.1406 0.1407-0.3314 0.2197-0.5303 0.2197h-12c-0.19891 0-0.38968-0.079-0.53033-0.2197-0.14065-0.1406-0.21967-0.3314-0.21967-0.5303zm-4.875 5.25c0-0.2984 0.11853-0.5845 0.3295-0.7955 0.21098-0.211 0.49713-0.3295 0.7955-0.3295s0.58452 0.1185 0.7955 0.3295c0.21097 0.211 0.3295 0.4971 0.3295 0.7955s-0.11853 0.5845-0.3295 0.7955c-0.21098 0.211-0.49713 0.3295-0.7955 0.3295s-0.58452-0.1185-0.7955-0.3295c-0.21097-0.211-0.3295-0.4971-0.3295-0.7955zm4.875 0c0-0.1989 0.07902-0.3897 0.21967-0.5303 0.14065-0.1407 0.33142-0.2197 0.53033-0.2197h12c0.1989 0 0.3897 0.079 0.5303 0.2197 0.1407 0.1406 0.2197 0.3314 0.2197 0.5303s-0.079 0.3897-0.2197 0.5303c-0.1406 0.1407-0.3314 0.2197-0.5303 0.2197h-12c-0.19891 0-0.38968-0.079-0.53033-0.2197-0.14065-0.1406-0.21967-0.3314-0.21967-0.5303z" clip-rule="evenodd" fill="#44403C" fill-rule="evenodd"/>
</svg>
