<?xml version="1.0" encoding="UTF-8"?>
<svg width="24" height="24" fill="currentColor" aria-hidden="true" version="1.1" viewBox="0 0 24 24" xmlns="http://www.w3.org/2000/svg">
 <path d="m18 9.0008h-1.4999v-2.4999a4.4998 4.4998 0 1 0-8.9995 0v2.4999h-1.4999a1.9999 1.9999 0 0 0-1.9999 1.9999v8.9995a1.9999 1.9999 0 0 0 1.9999 1.9999h11.999a1.9999 1.9999 0 0 0 1.9999-1.9999v-8.9995a1.9999 1.9999 0 0 0-1.9999-1.9999zm-4.9997 7.9996a0.99995 0.99995 0 1 1-1.9999 0v-2.9998a0.99995 0.99995 0 1 1 1.9999 0zm1.4999-7.9996h-4.9997v-2.4999a2.4999 2.4999 0 1 1 4.9997 0z" fill="#44403c" stroke-width=".99995"/>
</svg>
