<svg fill="none" version="1.1" viewBox="0 0 20 20" xmlns="http://www.w3.org/2000/svg">
 <g transform="scale(.625)">
  <path d="m0 8c0-4.4183 3.5817-8 8-8h16c4.4183 0 8 3.5817 8 8v16c0 4.4183-3.5817 8-8 8h-16c-4.4183 0-8-3.5817-8-8z" fill="#fff"/>
  <g stroke="#44403c" stroke-width="2">
   <path d="m 10,8.5 v 0 C 10,8.03534 10,7.80302 10.0384,7.60982 10.1962,6.81644 10.8164,6.19624 11.6098,6.03843 11.803,6 12.0353,6 12.5,6 H 16 V 6.8 C 16,7.92011 16,8.48016 15.782,8.90798 15.5903,9.28431 15.2843,9.59027 14.908,9.78201 14.4802,10 13.9201,10 12.8,10 H 10 9.2 C 8.07989,10 7.51984,10 7.09202,10.218 6.71569,10.4097 6.40973,10.7157 6.21799,11.092 6,11.5198 6,12.0799 6,13.2 V 16 H 6.8 C 7.92011,16 8.48016,16 8.90798,15.782 9.28431,15.5903 9.59027,15.2843 9.78201,14.908 10,14.4802 10,13.9201 10,12.8 v -1.3"/>
   <path d="m23.5 10c0.4647 0 0.697 0 0.8902 0.0384 0.7934 0.1578 1.4136 0.778 1.5714 1.5714 0.0384 0.1932 0.0384 0.4255 0.0384 0.8902v3.5h-0.8c-1.1201 0-1.6802 0-2.108-0.218-0.3763-0.1917-0.6823-0.4977-0.874-0.874-0.218-0.4278-0.218-0.9879-0.218-2.108v-3.6c0-1.1201 0-1.6802-0.218-2.108-0.1917-0.37633-0.4977-0.68229-0.874-0.87403-0.4278-0.21799-0.9879-0.21799-2.108-0.21799h-2.8v0.8c0 1.1201 0 1.6802 0.218 2.108 0.1917 0.37632 0.4977 0.68229 0.874 0.87403 0.4278 0.21799 0.9879 0.21799 2.108 0.21799h1.3"/>
   <path d="m22 23.5c0 0.4647 0 0.697-0.0384 0.8902-0.1578 0.7934-0.778 1.4136-1.5714 1.5714-0.1932 0.0384-0.4255 0.0384-0.8902 0.0384h-3.5v-0.8c0-1.1201 0-1.6802 0.218-2.108 0.1917-0.3763 0.4977-0.6823 0.874-0.874 0.4278-0.218 0.9879-0.218 2.108-0.218h3.6c1.1201 0 1.6802 0 2.108-0.218 0.3763-0.1917 0.6823-0.4977 0.874-0.874 0.218-0.4278 0.218-0.9879 0.218-2.108v-2.8h-0.8c-1.1201 0-1.6802 0-2.108 0.218-0.3763 0.1917-0.6823 0.4977-0.874 0.874-0.218 0.4278-0.218 0.9879-0.218 2.108v1.3"/>
   <path d="m8.5 22c-0.46466 0-0.69698 0-0.89018-0.0384-0.79338-0.1578-1.4136-0.778-1.5714-1.5714-0.03843-0.1932-0.03843-0.4255-0.03843-0.8902v-3.5h0.8c1.1201 0 1.6802 0 2.108 0.218 0.37632 0.1917 0.68229 0.4977 0.87403 0.874 0.21799 0.4278 0.21799 0.9879 0.21799 2.108v3.6c0 1.1201 0 1.6802 0.218 2.108 0.1917 0.3763 0.4977 0.6823 0.874 0.874 0.4278 0.218 0.9879 0.218 2.108 0.218h2.8v-0.8c0-1.1201 0-1.6802-0.218-2.108-0.1917-0.3763-0.4977-0.6823-0.874-0.874-0.4278-0.218-0.9879-0.218-2.108-0.218h-1.3"/>
  </g>
 </g>
</svg>
