<svg fill="none" version="1.1" viewBox="0 0 16 16" xmlns="http://www.w3.org/2000/svg">
 <path d="m9.4898 1.17c-0.38-1.56-2.6-1.56-2.98 0-0.0567 0.23442-0.168 0.45213-0.3248 0.63541-0.1567 0.18329-0.35457 0.32697-0.57736 0.41936s-0.46424 0.13087-0.70471 0.11232-0.47316-0.09362-0.67914-0.21909c-1.372-0.836-2.942 0.734-2.106 2.106 0.54 0.886 0.061 2.042-0.947 2.287-1.561 0.379-1.561 2.6 0 2.978 0.23448 0.0568 0.45223 0.1682 0.63552 0.3251 0.18328 0.1569 0.32692 0.3548 0.41922 0.5777s0.13066 0.4645 0.11193 0.705c-0.01872 0.2405-0.09399 0.4733-0.21967 0.6792-0.836 1.372 0.734 2.942 2.106 2.106 0.20594-0.1257 0.43866-0.2009 0.67919-0.2197 0.24053-0.0187 0.48209 0.0197 0.70499 0.112 0.22291 0.0923 0.42083 0.2359 0.57773 0.4192s0.2683 0.401 0.3251 0.6355c0.379 1.561 2.6 1.561 2.978 0 0.057-0.2344 0.1685-0.452 0.3254-0.6351 0.1569-0.1832 0.3548-0.3267 0.5777-0.419 0.2228-0.0923 0.4643-0.1307 0.7048-0.1121 0.2404 0.0187 0.4731 0.0937 0.6791 0.2192 1.372 0.836 2.942-0.734 2.106-2.106-0.1255-0.206-0.2005-0.4387-0.2192-0.6791-0.0186-0.2405 0.0198-0.482 0.1121-0.7048 0.0923-0.2229 0.2358-0.4208 0.419-0.5777 0.1831-0.1569 0.4007-0.2684 0.6351-0.3254 1.561-0.379 1.561-2.6 0-2.978-0.2345-0.0568-0.4522-0.1682-0.6355-0.3251s-0.3269-0.35481-0.4192-0.57772-0.1307-0.46446-0.112-0.705c0.0187-0.24053 0.094-0.47324 0.2197-0.67918 0.836-1.372-0.734-2.942-2.106-2.106-0.2059 0.12568-0.4387 0.20095-0.6792 0.21967s-0.4821-0.01963-0.705-0.11193-0.4208-0.23594-0.5777-0.41923c-0.1569-0.18328-0.2683-0.40103-0.3251-0.63551zm-1.49 9.83c0.7956 0 1.5587-0.3161 2.1213-0.8787s0.8787-1.3257 0.8787-2.1213-0.3161-1.5587-0.8787-2.1213c-0.5626-0.56261-1.3257-0.87868-2.1213-0.87868-0.7957 0-1.5587 0.31607-2.1213 0.87868-0.56261 0.56262-0.87868 1.3257-0.87868 2.1213s0.31607 1.5587 0.87868 2.1213c0.56263 0.5626 1.3256 0.8787 2.1213 0.8787z" clip-rule="evenodd" fill="#44403c" fill-rule="evenodd"/>
</svg>
