<svg fill="none" version="1.1" viewBox="0 0 24 24" xmlns="http://www.w3.org/2000/svg">
 <path d="m11.828 2.25c-0.916 0-1.699 0.663-1.85 1.567l-0.091 0.549c-0.02522 0.13781-0.08628 0.26655-0.17703 0.37327-0.09076 0.10673-0.20801 0.18769-0.33997 0.23473-0.16158 0.06045-0.32101 0.12649-0.478 0.198-0.12661 0.06019-0.26684 0.08597-0.40658 0.07473-0.13974-0.01123-0.27405-0.05908-0.38942-0.13873l-0.453-0.324c-0.36121-0.25806-0.80226-0.3796-1.2447-0.34297-0.44241 0.03662-0.85747 0.22902-1.1713 0.54297l-0.243 0.243c-0.31395 0.31386-0.50635 0.72892-0.54297 1.1713-0.03663 0.44241 0.08491 0.88346 0.34297 1.2447l0.324 0.453c0.07965 0.11537 0.1275 0.24968 0.13873 0.38942 0.01124 0.13974-0.01454 0.27997-0.07473 0.40658-0.07152 0.15699-0.13756 0.31642-0.198 0.478-0.04704 0.13196-0.128 0.24921-0.23473 0.33997-0.10672 0.09075-0.23546 0.15181-0.37327 0.17703l-0.55 0.092c-0.43758 0.0731-0.83506 0.299-1.1218 0.6376-0.28673 0.3385-0.44412 0.7678-0.44421 1.2114v0.344c0 0.916 0.663 1.699 1.567 1.85l0.549 0.091c0.281 0.047 0.508 0.25 0.608 0.517 0.06 0.162 0.127 0.321 0.198 0.478 0.06019 0.1266 0.08597 0.2668 0.07473 0.4066-0.01123 0.1397-0.05908 0.274-0.13873 0.3894l-0.324 0.453c-0.25806 0.3612-0.3796 0.8023-0.34297 1.2447 0.03662 0.4424 0.22902 0.8574 0.54297 1.1713l0.243 0.243c0.648 0.648 1.67 0.733 2.416 0.2l0.453-0.324c0.11537-0.0796 0.24968-0.1275 0.38942-0.1387 0.13974-0.0113 0.27997 0.0145 0.40658 0.0747 0.157 0.071 0.316 0.137 0.478 0.198 0.267 0.1 0.47 0.327 0.517 0.608l0.092 0.55c0.15 0.903 0.932 1.566 1.849 1.566h0.344c0.916 0 1.699-0.663 1.85-1.567l0.091-0.549c0.0252-0.1378 0.0863-0.2665 0.177-0.3733 0.0908-0.1067 0.208-0.1877 0.34-0.2347 0.1616-0.0605 0.321-0.1265 0.478-0.198 0.1266-0.0602 0.2668-0.086 0.4066-0.0747 0.1397 0.0112 0.274 0.0591 0.3894 0.1387l0.453 0.324c0.3612 0.2581 0.8023 0.3796 1.2447 0.343s0.8574-0.2291 1.1713-0.543l0.243-0.243c0.648-0.648 0.733-1.67 0.2-2.416l-0.324-0.453c-0.0796-0.1154-0.1275-0.2497-0.1387-0.3894-0.0113-0.1398 0.0145-0.28 0.0747-0.4066 0.071-0.157 0.137-0.316 0.198-0.478 0.1-0.267 0.327-0.47 0.608-0.517l0.55-0.091c0.4378-0.0731 0.8354-0.2992 1.1221-0.6379 0.2868-0.3388 0.4441-0.7683 0.4439-1.2121v-0.344c0-0.916-0.663-1.699-1.567-1.85l-0.549-0.091c-0.1378-0.02522-0.2665-0.08628-0.3733-0.17703-0.1067-0.09076-0.1877-0.20801-0.2347-0.33997-0.0605-0.16156-0.1265-0.32099-0.198-0.478-0.0602-0.12661-0.086-0.26684-0.0747-0.40658 0.0112-0.13974 0.0591-0.27405 0.1387-0.38942l0.324-0.453c0.2581-0.36121 0.3796-0.80226 0.343-1.2447s-0.2291-0.85747-0.543-1.1713l-0.243-0.243c-0.3139-0.31395-0.7289-0.50635-1.1713-0.54297-0.4424-0.03663-0.8835 0.08491-1.2447 0.34297l-0.453 0.324c-0.1154 0.07965-0.2497 0.1275-0.3894 0.13873-0.1398 0.01124-0.28-0.01454-0.4066-0.07473-0.157-0.07151-0.3164-0.13755-0.478-0.198-0.132-0.04704-0.2492-0.128-0.34-0.23473-0.0907-0.10672-0.1518-0.23546-0.177-0.37327l-0.091-0.55c-0.0731-0.43775-0.2992-0.83537-0.6379-1.1221-0.3388-0.28675-0.7683-0.44404-1.2121-0.44389h-0.344zm0.172 13.5c0.9946 0 1.9484-0.3951 2.6517-1.0983 0.7032-0.7033 1.0983-1.6571 1.0983-2.6517s-0.3951-1.9484-1.0983-2.6516c-0.7033-0.70326-1.6571-1.0984-2.6517-1.0984s-1.9484 0.39509-2.6516 1.0984c-0.70326 0.70325-1.0984 1.657-1.0984 2.6516s0.39509 1.9484 1.0984 2.6517c0.70325 0.7032 1.657 1.0983 2.6516 1.0983z" clip-rule="evenodd" fill="#44403C" fill-rule="evenodd"/>
</svg>
