<svg fill="none" version="1.1" viewBox="0 0 20 23.247" xmlns="http://www.w3.org/2000/svg">
 <path d="m10 0c0.221 0 0.433 0.0878 0.58922 0.24408 0.15633 0.15628 0.24411 0.36824 0.24411 0.58926v2.5c0 0.22101-0.08778 0.43298-0.24411 0.58926-0.15622 0.15628-0.36822 0.24408-0.58922 0.24408s-0.433-0.0878-0.58922-0.24408c-0.15633-0.15628-0.24411-0.36824-0.24411-0.58926v-2.5c0-0.22101 0.08778-0.43298 0.24411-0.58926 0.15622-0.15628 0.36822-0.24408 0.58922-0.24408zm-7.0711 2.9289c0.15626-0.15606 0.36806-0.24371 0.58889-0.24371 0.22083 0 0.43263 0.087656 0.58889 0.24371l1.7689 1.7678c0.15172 0.15724 0.23562 0.36778 0.23362 0.58628s-0.089745 0.42747-0.24432 0.5819c-0.15458 0.15443-0.36363 0.24198-0.58213 0.24378-0.2185 0.00179-0.42896-0.0823-0.58606-0.23418l-1.7678-1.7667c-0.077433-0.077389-0.13887-0.16928-0.18078-0.27042-0.041911-0.10113-0.063489-0.20954-0.063489-0.31902s0.021578-0.21789 0.063489-0.31902c0.041911-0.10114 0.10334-0.19303 0.18078-0.27042zm14.142 0c0.15611 0.15626 0.24367 0.36806 0.24367 0.58889 0 0.22083-0.08756 0.43263-0.24367 0.58889l-1.7678 1.7689c-0.15722 0.15172-0.36778 0.23562-0.58633 0.23362-0.21844-2e-3 -0.42744-0.089744-0.58189-0.24432-0.15444-0.15458-0.24189-0.36363-0.24378-0.58213-0.0018-0.2185 0.08233-0.42896 0.23422-0.58606l1.7667-1.7678c0.07745-0.077433 0.16933-0.13887 0.27044-0.18078 0.10111-0.041911 0.20956-0.063489 0.319-0.063489 0.10944 0 0.21789 0.021578 0.319 0.063489s0.193 0.10334 0.27044 0.18078zm-7.5733 4.9956c0.16889-0.045289 0.34778-0.036289 0.51133 0.025733 0.16356 0.062011 0.30333 0.1739 0.39978 0.31982l5.8089 8.7967c0.09089 0.13756 0.13889 0.29911 0.138 0.464-8.89e-4 0.16489-0.05078 0.32589-0.14322 0.46244-0.09244 0.13656-0.22333 0.24267-0.376 0.30478-0.15278 0.06211-0.32056 0.07756-0.48211 0.04433l-2.33-0.47778 1.1611 4.3333c0.05722 0.21367 0.02711 0.44122-0.08356 0.63278-0.11067 0.19144-0.29278 0.33111-0.50644 0.38833-0.21367 0.05722-0.44122 0.02711-0.63278-0.08356-0.19144-0.11067-0.33111-0.29278-0.38833-0.50644l-1.16-4.3322-1.7789 1.5778c-0.12333 0.10967-0.27633 0.18022-0.43978 0.20278-0.16344 0.02256-0.32989-0.0039-0.47822-0.076-0.14833-0.07211-0.272-0.18667-0.35522-0.32911-0.083218-0.14244-0.12233-0.30633-0.11233-0.47099l0.63222-10.522c0.01033-0.17461 0.07533-0.34153 0.18578-0.47714 0.11056-0.1356 0.26089-0.23301 0.42978-0.27841zm-9.4978 2.0756c0-0.221 0.0878-0.433 0.24408-0.58926 0.15628-0.15628 0.36824-0.24408 0.58926-0.24408h2.5c0.22101 0 0.43298 0.0878 0.58926 0.24408 0.15628 0.15626 0.24408 0.36826 0.24408 0.58926s-0.0878 0.433-0.24408 0.58922c-0.15628 0.15633-0.36824 0.24411-0.58926 0.24411h-2.5c-0.22101 0-0.43298-0.08778-0.58926-0.24411-0.15628-0.15622-0.24408-0.36822-0.24408-0.58922zm15.833 0c0-0.221 0.08778-0.433 0.24411-0.58926 0.15622-0.15628 0.36822-0.24408 0.58922-0.24408h2.5c0.221 0 0.433 0.0878 0.58922 0.24408 0.15633 0.15626 0.24411 0.36826 0.24411 0.58926s-0.08778 0.433-0.24411 0.58922c-0.15622 0.15633-0.36822 0.24411-0.58922 0.24411h-2.5c-0.221 0-0.433-0.08778-0.58922-0.24411-0.15633-0.15622-0.24411-0.36822-0.24411-0.58922zm-9.9578 4.1244c0.077444 0.07745 0.13887 0.16933 0.18078 0.27044 0.041911 0.10111 0.063489 0.20956 0.063489 0.319 0 0.10944-0.021578 0.21789-0.063489 0.319s-0.10333 0.193-0.18078 0.27044l-1.7678 1.7678c-0.076833 0.07967-0.16876 0.14311-0.27041 0.18689-0.10164 0.04367-0.21099 0.06678-0.32163 0.06778-0.11064 1e-3 -0.22039-0.02-0.32282-0.06189s-0.19551-0.10367-0.27379-0.18189-0.1402-0.17122-0.18214-0.27367c-0.041956-0.10233-0.063089-0.21211-0.062178-0.32267 9e-4 -0.11067 0.023844-0.22011 0.067467-0.32178 0.043622-0.10167 0.10707-0.19367 0.18662-0.27056l1.7678-1.7689c0.15626-0.15611 0.36806-0.24367 0.58889-0.24367 0.22083 0 0.43263 0.08756 0.58889 0.24367z" clip-rule="evenodd" fill="#292524" fill-rule="evenodd" stroke-width="1.1111"/>
</svg>
