<svg fill="none" version="1.1" viewBox="0 0 20 20" xmlns="http://www.w3.org/2000/svg">
 <g transform="scale(.83333)">
  <rect width="24" height="24" rx="12" fill="#faf5ff"/>
  <path d="m12 22c5.5228 0 10-4.4772 10-10 0-5.5228-4.4772-10-10-10-5.5228 0-10 4.4772-10 10 0 5.5228 4.4772 10 10 10zm-5.6807-9.4599c0.37169 0.0322 0.73094 0.1069 1.0729 0.2193 0.24775 0.0814 0.48641 0.1827 0.71412 0.3018 0.85643 0.4481 1.558 1.1497 2.0061 2.0061 0.1192 0.2277 0.2204 0.4664 0.3018 0.7141 0.1124 0.342 0.1871 0.7012 0.2193 1.0729l0.0037 0.0457c0.0281 0.3648 0.5629 0.3648 0.5909 0l0.0038-0.0457c0.0321-0.3717 0.1069-0.7309 0.2193-1.0729 0.0814-0.2477 0.1826-0.4864 0.3017-0.7141 0.4481-0.8564 1.1497-1.558 2.0062-2.0061 0.2277-0.1191 0.4663-0.2204 0.7141-0.3018 0.3419-0.1124 0.7012-0.1871 1.0728-0.2193l0.0458-0.0037c0.3648-0.0281 0.3648-0.5628 0-0.5909l-0.0458-0.0037c-0.3716-0.0322-0.7309-0.1069-1.0728-0.2193-0.2478-0.0814-0.4864-0.1827-0.7141-0.3018-0.8565-0.4481-1.5581-1.1497-2.0062-2.0061-0.1191-0.22772-0.2203-0.46637-0.3017-0.71412-0.1124-0.34193-0.1872-0.70118-0.2193-1.0729l-0.0038-0.04574c-0.028-0.3648-0.5628-0.3648-0.5909 0l-0.0037 0.04574c-0.0322 0.37169-0.1069 0.73094-0.2193 1.0729-0.0814 0.24775-0.1826 0.48641-0.3018 0.71412-0.44803 0.85641-1.1496 1.558-2.0061 2.0061-0.22771 0.1191-0.46637 0.2204-0.71412 0.3018-0.34193 0.1124-0.70118 0.1871-1.0729 0.2193l-0.04574 0.0037c-0.3648 0.0281-0.3648 0.5628 0 0.5909zm4.6134 1.0184c-0.3709-0.5023-0.8153-0.9467-1.3175-1.3176 0.50224-0.3708 0.94664-0.8152 1.3175-1.3175 0.3709 0.5023 0.8153 0.9467 1.3175 1.3175-0.5022 0.3709-0.9466 0.8153-1.3175 1.3176zm2.9455 2.3469c-0.2171-0.1753-0.4862-0.2889-0.7811-0.3144l-0.0139-0.0012c-0.1109-0.0085-0.1109-0.1711 0-0.1796l0.0139-0.0012c0.2949-0.0255 0.564-0.1391 0.7811-0.3144l0.0103-0.0084c0.0721-0.0594 0.1383-0.1256 0.1977-0.1977l0.0084-0.0103c0.1753-0.2171 0.2889-0.4862 0.3144-0.7811l0.0012-0.0139c0.0085-0.1109 0.1711-0.1109 0.1796 0l0.0012 0.0139c0.0255 0.2949 0.1391 0.564 0.3144 0.7811l0.0084 0.0103c0.0594 0.0721 0.1256 0.1383 0.1977 0.1977l0.0103 0.0084c0.2171 0.1753 0.4862 0.2889 0.7811 0.3144l0.0139 0.0012c0.1109 0.0085 0.1109 0.1711 0 0.1796l-0.0139 0.0012c-0.2949 0.0255-0.564 0.1391-0.7811 0.3144l-0.0103 0.0084c-0.0721 0.0594-0.1383 0.1256-0.1977 0.1977l-0.0084 0.0103c-0.1753 0.2171-0.2889 0.4862-0.3144 0.7811l-0.0012 0.0139c-0.0085 0.1109-0.1711 0.1109-0.1796 0l-0.0012-0.0139c-0.0255-0.2949-0.1391-0.564-0.3144-0.7811l-0.0084-0.0103c-0.0594-0.0721-0.1256-0.1383-0.1977-0.1977zm1.4489-6.5362c-0.0187-0.21527-0.0777-0.41871-0.1696-0.60273-0.0481-0.09623-0.1051-0.18714-0.1701-0.27165-0.0889-0.11584-0.1928-0.21965-0.3086-0.30864-0.0845-0.06493-0.1754-0.12196-0.2716-0.17002-0.1841-0.09191-0.3875-0.15097-0.6028-0.1696l-0.0161-0.00132c-0.1288-0.00991-0.1288-0.19865 0-0.20856l0.0161-0.00132c0.2153-0.01863 0.4187-0.07769 0.6028-0.1696 0.0962-0.04806 0.1871-0.10509 0.2716-0.17002 0.1158-0.08899 0.2197-0.1928 0.3086-0.30864 0.065-0.08451 0.122-0.17542 0.1701-0.27165 0.0919-0.18402 0.1509-0.38746 0.1696-0.60273l0.0013-0.01615c0.0099-0.12875 0.1986-0.12875 0.2085 0l0.0014 0.01615c0.0186 0.21527 0.0777 0.41871 0.1696 0.60273 0.048 0.09623 0.1051 0.18714 0.17 0.27165 0.089 0.11584 0.1928 0.21965 0.3086 0.30864 0.0845 0.06493 0.1754 0.12196 0.2717 0.17002 0.184 0.09191 0.3874 0.15097 0.6027 0.1696l0.0161 0.00132c0.1288 0.00991 0.1288 0.19865 0 0.20856l-0.0161 0.00132c-0.2153 0.01863-0.4187 0.07769-0.6027 0.1696-0.0963 0.04806-0.1872 0.10509-0.2717 0.17002-0.1158 0.08899-0.2196 0.1928-0.3086 0.30864-0.0649 0.08451-0.122 0.17542-0.17 0.27165-0.0919 0.18402-0.151 0.38746-0.1696 0.60273l-0.0014 0.01614c-0.0099 0.12876-0.1986 0.12876-0.2085 0z" clip-rule="evenodd" fill="#a855f7" fill-rule="evenodd"/>
 </g>
</svg>
