<svg fill="none" version="1.1" viewBox="0 0 20 20" xmlns="http://www.w3.org/2000/svg">
 <g transform="matrix(.4 0 0 .4 .4 .4)">
  <path d="m0 24c0-13.255 10.745-24 24-24s24 10.745 24 24-10.745 24-24 24-24-10.745-24-24z" fill="#f3e8ff"/>
  <path d="m24 39c8.2843 0 15-6.7157 15-15s-6.7157-15-15-15-15 6.7157-15 15 6.7157 15 15 15zm-8.521-14.19c0.5575 0.0482 1.0964 0.1603 1.6093 0.3289 0.3716 0.1221 0.7296 0.2739 1.0712 0.4526 1.2846 0.6721 2.3371 1.7246 3.0092 3.0092 0.1787 0.3416 0.3305 0.6996 0.4526 1.0712 0.1686 0.5129 0.2807 1.0518 0.3289 1.6093l0.0029 0.034 0.0028 0.0346c0.042 0.5472 0.8442 0.5472 0.8863 0 0.0018-0.0229 0.0036-0.0458 0.0056-0.0686 0.0483-0.5575 0.1603-1.0964 0.3289-1.6093 0.1222-0.3716 0.274-0.7296 0.4527-1.0712 0.6721-1.2846 1.7245-2.3371 3.0092-3.0092 0.3416-0.1787 0.6995-0.3305 1.0712-0.4526 0.5129-0.1686 1.0517-0.2807 1.6093-0.3289 0.0228-2e-3 0.0457-0.0039 0.0686-0.0057 0.5472-0.042 0.5472-0.8442 0-0.8863-0.0229-0.0018-0.0458-0.0037-0.0686-0.0056-0.5576-0.0483-1.0964-0.1604-1.6093-0.3289-0.3717-0.1222-0.7296-0.274-1.0712-0.4527-1.2847-0.6721-2.3371-1.7245-3.0092-3.0092-0.1787-0.3416-0.3305-0.6995-0.4527-1.0712-0.1686-0.5129-0.2806-1.0517-0.3289-1.6093-2e-3 -0.0228-0.0038-0.0457-0.0056-0.0686-0.0421-0.5472-0.8443-0.5472-0.8863 0-0.0018 0.0229-0.0037 0.0458-0.0057 0.0686-0.0482 0.5576-0.1603 1.0964-0.3289 1.6093-0.1221 0.3717-0.2739 0.7297-0.4526 1.0712-0.6721 1.2847-1.7245 2.3371-3.0092 3.0092-0.3416 0.1787-0.6996 0.3305-1.0712 0.4527-0.5129 0.1686-1.0518 0.2806-1.6093 0.3289-0.0228 0.0019-0.0457 0.0038-0.0686 0.0056-0.5472 0.0421-0.5472 0.8443 0 0.8863 0.0229 0.0018 0.0458 0.0037 0.0686 0.0057zm6.92 1.5275c-0.5563-0.7534-1.2229-1.42-1.9763-1.9763 0.7534-0.5564 1.42-1.223 1.9763-1.9763 0.5564 0.7533 1.223 1.4199 1.9763 1.9763-0.7533 0.5563-1.4199 1.2229-1.9763 1.9763zm4.4183 3.5203c-0.3256-0.263-0.7293-0.4334-1.1716-0.4717l-0.0209-0.0017c-0.1664-0.0128-0.1664-0.2568 0-0.2696l0.0209-0.0017c0.4423-0.0383 0.846-0.2086 1.1716-0.4717l0.0155-0.0126c0.1081-0.089 0.2074-0.1883 0.2964-0.2964l0.0126-0.0155c0.2631-0.3256 0.4334-0.7293 0.4717-1.1716l0.0017-0.0209c0.0128-0.1664 0.2568-0.1664 0.2696 0l0.0017 0.0209c0.0383 0.4423 0.2086 0.846 0.4717 1.1716l0.0126 0.0155c0.089 0.1081 0.1883 0.2074 0.2964 0.2964l0.0155 0.0126c0.3256 0.2631 0.7293 0.4334 1.1716 0.4717l0.0209 0.0017c0.1664 0.0128 0.1664 0.2568 0 0.2696l-0.0209 0.0017c-0.4423 0.0383-0.846 0.2086-1.1716 0.4717l-0.0155 0.0126c-0.1081 0.089-0.2074 0.1883-0.2964 0.2964l-0.0126 0.0155c-0.263 0.3256-0.4334 0.7293-0.4717 1.1716l-0.0017 0.0209c-0.0128 0.1664-0.2568 0.1664-0.2696 0l-0.0017-0.0209c-0.0383-0.4423-0.2086-0.846-0.4717-1.1716l-0.0126-0.0155c-0.089-0.1081-0.1883-0.2074-0.2964-0.2964zm2.1732-9.8044c-0.0279-0.3229-0.1165-0.6281-0.2544-0.9041-0.0721-0.1443-0.1576-0.2807-0.255-0.4075-0.1335-0.1737-0.2892-0.3295-0.463-0.4629-0.1268-0.0974-0.2631-0.183-0.4075-0.2551-0.276-0.1378-0.5812-0.2264-0.9041-0.2544l-0.0242-2e-3c-0.1931-0.0148-0.1931-0.2979 0-0.3128l0.0242-2e-3c0.3229-0.0279 0.6281-0.1165 0.9041-0.2544 0.1444-0.0721 0.2807-0.1576 0.4075-0.255 0.1738-0.1335 0.3295-0.2892 0.463-0.463 0.0974-0.1267 0.1829-0.2631 0.255-0.4074 0.1379-0.2761 0.2265-0.5812 0.2544-0.9041l2e-3 -0.0243c0.0148-0.1931 0.298-0.1931 0.3128 0l2e-3 0.0243c0.0279 0.3229 0.1165 0.628 0.2544 0.9041 0.0721 0.1443 0.1576 0.2807 0.255 0.4074 0.1335 0.1738 0.2892 0.3295 0.463 0.463 0.1268 0.0974 0.2631 0.1829 0.4075 0.255 0.276 0.1379 0.5812 0.2265 0.9041 0.2544l0.0242 2e-3c0.1931 0.0149 0.1931 0.298 0 0.3128l-0.0242 2e-3c-0.3229 0.028-0.6281 0.1166-0.9041 0.2544-0.1444 0.0721-0.2807 0.1577-0.4075 0.2551-0.1738 0.1334-0.3295 0.2892-0.463 0.4629-0.0974 0.1268-0.1829 0.2632-0.255 0.4075-0.1379 0.276-0.2265 0.5812-0.2544 0.9041l-2e-3 0.0242c-0.0148 0.1931-0.298 0.1931-0.3128 0z" clip-rule="evenodd" fill="#a855f7" fill-rule="evenodd"/>
  <path d="m24 47c-12.702 0-23-10.298-23-23h-2c0 13.807 11.193 25 25 25zm23-23c0 12.702-10.298 23-23 23v2c13.807 0 25-11.193 25-25zm-23-23c12.702 0 23 10.298 23 23h2c0-13.807-11.193-25-25-25zm0-2c-13.807 0-25 11.193-25 25h2c0-12.702 10.298-23 23-23z" fill="#e9d5ff"/>
 </g>
</svg>
