<svg fill="none" version="1.1" viewBox="0 0 20 20" xmlns="http://www.w3.org/2000/svg">
 <g transform="scale(.83333)">
  <rect width="24" height="24" rx="12" fill="#faf5ff"/>
  <path d="m12 22c5.5228 0 10-4.4772 10-10 0-5.5228-4.4772-10-10-10-5.5228 0-10 4.4772-10 10 0 5.5228 4.4772 10 10 10zm4.5-9.5v-2.9387c0-0.25444-0.1687-0.47805-0.4133-0.54795-1.4859-0.42453-2.8741-1.1356-4.0867-2.0927-1.2126 0.95719-2.6008 1.6682-4.0867 2.0927-0.24464 0.0699-0.41331 0.29351-0.41331 0.54795v2.9387c0 0.7869 0.37049 1.5279 1 2l3.2 2.4c0.1778 0.1333 0.4222 0.1333 0.6 0l3.2-2.4c0.6295-0.4721 1-1.2131 1-2zm-8.9988-4.9289c-0.8886 0.25388-1.5012 1.0661-1.5012 1.9902v2.9387c0 1.259 0.59278 2.4446 1.6 3.2l3.2 2.4c0.7111 0.5333 1.6889 0.5333 2.4 0l3.2-2.4c1.0072-0.7554 1.6-1.941 1.6-3.2v-2.9387c0-0.92416-0.6126-1.7364-1.5012-1.9902-1.3194-0.37696-2.5506-1.0125-3.622-1.8697l-0.2727-0.21814c-0.3532-0.28254-0.855-0.28254-1.2082 0l-0.2727 0.21814c-1.0714 0.85716-2.3026 1.4927-3.622 1.8697zm7.5291 2.3986c0.2929 0.29293 0.2929 0.76773 0 1.0606l-3 3c-0.2929 0.2929-0.7677 0.2929-1.0606 0l-1.5-1.5c-0.29289-0.2929-0.29289-0.7677 0-1.0606s0.76773-0.2929 1.0606 0l0.9697 0.9696 2.4697-2.4696c0.2929-0.29289 0.7677-0.29289 1.0606 0z" clip-rule="evenodd" fill="#a855f7" fill-rule="evenodd"/>
 </g>
</svg>
