<svg fill="none" version="1.1" viewBox="0 0 20 20" xmlns="http://www.w3.org/2000/svg">
 <g transform="scale(.83333)">
  <rect width="24" height="24" rx="12" fill="#f0fdf4"/>
  <path d="m12 22c5.5228 0 10-4.4772 10-10 0-5.5228-4.4772-10-10-10-5.5228 0-10 4.4772-10 10 0 5.5228 4.4772 10 10 10zm0-12c0.5523 0 1-0.44772 1-1s-0.4477-1-1-1-1 0.44772-1 1 0.4477 1 1 1zm0 1.5c1.3807 0 2.5-1.1193 2.5-2.5 0-1.3807-1.1193-2.5-2.5-2.5s-2.5 1.1193-2.5 2.5c0 1.3807 1.1193 2.5 2.5 2.5zm1.4787 2h-2.9574c-0.87514 0-1.5315 0.8006-1.3599 1.6587 0.03968 0.1985 0.21391 0.3413 0.41627 0.3413h4.8446c0.2023 0 0.3765-0.1428 0.4162-0.3413 0.1717-0.8581-0.4847-1.6587-1.3598-1.6587zm-2.9574-1.5c-1.8217 0-3.188 1.6666-2.8307 3.4529 0.17992 0.8996 0.96977 1.5471 1.8872 1.5471h4.8446c0.9173 0 1.7072-0.6475 1.8871-1.5471 0.3573-1.7863-1.009-3.4529-2.8307-3.4529z" clip-rule="evenodd" fill="#22c55e" fill-rule="evenodd"/>
 </g>
</svg>
