<svg version="1.1" viewBox="0 0 24 24" xmlns="http://www.w3.org/2000/svg">
 <mask id="path-1-inside-1_587_112111" fill="white">
  <path d="m7 6c-2.2091 0-4 1.7909-4 4v4c0 2.2091 1.7909 4 4 4h10c2.2091 0 4-1.7909 4-4v-4c0-2.2091-1.7909-4-4-4h-10zm1 7c0.55228 0 1-0.4477 1-1s-0.44772-1-1-1-1 0.4477-1 1 0.44772 1 1 1zm5-1c0 0.5523-0.4477 1-1 1s-1-0.4477-1-1 0.4477-1 1-1 1 0.4477 1 1zm3 1c0.5523 0 1-0.4477 1-1s-0.4477-1-1-1-1 0.4477-1 1 0.4477 1 1 1z" clip-rule="evenodd" fill-rule="evenodd"/>
 </mask>
 <path d="m7 6c-2.2091 0-4 1.7909-4 4v4c0 2.2091 1.7909 4 4 4h10c2.2091 0 4-1.7909 4-4v-4c0-2.2091-1.7909-4-4-4h-10zm1 7c0.55228 0 1-0.4477 1-1s-0.44772-1-1-1-1 0.4477-1 1 0.44772 1 1 1zm5-1c0 0.5523-0.4477 1-1 1s-1-0.4477-1-1 0.4477-1 1-1 1 0.4477 1 1zm3 1c0.5523 0 1-0.4477 1-1s-0.4477-1-1-1-1 0.4477-1 1 0.4477 1 1 1z" clip-rule="evenodd" fill="#44403C" fill-rule="evenodd"/>
 <path d="m4.5 10c0-1.3807 1.1193-2.5 2.5-2.5v-3c-3.0376 0-5.5 2.4624-5.5 5.5h3zm0 4v-4h-3v4h3zm2.5 2.5c-1.3807 0-2.5-1.1193-2.5-2.5h-3c0 3.0376 2.4624 5.5 5.5 5.5v-3zm10 0h-10v3h10v-3zm2.5-2.5c0 1.3807-1.1193 2.5-2.5 2.5v3c3.0376 0 5.5-2.4624 5.5-5.5h-3zm0-4v4h3v-4h-3zm-2.5-2.5c1.3807 0 2.5 1.1193 2.5 2.5h3c0-3.0376-2.4624-5.5-5.5-5.5v3zm-10 0h10v-3h-10v3zm0.5 4.5c0-0.2761 0.22386-0.5 0.5-0.5v3c1.3807 0 2.5-1.1193 2.5-2.5h-3zm0.5 0.5c-0.27614 0-0.5-0.2239-0.5-0.5h3c0-1.3807-1.1193-2.5-2.5-2.5v3zm0.5-0.5c0 0.2761-0.22386 0.5-0.5 0.5v-3c-1.3807 0-2.5 1.1193-2.5 2.5h3zm-0.5-0.5c0.27614 0 0.5 0.2239 0.5 0.5h-3c0 1.3807 1.1193 2.5 2.5 2.5v-3zm4 3c1.3807 0 2.5-1.1193 2.5-2.5h-3c0-0.2761 0.2239-0.5 0.5-0.5v3zm-2.5-2.5c0 1.3807 1.1193 2.5 2.5 2.5v-3c0.2761 0 0.5 0.2239 0.5 0.5h-3zm2.5-2.5c-1.3807 0-2.5 1.1193-2.5 2.5h3c0 0.2761-0.2239 0.5-0.5 0.5v-3zm2.5 2.5c0-1.3807-1.1193-2.5-2.5-2.5v3c-0.2761 0-0.5-0.2239-0.5-0.5h3zm1 0c0-0.2761 0.2239-0.5 0.5-0.5v3c1.3807 0 2.5-1.1193 2.5-2.5h-3zm0.5 0.5c-0.2761 0-0.5-0.2239-0.5-0.5h3c0-1.3807-1.1193-2.5-2.5-2.5v3zm0.5-0.5c0 0.2761-0.2239 0.5-0.5 0.5v-3c-1.3807 0-2.5 1.1193-2.5 2.5h3zm-0.5-0.5c0.2761 0 0.5 0.2239 0.5 0.5h-3c0 1.3807 1.1193 2.5 2.5 2.5v-3z" fill="#44403C" mask="url(#path-1-inside-1_587_112111)"/>
</svg>
