<svg fill="none" version="1.1" viewBox="0 0 20 10.274" xmlns="http://www.w3.org/2000/svg">
 <g transform="scale(1.2522)" clip-path="url(#clip0_854_8669)" fill="#ff0420">
  <path d="m3.1073 8.2051c-0.91301 0-1.6611-0.21272-2.2442-0.6382-0.57543-0.43302-0.86314-1.0484-0.86314-1.8462 0-0.16714 0.019181-0.37227 0.057543-0.61538 0.099741-0.547 0.24168-1.2042 0.42582-1.9715 0.52172-2.0893 1.8682-3.1339 4.0395-3.1339 0.59077 0 1.1202 0.098766 1.5882 0.2963 0.46802 0.18994 0.83626 0.47863 1.1048 0.86609 0.26851 0.37987 0.40279 0.83571 0.40279 1.3675 0 0.15954-0.01916 0.36087-0.05752 0.60398-0.11512 0.67617-0.25321 1.3333-0.41432 1.9715-0.26855 1.0409-0.73272 1.8196-1.3925 2.3362-0.65986 0.50901-1.5422 0.76353-2.647 0.76353zm0.16113-1.641c0.42965 0 0.79408-0.12537 1.0933-0.37608 0.30688-0.25071 0.52554-0.63438 0.65596-1.151 0.1765-0.71418 0.31073-1.3371 0.40283-1.869 0.03069-0.15954 0.04603-0.32289 0.04603-0.49003 0-0.69136-0.36447-1.037-1.0933-1.037-0.42965 0-0.79792 0.12535-1.1048 0.37607-0.29923 0.25071-0.51406 0.63437-0.64448 1.151-0.13811 0.50902-0.27621 1.132-0.41431 1.869-0.0307 0.15191-0.04604 0.31146-0.04604 0.4786 0 0.69896 0.36828 1.0484 1.1048 1.0484z"/>
  <path d="m8.3762 8.0912c-0.08443 0-0.14962-0.02658-0.19565-0.07975-0.03836-0.0608-0.04989-0.12915-0.03454-0.20513l1.5882-7.4074c0.01534-0.083571 0.05756-0.15195 0.12661-0.20513 0.06904-0.053182 0.1419-0.079772 0.2187-0.079772h3.0612c0.8517 0 1.5345 0.17474 2.0485 0.52422 0.5218 0.34948 0.7827 0.8547 0.7827 1.5157 0 0.18993-0.0231 0.38746-0.0691 0.59259-0.1918 0.87369-0.5793 1.5194-1.1624 1.9373-0.5754 0.41784-1.3657 0.62675-2.3708 0.62675h-1.5536l-0.5294 2.4958c-0.0153 0.08357-0.0576 0.15192-0.1266 0.20513-0.069 0.05317-0.1419 0.07975-0.21867 0.07975zm4.074-4.3533c0.3223 0 0.6023-0.08736 0.8401-0.2621 0.2456-0.17474 0.4067-0.42546 0.4834-0.75214 0.023-0.12916 0.0345-0.24311 0.0345-0.34188 0-0.22032-0.0652-0.38746-0.1956-0.50143-0.1304-0.12155-0.353-0.18233-0.6675-0.18233h-1.381l-0.4374 2.0399z"/>
 </g>
 <defs>
  <clipPath id="clip0_854_8669">
   <rect width="16" height="8.2051" fill="#fff"/>
  </clipPath>
 </defs>
</svg>
