<svg fill="none" version="1.1" viewBox="0 0 20 20" xmlns="http://www.w3.org/2000/svg">
 <path d="m0 10c0-5.5231 4.4769-10 10-10 5.5231 0 10 4.4769 10 10 0 5.5231-4.4769 10-10 10-5.5231 0-10-4.4769-10-10zm6.9231-3.8462c-0.20401 0-0.39967 0.081046-0.54393 0.2253-0.14426 0.14426-0.2253 0.33992-0.2253 0.54393v6.1538c0 0.42462 0.34462 0.76923 0.76923 0.76923h0.76923c0.20401 0 0.39967-0.08103 0.54393-0.22533 0.14426-0.14421 0.2253-0.3399 0.2253-0.5439v-6.1538c0-0.20401-0.081046-0.39967-0.2253-0.54393-0.14426-0.14426-0.33992-0.2253-0.54393-0.2253zm5.3846 0c-0.204 0-0.39969 0.081046-0.5439 0.2253-0.14431 0.14426-0.22533 0.33992-0.22533 0.54393v6.1538c0 0.42462 0.34462 0.76923 0.76923 0.76923h0.76923c0.204 0 0.39969-0.08103 0.5439-0.22533 0.14431-0.14421 0.22533-0.3399 0.22533-0.5439v-6.1538c0-0.20401-0.08103-0.39967-0.22533-0.54393-0.14421-0.14426-0.3399-0.2253-0.5439-0.2253z" clip-rule="evenodd" fill="#44403c" fill-rule="evenodd" stroke-width="1.0256"/>
</svg>
