<svg fill="none" version="1.1" viewBox="0 0 24 24" xmlns="http://www.w3.org/2000/svg">
 <path d="m2.25 12c0-5.385 4.365-9.75 9.75-9.75s9.75 4.365 9.75 9.75-4.365 9.75-9.75 9.75-9.75-4.365-9.75-9.75zm6.75-3.75c-0.19891 0-0.38968 0.07902-0.53033 0.21967s-0.21967 0.33142-0.21967 0.53033v6c0 0.414 0.336 0.75 0.75 0.75h0.75c0.19891 0 0.3897-0.079 0.5303-0.2197 0.1407-0.1406 0.2197-0.3314 0.2197-0.5303v-6c0-0.19891-0.079-0.38968-0.2197-0.53033-0.1406-0.14065-0.33139-0.21967-0.5303-0.21967h-0.75zm5.25 0c-0.1989 0-0.3897 0.07902-0.5303 0.21967-0.1407 0.14065-0.2197 0.33142-0.2197 0.53033v6c0 0.414 0.336 0.75 0.75 0.75h0.75c0.1989 0 0.3897-0.079 0.5303-0.2197 0.1407-0.1406 0.2197-0.3314 0.2197-0.5303v-6c0-0.19891-0.079-0.38968-0.2197-0.53033-0.1406-0.14065-0.3314-0.21967-0.5303-0.21967h-0.75z" clip-rule="evenodd" fill="#44403C" fill-rule="evenodd"/>
</svg>
