<svg fill="none" version="1.1" viewBox="0 0 20 20" xmlns="http://www.w3.org/2000/svg">
 <g transform="scale(.83333)">
  <g clip-path="url(#clip0_1283_154444)">
   <rect width="24" height="24" rx="12" fill="#dbeafe"/>
   <path d="m12 2.25c-5.385 0-9.75 4.365-9.75 9.75s4.365 9.75 9.75 9.75 9.75-4.365 9.75-9.75-4.365-9.75-9.75-9.75zm0 8.625c-0.2984 0-0.5845 0.1185-0.7955 0.3295s-0.3295 0.4971-0.3295 0.7955 0.1185 0.5845 0.3295 0.7955 0.4971 0.3295 0.7955 0.3295 0.5845-0.1185 0.7955-0.3295 0.3295-0.4971 0.3295-0.7955-0.1185-0.5845-0.3295-0.7955-0.4971-0.3295-0.7955-0.3295zm3.375 1.125c0-0.2984 0.1185-0.5845 0.3295-0.7955s0.4971-0.3295 0.7955-0.3295 0.5845 0.1185 0.7955 0.3295 0.3295 0.4971 0.3295 0.7955-0.1185 0.5845-0.3295 0.7955-0.4971 0.3295-0.7955 0.3295-0.5845-0.1185-0.7955-0.3295-0.3295-0.4971-0.3295-0.7955zm-7.875-1.125c-0.29837 0-0.58452 0.1185-0.7955 0.3295-0.21097 0.211-0.3295 0.4971-0.3295 0.7955s0.11853 0.5845 0.3295 0.7955c0.21098 0.211 0.49713 0.3295 0.7955 0.3295s0.58452-0.1185 0.7955-0.3295c0.21097-0.211 0.3295-0.4971 0.3295-0.7955s-0.11853-0.5845-0.3295-0.7955c-0.21098-0.211-0.49713-0.3295-0.7955-0.3295z" clip-rule="evenodd" fill="#2563eb" fill-rule="evenodd"/>
  </g>
 </g>
 <defs>
  <clipPath id="clip0_1283_154444">
   <rect width="24" height="24" rx="12" fill="#fff"/>
  </clipPath>
 </defs>
</svg>
