<svg fill="none" version="1.1" viewBox="0 0 20 20" xmlns="http://www.w3.org/2000/svg">
 <g transform="scale(.83333)">
  <path d="m0 12c0-6.6274 5.3726-12 12-12 6.6274 0 12 5.3726 12 12 0 6.6274-5.3726 12-12 12-6.6274 0-12-5.3726-12-12z" fill="#dbeafe"/>
  <path d="m12 22c5.5228 0 10-4.4772 10-10 0-5.5228-4.4772-10-10-10-5.5228 0-10 4.4772-10 10 0 5.5228 4.4772 10 10 10zm2.7071-15.707-2-2c-0.3905-0.39052-1.0237-0.39052-1.4142 0-0.3905 0.39053-0.3905 1.0237 0 1.4142l0.3061 0.30608c-3.1268 0.20633-5.599 2.8079-5.599 5.9868 0 0.5523 0.44772 1 1 1s1-0.4477 1-1c0-2.0612 1.559-3.7582 3.5621-3.9763l-0.2692 0.26919c-0.3905 0.39053-0.3905 1.0237 0 1.4142 0.3905 0.39049 1.0237 0.39049 1.4142 0l2-2c0.3905-0.39053 0.3905-1.0237 0-1.4142zm3.2929 5.7071c0-0.5523-0.4477-1-1-1s-1 0.4477-1 1c0 2.0612-1.559 3.7582-3.5621 3.9763l0.2692-0.2692c0.3905-0.3905 0.3905-1.0237 0-1.4142s-1.0237-0.3905-1.4142 0l-2 2c-0.39052 0.3905-0.39052 1.0237 0 1.4142l2 2c0.3905 0.3905 1.0237 0.3905 1.4142 0s0.3905-1.0237 0-1.4142l-0.3061-0.3061c3.1268-0.2063 5.599-2.8078 5.599-5.9868z" clip-rule="evenodd" fill="#3b82f6" fill-rule="evenodd"/>
 </g>
</svg>
