<svg fill="none" version="1.1" viewBox="0 0 19.269 20" xmlns="http://www.w3.org/2000/svg">
 <g transform="matrix(1.3333 0 0 1.3333 -4.3537 -4)">
  <path d="m12.475 17.5h1.8994c1.5036 0 2.7749-1.1131 2.9737-2.6035l0.3509-2.6322c0.1599-1.1989-0.7729-2.2643-1.9824-2.2643h-2.7455c0.5549 0.6205 0.8536 1.4698 0.7408 2.3721l-0.3905 3.124c-0.0947 0.7577-0.3974 1.4438-0.8464 2.0039zm-1.74-7.5h-0.4497c-1.2096 0-2.1423 1.0654-1.9825 2.2643l0.35096 2.6322c0.17419 1.3065 1.1726 2.323 2.4292 2.554 0.6682-0.4724 1.1379-1.2132 1.2461-2.0784l0.3905-3.124c0.1492-1.1937-0.7816-2.2481-1.9846-2.2481z" clip-rule="evenodd" fill="#e7e5e4" fill-rule="evenodd"/>
  <path d="m3.281 12.248c-0.14921-1.1937 0.78156-2.2481 1.9846-2.2481h5.4688c1.203 0 2.1338 1.0544 1.9846 2.2481l-0.3905 3.124c-0.1877 1.5013-1.4639 2.6279-2.9768 2.6279h-2.7033c-1.513 0-2.7892-1.1266-2.9768-2.6279z" fill="#57534e"/>
  <path d="m11.333 8.2117c0.4212-0.63351 0.6666-1.394 0.6666-2.2117s-0.2454-1.5782-0.6666-2.2117c0.3483-0.18407 0.7453-0.28829 1.1666-0.28829 1.3807 0 2.5 1.1193 2.5 2.5s-1.1193 2.5-2.5 2.5c-0.4213 0-0.8183-0.10422-1.1666-0.28829zm-0.7776-0.63994c0.2817-0.45708 0.4442-0.99545 0.4442-1.5718s-0.1625-1.1147-0.4442-1.5718c-0.3476 0.42941-0.5558 0.97628-0.5558 1.5718s0.2082 1.1424 0.5558 1.5718z" clip-rule="evenodd" fill="#e7e5e4" fill-rule="evenodd"/>
  <circle cx="8" cy="6" r="3" fill="#57534e"/>
 </g>
</svg>
