<svg fill="none" version="1.1" viewBox="0 0 20 20" xmlns="http://www.w3.org/2000/svg">
 <path d="m0 10c0-5.5231 4.4769-10 10-10 5.5231 0 10 4.4769 10 10 0 5.5231-4.4769 10-10 10-5.5231 0-10-4.4769-10-10zm14.384-1.0082c0.17969 0.1 0.32933 0.24618 0.43354 0.42345 0.1042 0.17726 0.15918 0.37914 0.15918 0.58476 0 0.20564-0.05497 0.40749-0.15918 0.58472-0.1042 0.17733-0.25385 0.32349-0.43354 0.42349l-5.7467 3.1928c-0.1756 0.09744-0.3736 0.14738-0.57443 0.14492-0.20082-0.0026-0.39751-0.05744-0.57062-0.15928-0.17311-0.10174-0.31664-0.24708-0.4164-0.42133-0.099754-0.17436-0.15229-0.37169-0.1524-0.57251v-6.3856c0-0.87897 0.94462-1.4359 1.7138-1.0082z" clip-rule="evenodd" fill="#44403c" fill-rule="evenodd" stroke-width="1.0256"/>
</svg>
