<svg fill="none" version="1.1" viewBox="0 0 24 24" xmlns="http://www.w3.org/2000/svg">
 <path d="m2.25 12c0-5.385 4.365-9.75 9.75-9.75s9.75 4.365 9.75 9.75-4.365 9.75-9.75 9.75-9.75-4.365-9.75-9.75zm14.024-0.983c0.1752 0.0975 0.3211 0.24 0.4227 0.4129 0.1016 0.1728 0.1552 0.3696 0.1552 0.5701s-0.0536 0.3973-0.1552 0.5701c-0.1016 0.1729-0.2475 0.3154-0.4227 0.4129l-5.603 3.113c-0.1712 0.095-0.3643 0.1437-0.5601 0.1413-0.19577-0.0025-0.38754-0.056-0.55632-0.1553-0.16878-0.0992-0.30872-0.2409-0.40599-0.4108-0.09726-0.17-0.14848-0.3624-0.14859-0.5582v-6.226c0-0.857 0.921-1.4 1.671-0.983l5.603 3.113z" clip-rule="evenodd" fill="#44403C" fill-rule="evenodd"/>
</svg>
