<svg fill="none" version="1.1" viewBox="0 0 20 20" xmlns="http://www.w3.org/2000/svg">
 <path d="m10 0c-5.5231 0-10 4.4769-10 10 0 5.5231 4.4769 10 10 10 5.5231 0 10-4.4769 10-10 0-5.5231-4.4769-10-10-10zm0.76923 6.9231c0-0.20401-0.08103-0.39967-0.22533-0.54393-0.1442-0.14426-0.3399-0.2253-0.5439-0.2253s-0.39969 0.081046-0.54393 0.2253c-0.14426 0.14426-0.2253 0.33992-0.2253 0.54393v2.3077h-2.3077c-0.20401 0-0.39967 0.081046-0.54393 0.2253-0.14426 0.14426-0.2253 0.33992-0.2253 0.54393 0 0.204 0.081046 0.39969 0.2253 0.5439 0.14426 0.14431 0.33992 0.22533 0.54393 0.22533h2.3077v2.3077c0 0.204 0.081046 0.39969 0.2253 0.5439 0.14424 0.14431 0.33993 0.22533 0.54393 0.22533s0.39969-0.08103 0.5439-0.22533c0.14431-0.14421 0.22533-0.3399 0.22533-0.5439v-2.3077h2.3077c0.204 0 0.39969-0.08103 0.5439-0.22533 0.14431-0.1442 0.22533-0.3399 0.22533-0.5439 0-0.20401-0.08103-0.39967-0.22533-0.54393-0.14421-0.14426-0.3399-0.2253-0.5439-0.2253h-2.3077z" clip-rule="evenodd" fill="#44403c" fill-rule="evenodd" stroke-width="1.0256"/>
</svg>
