<svg fill="none" version="1.1" viewBox="0 0 20 13.878" xmlns="http://www.w3.org/2000/svg">
 <path d="m0 1.2245c0-0.32476 0.12901-0.63621 0.35864-0.86585 0.22964-0.22963 0.54109-0.35864 0.86585-0.35864s0.63621 0.12901 0.86585 0.35864c0.22963 0.22964 0.35864 0.54109 0.35864 0.86585 0 0.32476-0.12901 0.63621-0.35864 0.86585-0.22964 0.22963-0.54109 0.35864-0.86585 0.35864s-0.63621-0.12901-0.86585-0.35864c-0.22963-0.22964-0.35864-0.54109-0.35864-0.86585zm5.3061 0c0-0.2165 0.086008-0.42414 0.2391-0.57723 0.15309-0.15309 0.36073-0.2391 0.57723-0.2391h13.061c0.21649 0 0.42416 0.086008 0.5772 0.2391 0.15314 0.15309 0.23913 0.36073 0.23913 0.57723s-0.08599 0.42414-0.23913 0.57723c-0.15303 0.15309-0.36071 0.2391-0.5772 0.2391h-13.061c-0.2165 0-0.42414-0.086008-0.57723-0.2391-0.15309-0.15309-0.2391-0.36073-0.2391-0.57723zm-5.3061 5.7143c0-0.32479 0.12901-0.63619 0.35864-0.86585 0.22964-0.22966 0.54109-0.35864 0.86585-0.35864s0.63621 0.12898 0.86585 0.35864c0.22963 0.22966 0.35864 0.54106 0.35864 0.86585 0 0.32479-0.12901 0.63619-0.35864 0.86585-0.22964 0.22966-0.54109 0.35864-0.86585 0.35864s-0.63621-0.12898-0.86585-0.35864c-0.22963-0.22966-0.35864-0.54106-0.35864-0.86585zm5.3061 0c0-0.21649 0.086008-0.42416 0.2391-0.5772 0.15309-0.15314 0.36073-0.23913 0.57723-0.23913h13.061c0.21649 0 0.42416 0.08599 0.5772 0.23913 0.15314 0.15303 0.23913 0.36071 0.23913 0.5772 0 0.21649-0.08599 0.42416-0.23913 0.5772-0.15303 0.15314-0.36071 0.23913-0.5772 0.23913h-13.061c-0.2165 0-0.42414-0.08599-0.57723-0.23913-0.15309-0.15303-0.2391-0.36071-0.2391-0.5772zm-5.3061 5.7143c0-0.32479 0.12901-0.63619 0.35864-0.86585 0.22964-0.22966 0.54109-0.35864 0.86585-0.35864s0.63621 0.12898 0.86585 0.35864c0.22963 0.22966 0.35864 0.54106 0.35864 0.86585s-0.12901 0.63619-0.35864 0.86585c-0.22964 0.22966-0.54109 0.35864-0.86585 0.35864s-0.63621-0.12898-0.86585-0.35864c-0.22963-0.22966-0.35864-0.54106-0.35864-0.86585zm5.3061 0c0-0.21649 0.086008-0.42416 0.2391-0.5772 0.15309-0.15314 0.36073-0.23913 0.57723-0.23913h13.061c0.21649 0 0.42416 0.08599 0.5772 0.23913 0.15314 0.15303 0.23913 0.36071 0.23913 0.5772s-0.08599 0.42416-0.23913 0.5772c-0.15303 0.15314-0.36071 0.23913-0.5772 0.23913h-13.061c-0.2165 0-0.42414-0.08599-0.57723-0.23913-0.15309-0.15303-0.2391-0.36071-0.2391-0.5772z" clip-rule="evenodd" fill="#44403c" fill-rule="evenodd" stroke-width="1.0884"/>
</svg>
