<svg fill="none" version="1.1" viewBox="0 0 24 24" xmlns="http://www.w3.org/2000/svg">
 <path d="m18.685 19.097c0.969-0.9105 1.741-2.0101 2.2681-3.2308 0.5272-1.2207 0.7984-2.5365 0.7969-3.8662 0-5.385-4.365-9.75-9.75-9.75s-9.75 4.365-9.75 9.75c-0.00154 1.3297 0.26967 2.6455 0.79685 3.8662s1.2991 2.3203 2.2682 3.2308c1.8069 1.7069 4.1993 2.6563 6.685 2.653 2.4857 0.0033 4.8781-0.9461 6.685-2.653zm-12.54-1.285c0.70208-0.8784 1.593-1.5873 2.6066-2.0741 1.0136-0.4868 2.1239-0.739 3.2484-0.7379 1.1245-0.0011 2.2347 0.2511 3.2484 0.7379 1.0136 0.4868 1.9045 1.1957 2.6066 2.0741-0.766 0.7737-1.678 1.3876-2.683 1.8061-1.0051 0.4185-2.0833 0.6333-3.172 0.6319-1.0887 0.0014-2.1669-0.2134-3.172-0.6319-1.0051-0.4185-1.917-1.0324-2.683-1.8061zm9.605-7.812c0 0.9946-0.3951 1.9484-1.0984 2.6517-0.7032 0.7032-1.657 1.0983-2.6516 1.0983s-1.9484-0.3951-2.6516-1.0983c-0.70326-0.7033-1.0984-1.6571-1.0984-2.6517 0-0.99456 0.39509-1.9484 1.0984-2.6516 0.70325-0.70326 1.657-1.0984 2.6516-1.0984s1.9484 0.39509 2.6516 1.0984c0.7033 0.70326 1.0984 1.6571 1.0984 2.6516z" clip-rule="evenodd" fill="#44403C" fill-rule="evenodd"/>
</svg>
