<svg fill="none" version="1.1" viewBox="0 0 20 20" xmlns="http://www.w3.org/2000/svg">
 <path d="m0 3.3333c0-0.88406 0.35119-1.7319 0.97631-2.357s1.473-0.97631 2.357-0.97631h2.5c0.88406 0 1.7319 0.35119 2.357 0.97631 0.62511 0.62512 0.97633 1.473 0.97633 2.357v2.5c0 0.88406-0.35122 1.7319-0.97633 2.357-0.6251 0.62511-1.4729 0.97633-2.357 0.97633h-2.5c-0.88406 0-1.7319-0.35122-2.357-0.97633-0.62512-0.6251-0.97631-1.4729-0.97631-2.357zm10.833 0c0-0.88406 0.35122-1.7319 0.97633-2.357s1.473-0.97631 2.357-0.97631h2.5c0.884 0 1.7319 0.35119 2.357 0.97631s0.97633 1.473 0.97633 2.357v2.5c0 0.88406-0.35122 1.7319-0.97633 2.357-0.62511 0.62511-1.473 0.97633-2.357 0.97633h-2.5c-0.884 0-1.7319-0.35122-2.357-0.97633-0.62511-0.6251-0.97633-1.4729-0.97633-2.357zm-10.833 10.833c0-0.884 0.35119-1.7319 0.97631-2.357s1.473-0.97633 2.357-0.97633h2.5c0.88406 0 1.7319 0.35122 2.357 0.97633 0.62511 0.62511 0.97633 1.473 0.97633 2.357v2.5c0 0.884-0.35122 1.7319-0.97633 2.357-0.6251 0.62511-1.4729 0.97633-2.357 0.97633h-2.5c-0.88406 0-1.7319-0.35122-2.357-0.97633s-0.97631-1.473-0.97631-2.357zm10.833 0c0-0.884 0.35122-1.7319 0.97633-2.357s1.473-0.97633 2.357-0.97633h2.5c0.884 0 1.7319 0.35122 2.357 0.97633s0.97633 1.473 0.97633 2.357v2.5c0 0.884-0.35122 1.7319-0.97633 2.357s-1.473 0.97633-2.357 0.97633h-2.5c-0.884 0-1.7319-0.35122-2.357-0.97633s-0.97633-1.473-0.97633-2.357z" clip-rule="evenodd" fill="#57534e" fill-rule="evenodd" stroke-width="1.1111"/>
</svg>
