<svg fill="none" version="1.1" viewBox="0 0 24 24" xmlns="http://www.w3.org/2000/svg">
 <path d="m3 6c0-0.79565 0.31607-1.5587 0.87868-2.1213s1.3257-0.87868 2.1213-0.87868h2.25c0.79565 0 1.5587 0.31607 2.1213 0.87868s0.8787 1.3257 0.8787 2.1213v2.25c0 0.79565-0.3161 1.5587-0.8787 2.1213-0.56259 0.5626-1.3256 0.8787-2.1213 0.8787h-2.25c-0.79565 0-1.5587-0.3161-2.1213-0.8787-0.56261-0.56259-0.87868-1.3256-0.87868-2.1213v-2.25zm9.75 0c0-0.79565 0.3161-1.5587 0.8787-2.1213s1.3257-0.87868 2.1213-0.87868h2.25c0.7956 0 1.5587 0.31607 2.1213 0.87868s0.8787 1.3257 0.8787 2.1213v2.25c0 0.79565-0.3161 1.5587-0.8787 2.1213s-1.3257 0.8787-2.1213 0.8787h-2.25c-0.7956 0-1.5587-0.3161-2.1213-0.8787-0.5626-0.56259-0.8787-1.3256-0.8787-2.1213v-2.25zm-9.75 9.75c0-0.7956 0.31607-1.5587 0.87868-2.1213s1.3257-0.8787 2.1213-0.8787h2.25c0.79565 0 1.5587 0.3161 2.1213 0.8787s0.8787 1.3257 0.8787 2.1213v2.25c0 0.7956-0.3161 1.5587-0.8787 2.1213-0.56259 0.5626-1.3256 0.8787-2.1213 0.8787h-2.25c-0.79565 0-1.5587-0.3161-2.1213-0.8787s-0.87868-1.3257-0.87868-2.1213v-2.25zm9.75 0c0-0.7956 0.3161-1.5587 0.8787-2.1213s1.3257-0.8787 2.1213-0.8787h2.25c0.7956 0 1.5587 0.3161 2.1213 0.8787s0.8787 1.3257 0.8787 2.1213v2.25c0 0.7956-0.3161 1.5587-0.8787 2.1213s-1.3257 0.8787-2.1213 0.8787h-2.25c-0.7956 0-1.5587-0.3161-2.1213-0.8787s-0.8787-1.3257-0.8787-2.1213v-2.25z" clip-rule="evenodd" fill="#44403C" fill-rule="evenodd"/>
</svg>
