<svg fill="none" version="1.1" viewBox="0 0 24 24" xmlns="http://www.w3.org/2000/svg">
 <g fill="#44403C">
  <path d="m3.53 2.47c-0.14218-0.13248-0.33022-0.2046-0.52452-0.20118-0.1943 0.00343-0.37969 0.08214-0.5171 0.21956-0.13742 0.13741-0.21613 0.3228-0.21956 0.5171-0.00342 0.1943 0.0687 0.38234 0.20118 0.52452l18 18c0.0687 0.0737 0.1515 0.1328 0.2435 0.1738s0.1913 0.063 0.292 0.0648 0.2007-0.0168 0.2941-0.0545 0.1782-0.0938 0.2495-0.1651c0.0712-0.0712 0.1273-0.156 0.1651-0.2494 0.0377-0.0934 0.0562-0.1934 0.0544-0.2941s-0.0238-0.2-0.0648-0.292-0.1001-0.1748-0.1738-0.2435l-18-18zm19.146 10.083c-0.539 1.6175-1.4387 3.0913-2.631 4.31l-3.099-3.099c0.3344-0.9361 0.3961-1.9478 0.178-2.9176-0.218-0.9698-0.7069-1.8578-1.4098-2.5606-0.7028-0.70286-1.5908-1.1917-2.5606-1.4098-0.9697-0.21806-1.9815-0.15632-2.9176 0.17802l-2.477-2.477c1.347-0.54804 2.7878-0.82892 4.242-0.827 4.97 0 9.185 3.223 10.675 7.69 0.12 0.362 0.12 0.752 0 1.113z"/>
  <path d="m15.75 12c0 0.18-0.013 0.357-0.037 0.53l-4.244-4.243c0.532-0.0761 1.0741-0.03696 1.5897 0.11474 0.5155 0.15171 0.9924 0.41245 1.3984 0.76456 0.4059 0.3521 0.7315 0.78735 0.9546 1.2763 0.223 0.4889 0.3384 1.02 0.3383 1.5574zm-3.22 3.713-4.243-4.244c-0.08241 0.5764-0.02947 1.164 0.15462 1.7164s0.49427 1.0543 0.90598 1.466c0.4117 0.4117 0.91358 0.7219 1.466 0.906s1.14 0.237 1.7164 0.1546v1e-3z"/>
  <path d="m6.75 12c0-0.619 0.107-1.213 0.304-1.764l-3.1-3.1c-1.1919 1.2188-2.0912 2.6926-2.63 4.31-0.12 0.362-0.12 0.752 0 1.114 1.489 4.467 5.704 7.69 10.675 7.69 1.5 0 2.933-0.294 4.242-0.827l-2.477-2.477c-0.7923 0.2827-1.641 0.3708-2.4745 0.2569-0.8335-0.1138-1.6275-0.4263-2.315-0.9111-0.68752-0.4848-1.2485-1.1278-1.6356-1.8747-0.38713-0.7469-0.5891-1.5758-0.5889-2.4171z"/>
 </g>
</svg>
