<svg fill="none" version="1.1" viewBox="0 0 24 24" xmlns="http://www.w3.org/2000/svg">
 <path d="m12 2.25c-5.385 0-9.75 4.365-9.75 9.75s4.365 9.75 9.75 9.75 9.75-4.365 9.75-9.75-4.365-9.75-9.75-9.75zm-1.72 6.97c-0.0687-0.07369-0.1515-0.13279-0.2435-0.17378-0.09196-0.04099-0.19128-0.06304-0.29198-0.06481-0.1007-0.00178-0.20073 0.01675-0.29412 0.05447s-0.17822 0.09386-0.24944 0.16508-0.12736 0.15605-0.16508 0.24944-0.05625 0.19342-0.05447 0.29412c0.00177 0.1007 0.02382 0.20002 0.06481 0.29198 0.04099 0.092 0.10009 0.1748 0.17378 0.2435l1.72 1.72-1.72 1.72c-0.07369 0.0687-0.13279 0.1515-0.17378 0.2435s-0.06304 0.1913-0.06481 0.292c-0.00178 0.1007 0.01675 0.2007 0.05447 0.2941s0.09386 0.1782 0.16508 0.2494c0.07122 0.0713 0.15605 0.1274 0.24944 0.1651s0.19342 0.0563 0.29412 0.0545 0.20002-0.0238 0.29198-0.0648c0.092-0.041 0.1748-0.1001 0.2435-0.1738l1.72-1.72 1.72 1.72c0.0687 0.0737 0.1515 0.1328 0.2435 0.1738s0.1913 0.063 0.292 0.0648 0.2007-0.0168 0.2941-0.0545 0.1782-0.0938 0.2494-0.1651c0.0713-0.0712 0.1274-0.156 0.1651-0.2494s0.0563-0.1934 0.0545-0.2941-0.0238-0.2-0.0648-0.292-0.1001-0.1748-0.1738-0.2435l-1.72-1.72 1.72-1.72c0.0737-0.0687 0.1328-0.1515 0.1738-0.2435 0.041-0.09196 0.063-0.19128 0.0648-0.29198s-0.0168-0.20073-0.0545-0.29412-0.0938-0.17822-0.1651-0.24944c-0.0712-0.07122-0.156-0.12736-0.2494-0.16508s-0.1934-0.05625-0.2941-0.05447c-0.1007 0.00177-0.2 0.02382-0.292 0.06481s-0.1748 0.10009-0.2435 0.17378l-1.72 1.72-1.72-1.72z" clip-rule="evenodd" fill="#44403C" fill-rule="evenodd"/>
</svg>
