<svg fill="none" version="1.1" viewBox="0 0 20 20" xmlns="http://www.w3.org/2000/svg">
 <path d="m10 0c-5.5231 0-10 4.4769-10 10s4.4769 10 10 10 10-4.4769 10-10-4.4769-10-10-10zm-1.7641 7.1487c-0.070461-0.075579-0.15538-0.13619-0.24974-0.17824-0.094318-0.042041-0.19618-0.064656-0.29947-0.066472-0.10328-0.0018257-0.20588 0.017179-0.30166 0.055867-0.095785 0.038687-0.18279 0.096267-0.25584 0.16931-0.073046 0.073046-0.13063 0.16005-0.16931 0.25584-0.038687 0.095785-0.057692 0.19838-0.055867 0.30166 0.00182 0.10328 0.024431 0.20515 0.066472 0.29947 0.042041 0.094359 0.10266 0.17928 0.17824 0.24974l1.7641 1.7641-1.7641 1.7641c-0.075579 0.07046-0.13619 0.15538-0.17824 0.24974-0.042041 0.09436-0.064656 0.1962-0.066472 0.29949-0.00183 0.10328 0.017179 0.20585 0.055867 0.30164 0.038687 0.0958 0.096267 0.18277 0.16931 0.2558 0.073046 0.07313 0.16005 0.13067 0.25584 0.16933 0.095785 0.03867 0.19838 0.05774 0.30166 0.0559 0.10328-0.0018 0.20515-0.02441 0.29947-0.06646 0.09436-0.04205 0.17928-0.10267 0.24974-0.17826l1.7641-1.7641 1.7641 1.7641c0.07046 0.07559 0.15538 0.1362 0.24974 0.17826 0.09436 0.04205 0.1962 0.06462 0.29949 0.06646 0.10328 0.0018 0.20585-0.01723 0.30164-0.0559 0.0958-0.03867 0.18277-0.09621 0.2558-0.16933 0.07313-0.07302 0.13067-0.16 0.16933-0.2558 0.03867-0.0958 0.05774-0.19836 0.0559-0.30164-0.0018-0.10328-0.02441-0.20513-0.06646-0.29949s-0.10267-0.17928-0.17826-0.24974l-1.7641-1.7641 1.7641-1.7641c0.07559-0.070462 0.1362-0.15538 0.17826-0.24974 0.04205-0.094318 0.06462-0.19618 0.06646-0.29947 0.0018-0.10328-0.01723-0.20588-0.0559-0.30166-0.03867-0.095785-0.09621-0.18279-0.16933-0.25584-0.07302-0.073046-0.16-0.13063-0.2558-0.16931-0.0958-0.038687-0.19836-0.057692-0.30164-0.055867-0.10328 0.00182-0.20513 0.024431-0.29949 0.066472s-0.17928 0.10266-0.24974 0.17824l-1.7641 1.7641z" clip-rule="evenodd" fill="#44403c" fill-rule="evenodd" stroke-width="1.0256"/>
</svg>
