<svg fill="none" version="1.1" viewBox="0 0 24 24" xmlns="http://www.w3.org/2000/svg">
 <path d="m12 22c5.5228 0 10-4.4772 10-10 0-5.5228-4.4772-10-10-10-5.5228 0-10 4.4772-10 10 0 5.5228 4.4772 10 10 10zm1.0303-17.03c-0.2929-0.29289-0.7677-0.29289-1.0606 0s-0.2929 0.76777 0 1.0607l1.2196 1.2197h-1.1893c-2.6234 0-4.75 2.1266-4.75 4.75 0 0.4142 0.33579 0.75 0.75 0.75s0.75-0.3358 0.75-0.75c0-1.7949 1.4551-3.25 3.25-3.25h1.1893l-1.2196 1.2197c-0.2929 0.29293-0.2929 0.76773 0 1.0606s0.7677 0.2929 1.0606 0l2.5-2.5c0.2929-0.29289 0.2929-0.76777 0-1.0607l-2.5-2.5zm3.7197 7.0303c0-0.4142-0.3358-0.75-0.75-0.75s-0.75 0.3358-0.75 0.75c0 1.7949-1.4551 3.25-3.25 3.25h-1.1893l1.2196-1.2197c0.2929-0.2929 0.2929-0.7677 0-1.0606s-0.7677-0.2929-1.0606 0l-2.5 2.5c-0.29289 0.2929-0.29289 0.7677 0 1.0606l2.5 2.5c0.2929 0.2929 0.7677 0.2929 1.0606 0s0.2929-0.7677 0-1.0606l-1.2196-1.2197h1.1893c2.6234 0 4.75-2.1266 4.75-4.75z" clip-rule="evenodd" fill="#44403C" fill-rule="evenodd"/>
</svg>
