<svg fill="none" version="1.1" viewBox="0 0 24 24" xmlns="http://www.w3.org/2000/svg">
 <path d="m16.023 9.348h4.992l-3.181-3.183c-1.0241-1.0241-2.2998-1.7606-3.6988-2.1354-1.399-0.37479-2.872-0.37468-4.2709 3.1e-4 -1.3989 0.375-2.6745 1.1117-3.6985 2.136-1.024 1.0243-1.7602 2.3001-2.1348 3.6991m-1.046 9.779v-4.992m0 0h4.992m-4.992 0 3.18 3.183c1.0241 1.0241 2.2998 1.7606 3.6988 2.1354s2.872 0.3747 4.2709-3e-4c1.399-0.375 2.6745-1.1117 3.6985-2.136 1.024-1.0242 1.7602-2.3 2.1348-3.6991m1.047-9.779v4.99" stroke="#44403C" stroke-linecap="round" stroke-linejoin="round" stroke-width="1.5"/>
</svg>
