<svg fill="none" version="1.1" viewBox="0 0 24 24" xmlns="http://www.w3.org/2000/svg">
 <path d="m10.5 3.75c-0.88642 0-1.7642 0.1746-2.5831 0.51382-0.81895 0.33922-1.5631 0.83642-2.1899 1.4632-0.6268 0.6268-1.124 1.3709-1.4632 2.1899s-0.51381 1.6967-0.51381 2.5831c0 0.8864 0.17459 1.7642 0.51381 2.5831 0.33922 0.819 0.83642 1.5631 1.4632 2.1899 0.62679 0.6268 1.3709 1.124 2.1899 1.4632 0.81894 0.3392 1.6967 0.5138 2.5831 0.5138 1.7902 0 3.5071-0.7112 4.773-1.977 1.2658-1.2659 1.977-2.9828 1.977-4.773 0-1.7902-0.7112-3.5071-1.977-4.773-1.2659-1.2659-2.9828-1.977-4.773-1.977zm-8.25 6.75c1.7e-4 -1.3249 0.31944-2.6303 0.93079-3.8057 0.61135-1.1754 1.4968-2.1863 2.5814-2.9472 1.0846-0.76085 2.3366-1.2493 3.6499-1.424 1.3133-0.1747 2.6494-0.03053 3.8952 0.42033 1.2459 0.45086 2.3648 1.1951 3.2621 2.1699 0.8974 0.97474 1.5468 2.1513 1.8933 3.43 0.3466 1.2788 0.38 2.6222 0.0975 3.9166-0.2825 1.2945-0.8725 2.5018-1.7203 3.52l4.69 4.69c0.0737 0.0687 0.1328 0.1515 0.1738 0.2435s0.063 0.1913 0.0648 0.292-0.0168 0.2007-0.0545 0.2941-0.0938 0.1782-0.1651 0.2494c-0.0712 0.0713-0.156 0.1274-0.2494 0.1651s-0.1934 0.0563-0.2941 0.0545-0.2-0.0238-0.292-0.0648-0.1748-0.1001-0.2435-0.1738l-4.69-4.69c-1.2048 1.0035-2.6706 1.6429-4.2257 1.8433-1.5551 0.2003-3.1351-0.0466-4.5549-0.7119s-2.6206-1.7214-3.4618-3.0447c-0.84115-1.3232-1.2878-2.8587-1.2876-4.4267z" clip-rule="evenodd" fill="#44403C" fill-rule="evenodd"/>
</svg>
