<svg fill="none" version="1.1" viewBox="0 0 24 24" xmlns="http://www.w3.org/2000/svg">
 <path d="m12 1.5c0.1989 0 0.3897 0.07902 0.5303 0.21967 0.1407 0.14065 0.2197 0.33142 0.2197 0.53033v2.25c0 0.19891-0.079 0.38968-0.2197 0.53033-0.1406 0.14065-0.3314 0.21967-0.5303 0.21967s-0.3897-0.07902-0.5303-0.21967c-0.1407-0.14065-0.2197-0.33142-0.2197-0.53033v-2.25c0-0.19891 0.079-0.38968 0.2197-0.53033 0.1406-0.14065 0.3314-0.21967 0.5303-0.21967zm-6.364 2.636c0.14063-0.14045 0.33125-0.21934 0.53-0.21934s0.38937 0.07889 0.53 0.21934l1.592 1.591c0.13655 0.14152 0.21206 0.331 0.21026 0.52765s-0.08077 0.38472-0.21989 0.52371-0.32727 0.21778-0.52392 0.2194c-0.19665 0.00161-0.38606-0.07407-0.52745-0.21076l-1.591-1.59c-0.06969-0.06965-0.12498-0.15235-0.1627-0.24338-0.03772-0.09102-0.05714-0.18859-0.05714-0.28712s0.01942-0.1961 0.05714-0.28712c0.03772-0.09103 0.09301-0.17373 0.1627-0.24338zm12.728 0c0.1405 0.14063 0.2193 0.33125 0.2193 0.53s-0.0788 0.38937-0.2193 0.53l-1.591 1.592c-0.1415 0.13655-0.331 0.21206-0.5277 0.21026-0.1966-0.0018-0.3847-0.08077-0.5237-0.21989s-0.2177-0.32727-0.2194-0.52392c-0.0016-0.19665 0.0741-0.38606 0.2108-0.52745l1.59-1.591c0.0697-0.06969 0.1524-0.12498 0.2434-0.1627s0.1886-0.05714 0.2871-0.05714 0.1961 0.01942 0.2871 0.05714 0.1737 0.09301 0.2434 0.1627zm-6.816 4.496c0.152-0.04076 0.313-0.03266 0.4602 0.02316 0.1472 0.05581 0.273 0.15651 0.3598 0.28784l5.228 7.917c0.0818 0.1238 0.125 0.2692 0.1242 0.4176s-0.0457 0.2933-0.1289 0.4162-0.201 0.2184-0.3384 0.2743c-0.1375 0.0559-0.2885 0.0698-0.4339 0.0399l-2.097-0.43 1.045 3.9c0.0515 0.1923 0.0244 0.3971-0.0752 0.5695-0.0996 0.1723-0.2635 0.298-0.4558 0.3495s-0.3971 0.0244-0.5695-0.0752c-0.1723-0.0996-0.298-0.2635-0.3495-0.4558l-1.044-3.899-1.601 1.42c-0.111 0.0987-0.2487 0.1622-0.3958 0.1825s-0.2969-0.0035-0.4304-0.0684-0.2448-0.168-0.3197-0.2962-0.1101-0.2757-0.1011-0.4239l0.569-9.47c0.0093-0.15715 0.0678-0.30738 0.1672-0.42943 0.0995-0.12204 0.2348-0.20971 0.3868-0.25057v1e-3zm-8.548 1.868c0-0.1989 0.07902-0.3897 0.21967-0.53033 0.14065-0.14065 0.33142-0.21967 0.53033-0.21967h2.25c0.19891 0 0.38968 0.07902 0.53033 0.21967 0.14065 0.14063 0.21967 0.33143 0.21967 0.53033s-0.07902 0.3897-0.21967 0.5303c-0.14065 0.1407-0.33142 0.2197-0.53033 0.2197h-2.25c-0.19891 0-0.38968-0.079-0.53033-0.2197-0.14065-0.1406-0.21967-0.3314-0.21967-0.5303zm14.25 0c0-0.1989 0.079-0.3897 0.2197-0.53033 0.1406-0.14065 0.3314-0.21967 0.5303-0.21967h2.25c0.1989 0 0.3897 0.07902 0.5303 0.21967 0.1407 0.14063 0.2197 0.33143 0.2197 0.53033s-0.079 0.3897-0.2197 0.5303c-0.1406 0.1407-0.3314 0.2197-0.5303 0.2197h-2.25c-0.1989 0-0.3897-0.079-0.5303-0.2197-0.1407-0.1406-0.2197-0.3314-0.2197-0.5303zm-8.962 3.712c0.0697 0.0697 0.12498 0.1524 0.1627 0.2434s0.05714 0.1886 0.05714 0.2871-0.01942 0.1961-0.05714 0.2871-0.093 0.1737-0.1627 0.2434l-1.591 1.591c-0.06915 0.0717-0.15188 0.1288-0.24337 0.1682-0.09148 0.0393-0.18989 0.0601-0.28947 0.061s-0.19835-0.018-0.29054-0.0557-0.17596-0.0933-0.24641-0.1637-0.12618-0.1541-0.16393-0.2463c-0.03776-0.0921-0.05678-0.1909-0.05596-0.2904 8.1e-4 -0.0996 0.02146-0.1981 0.06072-0.2896s0.09636-0.1743 0.16796-0.2435l1.591-1.592c0.14063-0.1405 0.33125-0.2193 0.53-0.2193s0.38937 0.0788 0.53 0.2193h1e-3z" clip-rule="evenodd" fill="#44403C" fill-rule="evenodd"/>
</svg>
