<svg fill="none" version="1.1" viewBox="0 0 20 19.647" xmlns="http://www.w3.org/2000/svg">
 <g transform="matrix(1.0252 0 0 1.0252 -2.299 -2.3065)">
  <path d="m16.881 4.346c-2.7447 1.0983-5.6747 1.6598-8.631 1.654h-0.75c-1.3173-0.0019-2.5871 0.49145-3.5576 1.3822-0.97047 0.89073-1.5706 2.1137-1.6814 3.4263s0.27592 2.6189 1.0834 3.6596c0.80746 1.0408 1.9766 1.74 3.2756 1.9589 0.33102 1.3548 0.79251 2.6743 1.378 3.94 0.464 1.004 1.674 1.32 2.582 0.796l0.657-0.379c0.88-0.508 1.165-1.592 0.772-2.468-0.2362-0.5248-0.4458-1.0611-0.628-1.607 1.918 0.258 3.76 0.75 5.5 1.446 0.7435-2.2261 1.1214-4.558 1.119-6.905 0-2.413-0.393-4.735-1.119-6.904zm1.379-0.606c0.8236 2.4181 1.2426 4.9555 1.24 7.51 0.0026 2.5545-0.4164 5.0919-1.24 7.51-0.055 0.161-0.111 0.322-0.17 0.482-0.0684 0.1869-0.0598 0.3932 0.0239 0.5737 0.0838 0.1805 0.2358 0.3204 0.4226 0.3888 0.1869 0.0684 0.3932 0.0598 0.5737-0.0239 0.1806-0.0837 0.3204-0.2357 0.3888-0.4226 0.7582-2.0701 1.2341-4.2329 1.415-6.43 0.5372-0.5583 0.8369-1.3032 0.836-2.078 0-0.806-0.319-1.54-0.836-2.078-0.182-2.197-0.6579-4.3596-1.415-6.43-0.0339-0.09251-0.0856-0.17745-0.1523-0.24996s-0.1471-0.13117-0.2365-0.17263c-0.1805-0.08373-0.3868-0.09233-0.5737-0.02391-0.1868 0.06843-0.3388 0.20828-0.4226 0.38878-0.0837 0.1805-0.0923 0.38688-0.0239 0.57372 0.059 0.16 0.116 0.32 0.17 0.482z" fill="#57534e"/>
 </g>
</svg>
