<svg fill="none" version="1.1" viewBox="0 0 20 19.232" xmlns="http://www.w3.org/2000/svg">
 <path d="m3.1662 19.198c-0.18317-0.017949-0.36553-0.043282-0.54667-0.075897-0.13304-0.023795-0.25744-0.082257-0.36069-0.16954-0.10324-0.087179-0.18169-0.2001-0.22745-0.32718-0.045754-0.12718-0.05719-0.26421-0.033169-0.39723 0.02402-0.13292 0.082667-0.25733 0.17002-0.36041 0.42078-0.4961 0.70812-1.0912 0.83487-1.7292 0.02359-0.11795-0.022564-0.32513-0.26051-0.55692-1.6923-1.6462-2.7426-3.879-2.7426-6.3508 0-5.159 4.5415-9.2308 10-9.2308 5.4585 0 10 4.0718 10 9.2308 0 5.159-4.5415 9.2308-10 9.2308-0.85436 0-1.6851-0.09949-2.479-0.28615-1.2976 0.81549-2.8299 1.1753-4.3549 1.0226z" clip-rule="evenodd" fill="#57534e" fill-rule="evenodd" stroke-width="1.0256"/>
</svg>
