<svg fill="none" version="1.1" viewBox="0 0 20 17.755" xmlns="http://www.w3.org/2000/svg">
 <g transform="matrix(.95238 0 0 .95238 -1.4286 -2.8571)" fill="#44403c">
  <path d="m12 7.5c-0.5967 0-1.169 0.23705-1.591 0.65901-0.42195 0.42196-0.659 0.99425-0.659 1.591 0 0.5967 0.23705 1.169 0.659 1.591 0.422 0.4219 0.9943 0.659 1.591 0.659s1.169-0.2371 1.591-0.659c0.4219-0.422 0.659-0.9943 0.659-1.591 0-0.59674-0.2371-1.169-0.659-1.591-0.422-0.42196-0.9943-0.65901-1.591-0.65901z"/>
  <path d="m1.5 4.875c0-1.036 0.84-1.875 1.875-1.875h17.25c1.035 0 1.875 0.84 1.875 1.875v9.75c0 1.036-0.84 1.875-1.875 1.875h-17.25c-0.24623 0-0.49005-0.0485-0.71753-0.1427-0.22749-0.0943-0.43419-0.2324-0.6083-0.4065s-0.31222-0.3808-0.40644-0.6083c-0.09423-0.2275-0.14273-0.4713-0.14273-0.7175zm6.75 4.875c0-0.99456 0.39509-1.9484 1.0984-2.6516 0.70325-0.70326 1.657-1.0984 2.6516-1.0984s1.9484 0.39509 2.6517 1.0984c0.7032 0.70326 1.0983 1.6571 1.0983 2.6516 0 0.9946-0.3951 1.9484-1.0983 2.6517-0.7033 0.7032-1.6571 1.0983-2.6517 1.0983s-1.9484-0.3951-2.6516-1.0983c-0.70326-0.7033-1.0984-1.6571-1.0984-2.6517zm10.5-0.75c-0.1989 0-0.3897 0.07902-0.5303 0.21967-0.1407 0.14065-0.2197 0.33142-0.2197 0.53033v8e-3c0 0.414 0.336 0.75 0.75 0.75h8e-3c0.1989 0 0.3897-0.079 0.5303-0.2197 0.1407-0.1406 0.2197-0.33139 0.2197-0.5303v-8e-3c0-0.19891-0.079-0.38968-0.2197-0.53033-0.1406-0.14065-0.3314-0.21967-0.5303-0.21967zm-14.25 0.75c0-0.19891 0.07902-0.38968 0.21967-0.53033s0.33142-0.21967 0.53033-0.21967h8e-3c0.19891 0 0.38968 0.07902 0.53033 0.21967s0.21967 0.33142 0.21967 0.53033v8e-3c0 0.19891-0.07902 0.3897-0.21967 0.5303-0.14065 0.1407-0.33142 0.2197-0.53033 0.2197h-8e-3c-0.19891 0-0.38968-0.079-0.53033-0.2197-0.14065-0.1406-0.21967-0.33139-0.21967-0.5303z" clip-rule="evenodd" fill-rule="evenodd"/>
  <path d="m2.25 18c-0.19891 0-0.38968 0.079-0.53033 0.2197-0.14065 0.1406-0.21967 0.3314-0.21967 0.5303s0.07902 0.3897 0.21967 0.5303c0.14065 0.1407 0.33142 0.2197 0.53033 0.2197 5.4 0 10.63 0.722 15.6 2.075 1.19 0.324 2.4-0.558 2.4-1.82v-1.005c0-0.1989-0.079-0.3897-0.2197-0.5303-0.1406-0.1407-0.3314-0.2197-0.5303-0.2197z"/>
 </g>
</svg>
