<svg fill="none" version="1.1" viewBox="0 0 20 20" xmlns="http://www.w3.org/2000/svg">
 <path d="m10 20c2.6521 0 5.1958-1.0536 7.0711-2.9289 1.8752-1.8754 2.9289-4.419 2.9289-7.0711 0-2.6522-1.0536-5.1957-2.9289-7.0711-1.8754-1.8754-4.419-2.9289-7.0711-2.9289-2.6522 0-5.1957 1.0536-7.0711 2.9289-1.8754 1.8754-2.9289 4.4189-2.9289 7.0711 0 2.6521 1.0536 5.1958 2.9289 7.0711 1.8754 1.8752 4.4189 2.9289 7.0711 2.9289zm4.6338-11.616c0.22775-0.23575 0.35375-0.5515 0.35088-0.87925s-0.13438-0.64126-0.36612-0.87302-0.54525-0.36322-0.873-0.36606c-0.32775-0.00285-0.6435 0.12314-0.87925 0.35084l-4.1162 4.1162-1.6162-1.6162c-0.23575-0.2277-0.5515-0.35369-0.87925-0.35084-0.32775 0.0028375-0.64126 0.1343-0.87302 0.36606s-0.36322 0.54528-0.36606 0.87302c-0.00285 0.32775 0.12314 0.6435 0.35084 0.87925l2.5 2.5c0.23441 0.23438 0.5523 0.366 0.88375 0.366s0.64934-0.13162 0.88375-0.366z" clip-rule="evenodd" fill="#22c55e" fill-rule="evenodd" stroke-width="1.25"/>
</svg>
