<svg fill="none" version="1.1" viewBox="0 0 24 24" xmlns="http://www.w3.org/2000/svg">
 <path d="m12 5.25c1.213 0 2.415 0.046 3.605 0.135 0.7794 0.05696 1.5124 0.39238 2.065 0.945 0.5526 0.55261 0.888 1.2856 0.945 2.065 0.044 0.583 0.077 1.17 0.1 1.759l-1.685-1.684c-0.0687-0.07369-0.1515-0.13279-0.2435-0.17378-0.092-0.041-0.1913-0.06304-0.292-0.06482-0.1007-0.00177-0.2007 0.01675-0.2941 0.05447-0.0934 0.03773-0.1782 0.09387-0.2494 0.16509-0.0713 0.07122-0.1274 0.15605-0.1651 0.24944s-0.0563 0.19342-0.0545 0.29412 0.0238 0.20002 0.0648 0.29201c0.041 0.092 0.1001 0.1748 0.1738 0.24347l3 3c0.1406 0.1404 0.3313 0.2193 0.53 0.2193 0.1988 0 0.3894-0.0789 0.53-0.2193l3-3c0.1325-0.14218 0.2046-0.33022 0.2012-0.52453-0.0035-0.1943-0.0822-0.37968-0.2196-0.51709-0.1374-0.13742-0.3228-0.21613-0.5171-0.21956s-0.3823 0.0687-0.5245 0.20118l-1.752 1.751c-0.023-0.65-0.06-1.296-0.108-1.939-0.0841-1.137-0.5739-2.2058-1.38-3.012-0.8062-0.80614-1.8751-1.2959-3.012-1.38-2.4751-0.18674-4.9608-0.18674-7.436 0-1.1369 0.08414-2.2058 0.57389-3.012 1.38-0.80614 0.80613-1.2959 1.875-1.38 3.012-0.017 0.224-0.033 0.447-0.046 0.672-0.00762 0.09916 0.00456 0.19885 0.03583 0.29327 0.03127 0.09441 0.08101 0.18166 0.14632 0.25667s0.14488 0.13628 0.23409 0.18025c0.08922 0.04397 0.18628 0.06975 0.28555 0.07585s0.19876-0.0076 0.29269-0.04031c0.09392-0.03272 0.1804-0.08378 0.2544-0.15023s0.13405-0.14696 0.17665-0.23683c0.04259-0.08987 0.06689-0.18732 0.07147-0.28667 0.013-0.217 0.028-0.434 0.044-0.651 0.05697-0.77944 0.39238-1.5124 0.945-2.065 0.55262-0.55262 1.2856-0.88804 2.065-0.945 1.19-0.09 2.392-0.135 3.605-0.135zm-6.97 6.22c-0.14062-0.1405-0.33125-0.2193-0.53-0.2193s-0.38937 0.0788-0.53 0.2193l-3 3c-0.073687 0.0687-0.13279 0.1515-0.17378 0.2435s-0.063034 0.1913-0.064811 0.292c-0.001776 0.1007 0.016748 0.2007 0.054469 0.2941s0.093866 0.1782 0.16508 0.2494c0.071217 0.0713 0.15606 0.1274 0.24944 0.1651 0.09339 0.0377 0.19342 0.0563 0.29412 0.0545 0.10071-0.0018 0.20002-0.0238 0.29202-0.0648s0.1748-0.1001 0.24346-0.1738l1.752-1.751c0.023 0.65 0.06 1.296 0.108 1.939 0.08415 1.1369 0.57389 2.2058 1.38 3.012 0.80614 0.8061 1.875 1.2959 3.012 1.38 2.4751 0.1868 4.9609 0.1868 7.436 0 1.1369-0.0841 2.2058-0.5739 3.012-1.38 0.8061-0.8062 1.2959-1.8751 1.38-3.012 0.017-0.223 0.032-0.447 0.046-0.672 0.0091-0.1967-0.0596-0.3891-0.1912-0.5356-0.1315-0.1466-0.3154-0.2355-0.512-0.2475-0.1966-0.0121-0.39 0.0536-0.5385 0.1829s-0.2402 0.3119-0.2553 0.5082c-0.013 0.217-0.028 0.434-0.044 0.651-0.057 0.7794-0.3924 1.5124-0.945 2.065s-1.2856 0.888-2.065 0.945c-2.3999 0.1809-4.8101 0.1809-7.21 0-0.77944-0.057-1.5124-0.3924-2.065-0.945s-0.88803-1.2856-0.945-2.065c-0.04415-0.5857-0.07748-1.1721-0.1-1.759l1.685 1.684c0.14218 0.1325 0.33022 0.2046 0.52452 0.2012 0.1943-0.0035 0.37969-0.0822 0.5171-0.2196 0.13742-0.1374 0.21613-0.3228 0.21956-0.5171 0.00342-0.1943-0.0687-0.3823-0.20118-0.5245l-3-3z" clip-rule="evenodd" fill="#44403C" fill-rule="evenodd"/>
</svg>
