<svg fill="none" version="1.1" viewBox="0 0 20 14.667" xmlns="http://www.w3.org/2000/svg">
 <path d="m10.017 1.3334c1.0782 0 2.1467 0.040889 3.2044 0.12 0.6928 0.050631 1.3444 0.34878 1.8356 0.84 0.4912 0.49121 0.78933 1.1427 0.84 1.8356 0.03911 0.51822 0.06845 1.04 0.08889 1.5636l-1.4978-1.4969c-0.06107-0.065502-0.13467-0.11804-0.21644-0.15447-0.08178-0.036444-0.17004-0.056036-0.25956-0.057618-0.08951-0.00157-0.1784 0.014889-0.26142 0.048418-0.08302 0.033538-0.1584 0.08344-0.22169 0.14675-0.06338 0.063307-0.11324 0.13871-0.14676 0.22172-0.03351 0.083014-0.05004 0.17193-0.04844 0.26144 0.0016 0.08951 0.02116 0.1778 0.0576 0.25956 0.03644 0.08178 0.08898 0.15538 0.15449 0.21642l2.6667 2.6667c0.12498 0.1248 0.29449 0.19493 0.47111 0.19493 0.17671 0 0.34613-0.07013 0.47111-0.19493l2.6667-2.6667c0.11778-0.12638 0.18187-0.29353 0.17884-0.46625-0.0031-0.17271-0.07307-0.33749-0.1952-0.45963-0.12213-0.12215-0.28693-0.19212-0.45964-0.19516-0.17271-0.00305-0.33982 0.061067-0.46622 0.17883l-1.5573 1.5564c-0.02045-0.57778-0.05333-1.152-0.096-1.7236-0.07476-1.0106-0.51014-1.9607-1.2267-2.6773-0.71662-0.71657-1.6668-1.1519-2.6773-1.2267-2.2001-0.16599-4.4096-0.16599-6.6098 0-1.0106 0.074791-1.9607 0.51012-2.6773 1.2267-0.71657 0.71656-1.1519 1.6667-1.2267 2.6773-0.015111 0.19911-0.029333 0.39733-0.040889 0.59733-0.00677 0.08814 0.00405 0.17676 0.031849 0.26068 0.027796 0.08392 0.072009 0.16148 0.13006 0.22815 0.058053 0.06668 0.12878 0.12114 0.20808 0.16022 0.079306 0.03909 0.16558 0.062 0.25382 0.06742 0.08824 0.0054 0.17668-0.0068 0.26017-0.03583 0.083484-0.02908 0.16036-0.07447 0.22613-0.13354 0.065778-0.05907 0.11916-0.13063 0.15702-0.21052 0.037858-0.07989 0.059458-0.16651 0.063529-0.25482 0.011555-0.19289 0.024889-0.38578 0.039111-0.57866 0.05064-0.69283 0.34878-1.3443 0.84-1.8356 0.49122-0.49122 1.1427-0.78937 1.8356-0.84 1.0578-0.08 2.1262-0.12 3.2044-0.12zm-6.1955 5.5289c-0.125-0.12489-0.29444-0.19493-0.47111-0.19493s-0.34611 0.07005-0.47111 0.19493l-2.6667 2.6667c-0.0655 0.06107-0.11803 0.13467-0.15447 0.21644-0.036437 0.08178-0.05603 0.17004-0.05761 0.25956-0.001579 0.08951 0.014887 0.1784 0.048417 0.26142 0.03353 0.08302 0.083436 0.1584 0.14674 0.22169 0.063304 0.06338 0.13872 0.11324 0.22172 0.14676 0.083013 0.03351 0.17193 0.05004 0.26144 0.04844 0.08952-0.0016 0.1778-0.02116 0.25957-0.0576 0.081778-0.03645 0.15538-0.08898 0.21641-0.15449l1.5573-1.5564c0.020444 0.57778 0.053333 1.152 0.096 1.7236 0.0748 1.0106 0.51012 1.9607 1.2267 2.6773 0.71657 0.71653 1.6667 1.1519 2.6773 1.2267 2.2001 0.16604 4.4097 0.16604 6.6098 0 1.0106-0.07476 1.9607-0.51013 2.6773-1.2267 0.71653-0.71662 1.1519-1.6668 1.2267-2.6773 0.01511-0.19822 0.02844-0.39733 0.04089-0.59733 0.0081-0.17484-0.05298-0.34587-0.16996-0.47609-0.11689-0.13031-0.28036-0.20933-0.45511-0.22-0.17476-0.01076-0.34667 0.04764-0.47867 0.16258-0.132 0.11493-0.21351 0.27724-0.22693 0.45173-0.01156 0.19289-0.02489 0.38578-0.03911 0.57867-0.05067 0.6928-0.3488 1.3444-0.84 1.8356-0.4912 0.4912-1.1428 0.78933-1.8356 0.84-2.1332 0.1608-4.2756 0.1608-6.4089 0-0.69284-0.050661-1.3443-0.34879-1.8356-0.83999-0.49122-0.4912-0.78936-1.1428-0.84-1.8356-0.039244-0.52062-0.068871-1.0419-0.088889-1.5636l1.4978 1.4969c0.12638 0.11778 0.29353 0.18187 0.46624 0.17884 0.17271-0.0031 0.3375-0.07307 0.45964-0.1952 0.12215-0.12213 0.19212-0.28693 0.19516-0.45964 0.00304-0.17271-0.061067-0.33982-0.17883-0.46622z" clip-rule="evenodd" fill="#44403c" fill-rule="evenodd" stroke-width=".88889"/>
</svg>
