<svg fill="none" version="1.1" viewBox="0 0 20 20" xmlns="http://www.w3.org/2000/svg">
 <path d="m20 10c0 5.5228-4.4772 10-10 10-5.5228 0-10-4.4772-10-10 0-5.5228 4.4772-10 10-10 5.5228 0 10 4.4772 10 10zm-9.6417-2.6176c-0.9726 0.40456-2.9165 1.2419-5.8317 2.512-0.47339 0.1883-0.72137 0.3724-0.74394 0.5525-0.03815 0.3043 0.34295 0.4242 0.86192 0.5874 0.07059 0.0222 0.14374 0.0452 0.21872 0.0695 0.51058 0.166 1.1974 0.3602 1.5545 0.3679 0.32388 7e-3 0.68537-0.1265 1.0845-0.4006 2.7238-1.8386 4.1298-2.7679 4.218-2.788 0.0623-0.0141 0.1486-0.0319 0.2071 0.0201s0.0527 0.1504 0.0465 0.1768c-0.0377 0.1609-1.5337 1.5518-2.3079 2.2715-0.2413 0.2244-0.4125 0.3835-0.4475 0.4199-0.0784 0.0814-0.1583 0.1584-0.2351 0.2324-0.4743 0.4573-0.8301 0.8002 0.0197 1.3602 0.4084 0.2691 0.7351 0.4916 1.0611 0.7136 0.356 0.2425 0.7111 0.4843 1.1706 0.7855 0.117 0.0767 0.2288 0.1564 0.3377 0.234 0.4143 0.2954 0.7865 0.5607 1.2464 0.5184 0.2672-0.0246 0.5432-0.2758 0.6834-1.0252 0.3313-1.771 0.9825-5.6083 1.133-7.1895 0.0132-0.13853-0.0034-0.31583-0.0168-0.39366-0.0133-0.07783-0.0411-0.18873-0.1423-0.27082-0.1198-0.09722-0.3047-0.11772-0.3875-0.11626-0.3761 0.00663-0.9532 0.20728-3.7303 1.3624z" clip-rule="evenodd" fill="#44403c" fill-rule="evenodd"/>
</svg>
