<svg fill="none" version="1.1" viewBox="0 0 20 16.805" xmlns="http://www.w3.org/2000/svg">
 <path d="m18.784 1.2387-0.70039 0.70043zm-6.0883 5.3273 0.75203 0.64464c0.31222-0.36413 0.31856-0.89954 0.01532-1.2711-0.30324-0.37152-0.82916-0.4724-1.2484-0.23949zm-3.3289 6.0023-0.47428 0.86958zm-0.32002-1.7451-0.75216-0.64465zm8.0068 3.9987-0.94935-0.28237zm-2.0726 0.80869 0.47428-0.86958zm-8.5835-5.5655-0.48105-0.86588zm-5.2527-1.5717 0.48789 0.86205zm0.069114 0.55431-0.27213 0.95238zm0.41878 0.30773c2.7631-1.5639 6.7702-3.7344 10.261-5.3248 1.751-0.79769 3.3354-1.4324 4.5531-1.7767 0.61322-0.17341 1.0849-0.25894 1.4148-0.27127 0.38169-0.014277 0.34207 0.076524 0.22202-0.043571l1.4008-1.4009c-0.49356-0.49356-1.1913-0.5542-1.6969-0.53531-0.55748 0.020841-1.2024 0.1531-1.8798 0.34466-1.3637 0.3856-3.0562 1.0697-4.8354 1.8802-3.5693 1.626-7.6349 3.8297-10.416 5.4034zm16.451-7.4163c-0.12719-0.12712-0.15017-0.23932-0.13683-0.19625 0.0063 0.020537 0.02113 0.08038 0.0354 0.19432 0.02826 0.22602 0.042 0.55948 0.0346 0.99802-0.01453 0.87035-0.10989 2.0451-0.27419 3.3724-0.32913 2.6562-0.92254 5.8252-1.6384 8.2318l1.8988 0.56488c0.75612-2.5419 1.3676-5.8247 1.7056-8.5532 0.16905-1.365 0.27286-2.6158 0.28898-3.5828 0.0081-0.48013-0.0049-0.9183-0.04966-1.2767-0.022189-0.17827-0.055603-0.36382-0.10936-0.53688-0.046755-0.15051-0.14211-0.40448-0.35422-0.61651zm-2.6284 12.822-5.6141-3.0623-0.94869 1.7391 5.6142 3.0623zm-5.6565-3.2931 3.6489-4.2572-1.5041-1.2893-3.6491 4.2572zm2.4159-5.7677-6.2983 3.4991 0.96212 1.7318 6.2982-3.499zm-6.7025 3.5454-4.0263-1.1504-0.54425 1.9049 4.0263 1.1504zm4.329 2.4531c-0.0844-0.04609-0.10487-0.15796-0.0424-0.23086l-1.5042-1.2893c-0.88225 1.0294-0.59235 2.61 0.5979 3.2593zm6.2631 2.8408c-0.06683 0.22426-0.34815 0.38552-0.64901 0.22149l-0.94855 1.7391c1.311 0.71518 3.0395 0.13973 3.4964-1.3958zm-10.188-5.3403c-0.12322 0.068414-0.26861 0.085056-0.40416 0.046358l-0.54425 1.9049c0.64076 0.18306 1.328 0.10408 1.9105-0.21951zm-5.2596-1.568c-1.02 0.57729-0.79613 2.06 0.28488 2.3689l0.54425-1.9049c0.56286 0.16087 0.69763 0.94842 0.14665 1.2602z" fill="#44403c" stroke-width="1.3207"/>
</svg>
