<svg fill="none" version="1.1" viewBox="0 0 24 24" xmlns="http://www.w3.org/2000/svg">
 <path d="m11.25 4.533c-1.5669-1.0036-3.3892-1.5358-5.25-1.533-1.107-0.00113-2.2061 0.18656-3.25 0.555-0.14621 0.0517-0.2728 0.14744-0.36234 0.27405-0.08954 0.12662-0.13764 0.27788-0.13766 0.43295v14.25c2e-5 0.12 0.02882 0.2382 0.08398 0.3447 0.05517 0.1066 0.13509 0.1983 0.23305 0.2676 0.09797 0.0693 0.21112 0.114 0.32996 0.1305s0.2399 0.0042 0.35301-0.0358c0.88333-0.3116 1.8133-0.4702 2.75-0.469 1.995 0 3.823 0.707 5.25 1.886v-16.103zm1.5 16.103c1.4764-1.2219 3.3336-1.889 5.25-1.886 0.966 0 1.89 0.166 2.75 0.47 0.1132 0.04 0.2343 0.0523 0.3533 0.0358 0.1189-0.0166 0.2321-0.0614 0.3301-0.1308s0.1779-0.1613 0.233-0.2679c0.0551-0.1067 0.0837-0.225 0.0836-0.3451v-14.25c0-0.15507-0.0481-0.30633-0.1377-0.43295-0.0895-0.12661-0.2161-0.22235-0.3623-0.27405-1.0439-0.36844-2.143-0.55613-3.25-0.555-1.8608-0.00275-3.6831 0.52937-5.25 1.533v16.103z" fill="#44403C"/>
</svg>
