<svg fill="none" version="1.1" viewBox="0 0 24 24" xmlns="http://www.w3.org/2000/svg">
 <path d="m8 4c-2.2091 0-4 1.7909-4 4v8c0 2.2091 1.7909 4 4 4h8c2.2091 0 4-1.7909 4-4v-8c0-2.2091-1.7909-4-4-4h-8zm9.5303 9.9697c0.2929 0.2929 0.2929 0.7677 0 1.0606l-2.5 2.5c-0.2929 0.2929-0.7677 0.2929-1.0606 0l-2.5-2.5c-0.2929-0.2929-0.2929-0.7677 0-1.0606s0.7677-0.2929 1.0606 0l1.2197 1.2196v-4.1893c0-0.4142 0.3358-0.75 0.75-0.75s0.75 0.3358 0.75 0.75v4.1893l1.2197-1.2196c0.2929-0.2929 0.7677-0.2929 1.0606 0zm-5-3.9394c0.2929-0.29286 0.2929-0.76774 0-1.0606l-2.5-2.5c-0.29286-0.29289-0.76774-0.29289-1.0606 0l-2.5 2.5c-0.29289 0.29289-0.29289 0.76777 0 1.0606 0.29289 0.2929 0.76777 0.2929 1.0607 0l1.2197-1.2196v4.1893c0 0.4142 0.33579 0.75 0.75 0.75s0.75-0.3358 0.75-0.75v-4.1893l1.2197 1.2196c0.2929 0.2929 0.7677 0.2929 1.0606 0z" clip-rule="evenodd" fill="#44403C" fill-rule="evenodd"/>
</svg>
