<svg fill="none" version="1.1" viewBox="0 0 20 16.18" xmlns="http://www.w3.org/2000/svg">
 <path d="m16.93 1.9968c-0.28254-1.0367-1.2179-1.5967-2.0916-1.832-0.91672-0.24681-2.0037-0.21804-2.9931 0.096763-0.99381 0.3162-1.9704 0.94956-2.546 1.9881-0.44388 0.80094-0.60436 1.7616-0.43115 2.854-0.63503-0.035672-1.2907-0.26213-1.9612-0.66443-1.0035-0.60209-1.9814-1.567-2.8465-2.7204-0.17908-0.23876-0.46392-0.37442-0.76215-0.36297-0.29824 0.011454-0.57185 0.16856-0.73208 0.42035-0.73757 1.159-1.0587 2.9318-0.8352 4.6948 0.2581 2.0357 1.2663 4.2156 3.4064 5.5881-0.25734 0.128-0.54182 0.25539-0.84423 0.37236-1.0691 0.41333-2.2405 0.64957-3.206 0.45648-0.43625-0.08727-0.87156 0.15406-1.0287 0.57018-0.15719 0.41624 0.00994 0.88509 0.39497 1.108 1.0843 0.62775 2.7036 1.161 4.4873 1.4285 1.7916 0.26873 3.8229 0.28085 5.7341-0.19697 1.9179-0.47951 3.7498-1.4631 5.0531-3.207 1.2229-1.636 1.9151-3.8536 1.8664-6.7483 0.46424-0.24584 0.96678-0.55078 1.3816-0.96557 0.62703-0.62697 1.0239-1.4651 1.0239-2.6125 0-0.33527-0.18448-0.64333-0.48012-0.80152-0.29563-0.15819-0.6543-0.14086-0.93321 0.045115-0.79539 0.53023-1.2885 0.57068-1.5027 0.53894-0.08945-0.013248-0.13406-0.036036-0.1537-0.05zm-9e-3 -0.00719c-3e-3 -0.00291-0.0042-0.00469-0.0041-0.00485 2.42e-4 -1.697e-4 0.0018 0.00128 0.0041 0.00485zm-6.0315 1.1415c-0.2857 0.5156-0.42048 1.3026-0.02739 2.482 0.08012 0.24023 0.05636 0.50299-0.06545 0.72493-0.12192 0.22194-0.33076 0.38303-0.57646 0.44448-1.5122 0.37806-2.9726-0.018545-4.2488-0.78424-0.84797-0.50876-1.6397-1.1937-2.3561-1.9713-0.13784 0.64264-0.1831 1.4073-0.080654 2.2155 0.2487 1.9616 1.3345 3.9602 3.754 4.8676 0.28939 0.10848 0.50382 0.3566 0.56927 0.65866 0.06545 0.30206-0.02715 0.61672-0.2457 0.83527-0.23517 0.23527-0.61883 0.50182-1.0476 0.75103-0.44669 0.25976-1.0011 0.53454-1.6158 0.77224-0.016655 0.0064-0.033382 0.01285-0.050182 0.01927 0.10285 0.0177 0.20679 0.0343 0.31172 0.05006 1.6175 0.24266 3.3992 0.24327 5.0234-0.16279 1.6173-0.40436 3.0431-1.201 4.0378-2.5316 0.99284-1.3284 1.6305-3.2887 1.4868-6.1622-0.01794-0.36031 0.17879-0.69717 0.50145-0.85852 0.4446-0.22229 0.80545-0.40734 1.0956-0.61212-0.18533 0.00982-0.36497 0.00171-0.53818-0.023963-0.80606-0.11942-1.4581-0.6373-1.6389-1.3606-0.036364-0.14533-0.2223-0.40527-0.81272-0.56424-0.56048-0.15092-1.2918-0.14181-1.9691 0.073696-0.67284 0.2141-1.2114 0.60346-1.507 1.1369z" clip-rule="evenodd" fill="#44403c" fill-rule="evenodd" stroke-width="1.2121"/>
</svg>
