<svg version="1.1" viewBox="0 0 20 16.253" xmlns="http://www.w3.org/2000/svg">
 <path d="m20 1.9242c-0.73583 0.32667-1.5267 0.54667-2.3567 0.64583 0.8475-0.5075 1.4983-1.3117 1.8042-2.27-0.7925 0.47-1.6708 0.81167-2.6058 0.99583-0.7475-0.7975-1.815-1.2958-2.995-1.2958-2.6492 0-4.5958 2.4717-3.9975 5.0375-3.4092-0.17083-6.4325-1.8042-8.4567-4.2867-1.075 1.8442-0.5575 4.2567 1.2692 5.4783-0.67167-0.021667-1.305-0.20583-1.8575-0.51333-0.045 1.9008 1.3175 3.6792 3.2908 4.075-0.5775 0.15667-1.21 0.19333-1.8533 0.07 0.52167 1.63 2.0367 2.8158 3.8333 2.8492-1.725 1.3525-3.8983 1.9567-6.075 1.7 1.8158 1.1642 3.9733 1.8433 6.29 1.8433 7.6183 0 11.922-6.4342 11.662-12.205 0.80167-0.57917 1.4975-1.3017 2.0475-2.1242z" stroke-width=".83333"/>
</svg>
