<svg fill="none" version="1.1" viewBox="0 0 20 20" xmlns="http://www.w3.org/2000/svg">
 <path d="m20 10c0 5.5228-4.4772 10-10 10-5.5228 0-10-4.4772-10-10 0-5.5228 4.4772-10 10-10 5.5228 0 10 4.4772 10 10zm-4.323-2.0254c0-0.11567 0-0.23027-0.0079-0.34488 0.5218-0.37761 0.9728-0.84501 1.3309-1.3816-0.4864 0.216-1.0029 0.35754-1.5316 0.41986 0.5567-0.33325 0.9734-0.85768 1.1725-1.4751-0.5239 0.31054-1.0964 0.52971-1.6938 0.64749-1.0097-1.0737-2.6992-1.1254-3.7735-0.11566-0.6929 0.65119-0.9865 1.6219-0.7716 2.5483-2.1447-0.1072-4.1426-1.1202-5.4968-2.7864-0.7077 1.2189-0.34646 2.778 0.82547 3.5612-0.42462-0.0127-0.83973-0.1273-1.2105-0.3338v0.0338c0 1.2696 0.89519 2.3628 2.1395 2.6142-0.3924 0.1072-0.80435 0.1231-1.2041 0.046 0.34962 1.0864 1.3504 1.8305 2.4917 1.8521-0.94483 0.7421-2.1115 1.145-3.3124 1.144-0.21231-5e-4 -0.42409-0.0132-0.63482-0.0386 1.22 0.7827 2.6391 1.1978 4.0883 1.1957v0.0021c4.9058 0 7.5887-4.0645 7.5887-7.5887z" clip-rule="evenodd" fill="#44403c" fill-rule="evenodd"/>
</svg>
