<svg version="1.1" viewBox="0 0 24 24" xmlns="http://www.w3.org/2000/svg">
 <path d="m14.906 11.652c0.0645 0.1265 0.1448 0.2434 0.2383 0.348-0.0935 0.1046-0.1738 0.2214-0.2383 0.348-0.1052 0.2064-0.1441 0.4209-0.1617 0.6365-0.0167 0.2043-0.0167 0.4524-0.0167 0.7399v0.7301h1.0909v-0.7091c0-0.3144 5e-4 -0.5175 0.0131-0.672 0.0121-0.1482 0.0326-0.2032 0.0464-0.2301 0.0523-0.1027 0.1357-0.1861 0.2384-0.2384 0.0269-0.0137 0.0819-0.0343 0.23-0.0464 0.1359-0.0111 0.3093-0.0128 0.563-0.013v0.9818c0 0.3144-4e-4 0.5175-0.013 0.672-0.0121 0.1482-0.0327 0.2032-0.0464 0.2301-0.0523 0.1027-0.1358 0.1861-0.2384 0.2384-0.027 0.0137-0.0819 0.0343-0.2301 0.0464-0.1545 0.0126-0.3576 0.013-0.6721 0.013h-1.9846c-0.2875 0-0.5356 0-0.7399 0.0167-0.2156 0.0176-0.4301 0.0565-0.6365 0.1617-0.1266 0.0645-0.2434 0.1448-0.348 0.2383-0.1046-0.0935-0.2215-0.1738-0.348-0.2383-0.2064-0.1051-0.4209-0.144-0.6365-0.1617-0.2043-0.0166-0.4524-0.0166-0.7399-0.0166h-0.73014v1.0909h0.70904c0.3145 0 0.5176 4e-4 0.6721 0.013 0.1482 0.0121 0.2031 0.0327 0.2301 0.0464 0.1026 0.0523 0.1861 0.1358 0.2384 0.2384 0.0137 0.027 0.0343 0.0819 0.0464 0.2301 0.0111 0.1359 0.0128 0.3093 0.013 0.563h-0.9818c-0.3145 0-0.51751-5e-4 -0.67206-0.0131-0.14817-0.0121-0.20311-0.0326-0.23008-0.0464-0.10263-0.0523-0.18608-0.1357-0.23837-0.2384-0.01374-0.0269-0.03429-0.0819-0.0464-0.23-0.01263-0.1546-0.01305-0.3576-0.01305-0.6721v-1.9847c1e-5 -0.2875 2e-5 -0.5356-0.01668-0.7399-0.01761-0.2156-0.05651-0.4301-0.16167-0.6365-0.06448-0.1265-0.14475-0.2433-0.23832-0.348 0.09359-0.1046 0.17388-0.2214 0.23837-0.348 0.10516-0.2064 0.14406-0.4209 0.16168-0.6365 0.01669-0.2043 0.01669-0.4524 0.01668-0.7399v-0.73013h-1.0909v0.70913c0 0.3144-4.3e-4 0.5175-0.01305 0.672-0.01211 0.1482-0.03266 0.2032-0.0464 0.2301-0.0523 0.1027-0.13574 0.1861-0.23837 0.2384-0.02697 0.0137-0.08191 0.0343-0.23009 0.0464-0.1359 0.0111-0.3093 0.0128-0.56299 0.013v-0.9818c0-0.3144 4.2e-4 -0.5175 0.01305-0.67205 0.0121-0.14818 0.03266-0.20311 0.0464-0.23008 0.05229-0.10263 0.13573-0.18608 0.23837-0.23837 0.02697-0.01374 0.0819-0.03429 0.23008-0.0464 0.15455-0.01263 0.35761-0.01305 0.67209-0.01305h1.9846c0.2876 1e-5 0.5356 2e-5 0.7399-0.01668 0.2157-0.01762 0.4301-0.05651 0.6365-0.16167 0.1266-0.06449 0.2434-0.14476 0.348-0.23832 0.1046 0.09356 0.2215 0.17384 0.348 0.23832 0.2064 0.10516 0.4209 0.14406 0.6365 0.16168 0.2043 0.01669 0.4524 0.01668 0.7399 0.01667h0.7301v-1.0909h-0.709c-0.3145 0-0.5176-4.2e-4 -0.6721-0.01305-0.1482-0.01211-0.2031-0.03266-0.2301-0.0464-0.1026-0.05229-0.1861-0.13574-0.2384-0.23837-0.0137-0.02697-0.0343-0.08191-0.0464-0.23008-0.0111-0.1359-0.0128-0.30931-0.013-0.563h0.9818c0.3145 0 0.5175 4.3e-4 0.6721 0.01305 0.1481 0.01211 0.2031 0.03266 0.23 0.0464 0.1027 0.0523 0.1861 0.13574 0.2384 0.23837 0.0138 0.02697 0.0343 0.08191 0.0464 0.23009 0.0126 0.15455 0.0131 0.3576 0.0131 0.67208v1.9847c0 0.2875-1e-4 0.5356 0.0166 0.7399 0.0177 0.2156 0.0566 0.4301 0.1617 0.6365z" fill="#44403C"/>
 <path d="m12 22c5.5228 0 10-4.4772 10-10 0-5.5228-4.4772-10-10-10-5.5228 0-10 4.4772-10 10 0 5.5228 4.4772 10 10 10zm-1.9548-16 3.5031 3e-5c0.2875-1e-5 0.5356-2e-5 0.7399 0.01668 0.2156 0.01762 0.4301 0.05652 0.6365 0.16167 0.3079 0.15689 0.5582 0.40722 0.7151 0.71512 0.1052 0.20638 0.1441 0.42086 0.1617 0.6365 0.0167 0.20432 0.0167 0.45237 0.0167 0.7399v1.9847c0 0.3144 4e-4 0.5175 0.013 0.672 0.0121 0.1482 0.0327 0.2032 0.0464 0.2301 0.0523 0.1027 0.1358 0.1861 0.2384 0.2384 0.027 0.0137 0.0819 0.0343 0.2301 0.0464 0.1359 0.0111 0.3093 0.0128 0.563 0.013v-1.3636c0-0.27956-0.0027-0.3397-0.0105-0.37911-0.0431-0.21638-0.2122-0.38552-0.4286-0.42856-0.0394-0.00784-0.0995-0.01048-0.3791-0.01048v-1.0909l0.0457-2e-5c0.2077-1.7e-4 0.3865-3.1e-4 0.5462 0.03146 0.6492 0.12912 1.1566 0.63655 1.2857 1.2857 0.0318 0.15973 0.0317 0.33855 0.0315 0.54623l-1e-4 3.5031c0 0.2875 1e-4 0.5356-0.0166 0.7399-0.0177 0.2156-0.0566 0.4301-0.1617 0.6365-0.1569 0.3079-0.4072 0.5582-0.7151 0.7151-0.2064 0.1052-0.4209 0.1441-0.6365 0.1617-0.2043 0.0167-0.4524 0.0167-0.7399 0.0166h-1.9847c-0.3145 0-0.5175 5e-4 -0.6721 0.0131-0.1481 0.0121-0.2031 0.0327-0.23 0.0464-0.1027 0.0523-0.1861 0.1357-0.2384 0.2384-0.0138 0.0269-0.0343 0.0819-0.0464 0.2301-0.0111 0.1359-0.0128 0.3093-0.013 0.5629h1.3636c0.2796 0 0.3397-0.0026 0.3791-0.0104 0.2164-0.0431 0.3855-0.2122 0.4286-0.4286 0.0078-0.0394 0.0104-0.0995 0.0104-0.3791h1.0909l1e-4 0.0457c1e-4 0.2077 3e-4 0.3865-0.0315 0.5462-0.1291 0.6492-0.6366 1.1566-1.2857 1.2857-0.1597 0.0318-0.3385 0.0316-0.5462 0.0315h-3.5031c-0.2875 0-0.53558 0-0.73989-0.0167-0.21564-0.0176-0.43012-0.0565-0.63651-0.1617-0.3079-0.1569-0.55823-0.4072-0.71511-0.7151-0.10516-0.2064-0.14406-0.4209-0.16168-0.6365-0.01669-0.2043-0.01668-0.4524-0.01667-0.7399v-1.9846c0-0.3145-4.3e-4 -0.5176-0.01305-0.6721-0.01211-0.1482-0.03266-0.2031-0.0464-0.2301-0.0523-0.1026-0.13574-0.1861-0.23837-0.2384-0.02697-0.0137-0.08191-0.0343-0.23009-0.0464-0.13589-0.0111-0.3093-0.0128-0.56299-0.013v1.3636c0 0.2796 0.00264 0.3397 0.01048 0.3791 0.04304 0.2164 0.21218 0.3855 0.42856 0.4286 0.03941 0.0078 0.09954 0.0105 0.37913 0.0105v1.0909h-0.04575c-0.20763 2e-4 -0.38648 3e-4 -0.54621-0.0315-0.64912-0.1291-1.1566-0.6365-1.2857-1.2856-0.03177-0.1598-0.03163-0.3386-0.03146-0.5463l8e-5 -3.5031c-1e-5 -0.2875-2e-5 -0.53558 0.01667-0.73988 0.01762-0.21564 0.05652-0.43012 0.16168-0.63651 0.15688-0.3079 0.40721-0.55823 0.71511-0.71511 0.20639-0.10516 0.42087-0.14406 0.63651-0.16168 0.2043-0.01669 0.45235-0.01668 0.73987-0.01667h1.9847c0.3145 0 0.5175-4.3e-4 0.6721-0.01305 0.1482-0.01211 0.2031-0.03266 0.2301-0.0464 0.1026-0.0523 0.186-0.13574 0.2383-0.23837 0.0138-0.02697 0.0343-0.08191 0.0464-0.23009 0.0111-0.13589 0.0128-0.3093 0.0131-0.56299h-1.3636c-0.27962 0-0.33976 0.00264-0.37917 0.01048-0.21637 0.04304-0.38551 0.21218-0.42855 0.42856-0.00784 0.0394-0.01048 0.09954-0.01048 0.37913h-1.0909l-3e-5 -0.04575c-1.6e-4 -0.20765-3.1e-4 -0.38647 0.03147-0.54621 0.12912-0.64912 0.63654-1.1566 1.2857-1.2857 0.15974-0.03177 0.33855-0.03163 0.54619-0.03147z" clip-rule="evenodd" fill="#44403C" fill-rule="evenodd"/>
</svg>
