<svg fill="none" version="1.1" viewBox="0 0 20 20" xmlns="http://www.w3.org/2000/svg">
 <g transform="scale(.83333)">
  <path d="m0 12c0-6.6274 5.3726-12 12-12 6.6274 0 12 5.3726 12 12 0 6.6274-5.3726 12-12 12-6.6274 0-12-5.3726-12-12z" fill="#fff"/>
  <path d="m9.7728 5.0001-0.05338-3e-5c-0.24226-2e-4 -0.45088-3.6e-4 -0.63724 0.03671-0.75731 0.15064-1.3493 0.74264-1.5 1.5-0.03707 0.18636-0.0369 0.39498-0.03671 0.63724l3e-5 0.05338h1.2727c0-0.32619 0.00309-0.39635 0.01223-0.44233 0.05022-0.25243 0.24755-0.44977 0.49999-0.49998 0.04597-0.00914 0.11613-0.01223 0.44232-0.01223h1.5909c-3e-4 0.29598-0.0023 0.49828-0.0152 0.65683-0.0142 0.17287-0.0381 0.23697-0.0542 0.26843-0.061 0.11974-0.1583 0.21709-0.2781 0.2781-0.0314 0.01603-0.0955 0.04001-0.2684 0.05413-0.1803 0.01474-0.4172 0.01523-0.78409 0.01523h-2.3154c-0.33546-1e-5 -0.62485-2e-5 -0.86321 0.01945-0.25158 0.02056-0.50181 0.06594-0.74259 0.18863-0.35922 0.18303-0.65127 0.47508-0.8343 0.83429-0.12269 0.24079-0.16807 0.49102-0.18862 0.7426-0.01948 0.23836-0.01947 0.52775-0.01946 0.86324v1.17h-5e-5v2.8636l-3e-5 0.0534c-2e-4 0.2422-3.6e-4 0.4508 0.03671 0.6372 0.15064 0.7573 0.74264 1.3493 1.5 1.5 0.18636 0.037 0.39498 0.0369 0.63724 0.0367l0.05338-1e-4v-1.2727c-0.32619 0-0.39635-0.0031-0.44233-0.0122-0.25243-0.0502-0.44977-0.2476-0.49998-0.5-0.00914-0.046-0.01223-0.1161-0.01223-0.4423v-1.5909c0.29598 3e-4 0.49828 0.0023 0.65683 0.0152 0.17287 0.0141 0.23697 0.0381 0.26843 0.0541 0.11974 0.0611 0.21709 0.1584 0.2781 0.2781 0.01603 0.0315 0.04001 0.0956 0.05413 0.2685 0.01474 0.1803 0.01523 0.4172 0.01523 0.7841v2.3154c-1e-5 0.3354-2e-5 0.6248 0.01945 0.8632 0.02056 0.2516 0.06594 0.5018 0.18863 0.7426 0.18303 0.3592 0.47508 0.6513 0.83429 0.8343 0.24079 0.1227 0.49102 0.1681 0.7426 0.1886 0.23835 0.0195 0.52774 0.0195 0.86314 0.0195h4.087c0.2423 2e-4 0.4509 4e-4 0.6373-0.0367 0.7573-0.1506 1.3493-0.7426 1.4999-1.5 0.0371-0.1863 0.0369-0.3949 0.0367-0.6372v-0.0534h-1.2727c0 0.3262-0.0031 0.3964-0.0122 0.4423-0.0502 0.2525-0.2476 0.4498-0.5 0.5-0.046 0.0092-0.1162 0.0123-0.4423 0.0123h-1.5909c3e-4 -0.296 0.0022-0.4983 0.0152-0.6569 0.0141-0.1728 0.0381-0.2369 0.0541-0.2684 0.061-0.1197 0.1584-0.2171 0.2781-0.2781 0.0315-0.016 0.0956-0.04 0.2684-0.0541 0.1804-0.0148 0.4173-0.0153 0.7841-0.0153h2.3155c0.3354 1e-4 0.6248 1e-4 0.8632-0.0194 0.2516-0.0206 0.5018-0.066 0.7426-0.1886 0.3592-0.1831 0.6512-0.4751 0.8343-0.8343 0.1227-0.2408 0.168-0.491 0.1886-0.7426 0.0195-0.2384 0.0195-0.5278 0.0194-0.8632v-4.0336l1e-4 -0.05338c2e-4 -0.24226 3e-4 -0.45088-0.0367-0.63724-0.1507-0.75731-0.7427-1.3493-1.5-1.5-0.1864-0.03707-0.395-0.0369-0.6372-0.03671l-0.0534 3e-5v1.2727c0.3262 0 0.3963 0.00309 0.4423 0.01223 0.2525 0.05021 0.4498 0.24755 0.5 0.49999 0.0091 0.04597 0.0122 0.11613 0.0122 0.44232v1.5908c-0.2959-3e-4 -0.4983-0.0022-0.6568-0.0152-0.1729-0.0141-0.237-0.0381-0.2684-0.0541-0.1198-0.061-0.2171-0.1584-0.2781-0.2781-0.0161-0.0315-0.04-0.0956-0.0542-0.2684-0.0147-0.1803-0.0152-0.4172-0.0152-0.78414v-2.3154c0-0.33544 0-0.62482-0.0194-0.86318-0.0206-0.25158-0.066-0.50181-0.1887-0.74259-0.183-0.35922-0.475-0.65127-0.8343-0.8343-0.2407-0.12269-0.491-0.16807-0.7426-0.18862-0.2383-0.01948-0.5277-0.01947-0.8632-0.01946h-1.1699zm2.2272 10.668c0.1221-0.1092 0.2584-0.2029 0.406-0.2781 0.2408-0.1227 0.491-0.1681 0.7426-0.1886 0.2384-0.0195 0.5278-0.0195 0.8632-0.0195h2.3154c0.3669 0 0.6038-5e-4 0.7841-0.0152 0.1729-0.0141 0.237-0.0381 0.2685-0.0541 0.1197-0.061 0.2171-0.1584 0.2781-0.2781 0.016-0.0315 0.04-0.0956 0.0541-0.2685 0.0147-0.1803 0.0152-0.4172 0.0152-0.7841v-1.1454c-0.2959 3e-4 -0.4983 0.0023-0.6568 0.0152-0.1729 0.0141-0.237 0.0381-0.2684 0.0541-0.1198 0.0611-0.2171 0.1584-0.2781 0.2781-0.0161 0.0315-0.04 0.0956-0.0542 0.2685-0.0147 0.1803-0.0152 0.4172-0.0152 0.7841v0.8272h-1.2727v-0.8518c0-0.3354 0-0.6248 0.0194-0.8632 0.0206-0.2515 0.066-0.5018 0.1887-0.7426 0.0752-0.1476 0.1689-0.2839 0.278-0.406-0.1091-0.122-0.2028-0.2583-0.278-0.406-0.1227-0.2408-0.1681-0.491-0.1887-0.7426-0.0194-0.2383-0.0194-0.5277-0.0194-0.86313v-2.3155c0-0.3669-5e-4 -0.6038-0.0152-0.7841-0.0142-0.17288-0.0381-0.23697-0.0542-0.26843-0.061-0.11974-0.1583-0.21709-0.2781-0.2781-0.0314-0.01603-0.0955-0.04001-0.2684-0.05413-0.1803-0.01474-0.4172-0.01523-0.7841-0.01523h-1.1454c3e-4 0.29597 0.0022 0.49828 0.0152 0.65683 0.0141 0.17287 0.0381 0.23696 0.0541 0.26843 0.061 0.11974 0.1584 0.21709 0.2781 0.2781 0.0315 0.01603 0.0956 0.04001 0.2684 0.05413 0.1804 0.01473 0.4173 0.01523 0.7841 0.01523h0.8273v1.2727h-0.8518c-0.3354 2e-5 -0.6248 3e-5 -0.8632-0.01945-0.2516-0.02055-0.5018-0.06594-0.7426-0.18862-0.1476-0.07523-0.2839-0.16888-0.406-0.27804-0.122 0.10916-0.2583 0.2028-0.406 0.27803-0.2407 0.12269-0.491 0.16807-0.7426 0.18862-0.2383 0.01948-0.5277 0.01947-0.86315 0.01946h-2.3154c-0.3669 0-0.6038 4.9e-4 -0.7841 0.01522-0.17287 0.01413-0.23697 0.0381-0.26843 0.05414-0.11974 0.06101-0.21709 0.15836-0.2781 0.2781-0.01603 0.03146-0.04001 0.09555-0.05413 0.26843-0.01474 0.1803-0.01523 0.4172-0.01523 0.7841v1.1454c0.29597-3e-4 0.49828-0.0022 0.65683-0.0152 0.17287-0.0141 0.23697-0.0381 0.26843-0.0541 0.11974-0.061 0.21709-0.1584 0.2781-0.2781 0.01603-0.0315 0.04001-0.0956 0.05413-0.2684 0.01473-0.1804 0.01523-0.4173 0.01523-0.78415v-0.82726h1.2727l1e-5 0.8518v3e-5c1e-5 0.33548 2e-5 0.62478-0.01946 0.86318-0.02055 0.2516-0.06594 0.5018-0.18862 0.7426-0.07525 0.1477-0.16891 0.284-0.2781 0.406 0.10916 0.1221 0.20281 0.2584 0.27804 0.406 0.12269 0.2408 0.16807 0.4911 0.18862 0.7426 0.01948 0.2384 0.01947 0.5278 0.01946 0.8632v2.3155c0 0.3669 4.9e-4 0.6038 0.01522 0.7841 0.01413 0.1728 0.0381 0.2369 0.05414 0.2684 0.06101 0.1197 0.15836 0.2171 0.2781 0.2781 0.03146 0.016 0.09555 0.04 0.26843 0.0541 0.1803 0.0148 0.4172 0.0153 0.7841 0.0153h1.1454c-3e-4 -0.296-0.0022-0.4983-0.0152-0.6569-0.0141-0.1729-0.0381-0.2369-0.0541-0.2684-0.061-0.1197-0.1584-0.2171-0.2781-0.2781-0.0315-0.016-0.0956-0.04-0.2684-0.0541-0.1804-0.0148-0.4173-0.0153-0.78415-0.0153h-0.82726v-1.2727h0.85187c0.33544 0 0.62474 0 0.86314 0.0195 0.2516 0.0205 0.5018 0.0659 0.7426 0.1886 0.1476 0.0752 0.284 0.1689 0.406 0.2781z" clip-rule="evenodd" fill="#000" fill-rule="evenodd"/>
 </g>
</svg>
