<svg fill="none" version="1.1" viewBox="0 0 40 40" xmlns="http://www.w3.org/2000/svg">
 <rect width="40" height="40" rx="8" fill="#FAFAF9"/>
 <g stroke="#44403C" stroke-width="2">
  <path d="m14 12.5c0-0.4647 0-0.697 0.0384-0.8902 0.1578-0.7934 0.778-1.4136 1.5714-1.5714 0.1932-0.0384 0.4255-0.0384 0.8902-0.0384h3.5v0.8c0 1.1201 0 1.6802-0.218 2.108-0.1917 0.3763-0.4977 0.6823-0.874 0.874-0.4278 0.218-0.9879 0.218-2.108 0.218h-3.6c-1.1201 0-1.6802 0-2.108 0.218-0.3763 0.1917-0.6823 0.4977-0.874 0.874-0.218 0.4278-0.218 0.9879-0.218 2.108v2.8h0.8c1.1201 0 1.6802 0 2.108-0.218 0.3763-0.1917 0.6823-0.4977 0.874-0.874 0.218-0.4278 0.218-0.9879 0.218-2.108v-1.3"/>
  <path d="m27.5 14c0.4647 0 0.697 0 0.8902 0.0384 0.7934 0.1578 1.4136 0.778 1.5714 1.5714 0.0384 0.1932 0.0384 0.4255 0.0384 0.8902v3.5h-0.8c-1.1201 0-1.6802 0-2.108-0.218-0.3763-0.1917-0.6823-0.4977-0.874-0.874-0.218-0.4278-0.218-0.9879-0.218-2.108v-2.8-0.8c0-1.1201 0-1.6802-0.218-2.108-0.1917-0.3763-0.4977-0.6823-0.874-0.874-0.4278-0.218-0.9879-0.218-2.108-0.218h-2.8v0.8c0 1.1201 0 1.6802 0.218 2.108 0.1917 0.3763 0.4977 0.6823 0.874 0.874 0.4278 0.218 0.9879 0.218 2.108 0.218h1.3"/>
  <path d="m26 27.5c0 0.4647 0 0.697-0.0384 0.8902-0.1578 0.7934-0.778 1.4136-1.5714 1.5714-0.1932 0.0384-0.4255 0.0384-0.8902 0.0384h-3.5v-0.8c0-1.1201 0-1.6802 0.218-2.108 0.1917-0.3763 0.4977-0.6823 0.874-0.874 0.4278-0.218 0.9879-0.218 2.108-0.218h2.8 0.8c1.1201 0 1.6802 0 2.108-0.218 0.3763-0.1917 0.6823-0.4977 0.874-0.874 0.218-0.4278 0.218-0.9879 0.218-2.108v-2.8h-0.8c-1.1201 0-1.6802 0-2.108 0.218-0.3763 0.1917-0.6823 0.4977-0.874 0.874-0.218 0.4278-0.218 0.9879-0.218 2.108v1.3"/>
  <path d="m12.5 26c-0.4647 0-0.697 0-0.8902-0.0384-0.7934-0.1578-1.4136-0.778-1.5714-1.5714-0.0384-0.1932-0.0384-0.4255-0.0384-0.8902v-3.5h0.8c1.1201 0 1.6802 0 2.108 0.218 0.3763 0.1917 0.6823 0.4977 0.874 0.874 0.218 0.4278 0.218 0.9879 0.218 2.108v2.8 0.8c0 1.1201 0 1.6802 0.218 2.108 0.1917 0.3763 0.4977 0.6823 0.874 0.874 0.4278 0.218 0.9879 0.218 2.108 0.218h2.8v-0.8c0-1.1201 0-1.6802-0.218-2.108-0.1917-0.3763-0.4977-0.6823-0.874-0.874-0.4278-0.218-0.9879-0.218-2.108-0.218h-1.3"/>
 </g>
</svg>
