<svg fill="none" version="1.1" viewBox="0 0 20 20" xmlns="http://www.w3.org/2000/svg">
 <path d="m6.8183 8.4061e-5 -0.07626-4.3e-5c-0.34608-2.86e-4 -0.64411-5.15e-4 -0.91034 0.05244-1.0819 0.2152-1.9276 1.0609-2.1428 2.1428-0.052958 0.26623-0.052714 0.56425-0.052442 0.91034l4.28e-5 0.076256h1.8181c0-0.46598 0.0044-0.56621 0.01747-0.6319 0.07174-0.36061 0.35364-0.64252 0.71427-0.71425 0.06567-0.01306 0.1659-0.01747 0.63188-0.01747h2.2727c-4.29e-4 0.42283-0.0033 0.71182-0.02172 0.93832-0.02028 0.24696-0.05443 0.33853-0.07743 0.38347-0.08714 0.17106-0.22614 0.31013-0.39728 0.39728-0.04486 0.022899-0.13642 0.057158-0.38343 0.077328-0.25757 0.021057-0.596 0.021758-1.1201 0.021758h-3.3077c-0.47923-1.39e-5 -0.89264-2.81e-5 -1.2332 0.027787-0.3594 0.029371-0.71687 0.0942-1.0608 0.26947-0.51317 0.26147-0.93038 0.67868-1.1919 1.1918-0.17527 0.34398-0.2401 0.70145-0.26946 1.0609-0.027828 0.34051-0.027814 0.75392-0.027801 1.2332v1.6714h-7.15e-5v4.0908l-4.28e-5 0.07629c-2.856e-4 0.346-5.143e-4 0.644 0.052443 0.91028 0.2152 1.0819 1.0609 1.9276 2.1428 2.1428 0.26623 0.05286 0.56425 0.05271 0.91034 0.05243l0.076256-1.43e-4v-1.8181c-0.46598 0-0.56621-0.0044-0.6319-0.01743-0.36061-0.07171-0.64252-0.35371-0.71425-0.71428-0.013057-0.06571-0.017471-0.16586-0.017471-0.63185v-2.2727c0.42283 4.28e-4 0.71182 0.0033 0.93832 0.02172 0.24696 0.02014 0.33853 0.05443 0.38347 0.07728 0.17106 0.08728 0.31013 0.22628 0.39728 0.39728 0.022899 0.045 0.057158 0.13657 0.077328 0.38357 0.021057 0.25757 0.021758 0.596 0.021758 1.1201v3.3077c-1.44e-5 0.47914-2.86e-5 0.89257 0.027785 1.2331 0.029371 0.35943 0.0942 0.71685 0.26947 1.0608 0.26147 0.51314 0.67868 0.93042 1.1918 1.1919 0.34398 0.17528 0.70145 0.24014 1.0609 0.26943 0.3405 0.02786 0.75391 0.02786 1.2331 0.02786h5.8385c0.34614 2.84e-4 0.64414 5.71e-4 0.91042-0.05242 1.0818-0.21514 1.9276-1.0608 2.1427-2.1428 0.05301-0.26614 0.05271-0.56414 0.05242-0.91028v-0.07629h-1.8181c0 0.466-0.0045 0.56628-0.01743 0.63186-0.07171 0.36071-0.35371 0.64257-0.71428 0.71428-0.06571 0.0132-0.16599 0.01757-0.63185 0.01757h-2.2727c4.29e-4 -0.42285 0.0031-0.71185 0.02172-0.93842 0.02014-0.24686 0.05443-0.33843 0.07728-0.38343 0.08714-0.171 0.22628-0.31014 0.39728-0.39728 0.045-0.02286 0.13658-0.05714 0.38343-0.07728 0.25771-0.02114 0.59614-0.02186 1.1201-0.02186h3.3078c0.47914 1.42e-4 0.89256 1.42e-4 1.2331-0.02772 0.35943-0.02943 0.71685-0.09429 1.0608-0.26943 0.51314-0.26157 0.93028-0.67871 1.1919-1.1918 0.17528-0.344 0.24-0.70142 0.26943-1.0609 0.02786-0.34057 0.02786-0.754 0.02772-1.2331v-5.7623l1.44e-4 -0.076257c2.77e-4 -0.34608 4.21e-4 -0.64411-0.05244-0.91034-0.21528-1.0819-1.061-1.9276-2.1428-2.1428-0.26628-0.052958-0.56428-0.052714-0.91028-0.052442l-0.07628 4.29e-5v1.8181c0.466 0 0.56614 0.00441 0.63185 0.017472 0.36071 0.071729 0.64257 0.35364 0.71428 0.71427 0.01303 0.065671 0.01743 0.1659 0.01743 0.63188v2.2726c-0.42272-4.286e-4 -0.71186-0.00314-0.93829-0.021714-0.247-0.020143-0.33857-0.054428-0.38342-0.077285-0.17114-0.087142-0.31014-0.22628-0.39728-0.39728-0.02301-0.045-0.05714-0.13657-0.07743-0.38343-0.021-0.25757-0.02172-0.596-0.02172-1.1202v-3.3077c0-0.4792 0-0.8926-0.02772-1.2331-0.02943-0.3594-0.09429-0.71687-0.26957-1.0608-0.26143-0.51317-0.67857-0.93038-1.1919-1.1919-0.34385-0.17527-0.70142-0.2401-1.0609-0.26946-0.34043-0.02783-0.75385-0.02781-1.2331-0.0278h-1.6713zm3.1817 15.24c0.17443-0.156 0.36914-0.28986 0.58-0.39728 0.344-0.17528 0.70142-0.24014 1.0608-0.26943 0.34057-0.02786 0.754-0.02786 1.2331-0.02786h3.3077c0.52414 0 0.86257-7.15e-4 1.1201-0.02172 0.247-0.02014 0.33857-0.05443 0.38357-0.07728 0.171-0.08714 0.31014-0.22628 0.39728-0.39728 0.02285-0.045 0.05714-0.13657 0.07728-0.38357 0.021-0.25757 0.02172-0.596 0.02172-1.1201v-1.6363c-0.42271 4.29e-4 -0.71185 0.0033-0.93828 0.02172-0.247 0.02014-0.33857 0.05443-0.38343 0.07728-0.17114 0.08728-0.31014 0.22628-0.39728 0.39728-0.02301 0.045-0.05714 0.13657-0.07743 0.38357-0.021 0.25757-0.02172 0.596-0.02172 1.1201v1.1817h-1.8181v-1.2169c0-0.47914 0-0.89257 0.02772-1.2331 0.02943-0.35928 0.09429-0.71685 0.26957-1.0609 0.10743-0.21086 0.24128-0.40557 0.39714-0.58-0.15586-0.17428-0.28971-0.369-0.39714-0.57999-0.17528-0.344-0.24014-0.70142-0.26957-1.0609-0.02772-0.34043-0.02772-0.75385-0.02772-1.233v-3.3078c0-0.52414-7.15e-4 -0.86257-0.02172-1.1201-0.02028-0.24697-0.05443-0.33853-0.07743-0.38347-0.08714-0.17106-0.22614-0.31013-0.39728-0.39728-0.04486-0.0229-0.13642-0.05716-0.38343-0.07733-0.25757-0.02106-0.596-0.02176-1.1201-0.02176h-1.6363c4.28e-4 0.42281 0.0031 0.71182 0.02172 0.93832 0.02014 0.24696 0.05443 0.33851 0.07728 0.38347 0.08714 0.17106 0.22628 0.31013 0.39728 0.39728 0.045 0.022899 0.13658 0.057158 0.38343 0.077328 0.25771 0.021043 0.59614 0.021758 1.1201 0.021758h1.1819v1.8181h-1.2168c-0.47914 2.86e-5 -0.89257 4.28e-5 -1.2331-0.027785-0.35942-0.029357-0.71685-0.0942-1.0608-0.26946-0.21086-0.10747-0.40557-0.24126-0.58-0.3972-0.17429 0.15594-0.369 0.28971-0.58 0.39718-0.34386 0.17527-0.70142 0.2401-1.0609 0.26946-0.34043 0.027828-0.75385 0.027814-1.2331 0.027801h-3.3077c-0.52414 0-0.86257 7.001e-4 -1.1201 0.021742-0.24696 0.020186-0.33853 0.054428-0.38347 0.077343-0.17106 0.087156-0.31013 0.22623-0.39728 0.39728-0.022899 0.044942-0.057156 0.1365-0.077328 0.38347-0.021057 0.25757-0.021758 0.596-0.021758 1.1201v1.6363c0.42281-4.286e-4 0.71182-0.00314 0.93832-0.021715 0.24696-0.020143 0.33853-0.054429 0.38347-0.077285 0.17106-0.087142 0.31013-0.22628 0.39728-0.39728 0.022899-0.045 0.057158-0.13657 0.077328-0.38343 0.021043-0.25771 0.021758-0.59614 0.021758-1.1202v-1.1818h1.8181l1.4e-5 1.2169v4.28e-5c1.4e-5 0.47925 2.9e-5 0.89254-0.0278 1.2331-0.02936 0.35943-0.0942 0.71685-0.26946 1.0609-0.1075 0.211-0.2413 0.40571-0.39728 0.58 0.15594 0.17443 0.28973 0.36914 0.3972 0.58 0.17527 0.344 0.2401 0.70157 0.26946 1.0609 0.02783 0.34057 0.02781 0.754 0.0278 1.2331v3.3078c0 0.52414 6.99e-4 0.86257 0.02174 1.1201 0.02019 0.24686 0.05443 0.33842 0.07734 0.38342 0.08716 0.171 0.22623 0.31014 0.39728 0.39728 0.04494 0.02285 0.1365 0.05714 0.38347 0.07728 0.25757 0.02114 0.596 0.02186 1.1201 0.02186h1.6363c-4.25e-4 -0.42285-0.00308-0.71185-0.021716-0.93842-0.020143-0.24699-0.054428-0.33842-0.07728-0.38342-0.087137-0.171-0.22628-0.31014-0.39728-0.39728-0.045-0.02286-0.13658-0.05714-0.38343-0.07728-0.25771-0.02114-0.59614-0.02186-1.1202-0.02186h-1.1818v-1.8181h1.217c0.4792 0 0.89248 0 1.233 0.02786 0.35943 0.02928 0.71685 0.09414 1.0609 0.26943 0.21086 0.10743 0.40571 0.24128 0.58 0.39728z" clip-rule="evenodd" fill="#fff" fill-rule="evenodd" stroke-width="1.4286"/>
</svg>
