<svg fill="none" version="1.1" viewBox="0 0 20 19.993" xmlns="http://www.w3.org/2000/svg">
 <g transform="matrix(1.0253 0 0 1.0253 -2.9904 -2.3069)" fill="#44403c">
  <path d="m12.251 2.376c0.1232-0.08213 0.268-0.12595 0.416-0.12595 0.1481 0 0.2928 0.04382 0.416 0.12595l9 6c0.0832 0.0541 0.1547 0.12416 0.2106 0.20612 0.0559 0.08195 0.0949 0.17417 0.1149 0.27132s0.0205 0.1973 0.0015 0.29466c-0.019 0.09735-0.0571 0.18997-0.1121 0.2725-0.055 0.08252-0.1258 0.15332-0.2084 0.20828-0.0826 0.05497-0.1752 0.09301-0.2726 0.11192-0.0973 0.01892-0.1975 0.01834-0.2946-0.00171-0.0972-0.02005-0.1894-0.05917-0.2713-0.11509l-8.584-5.723-8.584 5.723c-0.16552 0.10773-0.36684 0.14583-0.56027 0.10604-0.19343-0.0398-0.36337-0.15428-0.47291-0.31859-0.10954-0.16432-0.14986-0.36521-0.1122-0.55907 0.03767-0.19386 0.15027-0.36504 0.31338-0.47638z"/>
  <path d="m20.917 10.332v9.918h0.75c0.1989 0 0.3897 0.079 0.5304 0.2197 0.1406 0.1406 0.2196 0.3314 0.2196 0.5303s-0.079 0.3897-0.2196 0.5303c-0.1407 0.1407-0.3315 0.2197-0.5304 0.2197h-18c-0.19892 0-0.38968-0.079-0.53033-0.2197-0.14066-0.1406-0.21967-0.3314-0.21967-0.5303s0.07901-0.3897 0.21967-0.5303c0.14065-0.1407 0.33141-0.2197 0.53033-0.2197h0.75v-9.918c2.3e-4 -0.1786 0.06422-0.35132 0.18044-0.48698 0.11623-0.13566 0.27706-0.22538 0.45356-0.25301 2.5194-0.39478 5.0658-0.59271 7.616-0.592 2.59 0 5.134 0.202 7.616 0.592 0.1765 0.02763 0.3373 0.11735 0.4536 0.25301 0.1162 0.13566 0.1802 0.30838 0.1804 0.48698zm-7.5 2.418c0-0.1989-0.079-0.3897-0.2196-0.5303-0.1407-0.1407-0.3315-0.2197-0.5304-0.2197s-0.3897 0.079-0.5303 0.2197c-0.1407 0.1406-0.2197 0.3314-0.2197 0.5303v6.75c0 0.1989 0.079 0.3897 0.2197 0.5303 0.1406 0.1407 0.3314 0.2197 0.5303 0.2197s0.3897-0.079 0.5304-0.2197c0.1406-0.1406 0.2196-0.3314 0.2196-0.5303zm3-0.75c0.1989 0 0.3897 0.079 0.5304 0.2197 0.1406 0.1406 0.2196 0.3314 0.2196 0.5303v6.75c0 0.1989-0.079 0.3897-0.2196 0.5303-0.1407 0.1407-0.3315 0.2197-0.5304 0.2197s-0.3897-0.079-0.5303-0.2197c-0.1407-0.1406-0.2197-0.3314-0.2197-0.5303v-6.75c0-0.1989 0.079-0.3897 0.2197-0.5303 0.1406-0.1407 0.3314-0.2197 0.5303-0.2197zm-6.75 0.75c0-0.1989-0.07902-0.3897-0.21967-0.5303-0.14066-0.1407-0.33142-0.2197-0.53033-0.2197-0.19892 0-0.38968 0.079-0.53033 0.2197-0.14066 0.1406-0.21967 0.3314-0.21967 0.5303v6.75c0 0.1989 0.07901 0.3897 0.21967 0.5303 0.14065 0.1407 0.33141 0.2197 0.53033 0.2197 0.19891 0 0.38967-0.079 0.53033-0.2197 0.14065-0.1406 0.21967-0.3314 0.21967-0.5303z" clip-rule="evenodd" fill-rule="evenodd"/>
  <path d="m13.462 7.5455c-0.211 0.21098-0.4971 0.32951-0.7955 0.32951-0.2983 0-0.5845-0.11853-0.7955-0.32951-0.2109-0.21098-0.3295-0.49712-0.3295-0.79549s0.1186-0.58452 0.3295-0.7955c0.211-0.21098 0.4972-0.3295 0.7955-0.3295 0.2984 0 0.5845 0.11852 0.7955 0.3295s0.3295 0.49713 0.3295 0.7955-0.1185 0.58451-0.3295 0.79549z"/>
 </g>
</svg>
