<svg fill="none" version="1.1" viewBox="0 0 24 24" xmlns="http://www.w3.org/2000/svg">
 <path d="m5.25 6.375c0-1.094 0.4346-2.1432 1.2082-2.9168 0.77359-0.77358 1.8228-1.2082 2.9168-1.2082 1.094 0 2.1432 0.4346 2.9168 1.2082 0.7736 0.77359 1.2082 1.8228 1.2082 2.9168s-0.4346 2.1432-1.2082 2.9168c-0.7736 0.77358-1.8228 1.2082-2.9168 1.2082-1.094 0-2.1432-0.4346-2.9168-1.2082-0.77358-0.77359-1.2082-1.8228-1.2082-2.9168zm-3 12.75c0-1.8897 0.75067-3.7019 2.0869-5.0381 1.3362-1.3362 3.1485-2.0869 5.0381-2.0869 1.8897 0 3.7019 0.7507 5.0381 2.0869s2.0869 3.1484 2.0869 5.0381v3e-3l-1e-3 0.119c-0.0021 0.1272-0.0366 0.2517-0.1001 0.3619s-0.1539 0.2025-0.2629 0.2681c-2.0408 1.229-4.3787 1.8766-6.761 1.873-2.472 0-4.786-0.684-6.76-1.873-0.10915-0.0655-0.19983-0.1577-0.26351-0.2679s-0.09826-0.2348-0.10049-0.3621l-1e-3 -0.122zm16.5-11.625c0-0.19891-0.079-0.38968-0.2197-0.53033-0.1406-0.14065-0.3314-0.21967-0.5303-0.21967s-0.3897 0.07902-0.5303 0.21967c-0.1407 0.14065-0.2197 0.33142-0.2197 0.53033v2.25h-2.25c-0.1989 0-0.3897 0.07902-0.5303 0.21967-0.1407 0.14063-0.2197 0.33143-0.2197 0.53033s0.079 0.3897 0.2197 0.5303c0.1406 0.1407 0.3314 0.2197 0.5303 0.2197h2.25v2.25c0 0.1989 0.079 0.3897 0.2197 0.5303 0.1406 0.1407 0.3314 0.2197 0.5303 0.2197s0.3897-0.079 0.5303-0.2197c0.1407-0.1406 0.2197-0.3314 0.2197-0.5303v-2.25h2.25c0.1989 0 0.3897-0.079 0.5303-0.2197 0.1407-0.1406 0.2197-0.3314 0.2197-0.5303s-0.079-0.3897-0.2197-0.53033c-0.1406-0.14065-0.3314-0.21967-0.5303-0.21967h-2.25v-2.25z" fill="#44403C"/>
</svg>
