<svg fill="none" version="1.1" viewBox="0 0 20 18.866" xmlns="http://www.w3.org/2000/svg">
 <path d="m10.567 3.5374c0 0.93818-0.37272 1.8379-1.0361 2.5013-0.66338 0.66339-1.5632 1.0361-2.5013 1.0361-0.93818 0-1.8379-0.37269-2.5013-1.0361-0.66339-0.66339-1.0361-1.5631-1.0361-2.5013s0.37269-1.8379 1.0361-2.5013c0.66338-0.66339 1.5631-1.0361 2.5013-1.0361 0.93812 0 1.8379 0.37269 2.5013 1.0361 0.66338 0.66339 1.0361 1.5631 1.0361 2.5013zm-9.887 13.475c-0.23119-0.14409-0.41688-0.35067-0.53561-0.59582-0.11873-0.24514-0.16564-0.51894-0.13532-0.78967 0.21737-1.7084 1.0503-3.2791 2.3427-4.4175 1.2924-1.1383 2.9556-1.7663 4.6778-1.7663 1.7222 0 3.3854 0.62801 4.6779 1.7663 1.2923 1.1385 2.1253 2.7091 2.3427 4.4175 0.06839 0.55065-0.20281 1.0848-0.67211 1.3843-1.8946 1.214-4.0982 1.858-6.3485 1.8548-2.2505 0.0038-4.4546-0.63968-6.3496-1.8536zm16.077-12.591c0-0.23454-0.09315-0.45948-0.25906-0.62533-0.16579-0.16585-0.39076-0.25902-0.6253-0.25902-0.23453 0-0.45951 0.093175-0.62529 0.25902-0.1659 0.16585-0.25906 0.39079-0.25906 0.62533v2.3583h-2.3583c-0.23453 0-0.45951 0.093175-0.62529 0.25902-0.1659 0.16582-0.25906 0.3908-0.25906 0.62533 0 0.23453 0.09315 0.45951 0.25906 0.62529 0.16579 0.1659 0.39076 0.25906 0.62529 0.25906h2.3583v2.3583c0 0.23453 0.09315 0.45951 0.25906 0.62529 0.16579 0.1659 0.39076 0.25906 0.62529 0.25906 0.23453 0 0.45951-0.09315 0.6253-0.25906 0.1659-0.16579 0.25906-0.39076 0.25906-0.62529v-2.3583h2.3583c0.23453 0 0.45951-0.093152 0.6253-0.25906 0.1659-0.16579 0.25906-0.39076 0.25906-0.62529 0-0.23453-0.09315-0.45951-0.25906-0.62533-0.16579-0.16585-0.39076-0.25902-0.6253-0.25902h-2.3583z" fill="#44403c" stroke-width="1.1791"/>
</svg>
