<svg fill="none" version="1.1" viewBox="0 0 24 24" xmlns="http://www.w3.org/2000/svg">
 <path d="m4 9v-2c0-1.6568 1.3432-3 3-3h12.5c0.2761 0 0.5 0.22386 0.5 0.5s-0.2239 0.5-0.5 0.5h-12.5c-1.1046 0-2 0.89543-2 2s0.89543 2 2 2h12c0.5523 0 1 0.44772 1 1v9c0 0.5523-0.4477 1-1 1h-12c-1.6568 0-3-1.3431-3-3v-8zm15-1h-12c-0.55228 0-1-0.44772-1-1s0.44772-1 1-1h12c0.5523 0 1 0.44772 1 1s-0.4477 1-1 1zm-3 7.5c0.5523 0 1-0.4477 1-1s-0.4477-1-1-1-1 0.4477-1 1 0.4477 1 1 1z" clip-rule="evenodd" fill="#44403C" fill-rule="evenodd"/>
</svg>
