<svg fill="none" version="1.1" viewBox="0 0 20 12.258" xmlns="http://www.w3.org/2000/svg">
 <path d="m4.0944 2.395c3.2616-3.1933 8.5496-3.1933 11.811 0l0.3925 0.38432c0.16308 0.15967 0.16308 0.41854 0 0.57821l-1.3427 1.3147c-0.08158 0.07983-0.21375 0.07983-0.29533 0l-0.54016-0.52887c-2.2753-2.2278-5.9644-2.2278-8.2398 0l-0.57848 0.56637c-0.081541 0.07983-0.21374 0.07983-0.29528 0l-1.3428-1.3147c-0.16308-0.15967-0.16308-0.41854 0-0.57821zm14.588 2.7189 1.1951 1.1702c0.16308 0.15967 0.16308 0.4185 0 0.57816l-5.3887 5.2761c-0.16308 0.15967-0.4275 0.15967-0.59058 0l-3.8246-3.7446c-0.04075-0.03992-0.10683-0.03992-0.14758 0l-3.8245 3.7446c-0.16307 0.15967-0.42747 0.15967-0.59056 0l-5.3888-5.2762c-0.16308-0.15967-0.16308-0.4185 0-0.57816l1.1951-1.1701c0.16308-0.15967 0.42748-0.15967 0.59056 0l3.8246 3.7446c0.040767 0.03992 0.10687 0.03992 0.14764 0l3.8244-3.7446c0.16308-0.15967 0.4275-0.15967 0.59058 0l3.8247 3.7446c0.04075 0.03992 0.10683 0.03992 0.14758 0l3.8246-3.7446c0.16308-0.15967 0.4275-0.15967 0.59058 0z" fill="#3b99fc" stroke-width=".83333"/>
</svg>
