<svg fill="none" version="1.1" viewBox="0 0 20 18.098" xmlns="http://www.w3.org/2000/svg">
 <path d="m7.4911 1.448c1.115-1.9307 3.9029-1.9307 5.0169 0l7.1001 12.306c1.114 1.9307-0.27995 4.3441-2.5089 4.3441h-14.199c-2.229 0-3.622-2.4134-2.508-4.3441l7.0982-12.306zm2.5089 5.0652c0.19201 0 0.37619 0.076272 0.51192 0.21206 0.13582 0.13578 0.21209 0.31993 0.21209 0.51194v3.62c0 0.19201-0.07626 0.37619-0.21209 0.51192-0.13573 0.13582-0.31992 0.21209-0.51192 0.21209-0.19201 0-0.37619-0.07626-0.51192-0.21209-0.13582-0.13573-0.21209-0.31992-0.21209-0.51192v-3.62c0-0.19202 0.07626-0.37617 0.21209-0.51194 0.13573-0.13579 0.31992-0.21206 0.51192-0.21206zm0 7.9641c0.19201 0 0.37619-0.07626 0.51192-0.21209 0.13582-0.13573 0.21209-0.31992 0.21209-0.51192s-0.07626-0.3762-0.21209-0.51192c-0.13573-0.13582-0.31992-0.21209-0.51192-0.21209-0.19201 0-0.37619 0.07626-0.51192 0.21209-0.13582 0.13573-0.21209 0.31992-0.21209 0.51192s0.07626 0.3762 0.21209 0.51192c0.13573 0.13582 0.31992 0.21209 0.51192 0.21209z" clip-rule="evenodd" fill="#44403c" fill-rule="evenodd" stroke-width=".96534"/>
</svg>
