<svg fill="none" version="1.1" viewBox="0 0 24 24" xmlns="http://www.w3.org/2000/svg">
 <path d="m9.401 4.003c1.155-2 4.043-2 5.197 0l7.355 12.748c1.154 2-0.29 4.5-2.599 4.5h-14.709c-2.309 0-3.752-2.5-2.598-4.5l7.353-12.748h1e-3zm2.599 5.247c0.1989 0 0.3897 0.07901 0.5303 0.21967 0.1407 0.14065 0.2197 0.33141 0.2197 0.53032v3.75c0 0.1989-0.079 0.3897-0.2197 0.5303-0.1406 0.1407-0.3314 0.2197-0.5303 0.2197s-0.3897-0.079-0.5303-0.2197c-0.1407-0.1406-0.2197-0.3314-0.2197-0.5303v-3.75c0-0.19891 0.079-0.38967 0.2197-0.53032 0.1406-0.14066 0.3314-0.21967 0.5303-0.21967zm0 8.25c0.1989 0 0.3897-0.079 0.5303-0.2197 0.1407-0.1406 0.2197-0.3314 0.2197-0.5303s-0.079-0.3897-0.2197-0.5303c-0.1406-0.1407-0.3314-0.2197-0.5303-0.2197s-0.3897 0.079-0.5303 0.2197c-0.1407 0.1406-0.2197 0.3314-0.2197 0.5303s0.079 0.3897 0.2197 0.5303c0.1406 0.1407 0.3314 0.2197 0.5303 0.2197z" clip-rule="evenodd" fill="#44403C" fill-rule="evenodd"/>
</svg>
