<svg class="wireCheck" fill="none" version="1.1" viewBox="0 0 20 20" xmlns="http://www.w3.org/2000/svg">
 <path d="m18.125 10c0 4.4874-3.6376 8.125-8.125 8.125-4.4873 0-8.125-3.6376-8.125-8.125 0-4.4873 3.6377-8.125 8.125-8.125 4.4874 0 8.125 3.6377 8.125 8.125zm1.875 0c0 5.5229-4.4771 10-10 10-5.5228 0-10-4.4771-10-10 0-5.5228 4.4772-10 10-10 5.5229 0 10 4.4772 10 10zm-4.9621-1.8371c0.36612-0.36612 0.36612-0.95968 0-1.3258s-0.95962-0.36611-1.3258 0l-4.9621 4.962-1.8371-1.837c-0.36608-0.36612-0.95968-0.36612-1.3258 0-0.36611 0.36612-0.36611 0.95962 0 1.3258l2.5 2.5c0.36612 0.36612 0.95962 0.36612 1.3258 0z" clip-rule="evenodd" fill="#000" fill-rule="evenodd" stroke-width="1.25"/>
</svg>
