<svg fill="none" version="1.1" viewBox="0 0 20 17.714" xmlns="http://www.w3.org/2000/svg">
 <g transform="matrix(1.1429 0 0 1.1429 -3.7143 -5.4286)" clip-rule="evenodd" fill="#44403c" fill-rule="evenodd">
  <path d="m7.693 6.25c-0.10421 0-0.19749 0.06464-0.23408 0.16222l-2.3767 6.3378h1.9178c0.55083 0 1.0695 0.2593 1.4 0.7l0.6 0.8c0.23607 0.3148 0.60655 0.5 1 0.5h4c0.3934 0 0.7639-0.1852 1-0.5l0.6-0.8c0.3305-0.4407 0.8492-0.7 1.4-0.7h1.9177l-2.3766-6.3378c-0.0366-0.09758-0.1299-0.16222-0.2341-0.16222h-1.307c-0.4142 0-0.75-0.33579-0.75-0.75s0.3358-0.75 0.75-0.75h1.307c0.7295 0 1.3824 0.4525 1.6386 1.1355l2.8044 7.4785v4.136c0 1.5188-1.2312 2.75-2.75 2.75h-12c-1.5188 0-2.75-1.2312-2.75-2.75v-4.136l2.8044-7.4785c0.25614-0.68303 0.9091-1.1355 1.6386-1.1355h1.307c0.41421 0 0.75 0.33579 0.75 0.75s-0.33579 0.75-0.75 0.75z"/>
  <path d="m12 13.25c0.4142 0 0.75-0.3358 0.75-0.75v-4.1893l1.2197 1.2197c0.2929 0.29289 0.7677 0.29289 1.0606 0s0.2929-0.76777 0-1.0607l-2.5-2.5c-0.2929-0.29289-0.7677-0.29289-1.0606 0l-2.5 2.5c-0.29289 0.29289-0.29289 0.76777 0 1.0607s0.76777 0.29289 1.0606 0l1.2197-1.2197v4.1893c0 0.4142 0.3358 0.75 0.75 0.75z"/>
 </g>
</svg>
